<?xml version="1.0" encoding="utf-8"?>
<!-- Generator: Adobe Illustrator 27.2.0, SVG Export Plug-In . SVG Version: 6.00 Build 0)  -->
<svg version="1.1" id="Warstwa_1" xmlns="http://www.w3.org/2000/svg" xmlns:xlink="http://www.w3.org/1999/xlink" x="0px" y="0px"
	 viewBox="0 0 1920 792" style="enable-background:new 0 0 1920 792;" xml:space="preserve">
<style type="text/css">
	.st0{fill:#0085E4;}
	.st1{fill:#8FD0FF;}
	.st2{fill:#3FA9F5;}
</style>
<path class="st0" d="M1994.7-345.7H158H-60.4C-90.2,24.2-122,768.2-10.8,784.7c139,20.6,734.7-56.8,1181.4-113.6
	c357.4-45.4,698.3,18.9,824,56.8V-345.7z"/>
<rect x="-30.4" y="-145.2" class="st1" width="1968.2" height="529.6"/>
<path class="st2" d="M1937.8,47.1l-143.2,24.3V163l-104.2,12.3v-56.8l-33.9-7.4l-12,7.4v60.8l-10.4,0.9v-19.9l-33.9-7.4l-12,7.4
	v23.8l-25.8,2.2v48.5l-73.4,0v-38l-61.5,2.9v-80.1l-23.5-14.4l-62.4,13.6v86.4h-20.8v128.7h-51.4V262h-37.9v23.5h-32.4v-73.3h-23.5
	v28.9h-13.5v19.6h-32.9V181h-50.6v-69.5h-69.2v195.9H978v-36.9h-0.3l-9.3-129.7h-7.7v-5.2h-16l-1.5-39.7h-1.6l-1.5,39.7h-16v5.2
	h-7.7L907,270.6h-0.3v36.9h-9.1l-9.1-108.9l-6.3-3l-1.6-51.7h-1.8l-1.6,51.7l-6.3,3l-9.1,108.9h-92.4v-42.9H740v29.1h-16.5v58.9
	h-26.8v-67.9h-7.3v-52h-42v43.5h-30.5v-10.5h-27.4v32.9h-57.1v-76.3l-22.1-1.9c-2.1-44-9.9-83.1-21.3-111.4c-1.6-4-6.6-4-8.2,0
	c-11,27.4-18.6,64.8-21,107.1l-70.4-5.1v12.2l-25.7,0v-21.8l-41.8-4.1v-58.3l-12-7.4l-33.9,7.4v56.3l-173.9-12.8V76.3L-12.8,47.1
	v361.7h1950.6V47.1z"/>
<path class="st2" d="M704.1,78.2c-1.6,0-3.1,0.3-4.5,0.9c0-0.3,0-0.6,0-0.9c0-13.9-10.6-25.1-23.7-25.1c-8.3,0-15.6,4.5-19.8,11.3
	c-3.6-3.1-8.2-5-13.2-5c-0.1,0-0.3,0-0.4,0c-3.6-15.6-16.8-27.2-32.6-27.2c-18.5,0-33.6,15.9-33.6,35.5c0,0.2,0,0.5,0,0.7
	c-8.1,0.3-14.8,6.8-15.8,15.2c-1.8-1.4-3.9-2.3-6.3-2.3c-5.1,0-9.4,4-10.2,9.2h172C715.8,83.7,710.6,78.2,704.1,78.2L704.1,78.2z"/>
<path class="st0" d="M1594.4,404.7c0-55.4-29.4-100.3-65.6-100.3c-36.2,0-65.6,44.9-65.6,100.3c0,5.5,0.3,10.9,0.9,16.2h129.5
	C1594.1,415.6,1594.4,410.2,1594.4,404.7L1594.4,404.7z"/>
<path class="st0" d="M1528.9,344.2c-0.6,0-1.2-0.2-1.7-0.5l-25-19.7c-0.9-0.7-0.9-1.9,0-2.6c0.9-0.7,2.4-0.7,3.3,0l25,19.7
	c0.9,0.7,0.9,1.9,0,2.6C1530.1,344,1529.5,344.2,1528.9,344.2z"/>
<path class="st0" d="M1528.9,344.2c-0.6,0-1.2-0.2-1.7-0.5c-0.9-0.7-0.9-1.9,0-2.6l25-19.7c0.9-0.7,2.4-0.7,3.3,0
	c0.9,0.7,0.9,1.9,0,2.6l-25,19.7C1530.1,344,1529.5,344.2,1528.9,344.2z"/>
<path class="st0" d="M1528.9,370.3c-0.6,0-1.2-0.2-1.7-0.5l-39.3-30.9c-0.9-0.7-0.9-1.9,0-2.6c0.9-0.7,2.4-0.7,3.3,0l39.2,30.9
	c0.9,0.7,0.9,1.9,0,2.6C1530.1,370.1,1529.5,370.3,1528.9,370.3z"/>
<path class="st0" d="M1528.9,370.3c-0.6,0-1.2-0.2-1.7-0.5c-0.9-0.7-0.9-1.9,0-2.6l39.2-30.9c0.9-0.7,2.4-0.7,3.3,0
	c0.9,0.7,0.9,1.9,0,2.6l-39.2,30.9C1530.1,370.1,1529.5,370.3,1528.9,370.3z"/>
<path class="st0" d="M1528.8,422.4c-1.3,0-2.4-0.8-2.4-1.9V316.2c0-1,1.1-1.9,2.4-1.9s2.3,0.8,2.3,1.9v104.3
	C1531.2,421.6,1530.1,422.4,1528.8,422.4z"/>
<path class="st0" d="M1290.3,410.4c0-35.9,19-64.9,42.5-64.9c23.5,0,42.5,29.1,42.5,64.9c0,3.6-0.2,7.1-0.6,10.5h-83.9
	C1290.5,417.5,1290.3,414,1290.3,410.4z"/>
<path class="st0" d="M1439.2,411.5c0-32.1,17-58.2,38-58.2c21,0,38,26,38,58.2c0,3.2-0.2,6.3-0.5,9.4h-75.1
	C1439.4,417.8,1439.2,414.7,1439.2,411.5L1439.2,411.5z"/>
<path class="st0" d="M1680.4,422.4H1530l75.2-151.7L1680.4,422.4z"/>
<path class="st0" d="M1497.2,419.4c0-5,5.2-9.1,11.6-9.1c0.6,0,1.1,0,1.7,0.1c0,0,0-0.1,0-0.1c0-10.1,10.4-18.3,23.2-18.3
	c11.3,0,20.6,6.3,22.7,14.7c0.7-0.1,1.4-0.1,2.1-0.1c2.6,0,5,0.6,7,1.5c2.8-5.6,9.7-9.6,17.8-9.6c10.6,0,19.1,6.7,19.1,15
	c0,0.5,0,1.1-0.1,1.6c1.6-1,3.6-1.6,5.9-1.6c5.2,0,9.5,3.3,9.5,7.4h-120.4C1497.3,420.4,1497.2,419.9,1497.2,419.4L1497.2,419.4z"/>
<path class="st0" d="M1354.1,418.7c0-7.3,7.5-13.2,16.8-13.2c0.8,0,1.6,0.1,2.4,0.2c0-0.1,0-0.1,0-0.2c0-14.6,15.1-26.5,33.6-26.5
	c16.3,0,29.9,9.2,33,21.3c1-0.1,2-0.2,3.1-0.2c3.7,0,7.2,0.8,10.2,2.2c4-8.2,14.1-14,25.9-14c15.3,0,27.7,9.8,27.7,21.8
	c0,0.8-0.1,1.5-0.2,2.3c2.4-1.4,5.3-2.3,8.5-2.3c7.6,0,13.7,4.8,13.8,10.7h-174.6C1354.2,420.2,1354.1,419.4,1354.1,418.7
	L1354.1,418.7z"/>
<path class="st0" d="M1803.8,420.9h-74.2l37.1-89.6L1803.8,420.9z"/>
<path class="st0" d="M1768.3,461.3H1620l74.2-223.2L1768.3,461.3z"/>
<path class="st0" d="M1694.2,463.6c-1.3,0-2.4-1-2.4-2.3V307.1c0-1.3,1.1-2.3,2.4-2.3c1.3,0,2.3,1,2.3,2.3v154.3
	C1696.5,462.6,1695.5,463.6,1694.2,463.6z"/>
</svg>
