<svg width="360" height="374" viewBox="0 0 360 374" fill="none" xmlns="http://www.w3.org/2000/svg">
<path d="M368 -66H-1.9996H-45.9996C-51.9996 77.3333 -58.3996 365.6 -35.9996 372C-7.9996 380 112 350 202 328C274 310.4 342.667 335.333 368 350V-66Z" fill="#0085E4"/>
<rect width="360" height="198" fill="#8FD0FF"/>
<path d="M507 27L451.509 40.3713V90.7438L411.131 97.487V66.2133L398.005 62.1545L393.343 66.2133V99.6649L389.316 100.158V89.223L376.19 85.1656L371.529 89.223V102.336L361.519 103.561V130.262L333.083 130.258V109.355L309.257 110.94V66.8772L300.149 58.9486L275.957 66.4282V113.962H267.894V184.761H247.96V145.25H233.285V158.2H220.745V117.849H211.644V133.75H206.429V144.558H193.66V100.655H174.039V62.4338H147.226V170.246H134.996V149.965H134.87L131.281 78.6045H128.292V75.7449H122.091L121.493 53.9193H120.86L120.262 75.7449H114.06V78.6045H111.071L107.482 149.965H107.357V170.246H103.844L100.312 110.327L97.8736 108.69L97.2537 80.2239H96.5421L95.9222 108.69L93.484 110.327L89.9517 170.246H54.1569V146.622H42.7706V162.627H36.372V195.044H25.995V157.664H23.1676V129.043H6.88331V152.974H-4.93675V147.202H-15.5378V165.295H-37.6867V123.329L-46.2531 122.283C-47.0847 98.0578 -50.103 76.5662 -54.5001 60.9841C-55.1238 58.7747 -57.0535 58.7747 -57.6772 60.9841C-61.9288 76.0515 -64.8913 96.6451 -65.8344 119.892L-93.11 117.11V123.84L-103.084 123.844V111.851L-119.28 109.602V77.5176L-123.942 73.4602L-137.068 77.5176V108.494L-204.462 101.443V43.0448L-249 27V226H507V27Z" fill="#3FA9F5"/>
<path d="M131.457 43.3263C130.3 43.3263 129.199 43.5639 128.193 43.9945C128.2 43.7718 128.21 43.5515 128.21 43.3263C128.21 33.5639 120.552 25.6499 111.106 25.6499C105.125 25.6499 99.8639 28.8249 96.8062 33.6331C94.2225 31.4307 90.9134 30.1092 87.3025 30.1092C87.2043 30.1092 87.1062 30.1142 87.008 30.1167C84.4459 19.149 74.8968 11 63.4991 11C50.1404 11 39.3078 22.1928 39.3078 36.0014C39.3078 36.1647 39.3173 36.3256 39.3197 36.4889C33.4509 36.677 28.6596 41.2674 27.9292 47.1744C26.665 46.1623 25.0846 45.556 23.363 45.556C19.6587 45.556 16.5914 48.3449 16 52H140C139.916 47.1942 136.123 43.3263 131.452 43.3263H131.457Z" fill="#3FA9F5"/>
<g clip-path="url(#clip0_330_1882)">
<path d="M250.978 217.362C250.978 187.648 235.221 163.559 215.782 163.559C196.343 163.559 180.586 187.646 180.586 217.362C180.586 220.323 180.744 223.227 181.046 226.059H250.521C250.821 223.227 250.982 220.323 250.982 217.362H250.978Z" fill="#0085E4"/>
<path d="M215.836 184.928C215.514 184.928 215.189 184.832 214.944 184.638L201.545 174.09C201.053 173.703 201.053 173.075 201.545 172.685C202.037 172.298 202.834 172.298 203.329 172.685L216.728 183.233C217.22 183.62 217.22 184.248 216.728 184.638C216.482 184.832 216.16 184.928 215.836 184.928Z" fill="#0085E4"/>
<path d="M215.836 184.928C215.514 184.928 215.19 184.832 214.944 184.638C214.452 184.251 214.452 183.623 214.944 183.233L228.343 172.685C228.835 172.298 229.632 172.298 230.127 172.685C230.619 173.072 230.619 173.7 230.127 174.09L216.728 184.638C216.482 184.832 216.161 184.928 215.836 184.928Z" fill="#0085E4"/>
<path d="M215.836 198.929C215.515 198.929 215.19 198.832 214.944 198.638L193.888 182.061C193.396 181.674 193.396 181.046 193.888 180.657C194.379 180.269 195.177 180.269 195.672 180.657L216.728 197.234C217.22 197.621 217.22 198.249 216.728 198.638C216.482 198.832 216.161 198.929 215.836 198.929Z" fill="#0085E4"/>
<path d="M215.836 198.929C215.514 198.929 215.19 198.832 214.944 198.638C214.452 198.251 214.452 197.623 214.944 197.234L236.001 180.657C236.492 180.269 237.29 180.269 237.785 180.657C238.277 181.044 238.277 181.672 237.785 182.061L216.728 198.638C216.482 198.832 216.161 198.929 215.836 198.929Z" fill="#0085E4"/>
<path d="M215.783 226.876C215.086 226.876 214.522 226.432 214.522 225.883V169.908C214.522 169.359 215.086 168.915 215.783 168.915C216.479 168.915 217.044 169.359 217.044 169.908V225.883C217.044 226.432 216.479 226.876 215.783 226.876Z" fill="#0085E4"/>
<path d="M87.7812 220.425C87.7812 201.178 97.9896 185.576 110.578 185.576C123.167 185.576 133.375 201.178 133.375 220.425C133.375 222.344 133.271 224.225 133.078 226.057H88.0776C87.8821 224.223 87.7812 222.341 87.7812 220.425Z" fill="#0085E4"/>
<path d="M167.695 221.013C167.695 203.779 176.834 189.808 188.108 189.808C199.382 189.808 208.521 203.779 208.521 221.013C208.521 222.731 208.43 224.414 208.253 226.057H167.959C167.786 224.414 167.691 222.731 167.691 221.013H167.695Z" fill="#0085E4"/>
<path d="M296.908 216.691H216.773L256.843 145.104L296.908 216.691Z" fill="#0085E4"/>
<path d="M198.812 225.255C198.812 222.549 201.595 220.358 205.032 220.358C205.338 220.358 205.637 220.38 205.93 220.415C205.93 220.395 205.93 220.378 205.93 220.358C205.93 214.947 211.501 210.562 218.374 210.562C224.414 210.562 229.446 213.949 230.578 218.444C230.95 218.4 231.325 218.37 231.713 218.37C233.09 218.37 234.377 218.668 235.486 219.179C236.968 216.156 240.691 214.011 245.052 214.011C250.714 214.011 255.304 217.625 255.304 222.083C255.304 222.371 255.285 222.656 255.247 222.937C256.117 222.403 257.205 222.083 258.394 222.083C261.199 222.083 263.476 223.857 263.517 226.059H198.909C198.856 225.796 198.818 225.53 198.818 225.255H198.812Z" fill="#0085E4"/>
<path d="M122.041 224.892C122.041 220.968 126.08 217.789 131.064 217.789C131.508 217.789 131.94 217.823 132.366 217.871C132.366 217.843 132.366 217.816 132.366 217.789C132.366 209.943 140.446 203.582 150.412 203.582C159.17 203.582 166.471 208.496 168.111 215.014C168.65 214.949 169.195 214.905 169.756 214.905C171.755 214.905 173.622 215.337 175.229 216.079C177.376 211.696 182.777 208.583 189.101 208.583C197.314 208.583 203.969 213.823 203.969 220.288C203.969 220.705 203.941 221.12 203.887 221.527C205.148 220.755 206.728 220.288 208.449 220.288C212.519 220.288 215.817 222.862 215.877 226.054H122.177C122.098 225.674 122.044 225.287 122.044 224.89L122.041 224.892Z" fill="#0085E4"/>
<path d="M363.333 226.057H323.53L343.43 177.979L363.333 226.057Z" fill="#0085E4"/>
<path d="M344.293 247.763H264.688L304.491 128L344.293 247.763Z" fill="#0085E4"/>
<path d="M304.49 249C303.794 249 303.229 248.447 303.229 247.764V164.985C303.229 164.301 303.794 163.748 304.49 163.748C305.187 163.748 305.751 164.301 305.751 164.985V247.764C305.751 248.447 305.187 249 304.49 249Z" fill="#0085E4"/>
</g>
<defs>
<clipPath id="clip0_330_1882">
<rect width="756" height="199" fill="white" transform="translate(-335 38)"/>
</clipPath>
</defs>
</svg>
