<svg width="327" height="220" viewBox="0 0 327 220" fill="none" xmlns="http://www.w3.org/2000/svg">
<g filter="url(#filter0_d_380_1740)">
<rect x="4" width="237" height="80" rx="38" fill="white"/>
<rect x="74" y="97" width="249" height="87" rx="38" fill="white"/>
<rect x="41" y="49" width="261" height="87" rx="38" fill="white"/>
<path d="M237 211.75L263.847 181L237 181L237 211.75Z" fill="white"/>
</g>
<path d="M55.508 40.904C56.732 41.336 57.644 42.056 58.244 43.064C58.844 44.048 59.144 45.188 59.144 46.484C59.144 48.476 58.544 50.06 57.344 51.236C56.168 52.412 54.392 53 52.016 53L44.024 53L44.024 28.952L52.196 28.952C54.332 28.952 55.976 29.528 57.128 30.68C58.28 31.808 58.856 33.32 58.856 35.216C58.856 36.488 58.592 37.616 58.064 38.6C57.536 39.584 56.684 40.304 55.508 40.76L55.508 40.904ZM46.472 39.716L51.8 39.716C53.216 39.716 54.308 39.344 55.076 38.6C55.868 37.856 56.264 36.812 56.264 35.468C56.264 34.124 55.868 33.08 55.076 32.336C54.308 31.568 53.216 31.184 51.8 31.184L46.472 31.184L46.472 39.716ZM51.656 50.768C53.24 50.768 54.452 50.396 55.292 49.652C56.156 48.884 56.588 47.78 56.588 46.34C56.588 44.9 56.156 43.808 55.292 43.064C54.452 42.296 53.24 41.912 51.656 41.912L46.472 41.912L46.472 50.768L51.656 50.768ZM63.7039 28.952L66.0439 28.952L66.0439 32.552L63.7039 32.552L63.7039 28.952ZM63.7039 36.116L66.0439 36.116L66.0439 53L63.7039 53L63.7039 36.116ZM84.2911 44.216C84.2911 44.576 84.2791 44.828 84.2551 44.972L72.6991 44.972C72.7471 47.06 73.1671 48.644 73.9591 49.724C74.7751 50.804 75.9151 51.344 77.3791 51.344C79.4191 51.344 80.8111 50.456 81.5551 48.68L84.0391 48.68C83.5591 50.168 82.7431 51.332 81.5911 52.172C80.4391 53.012 79.0351 53.432 77.3791 53.432C75.2191 53.432 73.5031 52.64 72.2311 51.056C70.9831 49.472 70.3591 47.3 70.3591 44.54C70.3591 41.78 70.9831 39.62 72.2311 38.06C73.4791 36.476 75.2071 35.684 77.4151 35.684C79.5271 35.684 81.1951 36.452 82.4191 37.988C83.6671 39.5 84.2911 41.576 84.2911 44.216ZM77.4151 37.772C76.0471 37.772 74.9671 38.216 74.1751 39.104C73.4071 39.992 72.9391 41.3 72.7711 43.028L81.9511 43.028C81.8311 41.3 81.3751 39.992 80.5831 39.104C79.8151 38.216 78.7591 37.772 77.4151 37.772ZM95.3642 35.9C95.9162 35.9 96.3362 35.948 96.6242 36.044L96.6242 38.204C96.3122 38.156 95.9162 38.132 95.4362 38.132C92.3882 38.132 90.8642 40.004 90.8642 43.748L90.8642 53L88.5242 53L88.5242 36.116L90.7202 36.116L90.7202 38.636L90.9002 38.636C91.3322 37.724 91.9442 37.04 92.7362 36.584C93.5282 36.128 94.4042 35.9 95.3642 35.9ZM109.919 50.948L109.919 53L98.6515 53L98.6515 50.408L107.291 38.348L107.291 38.132L99.1195 38.132L99.1195 36.116L109.775 36.116L109.775 38.672L101.135 50.732L101.135 50.948L109.919 50.948ZM126.296 53.432C124.448 53.432 123.092 52.892 122.228 51.812C121.388 50.708 120.968 49.196 120.968 47.276L120.968 36.116L123.308 36.116L123.308 47.096C123.308 49.856 124.496 51.236 126.872 51.236C128.288 51.236 129.368 50.732 130.112 49.724C130.856 48.692 131.228 47.264 131.228 45.44L131.228 36.116L133.568 36.116L133.568 53L131.336 53L131.336 50.588L131.156 50.588C130.724 51.524 130.076 52.232 129.212 52.712C128.348 53.192 127.376 53.432 126.296 53.432ZM152.401 28.952L152.401 53L150.205 53L150.205 50.192L149.989 50.192C149.485 51.224 148.765 52.028 147.829 52.604C146.917 53.156 145.873 53.432 144.697 53.432C142.561 53.432 140.893 52.652 139.693 51.092C138.517 49.508 137.929 47.324 137.929 44.54C137.929 41.78 138.517 39.62 139.693 38.06C140.893 36.476 142.561 35.684 144.697 35.684C145.825 35.684 146.833 35.948 147.721 36.476C148.633 36.98 149.353 37.7 149.881 38.636L150.061 38.636L150.061 28.952L152.401 28.952ZM145.201 51.236C146.785 51.236 147.985 50.648 148.801 49.472C149.641 48.296 150.061 46.652 150.061 44.54C150.061 42.428 149.641 40.784 148.801 39.608C147.985 38.432 146.785 37.844 145.201 37.844C143.593 37.844 142.381 38.432 141.565 39.608C140.749 40.76 140.341 42.404 140.341 44.54C140.341 46.676 140.749 48.332 141.565 49.508C142.381 50.66 143.593 51.236 145.201 51.236ZM167.681 50.948L167.681 53L156.413 53L156.413 50.408L165.053 38.348L165.053 38.132L156.881 38.132L156.881 36.116L167.537 36.116L167.537 38.672L158.897 50.732L158.897 50.948L167.681 50.948ZM171.704 28.952L174.044 28.952L174.044 32.552L171.704 32.552L171.704 28.952ZM171.704 36.116L174.044 36.116L174.044 53L171.704 53L171.704 36.116ZM191.751 51.128C192.015 51.128 192.327 51.068 192.687 50.948L192.687 52.892C192.207 53.108 191.679 53.216 191.103 53.216C190.359 53.216 189.747 53 189.267 52.568C188.787 52.112 188.547 51.452 188.547 50.588L188.367 50.588C187.887 51.428 187.191 52.1 186.279 52.604C185.367 53.084 184.371 53.324 183.291 53.324C181.707 53.324 180.483 52.892 179.619 52.028C178.755 51.14 178.323 49.94 178.323 48.428C178.323 46.556 179.079 45.128 180.591 44.144C182.103 43.16 184.287 42.668 187.143 42.668L188.439 42.668L188.439 41.804C188.439 39.068 187.215 37.7 184.767 37.7C183.711 37.7 182.871 37.94 182.247 38.42C181.647 38.9 181.275 39.596 181.131 40.508L178.827 40.508C178.995 38.948 179.607 37.76 180.663 36.944C181.719 36.104 183.099 35.684 184.803 35.684C186.771 35.684 188.259 36.248 189.267 37.376C190.275 38.48 190.779 39.98 190.779 41.876L190.779 49.976C190.779 50.336 190.863 50.624 191.031 50.84C191.199 51.032 191.439 51.128 191.751 51.128ZM183.723 51.38C185.139 51.38 186.279 50.864 187.143 49.832C188.007 48.776 188.439 47.444 188.439 45.836L188.439 44.612L187.143 44.612C182.775 44.612 180.591 45.848 180.591 48.32C180.591 49.256 180.879 50 181.455 50.552C182.031 51.104 182.787 51.38 183.723 51.38ZM199.453 42.092L199.453 49.688C199.453 50.144 199.561 50.504 199.777 50.768C199.993 51.008 200.293 51.128 200.677 51.128C201.133 51.128 201.577 51.068 202.009 50.948L202.009 52.892C201.457 53.108 200.869 53.216 200.245 53.216C199.261 53.216 198.493 52.952 197.941 52.424C197.389 51.872 197.113 51.056 197.113 49.976L197.113 43.712L194.665 45.548L194.665 42.884L197.113 41.048L197.113 28.952L199.453 28.952L199.453 39.428L202.477 37.124L202.477 39.788L199.453 42.092ZM93.3688 86.116L88.4008 103L86.0248 103L82.2088 90.148L81.9928 90.148L78.2128 103L75.8007 103L70.8327 86.116L73.2088 86.116L76.9168 99.076L77.1328 99.076L80.8768 86.116L83.3608 86.116L87.1048 99.076L87.3208 99.076L90.9928 86.116L93.3688 86.116ZM103.125 94.54C103.125 91.78 103.761 89.62 105.033 88.06C106.305 86.476 108.045 85.684 110.253 85.684C112.029 85.684 113.493 86.188 114.645 87.196C115.821 88.204 116.553 89.572 116.841 91.3L114.429 91.3C114.213 90.172 113.733 89.32 112.989 88.744C112.269 88.144 111.357 87.844 110.253 87.844C108.741 87.844 107.577 88.432 106.761 89.608C105.945 90.76 105.537 92.404 105.537 94.54C105.537 96.676 105.945 98.332 106.761 99.508C107.577 100.66 108.741 101.236 110.253 101.236C111.357 101.236 112.269 100.948 112.989 100.372C113.709 99.772 114.189 98.92 114.429 97.816L116.841 97.816C116.553 99.544 115.821 100.912 114.645 101.92C113.493 102.928 112.029 103.432 110.253 103.432C108.045 103.432 106.305 102.64 105.033 101.056C103.761 99.472 103.125 97.3 103.125 94.54ZM127.025 103.432C124.793 103.432 123.017 102.64 121.697 101.056C120.401 99.448 119.753 97.276 119.753 94.54C119.753 91.828 120.401 89.68 121.697 88.096C122.993 86.488 124.769 85.684 127.025 85.684C129.281 85.684 131.057 86.476 132.353 88.06C133.649 89.644 134.297 91.804 134.297 94.54C134.297 97.276 133.649 99.448 132.353 101.056C131.057 102.64 129.281 103.432 127.025 103.432ZM127.025 101.236C128.633 101.236 129.845 100.66 130.661 99.508C131.477 98.332 131.885 96.676 131.885 94.54C131.885 92.404 131.465 90.76 130.625 89.608C129.809 88.432 128.609 87.844 127.025 87.844C125.441 87.844 124.241 88.432 123.425 89.608C122.609 90.784 122.201 92.428 122.201 94.54C122.201 96.676 122.609 98.332 123.425 99.508C124.241 100.66 125.441 101.236 127.025 101.236ZM152.085 78.952L152.085 103L149.889 103L149.889 100.192L149.673 100.192C149.169 101.224 148.449 102.028 147.513 102.604C146.601 103.156 145.557 103.432 144.381 103.432C142.245 103.432 140.577 102.652 139.377 101.092C138.201 99.508 137.613 97.324 137.613 94.54C137.613 91.78 138.201 89.62 139.377 88.06C140.577 86.476 142.245 85.684 144.381 85.684C145.509 85.684 146.517 85.948 147.405 86.476C148.317 86.98 149.037 87.7 149.565 88.636L149.745 88.636L149.745 78.952L152.085 78.952ZM144.885 101.236C146.469 101.236 147.669 100.648 148.485 99.472C149.325 98.296 149.745 96.652 149.745 94.54C149.745 92.428 149.325 90.784 148.485 89.608C147.669 88.432 146.469 87.844 144.885 87.844C143.277 87.844 142.065 88.432 141.249 89.608C140.433 90.76 140.025 92.404 140.025 94.54C140.025 96.676 140.433 98.332 141.249 99.508C142.065 100.66 143.277 101.236 144.885 101.236ZM167.365 100.948L167.365 103L156.097 103L156.097 100.408L164.737 88.348L164.737 88.132L156.565 88.132L156.565 86.116L167.221 86.116L167.221 88.672L158.581 100.732L158.581 100.948L167.365 100.948ZM171.388 78.952L173.727 78.952L173.727 82.552L171.388 82.552L171.388 78.952ZM171.388 86.116L173.727 86.116L173.727 103L171.388 103L171.388 86.116ZM191.975 94.216C191.975 94.576 191.963 94.828 191.939 94.972L180.383 94.972C180.431 97.06 180.851 98.644 181.643 99.724C182.459 100.804 183.599 101.344 185.063 101.344C187.103 101.344 188.495 100.456 189.239 98.68L191.723 98.68C191.243 100.168 190.427 101.332 189.275 102.172C188.123 103.012 186.719 103.432 185.063 103.432C182.903 103.432 181.187 102.64 179.915 101.056C178.667 99.472 178.043 97.3 178.043 94.54C178.043 91.78 178.667 89.62 179.915 88.06C181.163 86.476 182.891 85.684 185.099 85.684C187.211 85.684 188.879 86.452 190.103 87.988C191.351 89.5 191.975 91.576 191.975 94.216ZM185.099 87.772C183.731 87.772 182.651 88.216 181.859 89.104C181.091 89.992 180.623 91.3 180.455 93.028L189.635 93.028C189.515 91.3 189.059 89.992 188.267 89.104C187.499 88.216 186.443 87.772 185.099 87.772ZM203.48 85.684C205.304 85.684 206.636 86.224 207.476 87.304C208.34 88.384 208.772 89.884 208.772 91.804L208.772 103L206.432 103L206.432 91.984C206.432 89.224 205.244 87.844 202.868 87.844C201.476 87.844 200.408 88.36 199.664 89.392C198.92 90.4 198.548 91.816 198.548 93.64L198.548 103L196.208 103L196.208 86.116L198.404 86.116L198.404 88.528L198.584 88.528C199.016 87.592 199.664 86.884 200.528 86.404C201.392 85.924 202.376 85.684 203.48 85.684ZM221.269 85.684C223.093 85.684 224.425 86.224 225.265 87.304C226.129 88.384 226.561 89.884 226.561 91.804L226.561 103L224.221 103L224.221 91.984C224.221 89.224 223.033 87.844 220.657 87.844C219.265 87.844 218.197 88.36 217.453 89.392C216.709 90.4 216.337 91.816 216.337 93.64L216.337 103L213.997 103L213.997 86.116L216.193 86.116L216.193 88.528L216.373 88.528C216.805 87.592 217.453 86.884 218.317 86.404C219.181 85.924 220.165 85.684 221.269 85.684ZM244.86 86.116L237.192 106.132C236.76 107.26 236.16 108.112 235.392 108.688C234.648 109.264 233.772 109.552 232.764 109.552C231.948 109.552 231.264 109.42 230.712 109.156L230.712 107.176C231.216 107.344 231.78 107.428 232.404 107.428C233.028 107.428 233.544 107.272 233.952 106.96C234.384 106.672 234.756 106.132 235.068 105.34L236.076 102.712L229.596 86.116L232.116 86.116L237.156 99.58L237.372 99.58L242.34 86.116L244.86 86.116ZM246.914 94.54C246.914 91.78 247.55 89.62 248.822 88.06C250.094 86.476 251.834 85.684 254.042 85.684C255.818 85.684 257.282 86.188 258.434 87.196C259.61 88.204 260.342 89.572 260.63 91.3L258.218 91.3C258.002 90.172 257.522 89.32 256.778 88.744C256.058 88.144 255.146 87.844 254.042 87.844C252.53 87.844 251.366 88.432 250.55 89.608C249.734 90.76 249.326 92.404 249.326 94.54C249.326 96.676 249.734 98.332 250.55 99.508C251.366 100.66 252.53 101.236 254.042 101.236C255.146 101.236 256.058 100.948 256.778 100.372C257.498 99.772 257.978 98.92 258.218 97.816L260.63 97.816C260.342 99.544 259.61 100.912 258.434 101.92C257.282 102.928 255.818 103.432 254.042 103.432C251.834 103.432 250.094 102.64 248.822 101.056C247.55 99.472 246.914 97.3 246.914 94.54ZM271.894 85.684C273.718 85.684 275.05 86.224 275.89 87.304C276.754 88.384 277.186 89.884 277.186 91.804L277.186 103L274.846 103L274.846 91.984C274.846 89.224 273.658 87.844 271.282 87.844C269.89 87.844 268.822 88.36 268.078 89.392C267.334 90.4 266.962 91.816 266.962 93.64L266.962 103L264.622 103L264.622 78.952L266.962 78.952L266.962 88.312L267.142 88.312C267.55 87.472 268.174 86.824 269.014 86.368C269.854 85.912 270.814 85.684 271.894 85.684ZM144.064 136.116L139.096 153L136.72 153L132.904 140.148L132.688 140.148L128.908 153L126.496 153L121.528 136.116L123.904 136.116L127.612 149.076L127.828 149.076L131.572 136.116L134.056 136.116L137.8 149.076L138.016 149.076L141.688 136.116L144.064 136.116ZM160.942 136.116L153.274 156.132C152.842 157.26 152.242 158.112 151.474 158.688C150.73 159.264 149.854 159.552 148.846 159.552C148.03 159.552 147.346 159.42 146.794 159.156L146.794 157.176C147.298 157.344 147.862 157.428 148.486 157.428C149.11 157.428 149.626 157.272 150.034 156.96C150.466 156.672 150.838 156.132 151.15 155.34L152.158 152.712L145.678 136.116L148.198 136.116L153.238 149.58L153.454 149.58L158.422 136.116L160.942 136.116ZM174.255 150.948L174.255 153L162.987 153L162.987 150.408L171.627 138.348L171.627 138.132L163.455 138.132L163.455 136.116L174.111 136.116L174.111 138.672L165.471 150.732L165.471 150.948L174.255 150.948ZM198.978 136.116L194.01 153L191.634 153L187.818 140.148L187.602 140.148L183.822 153L181.41 153L176.442 136.116L178.818 136.116L182.526 149.076L182.742 149.076L186.486 136.116L188.97 136.116L192.714 149.076L192.93 149.076L196.602 136.116L198.978 136.116ZM214.532 151.128C214.796 151.128 215.108 151.068 215.468 150.948L215.468 152.892C214.988 153.108 214.46 153.216 213.884 153.216C213.14 153.216 212.528 153 212.048 152.568C211.568 152.112 211.328 151.452 211.328 150.588L211.148 150.588C210.668 151.428 209.972 152.1 209.06 152.604C208.148 153.084 207.152 153.324 206.072 153.324C204.488 153.324 203.264 152.892 202.4 152.028C201.536 151.14 201.104 149.94 201.104 148.428C201.104 146.556 201.86 145.128 203.372 144.144C204.884 143.16 207.068 142.668 209.924 142.668L211.22 142.668L211.22 141.804C211.22 139.068 209.996 137.7 207.548 137.7C206.492 137.7 205.652 137.94 205.028 138.42C204.428 138.9 204.056 139.596 203.912 140.508L201.608 140.508C201.776 138.948 202.388 137.76 203.444 136.944C204.5 136.104 205.88 135.684 207.584 135.684C209.552 135.684 211.04 136.248 212.048 137.376C213.056 138.48 213.56 139.98 213.56 141.876L213.56 149.976C213.56 150.336 213.644 150.624 213.812 150.84C213.98 151.032 214.22 151.128 214.532 151.128ZM206.504 151.38C207.92 151.38 209.06 150.864 209.924 149.832C210.788 148.776 211.22 147.444 211.22 145.836L211.22 144.612L209.924 144.612C205.556 144.612 203.372 145.848 203.372 148.32C203.372 149.256 203.66 150 204.236 150.552C204.812 151.104 205.568 151.38 206.504 151.38ZM226.226 135.684C228.05 135.684 229.382 136.224 230.222 137.304C231.086 138.384 231.518 139.884 231.518 141.804L231.518 153L229.178 153L229.178 141.984C229.178 139.224 227.99 137.844 225.614 137.844C224.222 137.844 223.154 138.36 222.41 139.392C221.666 140.4 221.294 141.816 221.294 143.64L221.294 153L218.954 153L218.954 136.116L221.15 136.116L221.15 138.528L221.33 138.528C221.762 137.592 222.41 136.884 223.274 136.404C224.138 135.924 225.122 135.684 226.226 135.684ZM236.743 128.952L239.083 128.952L239.083 132.552L236.743 132.552L236.743 128.952ZM236.743 136.116L239.083 136.116L239.083 153L236.743 153L236.743 136.116ZM256.79 151.128C257.054 151.128 257.366 151.068 257.726 150.948L257.726 152.892C257.246 153.108 256.718 153.216 256.142 153.216C255.398 153.216 254.786 153 254.306 152.568C253.826 152.112 253.586 151.452 253.586 150.588L253.406 150.588C252.926 151.428 252.23 152.1 251.318 152.604C250.406 153.084 249.41 153.324 248.33 153.324C246.746 153.324 245.522 152.892 244.658 152.028C243.794 151.14 243.362 149.94 243.362 148.428C243.362 146.556 244.118 145.128 245.63 144.144C247.142 143.16 249.326 142.668 252.182 142.668L253.478 142.668L253.478 141.804C253.478 139.068 252.254 137.7 249.806 137.7C248.75 137.7 247.91 137.94 247.286 138.42C246.686 138.9 246.314 139.596 246.17 140.508L243.866 140.508C244.034 138.948 244.646 137.76 245.702 136.944C246.758 136.104 248.138 135.684 249.842 135.684C251.81 135.684 253.298 136.248 254.306 137.376C255.314 138.48 255.818 139.98 255.818 141.876L255.818 149.976C255.818 150.336 255.902 150.624 256.07 150.84C256.238 151.032 256.478 151.128 256.79 151.128ZM248.762 151.38C250.178 151.38 251.318 150.864 252.182 149.832C253.046 148.776 253.478 147.444 253.478 145.836L253.478 144.612L252.182 144.612C247.814 144.612 245.63 145.848 245.63 148.32C245.63 149.256 245.918 150 246.494 150.552C247.07 151.104 247.826 151.38 248.762 151.38ZM260.027 144.54C260.027 141.78 260.663 139.62 261.935 138.06C263.207 136.476 264.947 135.684 267.155 135.684C268.931 135.684 270.395 136.188 271.547 137.196C272.723 138.204 273.455 139.572 273.743 141.3L271.331 141.3C271.115 140.172 270.635 139.32 269.891 138.744C269.171 138.144 268.259 137.844 267.155 137.844C265.643 137.844 264.479 138.432 263.663 139.608C262.847 140.76 262.439 142.404 262.439 144.54C262.439 146.676 262.847 148.332 263.663 149.508C264.479 150.66 265.643 151.236 267.155 151.236C268.259 151.236 269.171 150.948 269.891 150.372C270.611 149.772 271.091 148.92 271.331 147.816L273.743 147.816C273.455 149.544 272.723 150.912 271.547 151.92C270.395 152.928 268.931 153.432 267.155 153.432C264.947 153.432 263.207 152.64 261.935 151.056C260.663 149.472 260.027 147.3 260.027 144.54ZM285.007 135.684C286.831 135.684 288.163 136.224 289.003 137.304C289.867 138.384 290.299 139.884 290.299 141.804L290.299 153L287.959 153L287.959 141.984C287.959 139.224 286.771 137.844 284.395 137.844C283.003 137.844 281.935 138.36 281.191 139.392C280.447 140.4 280.075 141.816 280.075 143.64L280.075 153L277.735 153L277.735 128.952L280.075 128.952L280.075 138.312L280.255 138.312C280.663 137.472 281.287 136.824 282.127 136.368C282.967 135.912 283.927 135.684 285.007 135.684Z" fill="#DE1274"/>
<defs>
<filter id="filter0_d_380_1740" x="0" y="0" width="327" height="219.75" filterUnits="userSpaceOnUse" color-interpolation-filters="sRGB">
<feFlood flood-opacity="0" result="BackgroundImageFix"/>
<feColorMatrix in="SourceAlpha" type="matrix" values="0 0 0 0 0 0 0 0 0 0 0 0 0 0 0 0 0 0 127 0" result="hardAlpha"/>
<feOffset dy="4"/>
<feGaussianBlur stdDeviation="2"/>
<feComposite in2="hardAlpha" operator="out"/>
<feColorMatrix type="matrix" values="0 0 0 0 0 0 0 0 0 0 0 0 0 0 0 0 0 0 0.25 0"/>
<feBlend mode="normal" in2="BackgroundImageFix" result="effect1_dropShadow_380_1740"/>
<feBlend mode="normal" in="SourceGraphic" in2="effect1_dropShadow_380_1740" result="shape"/>
</filter>
</defs>
</svg>
