<svg width="183" height="115" viewBox="0 0 183 115" fill="none" xmlns="http://www.w3.org/2000/svg">
<g filter="url(#filter0_d_18_11727)">
<rect x="4" width="175" height="87" rx="38" fill="white"/>
<path d="M69.5 107L108.847 87H82L69.5 107Z" fill="white"/>
<path d="M58.508 42.904C59.732 43.336 60.644 44.056 61.244 45.064C61.844 46.048 62.144 47.188 62.144 48.484C62.144 50.476 61.544 52.06 60.344 53.236C59.168 54.412 57.392 55 55.016 55L47.024 55L47.024 30.952L55.196 30.952C57.332 30.952 58.976 31.528 60.128 32.68C61.28 33.808 61.856 35.32 61.856 37.216C61.856 38.488 61.592 39.616 61.064 40.6C60.536 41.584 59.684 42.304 58.508 42.76L58.508 42.904ZM49.472 41.716L54.8 41.716C56.216 41.716 57.308 41.344 58.076 40.6C58.868 39.856 59.264 38.812 59.264 37.468C59.264 36.124 58.868 35.08 58.076 34.336C57.308 33.568 56.216 33.184 54.8 33.184L49.472 33.184L49.472 41.716ZM54.656 52.768C56.24 52.768 57.452 52.396 58.292 51.652C59.156 50.884 59.588 49.78 59.588 48.34C59.588 46.9 59.156 45.808 58.292 45.064C57.452 44.296 56.24 43.912 54.656 43.912L49.472 43.912L49.472 52.768L54.656 52.768ZM73.5439 37.9C74.0959 37.9 74.5159 37.948 74.8039 38.044L74.8039 40.204C74.4919 40.156 74.0959 40.132 73.6159 40.132C70.5679 40.132 69.0439 42.004 69.0439 45.748L69.0439 55L66.7039 55L66.7039 38.116L68.8999 38.116L68.8999 40.636L69.0799 40.636C69.5119 39.724 70.1239 39.04 70.9159 38.584C71.7079 38.128 72.5839 37.9 73.5439 37.9ZM90.2316 53.128C90.4956 53.128 90.8076 53.068 91.1676 52.948L91.1676 54.892C90.6876 55.108 90.1596 55.216 89.5836 55.216C88.8396 55.216 88.2276 55 87.7476 54.568C87.2676 54.112 87.0276 53.452 87.0276 52.588L86.8476 52.588C86.3676 53.428 85.6716 54.1 84.7596 54.604C83.8476 55.084 82.8516 55.324 81.7716 55.324C80.1876 55.324 78.9636 54.892 78.0996 54.028C77.2356 53.14 76.8036 51.94 76.8036 50.428C76.8036 48.556 77.5596 47.128 79.0716 46.144C80.5836 45.16 82.7676 44.668 85.6236 44.668L86.9196 44.668L86.9196 43.804C86.9196 41.068 85.6956 39.7 83.2476 39.7C82.1916 39.7 81.3516 39.94 80.7276 40.42C80.1276 40.9 79.7556 41.596 79.6116 42.508L77.3076 42.508C77.4756 40.948 78.0876 39.76 79.1436 38.944C80.1996 38.104 81.5796 37.684 83.2836 37.684C85.2516 37.684 86.7396 38.248 87.7476 39.376C88.7556 40.48 89.2596 41.98 89.2596 43.876L89.2596 51.976C89.2596 52.336 89.3436 52.624 89.5116 52.84C89.6796 53.032 89.9196 53.128 90.2316 53.128ZM82.2036 53.38C83.6196 53.38 84.7596 52.864 85.6236 51.832C86.4876 50.776 86.9196 49.444 86.9196 47.836L86.9196 46.612L85.6236 46.612C81.2556 46.612 79.0716 47.848 79.0716 50.32C79.0716 51.256 79.3596 52 79.9356 52.552C80.5116 53.104 81.2676 53.38 82.2036 53.38ZM115.072 38.116L110.104 55L107.728 55L103.912 42.148L103.696 42.148L99.9159 55L97.5039 55L92.5359 38.116L94.9119 38.116L98.6199 51.076L98.8359 51.076L102.58 38.116L105.064 38.116L108.808 51.076L109.024 51.076L112.696 38.116L115.072 38.116ZM124.751 55.432C122.519 55.432 120.743 54.64 119.423 53.056C118.127 51.448 117.479 49.276 117.479 46.54C117.479 43.828 118.127 41.68 119.423 40.096C120.719 38.488 122.495 37.684 124.751 37.684C127.007 37.684 128.783 38.476 130.079 40.06C131.375 41.644 132.023 43.804 132.023 46.54C132.023 49.276 131.375 51.448 130.079 53.056C128.783 54.64 127.007 55.432 124.751 55.432ZM124.751 53.236C126.359 53.236 127.571 52.66 128.387 51.508C129.203 50.332 129.611 48.676 129.611 46.54C129.611 44.404 129.191 42.76 128.351 41.608C127.535 40.432 126.335 39.844 124.751 39.844C123.167 39.844 121.967 40.432 121.151 41.608C120.335 42.784 119.927 44.428 119.927 46.54C119.927 48.676 120.335 50.332 121.151 51.508C121.967 52.66 123.167 53.236 124.751 53.236ZM136.6 37.612L136.6 30.952L139.048 30.952L139.048 37.612L138.472 47.584L137.176 47.584L136.6 37.612ZM136.024 51.4L139.624 51.4L139.624 55L136.024 55L136.024 51.4Z" fill="#DE1274"/>
</g>
<defs>
<filter id="filter0_d_18_11727" x="0" y="0" width="183" height="115" filterUnits="userSpaceOnUse" color-interpolation-filters="sRGB">
<feFlood flood-opacity="0" result="BackgroundImageFix"/>
<feColorMatrix in="SourceAlpha" type="matrix" values="0 0 0 0 0 0 0 0 0 0 0 0 0 0 0 0 0 0 127 0" result="hardAlpha"/>
<feOffset dy="4"/>
<feGaussianBlur stdDeviation="2"/>
<feComposite in2="hardAlpha" operator="out"/>
<feColorMatrix type="matrix" values="0 0 0 0 0 0 0 0 0 0 0 0 0 0 0 0 0 0 0.25 0"/>
<feBlend mode="normal" in2="BackgroundImageFix" result="effect1_dropShadow_18_11727"/>
<feBlend mode="normal" in="SourceGraphic" in2="effect1_dropShadow_18_11727" result="shape"/>
</filter>
</defs>
</svg>
