<svg width="362" height="173" viewBox="0 0 362 173" fill="none" xmlns="http://www.w3.org/2000/svg">
<g filter="url(#filter0_d_372_1739)">
<rect x="4" width="217" height="80" rx="38" fill="white"/>
<rect x="94" y="47" width="264" height="87" rx="38" fill="white"/>
<path d="M262 164.75L288.847 134H262L262 164.75Z" fill="white"/>
</g>
<path d="M60.892 39.304C60.892 36.1653 61.3613 33.452 62.3 31.164C63.268 28.8467 64.6467 27.072 66.436 25.84C68.2547 24.608 70.44 23.992 72.992 23.992C75.8667 23.992 78.2867 24.872 80.252 26.632C82.2467 28.3627 83.464 30.724 83.904 33.716H78.976C78.624 32.0147 77.9053 30.724 76.82 29.844C75.764 28.9347 74.488 28.48 72.992 28.48C70.6747 28.48 68.8853 29.4187 67.624 31.296C66.392 33.1733 65.776 35.8427 65.776 39.304C65.776 42.7653 66.392 45.4347 67.624 47.312C68.8853 49.16 70.6747 50.084 72.992 50.084C74.488 50.084 75.764 49.644 76.82 48.764C77.9053 47.884 78.624 46.5933 78.976 44.892H83.904C83.464 47.884 82.2467 50.26 80.252 52.02C78.2867 53.7507 75.8667 54.616 72.992 54.616C70.4693 54.616 68.2987 54 66.48 52.768C64.6613 51.536 63.268 49.776 62.3 47.488C61.3613 45.1707 60.892 42.4427 60.892 39.304ZM104.879 49.644V54H86.7509V48.588L99.6869 29.228V28.964H87.2789V24.608H104.747V29.976L91.7669 49.38V49.644H104.879ZM126.455 28.964H114.355V36.84H126.015V41.196H114.355V49.644H126.455V54H109.691V24.608H126.455V28.964ZM140.049 54.616C137.145 54.616 134.828 53.868 133.097 52.372C131.396 50.8467 130.413 48.6613 130.149 45.816L134.857 45.86C135.356 48.7347 137.087 50.172 140.049 50.172C141.516 50.172 142.66 49.8053 143.481 49.072C144.332 48.3093 144.757 47.312 144.757 46.08C144.757 44.936 144.42 44.0413 143.745 43.396C143.1 42.7213 142.088 42.1787 140.709 41.768L137.233 40.756C135.092 40.1107 133.479 39.084 132.393 37.676C131.308 36.2387 130.765 34.5813 130.765 32.704C130.765 30.9733 131.176 29.448 131.997 28.128C132.819 26.808 133.919 25.796 135.297 25.092C136.705 24.3587 138.275 23.992 140.005 23.992C142.763 23.992 144.933 24.7547 146.517 26.28C148.131 27.776 149.084 29.844 149.377 32.484L144.801 32.528C144.567 31.1787 144.039 30.152 143.217 29.448C142.425 28.744 141.355 28.392 140.005 28.392C138.773 28.392 137.717 28.7587 136.837 29.492C135.987 30.196 135.561 31.164 135.561 32.396C135.561 33.4227 135.869 34.2587 136.485 34.904C137.131 35.52 138.04 36.0187 139.213 36.4L142.689 37.412C144.801 37.9987 146.459 39.0253 147.661 40.492C148.893 41.9293 149.509 43.704 149.509 45.816C149.509 47.6347 149.099 49.204 148.277 50.524C147.456 51.844 146.327 52.856 144.889 53.56C143.481 54.264 141.868 54.616 140.049 54.616ZM141.281 15.632H145.769L141.677 21.616H137.189L141.281 15.632ZM153.146 39.304C153.146 36.1653 153.615 33.452 154.554 31.164C155.522 28.8467 156.901 27.072 158.69 25.84C160.509 24.608 162.694 23.992 165.246 23.992C168.121 23.992 170.541 24.872 172.506 26.632C174.501 28.3627 175.718 30.724 176.158 33.716H171.23C170.878 32.0147 170.159 30.724 169.074 29.844C168.018 28.9347 166.742 28.48 165.246 28.48C162.929 28.48 161.139 29.4187 159.878 31.296C158.646 33.1733 158.03 35.8427 158.03 39.304C158.03 42.7653 158.646 45.4347 159.878 47.312C161.139 49.16 162.929 50.084 165.246 50.084C166.742 50.084 168.018 49.644 169.074 48.764C170.159 47.884 170.878 46.5933 171.23 44.892H176.158C175.718 47.884 174.501 50.26 172.506 52.02C170.541 53.7507 168.121 54.616 165.246 54.616C162.723 54.616 160.553 54 158.734 52.768C156.915 51.536 155.522 49.776 154.554 47.488C153.615 45.1707 153.146 42.4427 153.146 39.304ZM166.522 15.632H171.01L166.918 21.616H162.43L166.522 15.632ZM185.346 48.236V53.692C185.346 56.0973 184.891 57.8867 183.982 59.06C183.073 60.2627 181.606 60.9227 179.582 61.04L179.626 58.4C180.653 58.312 181.371 57.96 181.782 57.344C182.193 56.728 182.398 55.6867 182.398 54.22V54H179.626V48.236H185.346Z" fill="#DE1274"/>
<path d="M124.79 96.24C124.93 97.6 125.32 98.63 125.96 99.33C126.62 100.01 127.52 100.35 128.66 100.35C129.9 100.35 130.87 99.94 131.57 99.12C132.27 98.3 132.62 97.07 132.62 95.43V81.96H134.69V95.64C134.69 97.72 134.15 99.36 133.07 100.56C131.99 101.76 130.52 102.36 128.66 102.36C126.9 102.36 125.51 101.82 124.49 100.74C123.49 99.66 122.91 98.16 122.75 96.24H124.79ZM150.469 83.88H141.589V90.78H150.169V92.7H141.589V100.08H150.469V102H139.549V81.96H150.469V83.88ZM159.799 102.36C157.939 102.36 156.449 101.86 155.329 100.86C154.209 99.86 153.559 98.43 153.379 96.57H155.449C155.629 97.87 156.099 98.83 156.859 99.45C157.619 100.07 158.599 100.38 159.799 100.38C161.019 100.38 161.989 100.06 162.709 99.42C163.429 98.78 163.789 97.93 163.789 96.87C163.789 95.91 163.519 95.15 162.979 94.59C162.459 94.01 161.649 93.54 160.549 93.18L158.149 92.4C156.749 91.96 155.669 91.28 154.909 90.36C154.169 89.44 153.799 88.36 153.799 87.12C153.799 86 154.059 85.02 154.579 84.18C155.119 83.34 155.839 82.7 156.739 82.26C157.639 81.82 158.629 81.6 159.709 81.6C161.489 81.6 162.909 82.09 163.969 83.07C165.029 84.05 165.659 85.39 165.859 87.09H163.789C163.629 85.95 163.199 85.08 162.499 84.48C161.799 83.88 160.869 83.58 159.709 83.58C158.669 83.58 157.779 83.88 157.039 84.48C156.299 85.08 155.929 85.93 155.929 87.03C155.929 87.87 156.179 88.57 156.679 89.13C157.179 89.69 157.949 90.14 158.989 90.48L161.419 91.26C162.819 91.68 163.909 92.35 164.689 93.27C165.489 94.19 165.889 95.36 165.889 96.78C165.889 98.48 165.329 99.84 164.209 100.86C163.089 101.86 161.619 102.36 159.799 102.36ZM167.659 81.96H181.459V83.88H175.579V102H173.539V83.88H167.659V81.96ZM195.528 83.88H186.648V90.78H195.228V92.7H186.648V100.08H195.528V102H184.608V81.96H195.528V83.88ZM217.817 81.96V102H215.747V86.64H215.567L209.087 98.28H208.367L201.857 86.64H201.677V102H199.637V81.96H201.527L208.637 94.86H208.817L215.897 81.96H217.817ZM226.224 81.96H240.024V83.88H234.144V102H232.104V83.88H226.224V81.96ZM252.947 102L251.267 97.17H242.687L241.007 102H238.907L245.957 81.96H247.997L255.047 102H252.947ZM243.347 95.25H250.607L247.067 85.08H246.887L243.347 95.25ZM264.384 81.96C266.044 81.96 267.484 82.35 268.704 83.13C269.924 83.89 270.864 85.02 271.524 86.52C272.204 88.02 272.544 89.84 272.544 91.98C272.544 94.12 272.204 95.94 271.524 97.44C270.864 98.94 269.924 100.08 268.704 100.86C267.484 101.62 266.044 102 264.384 102H258.114V81.96H264.384ZM264.204 100.08C266.144 100.08 267.654 99.4 268.734 98.04C269.834 96.66 270.384 94.64 270.384 91.98C270.384 89.32 269.834 87.31 268.734 85.95C267.654 84.57 266.144 83.88 264.204 83.88H260.154V100.08H264.204ZM287.52 83.88H278.64V90.78H287.22V92.7H278.64V100.08H287.52V102H276.6V81.96H287.52V83.88ZM295.619 92.37L293.669 94.62V102H291.629V81.96H293.669V91.38H293.849L301.889 81.96H304.589L297.029 90.66L304.739 102H302.279L295.799 92.37H295.619ZM307.535 87.51V81.96H309.575V87.51L309.095 95.82H308.015L307.535 87.51ZM307.055 99H310.055V102H307.055V99Z" fill="#DE1274"/>
<defs>
<filter id="filter0_d_372_1739" x="0" y="0" width="362" height="172.75" filterUnits="userSpaceOnUse" color-interpolation-filters="sRGB">
<feFlood flood-opacity="0" result="BackgroundImageFix"/>
<feColorMatrix in="SourceAlpha" type="matrix" values="0 0 0 0 0 0 0 0 0 0 0 0 0 0 0 0 0 0 127 0" result="hardAlpha"/>
<feOffset dy="4"/>
<feGaussianBlur stdDeviation="2"/>
<feComposite in2="hardAlpha" operator="out"/>
<feColorMatrix type="matrix" values="0 0 0 0 0 0 0 0 0 0 0 0 0 0 0 0 0 0 0.25 0"/>
<feBlend mode="normal" in2="BackgroundImageFix" result="effect1_dropShadow_372_1739"/>
<feBlend mode="normal" in="SourceGraphic" in2="effect1_dropShadow_372_1739" result="shape"/>
</filter>
</defs>
</svg>
