<svg width="332" height="171" viewBox="0 0 332 171" fill="none" xmlns="http://www.w3.org/2000/svg">
<g filter="url(#filter0_d_380_1741)">
<rect x="4" width="298" height="80" rx="38" fill="white"/>
<path d="M243 162.75L269.847 132L243 132L243 162.75Z" fill="white"/>
<rect x="30" y="49" width="291" height="83" rx="38" fill="white"/>
</g>
<path d="M56.516 50.696L56.516 53L42.224 53L42.224 50.084L53.78 31.472L53.78 31.256L42.8 31.256L42.8 28.952L56.408 28.952L56.408 31.868L44.852 50.48L44.852 50.696L56.516 50.696ZM73.407 52.676C73.407 54.74 72.795 56.396 71.571 57.644C70.347 58.892 68.607 59.516 66.351 59.516C64.503 59.516 62.991 59.096 61.815 58.256C60.663 57.44 59.907 56.324 59.547 54.908L61.995 54.908C62.547 56.612 63.999 57.464 66.351 57.464C67.911 57.464 69.075 57.032 69.843 56.168C70.635 55.328 71.031 54.164 71.031 52.676L71.031 49.976L70.851 49.976C70.371 50.84 69.675 51.512 68.763 51.992C67.851 52.472 66.843 52.712 65.739 52.712C63.603 52.712 61.923 51.956 60.699 50.444C59.499 48.908 58.899 46.82 58.899 44.18C58.899 41.564 59.499 39.5 60.699 37.988C61.923 36.452 63.603 35.684 65.739 35.684C66.915 35.684 67.971 35.948 68.907 36.476C69.843 37.004 70.539 37.748 70.995 38.708L71.175 38.708L71.175 36.116L73.407 36.116L73.407 52.676ZM66.207 50.48C67.791 50.48 68.991 49.928 69.807 48.824C70.647 47.696 71.067 46.148 71.067 44.18C71.067 42.212 70.647 40.676 69.807 39.572C68.991 38.444 67.791 37.88 66.207 37.88C64.599 37.88 63.375 38.444 62.535 39.572C61.719 40.676 61.311 42.212 61.311 44.18C61.311 46.148 61.719 47.696 62.535 48.824C63.375 49.928 64.599 50.48 66.207 50.48ZM91.0636 51.128C91.3276 51.128 91.6396 51.068 91.9996 50.948L91.9996 52.892C91.5196 53.108 90.9916 53.216 90.4156 53.216C89.6716 53.216 89.0596 53 88.5796 52.568C88.0996 52.112 87.8596 51.452 87.8596 50.588L87.6796 50.588C87.1996 51.428 86.5036 52.1 85.5916 52.604C84.6796 53.084 83.6836 53.324 82.6036 53.324C81.0196 53.324 79.7956 52.892 78.9316 52.028C78.0676 51.14 77.6356 49.94 77.6356 48.428C77.6356 46.556 78.3916 45.128 79.9036 44.144C81.4156 43.16 83.5996 42.668 86.4556 42.668L87.7516 42.668L87.7516 41.804C87.7516 39.068 86.5276 37.7 84.0796 37.7C83.0236 37.7 82.1836 37.94 81.5596 38.42C80.9596 38.9 80.5876 39.596 80.4436 40.508L78.1396 40.508C78.3076 38.948 78.9196 37.76 79.9756 36.944C81.0316 36.104 82.4116 35.684 84.1156 35.684C86.0836 35.684 87.5716 36.248 88.5796 37.376C89.5876 38.48 90.0916 39.98 90.0916 41.876L90.0916 49.976C90.0916 50.336 90.1756 50.624 90.3436 50.84C90.5116 51.032 90.7516 51.128 91.0636 51.128ZM83.0356 51.38C84.4516 51.38 85.5916 50.864 86.4556 49.832C87.3196 48.776 87.7516 47.444 87.7516 45.836L87.7516 44.612L86.4556 44.612C82.0876 44.612 79.9036 45.848 79.9036 48.32C79.9036 49.256 80.1916 50 80.7676 50.552C81.3436 51.104 82.0996 51.38 83.0356 51.38ZM102.325 35.9C102.877 35.9 103.297 35.948 103.585 36.044L103.585 38.204C103.273 38.156 102.877 38.132 102.397 38.132C99.3492 38.132 97.8252 40.004 97.8252 43.748L97.8252 53L95.4852 53L95.4852 36.116L97.6812 36.116L97.6812 38.636L97.8612 38.636C98.2932 37.724 98.9052 37.04 99.6972 36.584C100.489 36.128 101.365 35.9 102.325 35.9ZM114.288 35.684C116.112 35.684 117.444 36.224 118.284 37.304C119.148 38.384 119.58 39.884 119.58 41.804L119.58 53L117.24 53L117.24 41.984C117.24 39.224 116.052 37.844 113.676 37.844C112.284 37.844 111.216 38.36 110.472 39.392C109.728 40.4 109.356 41.816 109.356 43.64L109.356 53L107.016 53L107.016 36.116L109.212 36.116L109.212 38.528L109.392 38.528C109.824 37.592 110.472 36.884 111.336 36.404C112.2 35.924 113.184 35.684 114.288 35.684ZM124.805 28.952L127.145 28.952L127.145 32.552L124.805 32.552L124.805 28.952ZM124.805 36.116L127.145 36.116L127.145 53L124.805 53L124.805 36.116ZM144.853 51.128C145.117 51.128 145.429 51.068 145.789 50.948L145.789 52.892C145.309 53.108 144.781 53.216 144.205 53.216C143.461 53.216 142.849 53 142.369 52.568C141.889 52.112 141.649 51.452 141.649 50.588L141.469 50.588C140.989 51.428 140.293 52.1 139.381 52.604C138.469 53.084 137.473 53.324 136.393 53.324C134.809 53.324 133.585 52.892 132.721 52.028C131.857 51.14 131.425 49.94 131.425 48.428C131.425 46.556 132.181 45.128 133.693 44.144C135.205 43.16 137.389 42.668 140.245 42.668L141.541 42.668L141.541 41.804C141.541 39.068 140.317 37.7 137.869 37.7C136.813 37.7 135.973 37.94 135.349 38.42C134.749 38.9 134.377 39.596 134.233 40.508L131.929 40.508C132.097 38.948 132.709 37.76 133.765 36.944C134.821 36.104 136.201 35.684 137.905 35.684C139.873 35.684 141.361 36.248 142.369 37.376C143.377 38.48 143.881 39.98 143.881 41.876L143.881 49.976C143.881 50.336 143.965 50.624 144.133 50.84C144.301 51.032 144.541 51.128 144.853 51.128ZM136.825 51.38C138.241 51.38 139.381 50.864 140.245 49.832C141.109 48.776 141.541 47.444 141.541 45.836L141.541 44.612L140.245 44.612C135.877 44.612 133.693 45.848 133.693 48.32C133.693 49.256 133.981 50 134.557 50.552C135.133 51.104 135.889 51.38 136.825 51.38ZM149.274 28.952L151.614 28.952L151.614 32.552L149.274 32.552L149.274 28.952ZM145.926 57.14C146.238 57.212 146.562 57.248 146.898 57.248C147.642 57.248 148.218 57.02 148.626 56.564C149.058 56.132 149.274 55.484 149.274 54.62L149.274 36.116L151.614 36.116L151.614 54.728C151.614 56.216 151.194 57.368 150.354 58.184C149.538 59 148.494 59.408 147.222 59.408C146.79 59.408 146.358 59.348 145.926 59.228L145.926 57.14ZM170.408 53.432C168.176 53.432 166.4 52.64 165.08 51.056C163.784 49.448 163.136 47.276 163.136 44.54C163.136 41.828 163.784 39.68 165.08 38.096C166.376 36.488 168.152 35.684 170.408 35.684C172.664 35.684 174.44 36.476 175.736 38.06C177.032 39.644 177.68 41.804 177.68 44.54C177.68 47.276 177.032 49.448 175.736 51.056C174.44 52.64 172.664 53.432 170.408 53.432ZM170.408 51.236C172.016 51.236 173.228 50.66 174.044 49.508C174.86 48.332 175.268 46.676 175.268 44.54C175.268 42.404 174.848 40.76 174.008 39.608C173.192 38.432 171.992 37.844 170.408 37.844C168.824 37.844 167.624 38.432 166.808 39.608C165.992 40.784 165.584 42.428 165.584 44.54C165.584 46.676 165.992 48.332 166.808 49.508C167.624 50.66 168.824 51.236 170.408 51.236ZM195.468 28.952L195.468 53L193.272 53L193.272 50.192L193.056 50.192C192.552 51.224 191.832 52.028 190.896 52.604C189.984 53.156 188.94 53.432 187.764 53.432C185.628 53.432 183.96 52.652 182.76 51.092C181.584 49.508 180.996 47.324 180.996 44.54C180.996 41.78 181.584 39.62 182.76 38.06C183.96 36.476 185.628 35.684 187.764 35.684C188.892 35.684 189.9 35.948 190.788 36.476C191.7 36.98 192.42 37.7 192.948 38.636L193.128 38.636L193.128 28.952L195.468 28.952ZM188.268 51.236C189.852 51.236 191.052 50.648 191.868 49.472C192.708 48.296 193.128 46.652 193.128 44.54C193.128 42.428 192.708 40.784 191.868 39.608C191.052 38.432 189.852 37.844 188.268 37.844C186.66 37.844 185.448 38.432 184.632 39.608C183.816 40.76 183.408 42.404 183.408 44.54C183.408 46.676 183.816 48.332 184.632 49.508C185.448 50.66 186.66 51.236 188.268 51.236ZM210.748 50.948L210.748 53L199.48 53L199.48 50.408L208.12 38.348L208.12 38.132L199.948 38.132L199.948 36.116L210.604 36.116L210.604 38.672L201.964 50.732L201.964 50.948L210.748 50.948ZM222.042 35.684C223.866 35.684 225.198 36.224 226.038 37.304C226.902 38.384 227.334 39.884 227.334 41.804L227.334 53L224.994 53L224.994 41.984C224.994 39.224 223.806 37.844 221.43 37.844C220.038 37.844 218.97 38.36 218.226 39.392C217.482 40.4 217.11 41.816 217.11 43.64L217.11 53L214.77 53L214.77 36.116L216.966 36.116L216.966 38.528L217.146 38.528C217.578 37.592 218.226 36.884 219.09 36.404C219.954 35.924 220.938 35.684 222.042 35.684ZM244.907 51.128C245.171 51.128 245.483 51.068 245.843 50.948L245.843 52.892C245.363 53.108 244.835 53.216 244.259 53.216C243.515 53.216 242.903 53 242.423 52.568C241.943 52.112 241.703 51.452 241.703 50.588L241.523 50.588C241.043 51.428 240.347 52.1 239.435 52.604C238.523 53.084 237.527 53.324 236.447 53.324C234.863 53.324 233.639 52.892 232.775 52.028C231.911 51.14 231.479 49.94 231.479 48.428C231.479 46.556 232.235 45.128 233.747 44.144C235.259 43.16 237.443 42.668 240.299 42.668L241.595 42.668L241.595 41.804C241.595 39.068 240.371 37.7 237.923 37.7C236.867 37.7 236.027 37.94 235.403 38.42C234.803 38.9 234.431 39.596 234.287 40.508L231.983 40.508C232.151 38.948 232.763 37.76 233.819 36.944C234.875 36.104 236.255 35.684 237.959 35.684C239.927 35.684 241.415 36.248 242.423 37.376C243.431 38.48 243.935 39.98 243.935 41.876L243.935 49.976C243.935 50.336 244.019 50.624 244.187 50.84C244.355 51.032 244.595 51.128 244.907 51.128ZM236.879 51.38C238.295 51.38 239.435 50.864 240.299 49.832C241.163 48.776 241.595 47.444 241.595 45.836L241.595 44.612L240.299 44.612C235.931 44.612 233.747 45.848 233.747 48.32C233.747 49.256 234.035 50 234.611 50.552C235.187 51.104 235.943 51.38 236.879 51.38ZM254.729 43.388L261.749 53L258.869 53L253.217 45.188L253.037 45.188L251.669 46.556L251.669 53L249.329 53L249.329 28.952L251.669 28.952L251.669 43.244L251.849 43.244L258.797 36.116L261.893 36.116L254.729 43.388ZM264.938 28.952L267.278 28.952L267.278 32.552L264.938 32.552L264.938 28.952ZM264.938 36.116L267.278 36.116L267.278 53L264.938 53L264.938 36.116ZM65.4266 78.952L67.7666 78.952L67.7666 82.552L65.4266 82.552L65.4266 78.952ZM65.4266 86.116L67.7666 86.116L67.7666 103L65.4266 103L65.4266 86.116ZM85.768 93.388L92.788 103L89.908 103L84.256 95.188L84.076 95.188L82.708 96.556L82.708 103L80.368 103L80.368 78.952L82.708 78.952L82.708 93.244L82.888 93.244L89.836 86.116L92.932 86.116L85.768 93.388ZM107.903 101.128C108.167 101.128 108.479 101.068 108.839 100.948L108.839 102.892C108.359 103.108 107.831 103.216 107.255 103.216C106.511 103.216 105.899 103 105.419 102.568C104.939 102.112 104.699 101.452 104.699 100.588L104.519 100.588C104.039 101.428 103.343 102.1 102.431 102.604C101.519 103.084 100.523 103.324 99.4435 103.324C97.8595 103.324 96.6355 102.892 95.7715 102.028C94.9075 101.14 94.4755 99.94 94.4755 98.428C94.4755 96.556 95.2315 95.128 96.7435 94.144C98.2555 93.16 100.439 92.668 103.295 92.668L104.591 92.668L104.591 91.804C104.591 89.068 103.367 87.7 100.919 87.7C99.8635 87.7 99.0235 87.94 98.3995 88.42C97.7995 88.9 97.4275 89.596 97.2835 90.508L94.9795 90.508C95.1475 88.948 95.7595 87.76 96.8155 86.944C97.8715 86.104 99.2515 85.684 100.955 85.684C102.923 85.684 104.411 86.248 105.419 87.376C106.427 88.48 106.931 89.98 106.931 91.876L106.931 99.976C106.931 100.336 107.015 100.624 107.183 100.84C107.351 101.032 107.591 101.128 107.903 101.128ZM99.8755 101.38C101.291 101.38 102.431 100.864 103.295 99.832C104.159 98.776 104.591 97.444 104.591 95.836L104.591 94.612L103.295 94.612C98.9275 94.612 96.7435 95.848 96.7435 98.32C96.7435 99.256 97.0315 100 97.6075 100.552C98.1835 101.104 98.9395 101.38 99.8755 101.38ZM117.005 103.432C115.325 103.432 113.969 103.012 112.937 102.172C111.929 101.308 111.329 100.144 111.137 98.68L113.369 98.68C113.777 100.504 114.989 101.416 117.005 101.416C118.013 101.416 118.829 101.164 119.453 100.66C120.101 100.132 120.425 99.46 120.425 98.644C120.425 97.756 120.161 97.12 119.633 96.736C119.129 96.328 118.421 95.992 117.509 95.728L115.493 95.188C114.221 94.852 113.237 94.324 112.541 93.604C111.845 92.86 111.497 91.84 111.497 90.544C111.497 89.152 112.013 88 113.045 87.088C114.077 86.152 115.433 85.684 117.113 85.684C118.649 85.684 119.909 86.116 120.893 86.98C121.901 87.844 122.501 89.02 122.693 90.508L120.389 90.508C120.245 89.62 119.885 88.936 119.309 88.456C118.733 87.952 118.001 87.7 117.113 87.7C116.129 87.7 115.325 87.964 114.701 88.492C114.101 89.02 113.801 89.692 113.801 90.508C113.801 91.228 114.005 91.804 114.413 92.236C114.845 92.644 115.505 92.968 116.393 93.208L118.409 93.712C121.313 94.48 122.765 96.088 122.765 98.536C122.765 99.976 122.225 101.152 121.145 102.064C120.065 102.976 118.685 103.432 117.005 103.432ZM139.908 94.216C139.908 94.576 139.896 94.828 139.872 94.972L128.316 94.972C128.364 97.06 128.784 98.644 129.576 99.724C130.392 100.804 131.532 101.344 132.996 101.344C135.036 101.344 136.428 100.456 137.172 98.68L139.62 98.68C139.332 99.64 138.816 100.576 138.072 101.488C136.464 103.408 135.66 105.016 135.66 106.312C135.66 106.84 135.816 107.236 136.128 107.5C136.44 107.764 136.872 107.896 137.424 107.896C138 107.896 138.576 107.788 139.152 107.572L139.152 109.336C138.48 109.576 137.748 109.696 136.956 109.696C135.924 109.696 135.108 109.42 134.508 108.868C133.908 108.316 133.608 107.56 133.608 106.6C133.608 105.472 134.004 104.356 134.796 103.252C134.148 103.372 133.548 103.432 132.996 103.432C130.836 103.432 129.12 102.64 127.848 101.056C126.6 99.472 125.976 97.3 125.976 94.54C125.976 91.78 126.6 89.62 127.848 88.06C129.096 86.476 130.824 85.684 133.032 85.684C135.144 85.684 136.812 86.452 138.036 87.988C139.284 89.5 139.908 91.576 139.908 94.216ZM133.032 87.772C131.664 87.772 130.584 88.216 129.792 89.104C129.024 89.992 128.556 91.3 128.388 93.028L137.568 93.028C137.448 91.3 136.992 89.992 136.2 89.104C135.432 88.216 134.376 87.772 133.032 87.772ZM161.248 100.948L161.248 103L149.98 103L149.98 100.408L158.62 88.348L158.62 88.132L150.448 88.132L150.448 86.116L161.104 86.116L161.104 88.672L152.464 100.732L152.464 100.948L161.248 100.948ZM180.253 85.684C182.365 85.684 184.009 86.476 185.185 88.06C186.385 89.62 186.985 91.78 186.985 94.54C186.985 97.324 186.385 99.508 185.185 101.092C184.009 102.652 182.365 103.432 180.253 103.432C179.077 103.432 178.021 103.156 177.085 102.604C176.149 102.028 175.429 101.224 174.925 100.192L174.709 100.192L174.709 103L172.513 103L172.513 78.952L174.852 78.952L174.852 88.636L175.069 88.636C175.597 87.7 176.305 86.98 177.193 86.476C178.105 85.948 179.125 85.684 180.253 85.684ZM179.713 101.236C181.345 101.236 182.557 100.66 183.349 99.508C184.165 98.356 184.573 96.7 184.573 94.54C184.573 92.404 184.165 90.76 183.349 89.608C182.557 88.432 181.345 87.844 179.713 87.844C178.129 87.844 176.917 88.432 176.077 89.608C175.261 90.784 174.852 92.428 174.852 94.54C174.852 96.676 175.261 98.332 176.077 99.508C176.917 100.66 178.129 101.236 179.713 101.236ZM197.548 103.432C195.316 103.432 193.54 102.64 192.22 101.056C190.924 99.448 190.276 97.276 190.276 94.54C190.276 91.828 190.924 89.68 192.22 88.096C193.516 86.488 195.292 85.684 197.548 85.684C199.804 85.684 201.58 86.476 202.876 88.06C204.172 89.644 204.82 91.804 204.82 94.54C204.82 97.276 204.172 99.448 202.876 101.056C201.58 102.64 199.804 103.432 197.548 103.432ZM197.548 101.236C199.156 101.236 200.368 100.66 201.184 99.508C202 98.332 202.408 96.676 202.408 94.54C202.408 92.404 201.988 90.76 201.148 89.608C200.332 88.432 199.132 87.844 197.548 87.844C195.964 87.844 194.764 88.432 193.948 89.608C193.132 90.784 192.724 92.428 192.724 94.54C192.724 96.676 193.132 98.332 193.948 99.508C194.764 100.66 195.964 101.236 197.548 101.236ZM216.452 85.684C218.276 85.684 219.608 86.224 220.448 87.304C221.312 88.384 221.744 89.884 221.744 91.804L221.744 103L219.404 103L219.404 91.984C219.404 89.224 218.216 87.844 215.84 87.844C214.448 87.844 213.38 88.36 212.636 89.392C211.892 90.4 211.52 91.816 211.52 93.64L211.52 103L209.18 103L209.18 86.116L211.376 86.116L211.376 88.528L211.556 88.528C211.988 87.592 212.636 86.884 213.5 86.404C214.364 85.924 215.348 85.684 216.452 85.684ZM232.082 103.432C230.234 103.432 228.878 102.892 228.014 101.812C227.174 100.708 226.754 99.196 226.754 97.276L226.754 86.116L229.094 86.116L229.094 97.096C229.094 99.856 230.282 101.236 232.658 101.236C234.074 101.236 235.154 100.732 235.898 99.724C236.642 98.692 237.014 97.264 237.014 95.44L237.014 86.116L239.354 86.116L239.354 103L237.122 103L237.122 100.588L236.942 100.588C236.51 101.524 235.862 102.232 234.998 102.712C234.134 103.192 233.162 103.432 232.082 103.432ZM249.439 103.432C247.759 103.432 246.403 103.012 245.371 102.172C244.363 101.308 243.763 100.144 243.571 98.68L245.803 98.68C246.211 100.504 247.423 101.416 249.439 101.416C250.447 101.416 251.263 101.164 251.887 100.66C252.535 100.132 252.859 99.46 252.859 98.644C252.859 97.756 252.595 97.12 252.067 96.736C251.563 96.328 250.855 95.992 249.943 95.728L247.927 95.188C246.655 94.852 245.671 94.324 244.975 93.604C244.279 92.86 243.931 91.84 243.931 90.544C243.931 89.152 244.447 88 245.479 87.088C246.511 86.152 247.867 85.684 249.547 85.684C251.083 85.684 252.343 86.116 253.327 86.98C254.335 87.844 254.935 89.02 255.127 90.508L252.823 90.508C252.679 89.62 252.319 88.936 251.743 88.456C251.167 87.952 250.435 87.7 249.547 87.7C248.563 87.7 247.759 87.964 247.135 88.492C246.535 89.02 246.235 89.692 246.235 90.508C246.235 91.228 246.439 91.804 246.847 92.236C247.279 92.644 247.939 92.968 248.827 93.208L250.843 93.712C253.747 94.48 255.199 96.088 255.199 98.536C255.199 99.976 254.659 101.152 253.579 102.064C252.499 102.976 251.119 103.432 249.439 103.432ZM265.646 103.432C263.414 103.432 261.638 102.64 260.318 101.056C259.022 99.448 258.374 97.276 258.374 94.54C258.374 91.828 259.022 89.68 260.318 88.096C261.614 86.488 263.39 85.684 265.646 85.684C267.902 85.684 269.678 86.476 270.974 88.06C272.27 89.644 272.918 91.804 272.918 94.54C272.918 97.276 272.27 99.448 270.974 101.056C269.678 102.64 267.902 103.432 265.646 103.432ZM265.646 101.236C267.254 101.236 268.466 100.66 269.282 99.508C270.098 98.332 270.506 96.676 270.506 94.54C270.506 92.404 270.086 90.76 269.246 89.608C268.43 88.432 267.23 87.844 265.646 87.844C264.062 87.844 262.862 88.432 262.046 89.608C261.23 90.784 260.822 92.428 260.822 94.54C260.822 96.676 261.23 98.332 262.046 99.508C262.862 100.66 264.062 101.236 265.646 101.236ZM267.41 78.448L270.038 78.448L266.582 83.236L264.062 83.236L267.41 78.448ZM297.908 86.116L292.94 103L290.564 103L286.748 90.148L286.532 90.148L282.752 103L280.34 103L275.372 86.116L277.748 86.116L281.456 99.076L281.672 99.076L285.416 86.116L287.9 86.116L291.644 99.076L291.86 99.076L295.532 86.116L297.908 86.116Z" fill="#DE1274"/>
<defs>
<filter id="filter0_d_380_1741" x="0" y="0" width="325" height="170.75" filterUnits="userSpaceOnUse" color-interpolation-filters="sRGB">
<feFlood flood-opacity="0" result="BackgroundImageFix"/>
<feColorMatrix in="SourceAlpha" type="matrix" values="0 0 0 0 0 0 0 0 0 0 0 0 0 0 0 0 0 0 127 0" result="hardAlpha"/>
<feOffset dy="4"/>
<feGaussianBlur stdDeviation="2"/>
<feComposite in2="hardAlpha" operator="out"/>
<feColorMatrix type="matrix" values="0 0 0 0 0 0 0 0 0 0 0 0 0 0 0 0 0 0 0.25 0"/>
<feBlend mode="normal" in2="BackgroundImageFix" result="effect1_dropShadow_380_1741"/>
<feBlend mode="normal" in="SourceGraphic" in2="effect1_dropShadow_380_1741" result="shape"/>
</filter>
</defs>
</svg>
