<svg width="272" height="99" viewBox="0 0 272 99" fill="none" xmlns="http://www.w3.org/2000/svg">
<rect x="28" y="31.9961" width="244" height="67" fill="black"/>
<rect width="141" height="44" fill="#E40074"/>
<path d="M31.656 28V32H18.12V27.072L26.92 14.816V14.624H18.44V10.624H31.56V15.552L22.792 27.808V28H31.656ZM47.4998 32L46.1238 27.84H38.7318L37.3558 32H32.9718L40.2678 10.624H44.5878L51.8838 32H47.4998ZM40.0438 23.84H44.8118L42.5078 16.896H42.3158L40.0438 23.84ZM60.0403 32.512C57.8216 32.512 56.0723 31.9467 54.7923 30.816C53.5123 29.6853 52.7763 28.064 52.5843 25.952H56.8723C57.2349 27.616 58.2909 28.448 60.0403 28.448C60.9149 28.448 61.5869 28.2347 62.0563 27.808C62.5469 27.36 62.7923 26.7733 62.7923 26.048C62.7923 25.3653 62.5789 24.832 62.1523 24.448C61.7469 24.064 61.1069 23.7547 60.2323 23.52L57.7683 22.816C56.1469 22.368 54.9416 21.6107 54.1523 20.544C53.3843 19.456 53.0003 18.208 53.0003 16.8C53.0003 15.4773 53.2989 14.3147 53.8963 13.312C54.5149 12.288 55.3576 11.4987 56.4243 10.944C57.4909 10.3893 58.6856 10.112 60.0083 10.112C62.1203 10.112 63.7736 10.688 64.9683 11.84C66.1629 12.9707 66.8669 14.5493 67.0803 16.576H62.8563C62.7069 15.7653 62.3976 15.168 61.9283 14.784C61.4803 14.3787 60.8403 14.176 60.0083 14.176C59.2616 14.176 58.6429 14.3893 58.1523 14.816C57.6616 15.2427 57.4163 15.808 57.4163 16.512C57.4163 17.1733 57.6083 17.6747 57.9923 18.016C58.3763 18.3573 58.9096 18.624 59.5923 18.816L62.0563 19.488C63.6563 19.9147 64.9149 20.6827 65.8323 21.792C66.7496 22.9013 67.2083 24.2347 67.2083 25.792C67.2083 27.1787 66.8883 28.384 66.2483 29.408C65.6296 30.4107 64.7763 31.1787 63.6883 31.712C62.6003 32.2453 61.3843 32.512 60.0403 32.512ZM82.5623 32L81.1863 27.84H73.7943L72.4183 32H68.0343L75.3303 10.624H79.6503L86.9463 32H82.5623ZM75.1063 23.84H79.8743L77.5703 16.896H77.3783L75.1063 23.84ZM96.5025 10.624C99.3185 10.624 101.527 11.552 103.127 13.408C104.748 15.2427 105.559 17.8773 105.559 21.312C105.559 24.7467 104.748 27.392 103.127 29.248C101.527 31.0827 99.3185 32 96.5025 32H89.0785V10.624H96.5025ZM96.1825 28C97.7398 28 98.9452 27.456 99.7985 26.368C100.652 25.28 101.079 23.5947 101.079 21.312C101.079 19.0293 100.652 17.344 99.7985 16.256C98.9452 15.168 97.7398 14.624 96.1825 14.624H93.3985V28H96.1825ZM116.705 23.264V32H112.385V23.264L105.505 10.624H110.561L114.433 18.496H114.625L118.529 10.624H123.585L116.705 23.264Z" fill="white"/>
<path d="M80.984 54.6201C83.096 54.6201 84.792 55.2494 86.072 56.5081C87.3733 57.7668 88.024 59.5054 88.024 61.7241C88.024 63.9428 87.3733 65.6814 86.072 66.9401C84.792 68.1774 83.096 68.7961 80.984 68.7961H77.336V75.9961H73.016V54.6201H80.984ZM80.664 64.7961C81.5173 64.7961 82.2107 64.5294 82.744 63.9961C83.2773 63.4414 83.544 62.6841 83.544 61.7241C83.544 60.7428 83.2773 59.9854 82.744 59.4521C82.2107 58.8974 81.5173 58.6201 80.664 58.6201H77.336V64.7961H80.664ZM101.167 75.9961L97.1348 68.1881H95.0548V75.9961H90.7348V54.6201H98.6388C100.772 54.6201 102.489 55.2281 103.791 56.4441C105.092 57.6388 105.743 59.2921 105.743 61.4041C105.743 63.0041 105.359 64.3481 104.591 65.4361C103.823 66.5241 102.777 67.2921 101.455 67.7401L105.967 75.9961H101.167ZM95.0548 64.1561H98.4468C99.3001 64.1561 99.9828 63.9214 100.495 63.4521C101.007 62.9614 101.263 62.2788 101.263 61.4041C101.263 60.5294 101.007 59.8468 100.495 59.3561C99.9828 58.8654 99.3001 58.6201 98.4468 58.6201H95.0548V64.1561ZM116.958 76.5081C114.057 76.5081 111.817 75.5161 110.238 73.5321C108.681 71.5481 107.902 68.8068 107.902 65.3081C107.902 61.8094 108.681 59.0681 110.238 57.0841C111.817 55.1001 114.057 54.1081 116.958 54.1081C119.859 54.1081 122.089 55.1001 123.646 57.0841C125.225 59.0681 126.014 61.8094 126.014 65.3081C126.014 68.8068 125.225 71.5481 123.646 73.5321C122.089 75.5161 119.859 76.5081 116.958 76.5081ZM116.958 72.3481C118.451 72.3481 119.582 71.7614 120.35 70.5881C121.139 69.3934 121.534 67.6334 121.534 65.3081C121.534 62.9828 121.139 61.2334 120.35 60.0601C119.582 58.8654 118.451 58.2681 116.958 58.2681C115.465 58.2681 114.323 58.8654 113.534 60.0601C112.766 61.2334 112.382 62.9828 112.382 65.3081C112.382 67.6334 112.766 69.3934 113.534 70.5881C114.323 71.7614 115.465 72.3481 116.958 72.3481ZM146.196 64.7321V65.9161C146.196 69.4148 145.45 72.0601 143.956 73.8521C142.484 75.6228 140.372 76.5081 137.62 76.5081C134.57 76.5081 132.244 75.5161 130.644 73.5321C129.066 71.5481 128.276 68.8068 128.276 65.3081C128.276 63.0254 128.639 61.0414 129.364 59.3561C130.09 57.6708 131.146 56.3801 132.532 55.4841C133.919 54.5668 135.583 54.1081 137.524 54.1081C139.786 54.1081 141.663 54.7374 143.156 55.9961C144.671 57.2334 145.578 58.8654 145.876 60.8921H141.268C141.034 60.0814 140.586 59.4414 139.924 58.9721C139.263 58.5028 138.463 58.2681 137.524 58.2681C135.988 58.2681 134.815 58.8761 134.004 60.0921C133.194 61.2868 132.788 63.0254 132.788 65.3081C132.788 67.6121 133.194 69.3614 134.004 70.5561C134.815 71.7508 136.02 72.3481 137.62 72.3481C138.815 72.3481 139.764 72.0388 140.468 71.4201C141.172 70.8014 141.61 69.8094 141.78 68.4441H137.876V64.7321H146.196ZM159.761 75.9961L155.729 68.1881H153.649V75.9961H149.329V54.6201H157.233C159.366 54.6201 161.083 55.2281 162.385 56.4441C163.686 57.6388 164.337 59.2921 164.337 61.4041C164.337 63.0041 163.953 64.3481 163.185 65.4361C162.417 66.5241 161.371 67.2921 160.049 67.7401L164.561 75.9961H159.761ZM153.649 64.1561H157.041C157.894 64.1561 158.577 63.9214 159.089 63.4521C159.601 62.9614 159.857 62.2788 159.857 61.4041C159.857 60.5294 159.601 59.8468 159.089 59.3561C158.577 58.8654 157.894 58.6201 157.041 58.6201H153.649V64.1561ZM180.187 75.9961L178.811 71.8361H171.419L170.043 75.9961H165.659L172.955 54.6201H177.275L184.571 75.9961H180.187ZM172.731 67.8361H177.499L175.195 60.8921H175.003L172.731 67.8361ZM207.568 54.6201V75.9961H203.248V63.9321H203.056L197.808 73.3401H196.432L191.216 63.9321H191.024V75.9961H186.704V54.6201H190.672L197.04 66.4601H197.232L203.568 54.6201H207.568ZM219.386 76.5081C216.847 76.5081 214.884 75.7934 213.498 74.3641C212.132 72.9134 211.45 70.8548 211.45 68.1881V54.6201H215.77V67.6121C215.77 69.2974 216.047 70.5134 216.602 71.2601C217.156 71.9854 218.084 72.3481 219.386 72.3481C220.687 72.3481 221.615 71.9748 222.17 71.2281C222.746 70.4814 223.034 69.2761 223.034 67.6121V54.6201H227.322V68.1881C227.322 70.8548 226.628 72.9134 225.242 74.3641C223.876 75.7934 221.924 76.5081 219.386 76.5081Z" fill="white"/>
</svg>
