<svg width="272" height="99" viewBox="0 0 272 99" fill="none" xmlns="http://www.w3.org/2000/svg">
<rect x="28" y="32" width="244" height="67" fill="black"/>
<rect width="118" height="44" fill="#E40074"/>
<path d="M10.48 10.624H25.744V14.624H20.272V32H15.952V14.624H10.48V10.624ZM54.4108 10.624L48.7468 32H44.0748L40.5228 17.536H40.3308L36.7788 32H32.1388L26.4428 10.624H30.8908L34.3788 25.312H34.5708L38.0268 10.624H42.8588L46.3148 25.312H46.5068L49.9628 10.624H54.4108ZM64.5205 32.512C61.6192 32.512 59.3792 31.52 57.8005 29.536C56.2432 27.552 55.4645 24.8107 55.4645 21.312C55.4645 17.8133 56.2432 15.072 57.8005 13.088C59.3792 11.104 61.6192 10.112 64.5205 10.112C67.4218 10.112 69.6512 11.104 71.2085 13.088C72.7872 15.072 73.5765 17.8133 73.5765 21.312C73.5765 24.8107 72.7872 27.552 71.2085 29.536C69.6512 31.52 67.4218 32.512 64.5205 32.512ZM64.5205 28.352C66.0138 28.352 67.1445 27.7653 67.9125 26.592C68.7018 25.3973 69.0965 23.6373 69.0965 21.312C69.0965 18.9867 68.7018 17.2373 67.9125 16.064C67.1445 14.8693 66.0138 14.272 64.5205 14.272C63.0272 14.272 61.8858 14.8693 61.0965 16.064C60.3285 17.2373 59.9445 18.9867 59.9445 21.312C59.9445 23.6373 60.3285 25.3973 61.0965 26.592C61.8858 27.7653 63.0272 28.352 64.5205 28.352ZM79.2352 25.152C79.3419 26.2187 79.6086 27.0187 80.0353 27.552C80.4833 28.0853 81.1339 28.352 81.9873 28.352C82.8619 28.352 83.5553 28.0533 84.0673 27.456C84.6006 26.8373 84.8673 25.8773 84.8673 24.576V10.624H89.1553V25.088C89.1553 26.56 88.8566 27.8613 88.2593 28.992C87.6833 30.1013 86.8513 30.9653 85.7633 31.584C84.6753 32.2027 83.4166 32.512 81.9873 32.512C79.8113 32.512 78.1259 31.872 76.9313 30.592C75.7579 29.312 75.0859 27.4987 74.9153 25.152H79.2352ZM105.592 14.624H97.336V19.136H105.272V23.136H97.336V28H105.592V32H93.016V10.624H105.592V14.624Z" fill="white"/>
<path d="M99.208 75.512C96.3067 75.512 94.0667 74.52 92.488 72.536C90.9307 70.552 90.152 67.8107 90.152 64.312C90.152 60.8133 90.9307 58.072 92.488 56.088C94.0667 54.104 96.3067 53.112 99.208 53.112C102.109 53.112 104.339 54.104 105.896 56.088C107.475 58.072 108.264 60.8133 108.264 64.312C108.264 67.8107 107.475 70.552 105.896 72.536C104.339 74.52 102.109 75.512 99.208 75.512ZM99.208 71.352C100.701 71.352 101.832 70.7653 102.6 69.592C103.389 68.3973 103.784 66.6373 103.784 64.312C103.784 61.9867 103.389 60.2373 102.6 59.064C101.832 57.8693 100.701 57.272 99.208 57.272C97.7147 57.272 96.5733 57.8693 95.784 59.064C95.016 60.2373 94.632 61.9867 94.632 64.312C94.632 66.6373 95.016 68.3973 95.784 69.592C96.5733 70.7653 97.7147 71.352 99.208 71.352ZM118.846 53.624C121.662 53.624 123.87 54.552 125.47 56.408C127.092 58.2427 127.902 60.8773 127.902 64.312C127.902 67.7467 127.092 70.392 125.47 72.248C123.87 74.0827 121.662 75 118.846 75H111.422V53.624H118.846ZM118.526 71C120.084 71 121.289 70.456 122.142 69.368C122.996 68.28 123.422 66.5947 123.422 64.312C123.422 62.0293 122.996 60.344 122.142 59.256C121.289 58.168 120.084 57.624 118.526 57.624H115.742V71H118.526ZM143.437 71V75H129.901V70.072L138.701 57.816V57.624H130.221V53.624H143.341V58.552L134.573 70.808V71H143.437ZM163.185 53.624V75H158.801L151.153 61.624H150.961V75H146.641V53.624H151.025L158.705 67.064H158.897V53.624H163.185ZM179.844 75L178.468 70.84H171.076L169.7 75H165.316L172.612 53.624H176.932L184.228 75H179.844ZM172.388 66.84H177.156L174.852 59.896H174.66L172.388 66.84ZM192.216 66.392L190.68 68.376V75H186.36V53.624H190.68V61.688H190.872L196.984 53.624H202.296L195 62.84L202.392 75H197.432L192.408 66.392H192.216ZM204.329 53.624H208.649V75H204.329V53.624Z" fill="white"/>
</svg>
