<svg width="207" height="99" viewBox="0 0 207 99" fill="none" xmlns="http://www.w3.org/2000/svg">
<rect y="32" width="201" height="67" fill="black"/>
<path d="M37.736 58.296C39.584 58.296 41.068 58.8467 42.188 59.948C43.3267 61.0493 43.896 62.5707 43.896 64.512C43.896 66.4533 43.3267 67.9747 42.188 69.076C41.068 70.1587 39.584 70.7 37.736 70.7H34.544V77H30.764V58.296H37.736ZM37.456 67.2C38.2027 67.2 38.8093 66.9667 39.276 66.5C39.7427 66.0147 39.976 65.352 39.976 64.512C39.976 63.6533 39.7427 62.9907 39.276 62.524C38.8093 62.0387 38.2027 61.796 37.456 61.796H34.544V67.2H37.456ZM53.4359 77.448C50.8972 77.448 48.9372 76.58 47.5559 74.844C46.1932 73.108 45.5119 70.7093 45.5119 67.648C45.5119 64.5867 46.1932 62.188 47.5559 60.452C48.9372 58.716 50.8972 57.848 53.4359 57.848C55.9746 57.848 57.9252 58.716 59.2879 60.452C60.6692 62.188 61.3599 64.5867 61.3599 67.648C61.3599 70.7093 60.6692 73.108 59.2879 74.844C57.9252 76.58 55.9746 77.448 53.4359 77.448ZM53.4359 73.808C54.7426 73.808 55.7319 73.2947 56.4039 72.268C57.0946 71.2227 57.4399 69.6827 57.4399 67.648C57.4399 65.6133 57.0946 64.0827 56.4039 63.056C55.7319 62.0107 54.7426 61.488 53.4359 61.488C52.1292 61.488 51.1306 62.0107 50.4399 63.056C49.7679 64.0827 49.4319 65.6133 49.4319 67.648C49.4319 69.6827 49.7679 71.2227 50.4399 72.268C51.1306 73.2947 52.1292 73.808 53.4359 73.808ZM83.74 58.296V77H79.904L73.212 65.296H73.044V77H69.264V58.296H73.1L79.82 70.056H79.988V58.296H83.74ZM98.3162 77L97.1122 73.36H90.6442L89.4402 77H85.6042L91.9882 58.296H95.7682L102.152 77H98.3162ZM91.7922 69.86H95.9642L93.9482 63.784H93.7802L91.7922 69.86ZM118.422 67.144V68.18C118.422 71.2413 117.768 73.556 116.462 75.124C115.174 76.6733 113.326 77.448 110.918 77.448C108.248 77.448 106.214 76.58 104.814 74.844C103.432 73.108 102.742 70.7093 102.742 67.648C102.742 65.6507 103.059 63.9147 103.694 62.44C104.328 60.9653 105.252 59.836 106.466 59.052C107.679 58.2493 109.135 57.848 110.834 57.848C112.812 57.848 114.455 58.3987 115.762 59.5C117.087 60.5827 117.88 62.0107 118.142 63.784H114.11C113.904 63.0747 113.512 62.5147 112.934 62.104C112.355 61.6933 111.655 61.488 110.834 61.488C109.49 61.488 108.463 62.02 107.754 63.084C107.044 64.1293 106.69 65.6507 106.69 67.648C106.69 69.664 107.044 71.1947 107.754 72.24C108.463 73.2853 109.518 73.808 110.918 73.808C111.963 73.808 112.794 73.5373 113.41 72.996C114.026 72.4547 114.408 71.5867 114.558 70.392H111.142V67.144H118.422ZM130.29 77L126.762 70.168H124.942V77H121.162V58.296H128.078C129.945 58.296 131.448 58.828 132.586 59.892C133.725 60.9373 134.294 62.384 134.294 64.232C134.294 65.632 133.958 66.808 133.286 67.76C132.614 68.712 131.7 69.384 130.542 69.776L134.49 77H130.29ZM124.942 66.64H127.91C128.657 66.64 129.254 66.4347 129.702 66.024C130.15 65.5947 130.374 64.9973 130.374 64.232C130.374 63.4667 130.15 62.8693 129.702 62.44C129.254 62.0107 128.657 61.796 127.91 61.796H124.942V66.64ZM144.108 77.448C141.569 77.448 139.609 76.58 138.228 74.844C136.865 73.108 136.184 70.7093 136.184 67.648C136.184 64.5867 136.865 62.188 138.228 60.452C139.609 58.716 141.569 57.848 144.108 57.848C146.646 57.848 148.597 58.716 149.96 60.452C151.341 62.188 152.032 64.5867 152.032 67.648C152.032 70.7093 151.341 73.108 149.96 74.844C148.597 76.58 146.646 77.448 144.108 77.448ZM144.108 73.808C145.414 73.808 146.404 73.2947 147.076 72.268C147.766 71.2227 148.112 69.6827 148.112 67.648C148.112 65.6133 147.766 64.0827 147.076 63.056C146.404 62.0107 145.414 61.488 144.108 61.488C142.801 61.488 141.802 62.0107 141.112 63.056C140.44 64.0827 140.104 65.6133 140.104 67.648C140.104 69.6827 140.44 71.2227 141.112 72.268C141.802 73.2947 142.801 73.808 144.108 73.808ZM161.291 58.296C163.755 58.296 165.687 59.108 167.087 60.732C168.506 62.3373 169.215 64.6427 169.215 67.648C169.215 70.6533 168.506 72.968 167.087 74.592C165.687 76.1973 163.755 77 161.291 77H154.795V58.296H161.291ZM161.011 73.5C162.374 73.5 163.429 73.024 164.175 72.072C164.922 71.12 165.295 69.6453 165.295 67.648C165.295 65.6507 164.922 64.176 164.175 63.224C163.429 62.272 162.374 61.796 161.011 61.796H158.575V73.5H161.011ZM178.968 69.356V77H175.188V69.356L169.168 58.296H173.592L176.98 65.184H177.148L180.564 58.296H184.988L178.968 69.356Z" fill="white"/>
<rect x="26" width="181" height="44" fill="#E40074"/>
<path d="M55.336 32.448C53.3947 32.448 51.864 31.9533 50.744 30.964C49.624 29.9747 48.98 28.556 48.812 26.708H52.564C52.8813 28.164 53.8053 28.892 55.336 28.892C56.1013 28.892 56.6893 28.7053 57.1 28.332C57.5293 27.94 57.744 27.4267 57.744 26.792C57.744 26.1947 57.5573 25.728 57.184 25.392C56.8293 25.056 56.2693 24.7853 55.504 24.58L53.348 23.964C51.9293 23.572 50.8747 22.9093 50.184 21.976C49.512 21.024 49.176 19.932 49.176 18.7C49.176 17.5427 49.4373 16.5253 49.96 15.648C50.5013 14.752 51.2387 14.0613 52.172 13.576C53.1053 13.0907 54.1507 12.848 55.308 12.848C57.156 12.848 58.6027 13.352 59.648 14.36C60.6933 15.3493 61.3093 16.7307 61.496 18.504H57.8C57.6693 17.7947 57.3987 17.272 56.988 16.936C56.596 16.5813 56.036 16.404 55.308 16.404C54.6547 16.404 54.1133 16.5907 53.684 16.964C53.2547 17.3373 53.04 17.832 53.04 18.448C53.04 19.0267 53.208 19.4653 53.544 19.764C53.88 20.0627 54.3467 20.296 54.944 20.464L57.1 21.052C58.5 21.4253 59.6013 22.0973 60.404 23.068C61.2067 24.0387 61.608 25.2053 61.608 26.568C61.608 27.7813 61.328 28.836 60.768 29.732C60.2267 30.6093 59.48 31.2813 58.528 31.748C57.576 32.2147 56.512 32.448 55.336 32.448ZM62.5841 13.296H75.9401V16.796H71.1521V32H67.3721V16.796H62.5841V13.296ZM87.1013 32L85.8973 28.36H79.4293L78.2253 32H74.3893L80.7733 13.296H84.5533L90.9373 32H87.1013ZM80.5773 24.86H84.7493L82.7333 18.784H82.5653L80.5773 24.86ZM101.931 32L98.4031 25.168H96.5831V32H92.8031V13.296H99.7191C101.586 13.296 103.088 13.828 104.227 14.892C105.366 15.9373 105.935 17.384 105.935 19.232C105.935 20.632 105.599 21.808 104.927 22.76C104.255 23.712 103.34 24.384 102.183 24.776L106.131 32H101.931ZM96.5831 21.64H99.5511C100.298 21.64 100.895 21.4347 101.343 21.024C101.791 20.5947 102.015 19.9973 102.015 19.232C102.015 18.4667 101.791 17.8693 101.343 17.44C100.895 17.0107 100.298 16.796 99.5511 16.796H96.5831V21.64ZM107.072 13.296H120.428V16.796H115.64V32H111.86V16.796H107.072V13.296ZM133.612 16.796H126.388V20.744H133.332V24.244H126.388V28.5H133.612V32H122.608V13.296H133.612V16.796ZM145.818 32L142.29 25.168H140.47V32H136.69V13.296H143.606C145.472 13.296 146.975 13.828 148.114 14.892C149.252 15.9373 149.822 17.384 149.822 19.232C149.822 20.632 149.486 21.808 148.814 22.76C148.142 23.712 147.227 24.384 146.07 24.776L150.018 32H145.818ZM140.47 21.64H143.438C144.184 21.64 144.782 21.4347 145.23 21.024C145.678 20.5947 145.902 19.9973 145.902 19.232C145.902 18.4667 145.678 17.8693 145.23 17.44C144.782 17.0107 144.184 16.796 143.438 16.796H140.47V21.64ZM163.635 16.796H156.411V20.744H163.355V24.244H156.411V28.5H163.635V32H152.631V13.296H163.635V16.796ZM184.969 13.296V32H181.189V21.444H181.021L176.429 29.676H175.225L170.661 21.444H170.493V32H166.713V13.296H170.185L175.757 23.656H175.925L181.469 13.296H184.969Z" fill="white"/>
</svg>
