<?xml version="1.0" encoding="utf-8"?>
<!-- Generator: Adobe Illustrator 27.2.0, SVG Export Plug-In . SVG Version: 6.00 Build 0)  -->
<svg version="1.1" id="Warstwa_1" xmlns="http://www.w3.org/2000/svg" xmlns:xlink="http://www.w3.org/1999/xlink" x="0px" y="0px"
	 viewBox="0 0 70 70" style="enable-background:new 0 0 70 70;" xml:space="preserve">
<path d="M3.9,47.5C3,47.5,2.1,47,1.8,46C0.6,42.4,0,38.7,0,34.8c0-8.4,3.1-16.6,8.6-23C14.1,5.6,21.7,1.4,29.9,0.2
	c1.2-0.2,2.3,0.7,2.5,1.9c0.2,1.2-0.7,2.3-1.9,2.5C15.7,6.8,4.4,19.8,4.4,34.8c0,3.3,0.5,6.6,1.6,9.8c0.4,1.2-0.2,2.4-1.4,2.8
	C4.4,47.5,4.2,47.5,3.9,47.5z"/>
<path d="M35,69.8c-5.5,0-10.8-1.2-15.7-3.7c-4.7-2.3-8.8-5.7-12-9.9c-0.8-1-0.6-2.4,0.4-3.1c1-0.7,2.4-0.6,3.1,0.4
	c5.8,7.5,14.7,11.8,24.2,11.8S53.4,61,59.2,53.5c0.8-1,2.1-1.1,3.1-0.4c1,0.7,1.1,2.1,0.4,3.1c-3.2,4.1-7.4,7.6-12,9.9
	C45.8,68.6,40.5,69.8,35,69.8L35,69.8z"/>
<path d="M66.1,47.4c-0.2,0-0.5,0-0.7-0.1c-1.2-0.4-1.8-1.6-1.4-2.8c1-3.1,1.6-6.4,1.6-9.7c0-15-11.2-28-26.1-30.2
	c-1.2-0.2-2.1-1.3-1.9-2.5s1.3-2,2.5-1.9c8.2,1.2,15.8,5.3,21.3,11.6c5.5,6.4,8.6,14.5,8.6,23c0,3.8-0.6,7.5-1.8,11.1
	C67.9,46.8,67,47.4,66.1,47.4L66.1,47.4z"/>
</svg>
