<?xml version="1.0" encoding="utf-8"?>
<!-- Generator: Adobe Illustrator 27.2.0, SVG Export Plug-In . SVG Version: 6.00 Build 0)  -->
<svg version="1.1" id="Warstwa_1" xmlns="http://www.w3.org/2000/svg" xmlns:xlink="http://www.w3.org/1999/xlink" x="0px" y="0px"
	 viewBox="0 0 70 70" style="enable-background:new 0 0 70 70;" xml:space="preserve">
<path d="M2.4,32.5c-0.1,0-0.2,0-0.3,0C0.8,32.3,0,31.2,0.2,30c0.5-3.8,1.7-7.4,3.4-10.9c1.7-3.3,3.9-6.4,6.6-9
	c2.7-2.6,5.7-4.8,9-6.5c3.4-1.7,7.1-2.8,10.9-3.4c1.2-0.2,2.3,0.7,2.5,1.9s-0.7,2.3-1.9,2.5C17.2,6.5,6.5,17.2,4.6,30.6
	C4.4,31.7,3.4,32.5,2.4,32.5L2.4,32.5z"/>
<path d="M30.5,69.8c-0.1,0-0.2,0-0.3,0c-7.6-1-14.8-4.6-20.3-10.1C4.5,54.2,1,47,0.1,39.3C-0.1,38.1,0.8,37,2,36.9
	c1.2-0.1,2.3,0.7,2.5,1.9C6.2,52.6,17,63.5,30.8,65.4c1.2,0.2,2.1,1.3,1.9,2.5C32.6,69,31.6,69.8,30.5,69.8L30.5,69.8z"/>
<path d="M39.3,69.8c-1.1,0-2-0.8-2.2-1.9c-0.2-1.2,0.7-2.3,1.9-2.5c14.5-1.9,25.7-14,26.5-28.6c0.1-1.2,1.1-2.2,2.3-2.1
	c1.2,0.1,2.2,1.1,2.1,2.3c-1,16.7-13.7,30.5-30.4,32.7C39.5,69.8,39.4,69.8,39.3,69.8L39.3,69.8z"/>
<path d="M67.7,32.4c-1.1,0-2-0.8-2.2-1.9c-2-13.4-12.7-24-26.2-25.9c-1.2-0.2-2.1-1.3-1.9-2.5C37.6,1,38.8,0.1,40,0.3
	c7.6,1,14.5,4.4,19.9,9.8c2.7,2.6,4.9,5.6,6.6,9c1.7,3.4,2.9,7,3.5,10.8c0.2,1.2-0.7,2.3-1.9,2.5C68,32.4,67.8,32.4,67.7,32.4
	L67.7,32.4z"/>
</svg>
