<svg width="360" height="542" viewBox="0 0 360 542" fill="none" xmlns="http://www.w3.org/2000/svg">
<path d="M234.176 177.659C234.176 117.301 208.972 68.3682 177.878 68.3682C146.784 68.3682 121.581 117.296 121.581 177.659C121.581 183.673 121.833 189.572 122.317 195.324H233.444C233.923 189.572 234.181 183.673 234.181 177.659H234.176Z" fill="#0085E4"/>
<path d="M177.964 111.776C177.449 111.776 176.93 111.58 176.537 111.186L155.105 89.7598C154.318 88.9733 154.318 87.6978 155.105 86.9063C155.892 86.1198 157.167 86.1198 157.959 86.9063L179.391 108.333C180.178 109.119 180.178 110.395 179.391 111.186C178.998 111.58 178.483 111.776 177.964 111.776Z" fill="#0085E4"/>
<path d="M177.964 111.776C177.449 111.776 176.93 111.58 176.537 111.186C175.75 110.4 175.75 109.124 176.537 108.333L197.969 86.9063C198.755 86.1198 200.031 86.1198 200.823 86.9063C201.609 87.6927 201.609 88.9683 200.823 89.7598L179.391 111.186C178.997 111.58 178.483 111.776 177.964 111.776Z" fill="#0085E4"/>
<path d="M177.964 140.216C177.449 140.216 176.93 140.019 176.537 139.626L142.856 105.953C142.069 105.167 142.069 103.891 142.856 103.1C143.643 102.313 144.918 102.313 145.71 103.1L179.391 136.772C180.178 137.559 180.178 138.834 179.391 139.626C178.998 140.019 178.483 140.216 177.964 140.216Z" fill="#0085E4"/>
<path d="M177.964 140.216C177.449 140.216 176.93 140.019 176.537 139.626C175.75 138.839 175.75 137.564 176.537 136.772L210.218 103.1C211.004 102.313 212.28 102.313 213.072 103.1C213.858 103.886 213.858 105.162 213.072 105.953L179.391 139.626C178.997 140.019 178.483 140.216 177.964 140.216Z" fill="#0085E4"/>
<path d="M177.878 196.983C176.763 196.983 175.861 196.081 175.861 194.967V81.2647C175.861 80.1505 176.763 79.248 177.878 79.248C178.992 79.248 179.895 80.1505 179.895 81.2647V194.967C179.895 196.081 178.992 196.983 177.878 196.983Z" fill="#0085E4"/>
<path d="M-26.8638 183.88C-26.8638 144.783 -10.5352 113.092 9.60059 113.092C29.7364 113.092 46.0649 144.783 46.0649 183.88C46.0649 187.777 45.8983 191.599 45.5907 195.319H-26.3898C-26.7024 191.594 -26.8638 187.772 -26.8638 183.88Z" fill="#0085E4"/>
<path d="M4.4015 192.143C4.4015 187.238 0.427872 183.265 -4.47874 183.265C-6.51099 183.265 -8.37199 183.956 -9.86969 185.1C-11.2918 178.113 -17.4641 172.859 -24.872 172.859C-28.8305 172.859 -32.4209 174.372 -35.139 176.832C-37.9932 167.752 -46.4751 161.168 -56.4951 161.168C-65.8343 161.168 -73.8372 166.89 -77.1906 175.022C-77.7454 174.967 -78.3051 174.936 -78.875 174.936C-82.9193 174.936 -86.6257 176.373 -89.5152 178.758C-93.1863 173.701 -99.147 170.409 -105.879 170.409C-116.257 170.409 -124.805 178.229 -125.954 188.297C-126.519 188.221 -127.089 188.165 -127.674 188.165C-132.676 188.165 -136.978 191.095 -139 195.324H3.81154C4.18976 194.336 4.40643 193.267 4.40643 192.148L4.4015 192.143Z" fill="#0085E4"/>
<path d="M100.961 185.076C100.961 150.067 115.58 121.688 133.613 121.688C151.646 121.688 166.265 150.067 166.265 185.076C166.265 188.565 166.118 191.983 165.836 195.32H101.384C101.107 191.983 100.956 188.565 100.956 185.076H100.961Z" fill="#0085E4"/>
<path d="M293.766 195.32H197.767L245.769 48.0615L293.766 195.32Z" fill="#0085E4"/>
<path d="M150.733 193.692C150.733 188.196 155.186 183.745 160.683 183.745C161.172 183.745 161.651 183.79 162.12 183.861C162.12 183.82 162.12 183.785 162.12 183.745C162.12 172.754 171.03 163.846 182.023 163.846C191.685 163.846 199.734 170.727 201.544 179.858C202.139 179.767 202.739 179.706 203.36 179.706C205.563 179.706 207.621 180.311 209.396 181.35C211.766 175.209 217.721 170.853 224.696 170.853C233.752 170.853 241.095 178.194 241.095 187.249C241.095 187.833 241.064 188.413 241.004 188.983C242.396 187.899 244.135 187.249 246.036 187.249C250.525 187.249 254.165 190.853 254.231 195.325H150.889C150.804 194.791 150.743 194.251 150.743 193.692H150.733Z" fill="#0085E4"/>
<path d="M27.936 192.956C27.936 184.985 34.3959 178.527 42.3685 178.527C43.0796 178.527 43.7704 178.597 44.4511 178.693C44.4511 178.638 44.4511 178.582 44.4511 178.527C44.4511 162.59 57.3759 149.669 73.3161 149.669C87.3249 149.669 99.0038 159.651 101.626 172.89C102.488 172.759 103.361 172.668 104.259 172.668C107.456 172.668 110.441 173.546 113.013 175.053C116.447 166.15 125.085 159.828 135.201 159.828C148.337 159.828 158.983 170.47 158.983 183.604C158.983 184.451 158.937 185.292 158.852 186.119C160.869 184.551 163.395 183.604 166.149 183.604C172.659 183.604 177.934 188.832 178.029 195.315H28.153C28.0269 194.544 27.941 193.757 27.941 192.951L27.936 192.956Z" fill="#0085E4"/>
<path d="M413.89 195.32H350.225L382.055 97.6602L413.89 195.32Z" fill="#0085E4"/>
<path d="M370.961 195.32H243.631L307.296 0L370.961 195.32Z" fill="#0085E4"/>
<path d="M307.296 197.337C306.181 197.337 305.279 196.434 305.279 195.32V60.3174C305.279 59.2032 306.181 58.3008 307.296 58.3008C308.41 58.3008 309.313 59.2032 309.313 60.3174V195.32C309.313 196.434 308.41 197.337 307.296 197.337Z" fill="#0085E4"/>
<path d="M-25.1553 202.752V545H385.155V202.752C343.895 182.236 288.881 164 158.224 164C53.553 164 -20.5708 195.913 -25.1553 202.752Z" fill="#3FA9F5"/>
</svg>
