<?xml version="1.0" encoding="utf-8"?>
<!-- Generator: Adobe Illustrator 27.4.0, SVG Export Plug-In . SVG Version: 6.00 Build 0)  -->
<svg version="1.1" id="Warstwa_1" xmlns="http://www.w3.org/2000/svg" xmlns:xlink="http://www.w3.org/1999/xlink" x="0px" y="0px"
	 viewBox="0 0 360 296" style="enable-background:new 0 0 360 296;" xml:space="preserve">
<style type="text/css">
	.st0{clip-path:url(#SVGID_00000170257644418532659840000004988887611971776420_);}
	.st1{fill:#3FA9F5;}
</style>
<g>
	<defs>
		<polyline id="SVGID_1_" points="411,0 411,296 -311,296 -311,0 		"/>
	</defs>
	<clipPath id="SVGID_00000134947404631309501820000008419292051007862204_">
		<use xlink:href="#SVGID_1_"  style="overflow:visible;"/>
	</clipPath>
	<g style="clip-path:url(#SVGID_00000134947404631309501820000008419292051007862204_);">
		<path class="st1" d="M587.4,202.9"/>
		<path class="st1" d="M813.6,45.2"/>
		<path class="st1" d="M-40,296h451V183l-33.3,1.3h-21.3v-26.1h-0.2L350,66.4h-5.2v-3.7H334l-1-28.1h-1.1l-1,28.1H320v3.7h-5.2
			l-6.2,91.8h-0.2v26.1h-6.1l-6.1-77.1l-4.2-2.1l-1.1-36.6h-1.2l-1.1,36.6l-4.2,2.1l-6.1,77.1h-62.2v-30.4h-19.8v20.6H185v41.7h-18
			v-48.1h-4.9v-36.8h-28.3v30.8h-20.5v-7.4H94.8v23.3H56.3v-54l-14.9-1.3c-1.4-31.2-6.7-58.8-14.3-78.9c-1.1-2.8-4.4-2.8-5.5,0
			C14.1,63.1,9,89.6,7.4,119.5l-47.4-3.6V296"/>
	</g>
</g>
</svg>
