<svg width="196" height="196" viewBox="0 0 196 196" fill="none" xmlns="http://www.w3.org/2000/svg">
<path d="M98 0L104.748 20.8746L115.018 1.48884L118.038 23.218L131.518 5.91013L130.719 27.8336L147 13.1295L142.406 34.5812L160.993 22.9276L152.744 43.2558L173.072 35.0068L161.419 53.5937L182.87 49L168.166 65.2809L190.09 64.482L172.782 77.9622L194.511 80.9825L175.125 91.2524L196 98L175.125 104.748L194.511 115.018L172.782 118.038L190.09 131.518L168.166 130.719L182.87 147L161.419 142.406L173.072 160.993L152.744 152.744L160.993 173.072L142.406 161.419L147 182.87L130.719 168.166L131.518 190.09L118.038 172.782L115.018 194.511L104.748 175.125L98 196L91.2524 175.125L80.9825 194.511L77.9622 172.782L64.482 190.09L65.2809 168.166L49 182.87L53.5937 161.419L35.0068 173.072L43.2558 152.744L22.9276 160.993L34.5812 142.406L13.1295 147L27.8336 130.719L5.91013 131.518L23.218 118.038L1.48884 115.018L20.8746 104.748L0 98L20.8746 91.2524L1.48884 80.9825L23.218 77.9622L5.91013 64.482L27.8336 65.2809L13.1295 49L34.5812 53.5937L22.9276 35.0068L43.2558 43.2558L35.0068 22.9276L53.5937 34.5812L49 13.1295L65.2809 27.8336L64.482 5.91013L77.9622 23.218L80.9825 1.48884L91.2524 20.8746L98 0Z" fill="#8FD0FF"/>
<g filter="url(#filter0_d_614_2310)">
<path d="M97.5 162.068C135.332 162.068 166 131.384 166 93.534C166 55.6837 135.332 25 97.5 25C59.6685 25 29 55.6837 29 93.534C29 131.384 59.6685 162.068 97.5 162.068Z" fill="#F7AC32"/>
<path d="M97.5 146C125.943 146 149 122.943 149 94.5C149 66.0573 125.943 43 97.5 43C69.0573 43 46 66.0573 46 94.5C46 122.943 69.0573 146 97.5 146Z" fill="#FFC25E"/>
</g>
<defs>
<filter id="filter0_d_614_2310" x="25" y="25" width="145" height="145.068" filterUnits="userSpaceOnUse" color-interpolation-filters="sRGB">
<feFlood flood-opacity="0" result="BackgroundImageFix"/>
<feColorMatrix in="SourceAlpha" type="matrix" values="0 0 0 0 0 0 0 0 0 0 0 0 0 0 0 0 0 0 127 0" result="hardAlpha"/>
<feOffset dy="4"/>
<feGaussianBlur stdDeviation="2"/>
<feComposite in2="hardAlpha" operator="out"/>
<feColorMatrix type="matrix" values="0 0 0 0 0 0 0 0 0 0 0 0 0 0 0 0 0 0 0.25 0"/>
<feBlend mode="normal" in2="BackgroundImageFix" result="effect1_dropShadow_614_2310"/>
<feBlend mode="normal" in="SourceGraphic" in2="effect1_dropShadow_614_2310" result="shape"/>
</filter>
</defs>
</svg>
