<svg width="360" height="302" viewBox="0 0 360 302" fill="none" xmlns="http://www.w3.org/2000/svg">
<path d="M478.002 0L442.916 8.44751V40.271L417.386 44.5311V24.7735L409.087 22.2093L406.139 24.7735V45.907L403.593 46.2183V39.3102L395.294 36.7469L392.346 39.3102V47.5942L386.018 48.3682V65.2373L368.038 65.2347V52.029L352.974 53.0305V25.1929L347.215 20.1839L331.919 24.9093V54.9391H326.821V99.6674H314.217V74.7062H304.938V82.8874H297.01V57.3952H291.255V67.4409H287.958V74.2686H279.884V46.5322H267.478V22.3857H250.526V90.4977H242.793V77.6846H242.713L240.444 32.6018H238.554V30.7952H234.633L234.255 17.0066H233.855L233.477 30.7952H229.556V32.6018H227.666L225.397 77.6846H225.317V90.4977H223.096L220.863 52.643L219.321 51.6087L218.929 33.6249H218.479L218.087 51.6087L216.546 52.643L214.312 90.4977H191.68V75.5727H184.481V85.6842H180.435V106.164H173.874V82.5483H172.086V64.4668H161.79V79.5855H154.317V75.9394H147.614V87.3697H133.61V60.857L128.193 60.1963C127.668 44.8917 125.759 31.3141 122.979 21.4699C122.584 20.0741 121.364 20.0741 120.97 21.4699C118.282 30.9889 116.409 43.9992 115.812 58.6855L98.5668 56.9282V61.1796L92.2602 61.1822V53.6056L82.0202 52.1847V31.9151L79.0728 29.3518L70.7735 31.9151V51.485L28.1617 47.0304V10.1365L0.00148153 0L0 301.5H478L478.002 0Z" fill="#3FA9F5"/>
</svg>
