<svg width="252" height="252" viewBox="0 0 252 252" fill="none" xmlns="http://www.w3.org/2000/svg">
<path d="M126 0L134.675 26.8388L147.88 1.91422L151.763 29.8517L169.095 7.59873L168.067 35.7861L189 16.8808L183.094 44.4616L206.991 29.4784L196.385 55.6146L222.522 45.0088L207.538 68.9062L235.119 63L216.214 83.9326L244.401 82.9055L222.148 100.237L250.086 104.12L225.161 117.325L252 126L225.161 134.675L250.086 147.88L222.148 151.763L244.401 169.095L216.214 168.067L235.119 189L207.538 183.094L222.522 206.991L196.385 196.385L206.991 222.522L183.094 207.538L189 235.119L168.067 216.214L169.095 244.401L151.763 222.148L147.88 250.086L134.675 225.161L126 252L117.325 225.161L104.12 250.086L100.237 222.148L82.9055 244.401L83.9326 216.214L63 235.119L68.9062 207.538L45.0088 222.522L55.6146 196.385L29.4784 206.991L44.4616 183.094L16.8808 189L35.7861 168.067L7.59873 169.095L29.8517 151.763L1.91422 147.88L26.8388 134.675L0 126L26.8388 117.325L1.91422 104.12L29.8517 100.237L7.59873 82.9055L35.7861 83.9326L16.8808 63L44.4616 68.9062L29.4784 45.0088L55.6146 55.6146L45.0088 29.4784L68.9062 44.4616L63 16.8808L83.9326 35.7861L82.9055 7.59873L100.237 29.8517L104.12 1.91422L117.325 26.8388L126 0Z" fill="white"/>
</svg>
