<?xml version="1.0" encoding="UTF-8"?><svg id="Warstwa_2" xmlns="http://www.w3.org/2000/svg" viewBox="0 0 427.47 475.69"><defs><style>.cls-1{fill-rule:evenodd;}.cls-1,.cls-2{fill:#0085e4;}</style></defs><g id="Warstwa_1-2"><path class="cls-2" d="m396.03,82c-2.94,0-5.74.6-8.29,1.69.02-.56.04-1.12.04-1.69,0-24.76-19.45-44.84-43.45-44.84-15.2,0-28.56,8.05-36.33,20.25-6.56-5.59-14.97-8.94-24.14-8.94-.25,0-.5.01-.75.02C276.61,20.67,252.35,0,223.4,0c-33.93,0-61.45,28.39-61.45,63.42,0,.41.02.82.03,1.24-14.91.48-27.08,12.12-28.94,27.1-3.21-2.57-7.23-4.11-11.6-4.11-9.41,0-17.2,7.07-18.7,16.35h315c-.21-12.19-9.85-22-21.71-22h.01Z"/><path class="cls-1" d="m63.41,280.35l6.46-18.51-16,10.51c-2.6.95-4.53,3.36-4.72,6.31-.25,3.96,2.76,7.38,6.72,7.63,3.7.23,6.92-2.37,7.54-5.93Z"/><path class="cls-1" d="m99.7,235.77l6.46-18.51-16,10.51c-2.6.95-4.53,3.36-4.72,6.31-.25,3.96,2.76,7.38,6.72,7.63,3.7.23,6.92-2.37,7.54-5.93Z"/><path class="cls-1" d="m135.98,188.09l6.46-18.51-16,10.51c-2.6.95-4.53,3.36-4.72,6.31-.25,3.96,2.76,7.38,6.72,7.63,3.7.23,6.92-2.37,7.54-5.93Z"/><path class="cls-1" d="m172.26,143.51l6.46-18.51-16,10.51c-2.6.95-4.53,3.36-4.72,6.31-.25,3.96,2.76,7.38,6.72,7.63,3.7.24,6.92-2.37,7.54-5.93Z"/><path class="cls-1" d="m176.41,285.53l6.46-18.51-16,10.51c-2.6.95-4.53,3.36-4.72,6.31-.25,3.96,2.76,7.38,6.72,7.63,3.7.23,6.92-2.37,7.54-5.93Z"/><path class="cls-1" d="m212.69,240.96l6.46-18.51-16,10.51c-2.6.95-4.53,3.36-4.72,6.31-.25,3.96,2.76,7.38,6.72,7.63,3.7.23,6.92-2.37,7.54-5.94Z"/><path class="cls-1" d="m248.97,193.27l6.46-18.51-16,10.51c-2.6.95-4.53,3.37-4.72,6.31-.25,3.96,2.76,7.38,6.72,7.63,3.7.24,6.92-2.37,7.54-5.93Z"/><path class="cls-1" d="m285.26,148.7l6.46-18.51-16,10.51c-2.6.95-4.53,3.37-4.72,6.31-.25,3.96,2.76,7.38,6.72,7.63,3.7.23,6.92-2.37,7.54-5.93Z"/><path class="cls-1" d="m119.39,285.53l6.46-18.51-16,10.51c-2.6.95-4.53,3.36-4.72,6.31-.25,3.96,2.76,7.38,6.72,7.63,3.7.23,6.92-2.37,7.54-5.93Z"/><path class="cls-1" d="m155.67,240.96l6.46-18.51-16,10.51c-2.6.95-4.53,3.36-4.72,6.31-.25,3.96,2.76,7.38,6.72,7.63,3.7.23,6.92-2.37,7.54-5.94Z"/><path class="cls-1" d="m191.96,193.27l6.46-18.51-16,10.51c-2.6.95-4.53,3.37-4.72,6.31-.25,3.96,2.76,7.38,6.72,7.63,3.7.24,6.92-2.37,7.54-5.93Z"/><path class="cls-1" d="m228.24,148.7l6.46-18.51-16,10.51c-2.6.95-4.53,3.37-4.72,6.31-.25,3.96,2.76,7.38,6.72,7.63,3.7.23,6.92-2.37,7.54-5.93Z"/><path class="cls-1" d="m235.94,280.35l6.46-18.51-16,10.51c-2.6.95-4.53,3.36-4.72,6.31-.25,3.96,2.76,7.38,6.72,7.63,3.7.23,6.92-2.37,7.54-5.93Z"/><path class="cls-1" d="m272.23,235.77l6.46-18.51-16,10.51c-2.6.95-4.53,3.36-4.72,6.31-.25,3.96,2.76,7.38,6.72,7.63,3.7.23,6.92-2.37,7.54-5.93Z"/><path class="cls-1" d="m308.51,188.09l6.46-18.51-16,10.51c-2.6.95-4.53,3.36-4.72,6.31-.25,3.96,2.76,7.38,6.72,7.63,3.7.23,6.92-2.37,7.54-5.93Z"/><path class="cls-1" d="m344.79,143.51l6.46-18.51-16,10.51c-2.6.95-4.53,3.36-4.72,6.31-.25,3.96,2.76,7.38,6.72,7.63,3.7.24,6.92-2.37,7.54-5.93Z"/><path class="cls-1" d="m348.94,285.53l6.46-18.51-16,10.51c-2.6.95-4.53,3.36-4.72,6.31-.25,3.96,2.76,7.38,6.72,7.63,3.7.23,6.92-2.37,7.54-5.93Z"/><path class="cls-1" d="m385.22,240.96l6.46-18.51-16,10.51c-2.6.95-4.53,3.36-4.72,6.31-.25,3.96,2.76,7.38,6.72,7.63,3.7.23,6.92-2.37,7.54-5.94Z"/><path class="cls-1" d="m291.92,285.53l6.46-18.51-16,10.51c-2.6.95-4.53,3.36-4.72,6.31-.25,3.96,2.76,7.38,6.72,7.63,3.7.23,6.92-2.37,7.54-5.93Z"/><path class="cls-1" d="m328.21,240.96l6.46-18.51-16,10.51c-2.6.95-4.53,3.36-4.72,6.31-.25,3.96,2.76,7.38,6.72,7.63,3.7.23,6.92-2.37,7.54-5.94Z"/><path class="cls-1" d="m364.49,193.27l6.46-18.51-16,10.51c-2.6.95-4.53,3.37-4.72,6.31-.25,3.96,2.76,7.38,6.72,7.63,3.7.24,6.92-2.37,7.54-5.93Z"/><path class="cls-1" d="m30.86,327.72l6.46-18.51-16,10.51c-2.6.95-4.53,3.36-4.72,6.31-.25,3.96,2.76,7.38,6.72,7.63,3.7.23,6.92-2.37,7.54-5.93Z"/><path class="cls-1" d="m35.01,469.74l6.46-18.51-16,10.51c-2.6.95-4.53,3.36-4.72,6.31-.25,3.96,2.76,7.38,6.72,7.63,3.7.23,6.92-2.37,7.54-5.93Z"/><path class="cls-1" d="m71.29,425.16l6.46-18.51-16,10.51c-2.6.95-4.53,3.36-4.72,6.31-.25,3.96,2.76,7.38,6.72,7.63,3.7.23,6.92-2.37,7.54-5.93Z"/><path class="cls-1" d="m107.58,377.48l6.46-18.51-16,10.51c-2.6.95-4.53,3.37-4.72,6.31-.25,3.96,2.76,7.38,6.72,7.63,3.7.23,6.92-2.37,7.54-5.93Z"/><path class="cls-1" d="m143.86,332.9l6.46-18.51-16,10.51c-2.6.95-4.53,3.36-4.72,6.31-.25,3.96,2.76,7.38,6.72,7.63,3.7.23,6.92-2.37,7.54-5.93Z"/><path class="cls-1" d="m14.28,425.16l6.46-18.51-16,10.51c-2.6.95-4.53,3.36-4.72,6.31-.25,3.96,2.76,7.38,6.72,7.63,3.7.23,6.92-2.37,7.54-5.93Z"/><path class="cls-1" d="m50.56,377.48l6.46-18.51-16,10.51c-2.6.95-4.53,3.37-4.72,6.31-.25,3.96,2.76,7.38,6.72,7.63,3.7.23,6.92-2.37,7.54-5.93Z"/><path class="cls-1" d="m86.84,332.9l6.46-18.51-16,10.51c-2.6.95-4.53,3.36-4.72,6.31-.25,3.96,2.76,7.38,6.72,7.63,3.7.23,6.92-2.37,7.54-5.93Z"/><path class="cls-1" d="m94.55,464.56l6.46-18.51-16,10.51c-2.6.95-4.53,3.36-4.72,6.31-.25,3.96,2.76,7.38,6.72,7.63,3.7.24,6.92-2.37,7.54-5.93Z"/><path class="cls-1" d="m130.83,419.98l6.46-18.51-16,10.51c-2.6.95-4.53,3.36-4.72,6.31-.25,3.96,2.76,7.38,6.72,7.63,3.7.23,6.92-2.37,7.54-5.93Z"/><path class="cls-1" d="m167.11,372.29l6.46-18.51-16,10.51c-2.6.95-4.53,3.36-4.72,6.31-.25,3.96,2.76,7.38,6.72,7.63,3.7.23,6.92-2.37,7.54-5.93Z"/><path class="cls-1" d="m203.39,327.72l6.46-18.51-16,10.51c-2.6.95-4.53,3.36-4.72,6.31-.25,3.96,2.76,7.38,6.72,7.63,3.7.23,6.92-2.37,7.54-5.93Z"/><path class="cls-1" d="m207.54,469.74l6.46-18.51-16,10.51c-2.6.95-4.53,3.36-4.72,6.31-.25,3.96,2.76,7.38,6.72,7.63,3.7.23,6.92-2.37,7.54-5.93Z"/><path class="cls-1" d="m243.82,425.16l6.46-18.51-16,10.51c-2.6.95-4.53,3.36-4.72,6.31-.25,3.96,2.76,7.38,6.72,7.63,3.7.23,6.92-2.37,7.54-5.93Z"/><path class="cls-1" d="m280.11,377.48l6.46-18.51-16,10.51c-2.6.95-4.53,3.37-4.72,6.31-.25,3.96,2.76,7.38,6.72,7.63,3.7.23,6.92-2.37,7.54-5.93Z"/><path class="cls-1" d="m316.39,332.9l6.46-18.51-16,10.51c-2.6.95-4.53,3.36-4.72,6.31-.25,3.96,2.76,7.38,6.72,7.63,3.7.23,6.92-2.37,7.54-5.93Z"/><path class="cls-1" d="m150.52,469.74l6.46-18.51-16,10.51c-2.6.95-4.53,3.36-4.72,6.31-.25,3.96,2.76,7.38,6.72,7.63,3.7.23,6.92-2.37,7.54-5.93Z"/><path class="cls-1" d="m186.81,425.16l6.46-18.51-16,10.51c-2.6.95-4.53,3.36-4.72,6.31-.25,3.96,2.76,7.38,6.72,7.63,3.7.23,6.92-2.37,7.54-5.93Z"/><path class="cls-1" d="m223.09,377.48l6.46-18.51-16,10.51c-2.6.95-4.53,3.37-4.72,6.31-.25,3.96,2.76,7.38,6.72,7.63,3.7.23,6.92-2.37,7.54-5.93Z"/><path class="cls-1" d="m259.37,332.9l6.46-18.51-16,10.51c-2.6.95-4.53,3.36-4.72,6.31-.25,3.96,2.76,7.38,6.72,7.63,3.7.23,6.92-2.37,7.54-5.93Z"/><path class="cls-1" d="m421.01,199.7l6.46-18.51-16,10.51c-2.6.95-4.53,3.36-4.72,6.31-.25,3.96,2.76,7.38,6.72,7.63,3.7.23,6.92-2.37,7.54-5.94Z"/><path class="cls-1" d="m400.28,152.01l6.46-18.51-16,10.51c-2.6.95-4.53,3.37-4.72,6.31-.25,3.96,2.76,7.38,6.72,7.63,3.7.24,6.92-2.37,7.54-5.93Z"/></g></svg>