<svg width="360" height="461" viewBox="0 0 360 461" fill="none" xmlns="http://www.w3.org/2000/svg">
<rect x="-3" y="-22" width="363" height="373" fill="#8FD0FF"/>
<path d="M214.99 231.294C214.99 220.954 206.843 212.579 196.784 212.579C192.618 212.579 188.803 214.035 185.732 216.448C182.817 201.718 170.163 190.645 154.976 190.645C146.86 190.645 139.5 193.833 133.927 199.019C128.076 179.879 110.687 166 90.1448 166C70.9983 166 54.5914 178.062 47.7164 195.204C46.5792 195.087 45.4316 195.023 44.2633 195.023C35.972 195.023 28.3735 198.052 22.4497 203.079C14.9234 192.42 2.70339 185.48 -11.0982 185.48C-32.3744 185.48 -49.8976 201.963 -52.2547 223.186C-53.4126 223.026 -54.581 222.909 -55.7803 222.909C-66.0358 222.909 -74.8543 229.084 -79 238H213.78C214.556 235.917 215 233.664 215 231.305L214.99 231.294Z" fill="#0085E4"/>
<path d="M236.403 234.059C236.403 187.155 217.329 149.129 193.799 149.129C170.268 149.129 151.195 187.151 151.195 234.059C151.195 238.733 151.386 243.317 151.752 247.787H235.849C236.212 243.317 236.407 238.733 236.407 234.059H236.403Z" fill="#0085E4"/>
<path d="M193.864 182.861C193.475 182.861 193.082 182.708 192.784 182.403L176.566 165.752C175.97 165.141 175.97 164.15 176.566 163.535C177.161 162.923 178.126 162.923 178.725 163.535L194.944 180.185C195.54 180.796 195.54 181.788 194.944 182.403C194.647 182.708 194.257 182.861 193.864 182.861Z" fill="#0085E4"/>
<path d="M193.864 182.861C193.475 182.861 193.082 182.708 192.784 182.403C192.189 181.792 192.189 180.8 192.784 180.185L209.003 163.535C209.598 162.923 210.564 162.923 211.163 163.535C211.758 164.146 211.758 165.137 211.163 165.752L194.944 182.403C194.647 182.708 194.257 182.861 193.864 182.861Z" fill="#0085E4"/>
<path d="M193.864 204.961C193.475 204.961 193.082 204.809 192.784 204.503L167.296 178.336C166.701 177.725 166.701 176.734 167.296 176.119C167.891 175.507 168.857 175.507 169.456 176.119L194.944 202.286C195.539 202.897 195.539 203.888 194.944 204.503C194.647 204.809 194.257 204.961 193.864 204.961Z" fill="#0085E4"/>
<path d="M193.864 204.961C193.475 204.961 193.082 204.809 192.784 204.503C192.189 203.892 192.189 202.901 192.784 202.286L218.273 176.119C218.868 175.507 219.833 175.507 220.432 176.119C221.028 176.73 221.028 177.721 220.432 178.336L194.944 204.503C194.647 204.809 194.257 204.961 193.864 204.961Z" fill="#0085E4"/>
<path d="M193.8 249.076C192.957 249.076 192.273 248.375 192.273 247.509V159.151C192.273 158.285 192.957 157.584 193.8 157.584C194.643 157.584 195.326 158.285 195.326 159.151V247.509C195.326 248.375 194.643 249.076 193.8 249.076Z" fill="#0085E4"/>
<path d="M38.8594 238.894C38.8594 208.511 51.2162 183.884 66.4542 183.884C81.6921 183.884 94.0489 208.511 94.0489 238.894C94.0489 241.922 93.9228 244.892 93.69 247.783H39.2181C38.9815 244.888 38.8594 241.918 38.8594 238.894Z" fill="#0085E4"/>
<path d="M135.592 239.823C135.592 212.618 146.655 190.564 160.302 190.564C173.948 190.564 185.011 212.618 185.011 239.823C185.011 242.534 184.901 245.19 184.687 247.784H135.912C135.702 245.19 135.588 242.534 135.588 239.823H135.592Z" fill="#0085E4"/>
<path d="M292 233H195L243.503 120L292 233Z" fill="#0085E4"/>
<path d="M173.258 246.518C173.258 242.247 176.628 238.788 180.787 238.788C181.157 238.788 181.52 238.823 181.875 238.878C181.875 238.847 181.875 238.819 181.875 238.788C181.875 230.247 188.618 223.324 196.937 223.324C204.249 223.324 210.34 228.672 211.71 235.767C212.16 235.697 212.614 235.65 213.084 235.65C214.751 235.65 216.308 236.12 217.651 236.927C219.445 232.155 223.952 228.77 229.23 228.77C236.084 228.77 241.64 234.474 241.64 241.511C241.64 241.965 241.617 242.416 241.571 242.858C242.625 242.016 243.941 241.511 245.38 241.511C248.776 241.511 251.531 244.312 251.581 247.787H173.376C173.311 247.372 173.265 246.952 173.265 246.518H173.258Z" fill="#0085E4"/>
<path d="M80.3281 245.946C80.3281 239.752 85.2167 234.733 91.2501 234.733C91.7881 234.733 92.3109 234.788 92.8261 234.862C92.8261 234.819 92.8261 234.776 92.8261 234.733C92.8261 222.349 102.607 212.308 114.67 212.308C125.271 212.308 134.109 220.065 136.094 230.353C136.746 230.251 137.407 230.181 138.086 230.181C140.505 230.181 142.765 230.862 144.711 232.034C147.31 225.115 153.847 220.202 161.502 220.202C171.443 220.202 179.499 228.472 179.499 238.678C179.499 239.337 179.465 239.991 179.4 240.633C180.926 239.415 182.838 238.678 184.922 238.678C189.849 238.678 193.84 242.741 193.913 247.779H80.4923C80.3969 247.18 80.3319 246.569 80.3319 245.942L80.3281 245.946Z" fill="#0085E4"/>
<path d="M372.406 247.783H324.227L348.314 171.892L372.406 247.783Z" fill="#0085E4"/>
<path d="M349.358 282.048H253L301.179 93L349.358 282.048Z" fill="#0085E4"/>
<path d="M301.179 284C300.335 284 299.652 283.127 299.652 282.048V151.381C299.652 150.302 300.335 149.429 301.179 149.429C302.022 149.429 302.705 150.302 302.705 151.381V282.048C302.705 283.127 302.022 284 301.179 284Z" fill="#0085E4"/>
<path fill-rule="evenodd" clip-rule="evenodd" d="M360 237.121V349H-5V237.511C47.9122 216.923 110.686 205 178.003 205C244.895 205 307.299 216.773 360 237.121Z" fill="#3FA9F5"/>
<path fill-rule="evenodd" clip-rule="evenodd" d="M360 237.121V349H-5V237.511C47.9122 216.923 110.686 205 178.003 205C244.895 205 307.299 216.773 360 237.121Z" fill="#3FA9F5"/>
<rect y="317" width="360" height="144" fill="#3FA9F5"/>
</svg>
