<svg width="329" height="95" viewBox="0 0 329 95" fill="none" xmlns="http://www.w3.org/2000/svg">
<path d="M132.1 60.4854L129.832 56.0934H128.662V60.4854H126.232V48.4614H130.678C131.878 48.4614 132.844 48.8034 133.576 49.4874C134.308 50.1594 134.674 51.0894 134.674 52.2774C134.674 53.1774 134.458 53.9334 134.026 54.5454C133.594 55.1574 133.006 55.5894 132.262 55.8414L134.8 60.4854H132.1ZM128.662 53.8254H130.57C131.05 53.8254 131.434 53.6934 131.722 53.4294C132.01 53.1534 132.154 52.7694 132.154 52.2774C132.154 51.7854 132.01 51.4014 131.722 51.1254C131.434 50.8494 131.05 50.7114 130.57 50.7114H128.662V53.8254ZM139.618 60.7734C138.802 60.7734 138.088 60.5874 137.476 60.2154C136.876 59.8314 136.414 59.2914 136.09 58.5954C135.766 57.8994 135.604 57.0834 135.604 56.1474C135.604 55.2114 135.766 54.3954 136.09 53.6994C136.414 53.0034 136.876 52.4694 137.476 52.0974C138.088 51.7134 138.802 51.5214 139.618 51.5214C140.434 51.5214 141.142 51.7134 141.742 52.0974C142.354 52.4694 142.822 53.0034 143.146 53.6994C143.47 54.3954 143.632 55.2114 143.632 56.1474C143.632 57.0834 143.47 57.8994 143.146 58.5954C142.822 59.2914 142.354 59.8314 141.742 60.2154C141.142 60.5874 140.434 60.7734 139.618 60.7734ZM139.618 58.6494C140.722 58.6494 141.274 57.8154 141.274 56.1474C141.274 54.4794 140.722 53.6454 139.618 53.6454C138.514 53.6454 137.962 54.4794 137.962 56.1474C137.962 57.8154 138.514 58.6494 139.618 58.6494ZM139.96 47.9034H142.408L140.572 50.5674H138.286L139.96 47.9034ZM149.84 51.5214C150.884 51.5214 151.694 51.9354 152.27 52.7634C152.858 53.5914 153.152 54.7194 153.152 56.1474C153.152 57.5754 152.858 58.7034 152.27 59.5314C151.694 60.3594 150.884 60.7734 149.84 60.7734C149.288 60.7734 148.814 60.6474 148.418 60.3954C148.022 60.1434 147.71 59.8014 147.482 59.3694H147.356V60.4854H145.178V48.4614H147.5V52.6914H147.608C148.124 51.9114 148.868 51.5214 149.84 51.5214ZM149.138 58.6494C150.242 58.6494 150.794 57.8154 150.794 56.1474C150.794 54.4794 150.242 53.6454 149.138 53.6454C148.586 53.6454 148.172 53.8614 147.896 54.2934C147.62 54.7134 147.482 55.3314 147.482 56.1474C147.482 56.9634 147.62 57.5874 147.896 58.0194C148.172 58.4394 148.586 58.6494 149.138 58.6494ZM163.805 58.5054V60.4854H157.631V58.1094L161.231 53.8974V53.7894H157.793V51.8094H163.733V54.1674L160.151 58.3974V58.5054H163.805ZM172.556 58.7754C172.712 58.7754 172.832 58.7574 172.916 58.7214V60.3594C172.784 60.4314 172.61 60.4854 172.394 60.5214C172.19 60.5694 171.998 60.5934 171.818 60.5934C171.422 60.5934 171.062 60.5094 170.738 60.3414C170.414 60.1614 170.198 59.8794 170.09 59.4954H170C169.748 59.8914 169.418 60.1854 169.01 60.3774C168.602 60.5694 168.146 60.6654 167.642 60.6654C166.814 60.6654 166.166 60.4374 165.698 59.9814C165.242 59.5254 165.014 58.9014 165.014 58.1094C165.014 57.1254 165.41 56.3754 166.202 55.8594C167.006 55.3434 168.068 55.0854 169.388 55.0854H169.856V54.7434C169.856 53.8434 169.442 53.3934 168.614 53.3934C168.29 53.3934 168.032 53.4774 167.84 53.6454C167.66 53.8134 167.54 54.0414 167.48 54.3294H165.266C165.35 53.4534 165.698 52.7694 166.31 52.2774C166.922 51.7734 167.69 51.5214 168.614 51.5214C169.742 51.5214 170.606 51.8274 171.206 52.4394C171.818 53.0394 172.124 53.8614 172.124 54.9054V58.2534C172.124 58.4214 172.16 58.5534 172.232 58.6494C172.316 58.7334 172.424 58.7754 172.556 58.7754ZM167.228 57.9294C167.228 58.2294 167.324 58.4754 167.516 58.6674C167.72 58.8474 167.966 58.9374 168.254 58.9374C168.746 58.9374 169.136 58.7634 169.424 58.4154C169.712 58.0554 169.856 57.6054 169.856 57.0654V56.6514H169.388C167.948 56.6514 167.228 57.0774 167.228 57.9294ZM181.759 48.4614V60.4854H179.581V59.3694H179.455C179.239 59.8014 178.933 60.1434 178.537 60.3954C178.141 60.6474 177.667 60.7734 177.115 60.7734C176.059 60.7734 175.237 60.3594 174.649 59.5314C174.073 58.7034 173.785 57.5754 173.785 56.1474C173.785 54.7194 174.073 53.5914 174.649 52.7634C175.237 51.9354 176.059 51.5214 177.115 51.5214C177.619 51.5214 178.057 51.6294 178.429 51.8454C178.801 52.0494 179.101 52.3314 179.329 52.6914H179.437V48.4614H181.759ZM177.799 58.6494C178.351 58.6494 178.765 58.4394 179.041 58.0194C179.317 57.5874 179.455 56.9634 179.455 56.1474C179.455 55.3314 179.317 54.7134 179.041 54.2934C178.765 53.8614 178.351 53.6454 177.799 53.6454C176.695 53.6454 176.143 54.4794 176.143 56.1474C176.143 57.8154 176.695 58.6494 177.799 58.6494ZM190.872 58.7754C191.028 58.7754 191.148 58.7574 191.232 58.7214V60.3594C191.1 60.4314 190.926 60.4854 190.71 60.5214C190.506 60.5694 190.314 60.5934 190.134 60.5934C189.738 60.5934 189.378 60.5094 189.054 60.3414C188.73 60.1614 188.514 59.8794 188.406 59.4954H188.316C188.064 59.8914 187.734 60.1854 187.326 60.3774C186.918 60.5694 186.462 60.6654 185.958 60.6654C185.13 60.6654 184.482 60.4374 184.014 59.9814C183.558 59.5254 183.33 58.9014 183.33 58.1094C183.33 57.1254 183.726 56.3754 184.518 55.8594C185.322 55.3434 186.384 55.0854 187.704 55.0854H188.172V54.7434C188.172 53.8434 187.758 53.3934 186.93 53.3934C186.606 53.3934 186.348 53.4774 186.156 53.6454C185.976 53.8134 185.856 54.0414 185.796 54.3294H183.582C183.666 53.4534 184.014 52.7694 184.626 52.2774C185.238 51.7734 186.006 51.5214 186.93 51.5214C188.058 51.5214 188.922 51.8274 189.522 52.4394C190.134 53.0394 190.44 53.8614 190.44 54.9054V58.2534C190.44 58.4214 190.476 58.5534 190.548 58.6494C190.632 58.7334 190.74 58.7754 190.872 58.7754ZM185.544 57.9294C185.544 58.2294 185.64 58.4754 185.832 58.6674C186.036 58.8474 186.282 58.9374 186.57 58.9374C187.062 58.9374 187.452 58.7634 187.74 58.4154C188.028 58.0554 188.172 57.6054 188.172 57.0654V56.6514H187.704C186.264 56.6514 185.544 57.0774 185.544 57.9294ZM197.194 51.5214C198.958 51.5214 199.84 52.5954 199.84 54.7434V60.4854H197.518V55.0314C197.518 54.1074 197.14 53.6454 196.384 53.6454C195.94 53.6454 195.58 53.8074 195.304 54.1314C195.04 54.4434 194.908 54.8634 194.908 55.3914V60.4854H192.586V51.8094H194.764V52.8714H194.872C195.1 52.4394 195.412 52.1094 195.808 51.8814C196.216 51.6414 196.678 51.5214 197.194 51.5214ZM201.744 48.4614H204.066V50.5314H201.744V48.4614ZM201.744 51.8094H204.066V60.4854H201.744V51.8094ZM213.179 58.7754C213.335 58.7754 213.455 58.7574 213.539 58.7214V60.3594C213.407 60.4314 213.233 60.4854 213.017 60.5214C212.813 60.5694 212.621 60.5934 212.441 60.5934C212.045 60.5934 211.685 60.5094 211.361 60.3414C211.037 60.1614 210.821 59.8794 210.713 59.4954H210.623C210.371 59.8914 210.041 60.1854 209.633 60.3774C209.225 60.5694 208.769 60.6654 208.265 60.6654C207.437 60.6654 206.789 60.4374 206.321 59.9814C205.865 59.5254 205.637 58.9014 205.637 58.1094C205.637 57.1254 206.033 56.3754 206.825 55.8594C207.629 55.3434 208.691 55.0854 210.011 55.0854H210.479V54.7434C210.479 53.8434 210.065 53.3934 209.237 53.3934C208.913 53.3934 208.655 53.4774 208.463 53.6454C208.283 53.8134 208.163 54.0414 208.103 54.3294H205.889C205.973 53.4534 206.321 52.7694 206.933 52.2774C207.545 51.7734 208.313 51.5214 209.237 51.5214C210.365 51.5214 211.229 51.8274 211.829 52.4394C212.441 53.0394 212.747 53.8614 212.747 54.9054V58.2534C212.747 58.4214 212.783 58.5534 212.855 58.6494C212.939 58.7334 213.047 58.7754 213.179 58.7754ZM207.851 57.9294C207.851 58.2294 207.947 58.4754 208.139 58.6674C208.343 58.8474 208.589 58.9374 208.877 58.9374C209.369 58.9374 209.759 58.7634 210.047 58.4154C210.335 58.0554 210.479 57.6054 210.479 57.0654V56.6514H210.011C208.571 56.6514 207.851 57.0774 207.851 57.9294Z" fill="white"/>
<path d="M266.333 37.2354V39.4854H258.719V36.7134L263.669 29.8194V29.7114H258.899V27.4614H266.279V30.2334L261.347 37.1274V37.2354H266.333ZM275.322 27.4614V39.4854H273.144V38.3694H273.018C272.802 38.8014 272.496 39.1434 272.1 39.3954C271.704 39.6474 271.23 39.7734 270.678 39.7734C269.622 39.7734 268.8 39.3594 268.212 38.5314C267.636 37.7034 267.348 36.5754 267.348 35.1474C267.348 33.7194 267.636 32.5914 268.212 31.7634C268.8 30.9354 269.622 30.5214 270.678 30.5214C271.182 30.5214 271.62 30.6294 271.992 30.8454C272.364 31.0494 272.664 31.3314 272.892 31.6914H273V27.4614H275.322ZM271.362 37.6494C271.914 37.6494 272.328 37.4394 272.604 37.0194C272.88 36.5874 273.018 35.9634 273.018 35.1474C273.018 34.3314 272.88 33.7134 272.604 33.2934C272.328 32.8614 271.914 32.6454 271.362 32.6454C270.258 32.6454 269.706 33.4794 269.706 35.1474C269.706 36.8154 270.258 37.6494 271.362 37.6494ZM280.871 39.7734C280.055 39.7734 279.341 39.5874 278.729 39.2154C278.129 38.8314 277.667 38.2914 277.343 37.5954C277.019 36.8994 276.857 36.0834 276.857 35.1474C276.857 34.2114 277.019 33.3954 277.343 32.6994C277.667 32.0034 278.129 31.4694 278.729 31.0974C279.341 30.7134 280.055 30.5214 280.871 30.5214C281.687 30.5214 282.395 30.7134 282.995 31.0974C283.607 31.4694 284.075 32.0034 284.399 32.6994C284.723 33.3954 284.885 34.2114 284.885 35.1474C284.885 36.0834 284.723 36.8994 284.399 37.5954C284.075 38.2914 283.607 38.8314 282.995 39.2154C282.395 39.5874 281.687 39.7734 280.871 39.7734ZM280.871 37.6494C281.975 37.6494 282.527 36.8154 282.527 35.1474C282.527 33.4794 281.975 32.6454 280.871 32.6454C279.767 32.6454 279.215 33.4794 279.215 35.1474C279.215 36.8154 279.767 37.6494 280.871 37.6494ZM291.093 30.5214C292.137 30.5214 292.947 30.9354 293.523 31.7634C294.111 32.5914 294.405 33.7194 294.405 35.1474C294.405 36.5754 294.111 37.7034 293.523 38.5314C292.947 39.3594 292.137 39.7734 291.093 39.7734C290.541 39.7734 290.067 39.6474 289.671 39.3954C289.275 39.1434 288.963 38.8014 288.735 38.3694H288.609V39.4854H286.431V27.4614H288.753V31.6914H288.861C289.377 30.9114 290.121 30.5214 291.093 30.5214ZM290.391 37.6494C291.495 37.6494 292.047 36.8154 292.047 35.1474C292.047 33.4794 291.495 32.6454 290.391 32.6454C289.839 32.6454 289.425 32.8614 289.149 33.2934C288.873 33.7134 288.735 34.3314 288.735 35.1474C288.735 35.9634 288.873 36.5874 289.149 37.0194C289.425 37.4394 289.839 37.6494 290.391 37.6494ZM303.342 30.8094L299.958 40.4214C299.718 41.1174 299.358 41.6574 298.878 42.0414C298.41 42.4254 297.822 42.6174 297.114 42.6174C296.574 42.6174 296.106 42.5394 295.71 42.3834V40.5294C295.986 40.6014 296.304 40.6374 296.664 40.6374C296.964 40.6374 297.204 40.5654 297.384 40.4214C297.564 40.2894 297.72 40.0434 297.852 39.6834L298.05 39.1614L294.918 30.8094H297.402L299.094 36.0654H299.202L300.858 30.8094H303.342ZM315.787 30.8094L313.465 39.4854H311.071L309.793 34.3914H309.685L308.407 39.4854H305.995L303.673 30.8094H305.959L307.165 35.9394H307.273L308.461 30.8094H311.017L312.205 35.9394H312.313L313.501 30.8094H315.787ZM323.881 37.7754C324.037 37.7754 324.157 37.7574 324.241 37.7214V39.3594C324.109 39.4314 323.935 39.4854 323.719 39.5214C323.515 39.5694 323.323 39.5934 323.143 39.5934C322.747 39.5934 322.387 39.5094 322.063 39.3414C321.739 39.1614 321.523 38.8794 321.415 38.4954H321.325C321.073 38.8914 320.743 39.1854 320.335 39.3774C319.927 39.5694 319.471 39.6654 318.967 39.6654C318.139 39.6654 317.491 39.4374 317.023 38.9814C316.567 38.5254 316.339 37.9014 316.339 37.1094C316.339 36.1254 316.735 35.3754 317.527 34.8594C318.331 34.3434 319.393 34.0854 320.713 34.0854H321.181V33.7434C321.181 32.8434 320.767 32.3934 319.939 32.3934C319.615 32.3934 319.357 32.4774 319.165 32.6454C318.985 32.8134 318.865 33.0414 318.805 33.3294H316.591C316.675 32.4534 317.023 31.7694 317.635 31.2774C318.247 30.7734 319.015 30.5214 319.939 30.5214C321.067 30.5214 321.931 30.8274 322.531 31.4394C323.143 32.0394 323.449 32.8614 323.449 33.9054V37.2534C323.449 37.4214 323.485 37.5534 323.557 37.6494C323.641 37.7334 323.749 37.7754 323.881 37.7754ZM318.553 36.9294C318.553 37.2294 318.649 37.4754 318.841 37.6674C319.045 37.8474 319.291 37.9374 319.579 37.9374C320.071 37.9374 320.461 37.7634 320.749 37.4154C321.037 37.0554 321.181 36.6054 321.181 36.0654V35.6514H320.713C319.273 35.6514 318.553 36.0774 318.553 36.9294ZM325.594 27.4614H327.916V29.5314H325.594V27.4614ZM324.208 40.3674C324.376 40.4034 324.556 40.4214 324.748 40.4214C325.012 40.4214 325.216 40.3434 325.36 40.1874C325.516 40.0434 325.594 39.8514 325.594 39.6114V30.8094H327.916V39.7374C327.916 40.5894 327.67 41.2554 327.178 41.7354C326.698 42.2274 326.038 42.4734 325.198 42.4734C324.826 42.4734 324.496 42.4134 324.208 42.2934V40.3674ZM269.551 60.7734C268.735 60.7734 268.021 60.5874 267.409 60.2154C266.809 59.8314 266.347 59.2914 266.023 58.5954C265.699 57.8994 265.537 57.0834 265.537 56.1474C265.537 55.2114 265.699 54.3954 266.023 53.6994C266.347 53.0034 266.809 52.4694 267.409 52.0974C268.021 51.7134 268.735 51.5214 269.551 51.5214C270.367 51.5214 271.075 51.7134 271.675 52.0974C272.287 52.4694 272.755 53.0034 273.079 53.6994C273.403 54.3954 273.565 55.2114 273.565 56.1474C273.565 57.0834 273.403 57.8994 273.079 58.5954C272.755 59.2914 272.287 59.8314 271.675 60.2154C271.075 60.5874 270.367 60.7734 269.551 60.7734ZM269.551 58.6494C270.655 58.6494 271.207 57.8154 271.207 56.1474C271.207 54.4794 270.655 53.6454 269.551 53.6454C268.447 53.6454 267.895 54.4794 267.895 56.1474C267.895 57.8154 268.447 58.6494 269.551 58.6494ZM282.653 48.4614V60.4854H280.475V59.3694H280.349C280.133 59.8014 279.827 60.1434 279.431 60.3954C279.035 60.6474 278.561 60.7734 278.009 60.7734C276.953 60.7734 276.131 60.3594 275.543 59.5314C274.967 58.7034 274.679 57.5754 274.679 56.1474C274.679 54.7194 274.967 53.5914 275.543 52.7634C276.131 51.9354 276.953 51.5214 278.009 51.5214C278.513 51.5214 278.951 51.6294 279.323 51.8454C279.695 52.0494 279.995 52.3314 280.223 52.6914H280.331V48.4614H282.653ZM278.693 58.6494C279.245 58.6494 279.659 58.4394 279.935 58.0194C280.211 57.5874 280.349 56.9634 280.349 56.1474C280.349 55.3314 280.211 54.7134 279.935 54.2934C279.659 53.8614 279.245 53.6454 278.693 53.6454C277.589 53.6454 277.037 54.4794 277.037 56.1474C277.037 57.8154 277.589 58.6494 278.693 58.6494ZM290.415 58.5054V60.4854H284.241V58.1094L287.841 53.8974V53.7894H284.403V51.8094H290.343V54.1674L286.761 58.3974V58.5054H290.415ZM296.646 51.5214C298.41 51.5214 299.292 52.5954 299.292 54.7434V60.4854H296.97V55.0314C296.97 54.1074 296.592 53.6454 295.836 53.6454C295.392 53.6454 295.032 53.8074 294.756 54.1314C294.492 54.4434 294.36 54.8634 294.36 55.3914V60.4854H292.038V51.8094H294.216V52.8714H294.324C294.552 52.4394 294.864 52.1094 295.26 51.8814C295.668 51.6414 296.13 51.5214 296.646 51.5214ZM308.324 58.7754C308.48 58.7754 308.6 58.7574 308.684 58.7214V60.3594C308.552 60.4314 308.378 60.4854 308.162 60.5214C307.958 60.5694 307.766 60.5934 307.586 60.5934C307.19 60.5934 306.83 60.5094 306.506 60.3414C306.182 60.1614 305.966 59.8794 305.858 59.4954H305.768C305.516 59.8914 305.186 60.1854 304.778 60.3774C304.37 60.5694 303.914 60.6654 303.41 60.6654C302.582 60.6654 301.934 60.4374 301.466 59.9814C301.01 59.5254 300.782 58.9014 300.782 58.1094C300.782 57.1254 301.178 56.3754 301.97 55.8594C302.774 55.3434 303.836 55.0854 305.156 55.0854H305.624V54.7434C305.624 53.8434 305.21 53.3934 304.382 53.3934C304.058 53.3934 303.8 53.4774 303.608 53.6454C303.428 53.8134 303.308 54.0414 303.248 54.3294H301.034C301.118 53.4534 301.466 52.7694 302.078 52.2774C302.69 51.7734 303.458 51.5214 304.382 51.5214C305.51 51.5214 306.374 51.8274 306.974 52.4394C307.586 53.0394 307.892 53.8614 307.892 54.9054V58.2534C307.892 58.4214 307.928 58.5534 308 58.6494C308.084 58.7334 308.192 58.7754 308.324 58.7754ZM302.996 57.9294C302.996 58.2294 303.092 58.4754 303.284 58.6674C303.488 58.8474 303.734 58.9374 304.022 58.9374C304.514 58.9374 304.904 58.7634 305.192 58.4154C305.48 58.0554 305.624 57.6054 305.624 57.0654V56.6514H305.156C303.716 56.6514 302.996 57.0774 302.996 57.9294ZM314.412 55.4814L317.688 60.4854H314.898L312.918 57.2634H312.828L312.36 57.7854V60.4854H310.038V48.4614H312.36V54.5274H312.468L314.772 51.8094H317.742L314.412 55.4814ZM318.686 48.4614H321.008V50.5314H318.686V48.4614ZM318.686 51.8094H321.008V60.4854H318.686V51.8094ZM264.159 69.4614H266.481V71.5314H264.159V69.4614ZM264.159 72.8094H266.481V81.4854H264.159V72.8094ZM276.45 72.5214C277.494 72.5214 278.304 72.9354 278.88 73.7634C279.468 74.5914 279.762 75.7194 279.762 77.1474C279.762 78.5754 279.468 79.7034 278.88 80.5314C278.304 81.3594 277.494 81.7734 276.45 81.7734C275.898 81.7734 275.424 81.6474 275.028 81.3954C274.632 81.1434 274.32 80.8014 274.092 80.3694H273.966V81.4854H271.788V69.4614H274.11V73.6914H274.218C274.734 72.9114 275.478 72.5214 276.45 72.5214ZM275.748 79.6494C276.852 79.6494 277.404 78.8154 277.404 77.1474C277.404 75.4794 276.852 74.6454 275.748 74.6454C275.196 74.6454 274.782 74.8614 274.506 75.2934C274.23 75.7134 274.092 76.3314 274.092 77.1474C274.092 77.9634 274.23 78.5874 274.506 79.0194C274.782 79.4394 275.196 79.6494 275.748 79.6494ZM284.897 81.7734C284.081 81.7734 283.367 81.5874 282.755 81.2154C282.155 80.8314 281.693 80.2914 281.369 79.5954C281.045 78.8994 280.883 78.0834 280.883 77.1474C280.883 76.2114 281.045 75.3954 281.369 74.6994C281.693 74.0034 282.155 73.4694 282.755 73.0974C283.367 72.7134 284.081 72.5214 284.897 72.5214C285.713 72.5214 286.421 72.7134 287.021 73.0974C287.633 73.4694 288.101 74.0034 288.425 74.6994C288.749 75.3954 288.911 76.2114 288.911 77.1474C288.911 78.0834 288.749 78.8994 288.425 79.5954C288.101 80.2914 287.633 80.8314 287.021 81.2154C286.421 81.5874 285.713 81.7734 284.897 81.7734ZM284.897 79.6494C286.001 79.6494 286.553 78.8154 286.553 77.1474C286.553 75.4794 286.001 74.6454 284.897 74.6454C283.793 74.6454 283.241 75.4794 283.241 77.1474C283.241 78.8154 283.793 79.6494 284.897 79.6494ZM295.046 72.5214C296.81 72.5214 297.692 73.5954 297.692 75.7434V81.4854H295.37V76.0314C295.37 75.1074 294.992 74.6454 294.236 74.6454C293.792 74.6454 293.432 74.8074 293.156 75.1314C292.892 75.4434 292.76 75.8634 292.76 76.3914V81.4854H290.438V72.8094H292.616V73.8714H292.724C292.952 73.4394 293.264 73.1094 293.66 72.8814C294.068 72.6414 294.53 72.5214 295.046 72.5214ZM302.17 81.7734C300.406 81.7734 299.524 80.6994 299.524 78.5514V72.8094H301.846V78.2634C301.846 79.1874 302.224 79.6494 302.98 79.6494C303.424 79.6494 303.778 79.4874 304.042 79.1634C304.318 78.8394 304.456 78.4134 304.456 77.8854V72.8094H306.778V81.4854H304.6V80.4234H304.492C304.264 80.8554 303.946 81.1914 303.538 81.4314C303.142 81.6594 302.686 81.7734 302.17 81.7734ZM311.599 81.7734C310.627 81.7734 309.847 81.5334 309.259 81.0534C308.683 80.5734 308.359 79.8954 308.287 79.0194H310.447C310.567 79.6194 310.951 79.9194 311.599 79.9194C311.911 79.9194 312.157 79.8474 312.337 79.7034C312.517 79.5594 312.607 79.3614 312.607 79.1094C312.607 78.8694 312.523 78.6774 312.355 78.5334C312.187 78.3894 311.947 78.2754 311.635 78.1914L310.447 77.8854C309.079 77.5134 308.395 76.6314 308.395 75.2394C308.395 74.7354 308.527 74.2794 308.791 73.8714C309.055 73.4634 309.427 73.1394 309.907 72.8994C310.387 72.6594 310.951 72.5394 311.599 72.5394C312.511 72.5394 313.255 72.7914 313.831 73.2954C314.407 73.7874 314.743 74.4654 314.839 75.3294H312.607C312.523 74.7054 312.187 74.3934 311.599 74.3934C311.323 74.3934 311.095 74.4714 310.915 74.6274C310.747 74.7834 310.663 74.9754 310.663 75.2034C310.663 75.6354 310.921 75.9054 311.437 76.0134L312.607 76.3194C313.351 76.5114 313.909 76.8294 314.281 77.2734C314.665 77.7054 314.857 78.2574 314.857 78.9294C314.857 79.7934 314.563 80.4834 313.975 80.9994C313.387 81.5154 312.595 81.7734 311.599 81.7734ZM323.68 72.8094L320.296 82.4214C320.056 83.1174 319.696 83.6574 319.216 84.0414C318.748 84.4254 318.16 84.6174 317.452 84.6174C316.912 84.6174 316.444 84.5394 316.048 84.3834V82.5294C316.324 82.6014 316.642 82.6374 317.002 82.6374C317.302 82.6374 317.542 82.5654 317.722 82.4214C317.902 82.2894 318.058 82.0434 318.19 81.6834L318.388 81.1614L315.256 72.8094H317.74L319.432 78.0654H319.54L321.196 72.8094H323.68Z" fill="white"/>
<path d="M7.37774 39.7734C5.74574 39.7734 4.48574 39.2154 3.59774 38.0994C2.72174 36.9834 2.28374 35.4414 2.28374 33.4734C2.28374 31.5054 2.72174 29.9634 3.59774 28.8474C4.48574 27.7314 5.74574 27.1734 7.37774 27.1734C9.00974 27.1734 10.2637 27.7314 11.1397 28.8474C12.0277 29.9634 12.4717 31.5054 12.4717 33.4734C12.4717 35.4414 12.0277 36.9834 11.1397 38.0994C10.2637 39.2154 9.00974 39.7734 7.37774 39.7734ZM7.37774 37.4334C8.21774 37.4334 8.85374 37.1034 9.28574 36.4434C9.72974 35.7714 9.95174 34.7814 9.95174 33.4734C9.95174 32.1654 9.72974 31.1814 9.28574 30.5214C8.85374 29.8494 8.21774 29.5134 7.37774 29.5134C6.53774 29.5134 5.89574 29.8494 5.45174 30.5214C5.01974 31.1814 4.80374 32.1654 4.80374 33.4734C4.80374 34.7814 5.01974 35.7714 5.45174 36.4434C5.89574 37.1034 6.53774 37.4334 7.37774 37.4334ZM21.6643 27.4614V39.4854H19.4863V38.3694H19.3603C19.1443 38.8014 18.8383 39.1434 18.4423 39.3954C18.0463 39.6474 17.5723 39.7734 17.0203 39.7734C15.9643 39.7734 15.1423 39.3594 14.5543 38.5314C13.9783 37.7034 13.6903 36.5754 13.6903 35.1474C13.6903 33.7194 13.9783 32.5914 14.5543 31.7634C15.1423 30.9354 15.9643 30.5214 17.0203 30.5214C17.5243 30.5214 17.9623 30.6294 18.3343 30.8454C18.7063 31.0494 19.0063 31.3314 19.2343 31.6914H19.3423V27.4614H21.6643ZM17.7043 37.6494C18.2563 37.6494 18.6703 37.4394 18.9463 37.0194C19.2223 36.5874 19.3603 35.9634 19.3603 35.1474C19.3603 34.3314 19.2223 33.7134 18.9463 33.2934C18.6703 32.8614 18.2563 32.6454 17.7043 32.6454C16.6003 32.6454 16.0483 33.4794 16.0483 35.1474C16.0483 36.8154 16.6003 37.6494 17.7043 37.6494ZM34.9532 30.8094L32.6312 39.4854H30.2372L28.9592 34.3914H28.8512L27.5732 39.4854H25.1612L22.8392 30.8094H25.1252L26.3312 35.9394H26.4392L27.6272 30.8094H30.1832L31.3712 35.9394H31.4792L32.6672 30.8094H34.9532ZM36.1296 27.4614H38.4516V29.5314H36.1296V27.4614ZM36.1296 30.8094H38.4516V39.4854H36.1296V30.8094ZM47.6903 34.8954C47.6903 35.3034 47.6783 35.5734 47.6543 35.7054H42.2183C42.2783 36.4734 42.4523 37.0194 42.7403 37.3434C43.0283 37.6554 43.4123 37.8114 43.8923 37.8114C44.5883 37.8114 45.0443 37.5474 45.2603 37.0194H47.6003C47.4323 37.8714 47.0123 38.5434 46.3403 39.0354C45.6683 39.5274 44.8523 39.7734 43.8923 39.7734C42.7163 39.7734 41.7743 39.3654 41.0663 38.5494C40.3583 37.7334 40.0043 36.5994 40.0043 35.1474C40.0043 33.6954 40.3523 32.5614 41.0483 31.7454C41.7563 30.9294 42.7223 30.5214 43.9463 30.5214C44.6903 30.5214 45.3443 30.7014 45.9083 31.0614C46.4843 31.4214 46.9223 31.9314 47.2223 32.5914C47.5343 33.2514 47.6903 34.0194 47.6903 34.8954ZM43.9463 32.4834C43.5023 32.4834 43.1423 32.6034 42.8663 32.8434C42.5903 33.0714 42.3983 33.4674 42.2903 34.0314H45.4943C45.3503 32.9994 44.8343 32.4834 43.9463 32.4834ZM56.8205 27.4614V39.4854H54.6425V38.3694H54.5165C54.3005 38.8014 53.9945 39.1434 53.5985 39.3954C53.2025 39.6474 52.7285 39.7734 52.1765 39.7734C51.1205 39.7734 50.2985 39.3594 49.7105 38.5314C49.1345 37.7034 48.8465 36.5754 48.8465 35.1474C48.8465 33.7194 49.1345 32.5914 49.7105 31.7634C50.2985 30.9354 51.1205 30.5214 52.1765 30.5214C52.6805 30.5214 53.1185 30.6294 53.4905 30.8454C53.8625 31.0494 54.1625 31.3314 54.3905 31.6914H54.4985V27.4614H56.8205ZM52.8605 37.6494C53.4125 37.6494 53.8265 37.4394 54.1025 37.0194C54.3785 36.5874 54.5165 35.9634 54.5165 35.1474C54.5165 34.3314 54.3785 33.7134 54.1025 33.2934C53.8265 32.8614 53.4125 32.6454 52.8605 32.6454C51.7565 32.6454 51.2045 33.4794 51.2045 35.1474C51.2045 36.8154 51.7565 37.6494 52.8605 37.6494ZM64.5834 37.5054V39.4854H58.4094V37.1094L62.0094 32.8974V32.7894H58.5714V30.8094H64.5114V33.1674L60.9294 37.3974V37.5054H64.5834ZM73.3338 37.7754C73.4898 37.7754 73.6098 37.7574 73.6938 37.7214V39.3594C73.5618 39.4314 73.3878 39.4854 73.1718 39.5214C72.9678 39.5694 72.7758 39.5934 72.5958 39.5934C72.1998 39.5934 71.8398 39.5094 71.5158 39.3414C71.1918 39.1614 70.9758 38.8794 70.8678 38.4954H70.7778C70.5258 38.8914 70.1958 39.1854 69.7878 39.3774C69.3798 39.5694 68.9238 39.6654 68.4198 39.6654C67.5918 39.6654 66.9438 39.4374 66.4758 38.9814C66.0198 38.5254 65.7918 37.9014 65.7918 37.1094C65.7918 36.1254 66.1878 35.3754 66.9798 34.8594C67.7838 34.3434 68.8458 34.0854 70.1658 34.0854H70.6338V33.7434C70.6338 32.8434 70.2198 32.3934 69.3918 32.3934C69.0678 32.3934 68.8098 32.4774 68.6178 32.6454C68.4378 32.8134 68.3178 33.0414 68.2578 33.3294H66.0438C66.1278 32.4534 66.4758 31.7694 67.0878 31.2774C67.6998 30.7734 68.4678 30.5214 69.3918 30.5214C70.5198 30.5214 71.3838 30.8274 71.9838 31.4394C72.5958 32.0394 72.9018 32.8614 72.9018 33.9054V37.2534C72.9018 37.4214 72.9378 37.5534 73.0098 37.6494C73.0938 37.7334 73.2018 37.7754 73.3338 37.7754ZM68.0058 36.9294C68.0058 37.2294 68.1018 37.4754 68.2938 37.6674C68.4978 37.8474 68.7438 37.9374 69.0318 37.9374C69.5238 37.9374 69.9138 37.7634 70.2018 37.4154C70.4898 37.0554 70.6338 36.6054 70.6338 36.0654V35.6514H70.1658C68.7258 35.6514 68.0058 36.0774 68.0058 36.9294ZM75.0476 27.4614H77.3696V29.5314H75.0476V27.4614ZM73.6616 40.3674C73.8296 40.4034 74.0096 40.4214 74.2016 40.4214C74.4656 40.4214 74.6696 40.3434 74.8136 40.1874C74.9696 40.0434 75.0476 39.8514 75.0476 39.6114V30.8094H77.3696V39.7374C77.3696 40.5894 77.1236 41.2554 76.6316 41.7354C76.1516 42.2274 75.4916 42.4734 74.6516 42.4734C74.2796 42.4734 73.9496 42.4134 73.6616 42.2934V40.3674ZM17.102 48.4614H25.688V50.7114H22.61V60.4854H20.18V50.7114H17.102V48.4614ZM32.4032 58.7754C32.5592 58.7754 32.6792 58.7574 32.7632 58.7214V60.3594C32.6312 60.4314 32.4572 60.4854 32.2412 60.5214C32.0372 60.5694 31.8452 60.5934 31.6652 60.5934C31.2692 60.5934 30.9092 60.5094 30.5852 60.3414C30.2612 60.1614 30.0452 59.8794 29.9372 59.4954H29.8472C29.5952 59.8914 29.2652 60.1854 28.8572 60.3774C28.4492 60.5694 27.9932 60.6654 27.4892 60.6654C26.6612 60.6654 26.0132 60.4374 25.5452 59.9814C25.0892 59.5254 24.8612 58.9014 24.8612 58.1094C24.8612 57.1254 25.2572 56.3754 26.0492 55.8594C26.8532 55.3434 27.9152 55.0854 29.2352 55.0854H29.7032V54.7434C29.7032 53.8434 29.2892 53.3934 28.4612 53.3934C28.1372 53.3934 27.8792 53.4774 27.6872 53.6454C27.5072 53.8134 27.3872 54.0414 27.3272 54.3294H25.1132C25.1972 53.4534 25.5452 52.7694 26.1572 52.2774C26.7692 51.7734 27.5372 51.5214 28.4612 51.5214C29.5892 51.5214 30.4532 51.8274 31.0532 52.4394C31.6652 53.0394 31.9712 53.8614 31.9712 54.9054V58.2534C31.9712 58.4214 32.0072 58.5534 32.0792 58.6494C32.1632 58.7334 32.2712 58.7754 32.4032 58.7754ZM27.0752 57.9294C27.0752 58.2294 27.1712 58.4754 27.3632 58.6674C27.5672 58.8474 27.8132 58.9374 28.1012 58.9374C28.5932 58.9374 28.9832 58.7634 29.2712 58.4154C29.5592 58.0554 29.7032 57.6054 29.7032 57.0654V56.6514H29.2352C27.7952 56.6514 27.0752 57.0774 27.0752 57.9294ZM41.6066 48.4614V60.4854H39.4286V59.3694H39.3026C39.0866 59.8014 38.7806 60.1434 38.3846 60.3954C37.9886 60.6474 37.5146 60.7734 36.9626 60.7734C35.9066 60.7734 35.0846 60.3594 34.4966 59.5314C33.9206 58.7034 33.6326 57.5754 33.6326 56.1474C33.6326 54.7194 33.9206 53.5914 34.4966 52.7634C35.0846 51.9354 35.9066 51.5214 36.9626 51.5214C37.4666 51.5214 37.9046 51.6294 38.2766 51.8454C38.6486 52.0494 38.9486 52.3314 39.1766 52.6914H39.2846V48.4614H41.6066ZM37.6466 58.6494C38.1986 58.6494 38.6126 58.4394 38.8886 58.0194C39.1646 57.5874 39.3026 56.9634 39.3026 56.1474C39.3026 55.3314 39.1646 54.7134 38.8886 54.2934C38.6126 53.8614 38.1986 53.6454 37.6466 53.6454C36.5426 53.6454 35.9906 54.4794 35.9906 56.1474C35.9906 57.8154 36.5426 58.6494 37.6466 58.6494ZM47.9656 55.4814L51.2416 60.4854H48.4516L46.4716 57.2634H46.3816L45.9136 57.7854V60.4854H43.5916V48.4614H45.9136V54.5274H46.0216L48.3256 51.8094H51.2956L47.9656 55.4814ZM59.1395 58.7754C59.2955 58.7754 59.4155 58.7574 59.4995 58.7214V60.3594C59.3675 60.4314 59.1935 60.4854 58.9775 60.5214C58.7735 60.5694 58.5815 60.5934 58.4015 60.5934C58.0055 60.5934 57.6455 60.5094 57.3215 60.3414C56.9975 60.1614 56.7815 59.8794 56.6735 59.4954H56.5835C56.3315 59.8914 56.0015 60.1854 55.5935 60.3774C55.1855 60.5694 54.7295 60.6654 54.2255 60.6654C53.3975 60.6654 52.7495 60.4374 52.2815 59.9814C51.8255 59.5254 51.5975 58.9014 51.5975 58.1094C51.5975 57.1254 51.9935 56.3754 52.7855 55.8594C53.5895 55.3434 54.6515 55.0854 55.9715 55.0854H56.4395V54.7434C56.4395 53.8434 56.0255 53.3934 55.1975 53.3934C54.8735 53.3934 54.6155 53.4774 54.4235 53.6454C54.2435 53.8134 54.1235 54.0414 54.0635 54.3294H51.8495C51.9335 53.4534 52.2815 52.7694 52.8935 52.2774C53.5055 51.7734 54.2735 51.5214 55.1975 51.5214C56.3255 51.5214 57.1895 51.8274 57.7895 52.4394C58.4015 53.0394 58.7075 53.8614 58.7075 54.9054V58.2534C58.7075 58.4214 58.7435 58.5534 58.8155 58.6494C58.8995 58.7334 59.0075 58.7754 59.1395 58.7754ZM53.8115 57.9294C53.8115 58.2294 53.9075 58.4754 54.0995 58.6674C54.3035 58.8474 54.5495 58.9374 54.8375 58.9374C55.3295 58.9374 55.7195 58.7634 56.0075 58.4154C56.2955 58.0554 56.4395 57.6054 56.4395 57.0654V56.6514H55.9715C54.5315 56.6514 53.8115 57.0774 53.8115 57.9294ZM0.963273 77.1474C0.963273 75.7314 1.30527 74.6094 1.98927 73.7814C2.68527 72.9414 3.64527 72.5214 4.86927 72.5214C5.92527 72.5214 6.77127 72.8214 7.40727 73.4214C8.05527 74.0214 8.44527 74.8134 8.57727 75.7974H6.20127C6.05727 75.0294 5.61327 74.6454 4.86927 74.6454C3.83727 74.6454 3.32127 75.4794 3.32127 77.1474C3.32127 78.8154 3.83727 79.6494 4.86927 79.6494C5.61327 79.6494 6.05727 79.2654 6.20127 78.4974H8.57727C8.44527 79.4814 8.05527 80.2734 7.40727 80.8734C6.77127 81.4734 5.92527 81.7734 4.86927 81.7734C3.64527 81.7734 2.68527 81.3594 1.98927 80.5314C1.30527 79.6914 0.963273 78.5634 0.963273 77.1474ZM13.5198 81.7734C12.7038 81.7734 11.9898 81.5874 11.3778 81.2154C10.7778 80.8314 10.3158 80.2914 9.99182 79.5954C9.66782 78.8994 9.50582 78.0834 9.50582 77.1474C9.50582 76.2114 9.66782 75.3954 9.99182 74.6994C10.3158 74.0034 10.7778 73.4694 11.3778 73.0974C11.9898 72.7134 12.7038 72.5214 13.5198 72.5214C14.3358 72.5214 15.0438 72.7134 15.6438 73.0974C16.2558 73.4694 16.7238 74.0034 17.0478 74.6994C17.3718 75.3954 17.5338 76.2114 17.5338 77.1474C17.5338 78.0834 17.3718 78.8994 17.0478 79.5954C16.7238 80.2914 16.2558 80.8314 15.6438 81.2154C15.0438 81.5874 14.3358 81.7734 13.5198 81.7734ZM13.5198 79.6494C14.6238 79.6494 15.1758 78.8154 15.1758 77.1474C15.1758 75.4794 14.6238 74.6454 13.5198 74.6454C12.4158 74.6454 11.8638 75.4794 11.8638 77.1474C11.8638 78.8154 12.4158 79.6494 13.5198 79.6494ZM26.6213 69.4614V81.4854H24.4433V80.3694H24.3173C24.1013 80.8014 23.7953 81.1434 23.3993 81.3954C23.0033 81.6474 22.5293 81.7734 21.9773 81.7734C20.9213 81.7734 20.0993 81.3594 19.5113 80.5314C18.9353 79.7034 18.6473 78.5754 18.6473 77.1474C18.6473 75.7194 18.9353 74.5914 19.5113 73.7634C20.0993 72.9354 20.9213 72.5214 21.9773 72.5214C22.4813 72.5214 22.9193 72.6294 23.2913 72.8454C23.6633 73.0494 23.9633 73.3314 24.1913 73.6914H24.2993V69.4614H26.6213ZM22.6613 79.6494C23.2133 79.6494 23.6273 79.4394 23.9033 79.0194C24.1793 78.5874 24.3173 77.9634 24.3173 77.1474C24.3173 76.3314 24.1793 75.7134 23.9033 75.2934C23.6273 74.8614 23.2133 74.6454 22.6613 74.6454C21.5573 74.6454 21.0053 75.4794 21.0053 77.1474C21.0053 78.8154 21.5573 79.6494 22.6613 79.6494ZM34.3842 79.5054V81.4854H28.2102V79.1094L31.8102 74.8974V74.7894H28.3722V72.8094H34.3122V75.1674L30.7302 79.3974V79.5054H34.3842ZM36.0066 69.4614H38.3286V71.5314H36.0066V69.4614ZM36.0066 72.8094H38.3286V81.4854H36.0066V72.8094ZM47.5672 76.8954C47.5672 77.3034 47.5552 77.5734 47.5312 77.7054H42.0952C42.1552 78.4734 42.3292 79.0194 42.6172 79.3434C42.9052 79.6554 43.2892 79.8114 43.7692 79.8114C44.4652 79.8114 44.9212 79.5474 45.1372 79.0194H47.4772C47.3092 79.8714 46.8892 80.5434 46.2172 81.0354C45.5452 81.5274 44.7292 81.7734 43.7692 81.7734C42.5932 81.7734 41.6512 81.3654 40.9432 80.5494C40.2352 79.7334 39.8812 78.5994 39.8812 77.1474C39.8812 75.6954 40.2292 74.5614 40.9252 73.7454C41.6332 72.9294 42.5992 72.5214 43.8232 72.5214C44.5672 72.5214 45.2212 72.7014 45.7852 73.0614C46.3612 73.4214 46.7992 73.9314 47.0992 74.5914C47.4112 75.2514 47.5672 76.0194 47.5672 76.8954ZM43.8232 74.4834C43.3792 74.4834 43.0192 74.6034 42.7432 74.8434C42.4672 75.0714 42.2752 75.4674 42.1672 76.0314H45.3712C45.2272 74.9994 44.7112 74.4834 43.8232 74.4834ZM53.7455 72.5214C55.5095 72.5214 56.3915 73.5954 56.3915 75.7434V81.4854H54.0695V76.0314C54.0695 75.1074 53.6915 74.6454 52.9355 74.6454C52.4915 74.6454 52.1315 74.8074 51.8555 75.1314C51.5915 75.4434 51.4595 75.8634 51.4595 76.3914V81.4854H49.1375V72.8094H51.3155V73.8714H51.4235C51.6515 73.4394 51.9635 73.1094 52.3595 72.8814C52.7675 72.6414 53.2295 72.5214 53.7455 72.5214ZM62.9037 72.5214C64.6677 72.5214 65.5497 73.5954 65.5497 75.7434V81.4854H63.2277V76.0314C63.2277 75.1074 62.8497 74.6454 62.0937 74.6454C61.6497 74.6454 61.2897 74.8074 61.0137 75.1314C60.7497 75.4434 60.6177 75.8634 60.6177 76.3914V81.4854H58.2957V72.8094H60.4737V73.8714H60.5817C60.8097 73.4394 61.1217 73.1094 61.5177 72.8814C61.9257 72.6414 62.3877 72.5214 62.9037 72.5214ZM67.4539 69.4614H69.7759V71.5314H67.4539V69.4614ZM67.4539 72.8094H69.7759V81.4854H67.4539V72.8094ZM79.0145 76.8954C79.0145 77.3034 79.0025 77.5734 78.9785 77.7054H73.5425C73.6025 78.4734 73.7765 79.0194 74.0645 79.3434C74.3525 79.6554 74.7365 79.8114 75.2165 79.8114C75.9125 79.8114 76.3685 79.5474 76.5845 79.0194H78.9245C78.7565 79.8714 78.3365 80.5434 77.6645 81.0354C76.9925 81.5274 76.1765 81.7734 75.2165 81.7734C74.0405 81.7734 73.0985 81.3654 72.3905 80.5494C71.6825 79.7334 71.3285 78.5994 71.3285 77.1474C71.3285 75.6954 71.6765 74.5614 72.3725 73.7454C73.0805 72.9294 74.0465 72.5214 75.2705 72.5214C76.0145 72.5214 76.6685 72.7014 77.2325 73.0614C77.8085 73.4214 78.2465 73.9314 78.5465 74.5914C78.8585 75.2514 79.0145 76.0194 79.0145 76.8954ZM75.2705 74.4834C74.8265 74.4834 74.4665 74.6034 74.1905 74.8434C73.9145 75.0714 73.7225 75.4674 73.6145 76.0314H76.8185C76.6745 74.9994 76.1585 74.4834 75.2705 74.4834Z" fill="white"/>
<path d="M126.829 31.7151C127.626 31.9418 128.456 31.4796 128.682 30.6827L132.376 17.6978C132.602 16.901 132.14 16.0713 131.343 15.8447C130.547 15.618 129.717 16.0802 129.49 16.877L126.207 28.4192L114.665 25.1362C113.868 24.9095 113.038 25.3718 112.812 26.1686C112.585 26.9654 113.047 27.7951 113.844 28.0217L126.829 31.7151ZM60.4543 17.4054C67.5164 12.6506 79.2839 7.64974 91.5633 8.04663C103.72 8.43954 116.522 14.1173 125.929 31.0024L128.55 29.5424C118.626 11.7295 104.861 5.47487 91.6602 5.04819C78.5823 4.6255 66.2034 9.91798 58.7788 14.9169L60.4543 17.4054Z" fill="#E9E9E9"/>
<path d="M246.575 63.3213C247.387 63.1547 248.179 63.6775 248.346 64.489L251.061 77.7132C251.228 78.5247 250.705 79.3176 249.893 79.4842C249.082 79.6508 248.289 79.128 248.122 78.3165L245.709 66.5616L233.954 68.9749C233.143 69.1415 232.35 68.6187 232.183 67.8072C232.017 66.9957 232.539 66.2028 233.351 66.0362L246.575 63.3213ZM180.19 72.6226C186.712 77.9268 197.828 83.8334 209.907 84.3713C221.859 84.9035 234.923 80.1957 245.624 63.9649L248.129 65.6163C236.856 82.7141 222.797 87.9483 209.774 87.3683C196.877 86.794 185.164 80.5342 178.297 74.9501L180.19 72.6226Z" fill="#E9E9E9"/>
</svg>
