<svg width="1440" height="433" viewBox="0 0 1440 433" fill="none" xmlns="http://www.w3.org/2000/svg">
<rect width="1440" height="433" fill="#8FD0FF"/>
<path d="M611.99 226.294C611.99 215.954 603.843 207.579 593.784 207.579C589.618 207.579 585.803 209.035 582.732 211.448C579.817 196.718 567.163 185.645 551.976 185.645C543.86 185.645 536.5 188.833 530.927 194.019C525.076 174.879 507.687 161 487.145 161C467.998 161 451.591 173.062 444.716 190.204C443.579 190.087 442.432 190.023 441.263 190.023C432.972 190.023 425.374 193.052 419.45 198.079C411.923 187.42 399.703 180.48 385.902 180.48C364.626 180.48 347.102 196.963 344.745 218.186C343.587 218.026 342.419 217.909 341.22 217.909C330.964 217.909 322.146 224.084 318 233H610.78C611.556 230.917 612 228.664 612 226.305L611.99 226.294Z" fill="#0085E4"/>
<path d="M1151.54 237.059C1151.54 190.155 1132.47 152.129 1108.94 152.129C1085.41 152.129 1066.34 190.151 1066.34 237.059C1066.34 241.733 1066.53 246.317 1066.89 250.787H1150.99C1151.35 246.317 1151.55 241.733 1151.55 237.059H1151.54Z" fill="#0085E4"/>
<path d="M1109 185.861C1108.62 185.861 1108.22 185.708 1107.92 185.403L1091.71 168.752C1091.11 168.141 1091.11 167.15 1091.71 166.535C1092.3 165.923 1093.27 165.923 1093.87 166.535L1110.08 183.185C1110.68 183.796 1110.68 184.788 1110.08 185.403C1109.79 185.708 1109.4 185.861 1109 185.861Z" fill="#0085E4"/>
<path d="M1109 185.861C1108.62 185.861 1108.22 185.708 1107.93 185.403C1107.33 184.792 1107.33 183.8 1107.93 183.185L1124.14 166.535C1124.74 165.923 1125.7 165.923 1126.3 166.535C1126.9 167.146 1126.9 168.137 1126.3 168.752L1110.08 185.403C1109.79 185.708 1109.4 185.861 1109 185.861Z" fill="#0085E4"/>
<path d="M1109 207.961C1108.62 207.961 1108.22 207.809 1107.92 207.503L1082.44 181.336C1081.84 180.725 1081.84 179.734 1082.44 179.119C1083.03 178.507 1084 178.507 1084.6 179.119L1110.08 205.286C1110.68 205.897 1110.68 206.888 1110.08 207.503C1109.79 207.809 1109.4 207.961 1109 207.961Z" fill="#0085E4"/>
<path d="M1109 207.961C1108.62 207.961 1108.22 207.809 1107.93 207.503C1107.33 206.892 1107.33 205.901 1107.93 205.286L1133.41 179.119C1134.01 178.507 1134.97 178.507 1135.57 179.119C1136.17 179.73 1136.17 180.721 1135.57 181.336L1110.08 207.503C1109.79 207.809 1109.4 207.961 1109 207.961Z" fill="#0085E4"/>
<path d="M1108.94 252.076C1108.1 252.076 1107.41 251.375 1107.41 250.509V162.151C1107.41 161.285 1108.1 160.584 1108.94 160.584C1109.78 160.584 1110.47 161.285 1110.47 162.151V250.509C1110.47 251.375 1109.78 252.076 1108.94 252.076Z" fill="#0085E4"/>
<path d="M954 241.894C954 211.511 966.357 186.884 981.595 186.884C996.833 186.884 1009.19 211.511 1009.19 241.894C1009.19 244.922 1009.06 247.892 1008.83 250.783H954.359C954.122 247.888 954 244.918 954 241.894Z" fill="#0085E4"/>
<path d="M1050.73 242.823C1050.73 215.618 1061.8 193.564 1075.44 193.564C1089.09 193.564 1100.15 215.618 1100.15 242.823C1100.15 245.534 1100.04 248.19 1099.83 250.784H1051.05C1050.84 248.19 1050.73 245.534 1050.73 242.823H1050.73Z" fill="#0085E4"/>
<path d="M1207 260H1110L1158.5 123L1207 260Z" fill="#0085E4"/>
<path d="M1088.4 249.518C1088.4 245.247 1091.77 241.788 1095.93 241.788C1096.3 241.788 1096.66 241.823 1097.02 241.878C1097.02 241.847 1097.02 241.819 1097.02 241.788C1097.02 233.247 1103.76 226.324 1112.08 226.324C1119.39 226.324 1125.48 231.672 1126.85 238.767C1127.3 238.697 1127.75 238.65 1128.22 238.65C1129.89 238.65 1131.45 239.12 1132.79 239.927C1134.59 235.155 1139.09 231.77 1144.37 231.77C1151.22 231.77 1156.78 237.474 1156.78 244.511C1156.78 244.965 1156.76 245.416 1156.71 245.858C1157.77 245.016 1159.08 244.511 1160.52 244.511C1163.92 244.511 1166.67 247.312 1166.72 250.787H1088.52C1088.45 250.372 1088.41 249.952 1088.41 249.518H1088.4Z" fill="#0085E4"/>
<path d="M995.471 248.946C995.471 242.752 1000.36 237.733 1006.39 237.733C1006.93 237.733 1007.45 237.788 1007.97 237.862C1007.97 237.819 1007.97 237.776 1007.97 237.733C1007.97 225.349 1017.75 215.308 1029.81 215.308C1040.41 215.308 1049.25 223.065 1051.24 233.353C1051.89 233.251 1052.55 233.181 1053.23 233.181C1055.65 233.181 1057.91 233.862 1059.85 235.034C1062.45 228.115 1068.99 223.202 1076.64 223.202C1086.59 223.202 1094.64 231.472 1094.64 241.678C1094.64 242.337 1094.61 242.991 1094.54 243.633C1096.07 242.415 1097.98 241.678 1100.06 241.678C1104.99 241.678 1108.98 245.741 1109.06 250.779H995.635C995.539 250.18 995.474 249.569 995.474 248.942L995.471 248.946Z" fill="#0085E4"/>
<path d="M1287.54 250.783H1239.37L1263.45 174.892L1287.54 250.783Z" fill="#0085E4"/>
<path d="M1264.5 285.048H1168.14L1216.32 96L1264.5 285.048Z" fill="#0085E4"/>
<path d="M1216.32 287C1215.48 287 1214.79 286.127 1214.79 285.048V154.381C1214.79 153.302 1215.48 152.429 1216.32 152.429C1217.16 152.429 1217.85 153.302 1217.85 154.381V285.048C1217.85 286.127 1217.16 287 1216.32 287Z" fill="#0085E4"/>
<path fill-rule="evenodd" clip-rule="evenodd" d="M1440 264.182V432H0V264.766C208.749 233.884 456.402 216 721.983 216C985.884 216 1232.08 233.659 1440 264.182Z" fill="#3FA9F5"/>
</svg>
