<svg width="756" height="257" viewBox="0 0 756 257" fill="none" xmlns="http://www.w3.org/2000/svg">
<g clip-path="url(#clip0_14_7406)">
<path d="M1091 0.996094L994.551 18.1974V82.9982L924.37 91.6729V51.4413L901.556 46.22L893.453 51.4413V94.4746L886.455 95.1085V81.0418L863.64 75.8222L855.538 81.0418V97.9103L838.14 99.4864V133.836L788.716 133.831V106.941L747.304 108.98V52.2954L731.473 42.0958L689.425 51.7178V112.866H675.411V203.945H640.764V153.117H615.256V169.776H593.462V117.868H577.643V138.323H568.58V152.226H546.385V95.7478H512.282V46.5793H465.679V185.273H444.422V159.182H444.203L437.965 67.3818H432.77V63.7031H421.992L420.952 35.6259H419.852L418.812 63.7031H408.034V67.3818H402.839L396.6 159.182H396.382V185.273H390.277L384.137 108.191L379.899 106.085L378.822 69.465H377.585L376.508 106.085L372.27 108.191L366.13 185.273H303.916V154.882H284.125V175.471H273.004V217.173H254.967V169.086H250.053V132.267H221.75V163.053H201.205V155.628H182.78V178.903H144.283V124.917L129.393 123.571C127.948 92.4072 122.702 64.7597 115.059 44.7144C113.975 41.8721 110.621 41.8721 109.537 44.7144C102.148 64.0976 96.9984 90.5899 95.3592 120.495L47.9517 116.917V125.574L30.6151 125.579V110.151L2.46597 107.258V65.9836L-5.63647 60.764L-28.4508 65.9836V105.833L-145.589 96.7621V21.6366L-223 0.996094V256.996H1091V0.996094Z" fill="#8FD0FF"/>
</g>
<defs>
<clipPath id="clip0_14_7406">
<rect width="1314" height="256" fill="white" transform="translate(-223 0.996094)"/>
</clipPath>
</defs>
</svg>
