<svg width="756" height="199" viewBox="0 0 756 199" fill="none" xmlns="http://www.w3.org/2000/svg">
<g clip-path="url(#clip0_14_7291)">
<path d="M756 0L700.509 13.3713V63.7438L660.131 70.487V39.2133L647.005 35.1545L642.343 39.2133V72.6649L638.316 73.1577V62.223L625.19 58.1656L620.529 62.223V75.3356L610.519 76.5608V103.262L582.083 103.258V82.3553L558.257 83.9405V39.8772L549.149 31.9486L524.957 39.4282V86.9616H516.894V157.761H496.96V118.25H482.285V131.2H469.745V90.8493H460.644V106.75H455.43V117.558H442.66V73.6546H423.039V35.4338H396.226V143.246H383.996V122.965H383.87L380.281 51.6045H377.292V48.7449H371.091L370.493 26.9193H369.86L369.262 48.7449H363.06V51.6045H360.071L356.482 122.965H356.357V143.246H352.844L349.312 83.3272L346.874 81.69L346.254 53.2239H345.542L344.922 81.69L342.484 83.3272L338.952 143.246H303.157V119.622H291.771V135.627H285.372V168.044H274.995V130.664H272.168V102.043H255.883V125.974H244.063V120.202H233.462V138.295H211.313V96.329L202.747 95.2831C201.915 71.0578 198.897 49.5662 194.5 33.9841C193.876 31.7747 191.947 31.7747 191.323 33.9841C187.071 49.0515 184.109 69.6451 183.166 92.8917L155.89 90.1101V96.8396L145.916 96.8437V84.8508L129.72 82.6017V50.5176L125.058 46.4602L111.932 50.5176V81.4943L44.5378 74.4431V16.0448L0 0V199H756V0Z" fill="#0085E4"/>
</g>
<defs>
<clipPath id="clip0_14_7291">
<rect width="756" height="199" fill="white"/>
</clipPath>
</defs>
</svg>
