<?xml version="1.0" encoding="utf-8"?>
<!-- Generator: Adobe Illustrator 27.2.0, SVG Export Plug-In . SVG Version: 6.00 Build 0)  -->
<svg version="1.1" id="Warstwa_1" xmlns="http://www.w3.org/2000/svg"
                        xmlns:xlink="http://www.w3.org/1999/xlink" x="0px" y="0px" viewBox="0 0 810.8 728"
                        style="enable-background:new 0 0 810.8 728;" xml:space="preserve">
                        <style type="text/css">
                            .st0 {
                                fill: #0085E4;
                            }

                            #clouds {
                                animation: move 5s infinite;
                            }

                            @keyframes move {
                                0% {
                                    transform: translatex(0);
                                }

                                50% {
                                    transform: translatex(-20px);
                                }
                            }
                        </style>
                        <g id="clouds">
                            <path class="st0" d="M597.8,108.8c-2,0-4,0.4-5.7,1.2c0-0.4,0-0.8,0-1.2c0-17.1-13.4-31-29.9-31c-10.5,0-19.7,5.6-25,14
		c-4.5-3.9-10.3-6.2-16.6-6.2c-0.2,0-0.3,0-0.5,0C515.6,66.3,498.8,52,478.9,52c-23.4,0-42.3,19.7-42.3,43.9c0,0.3,0,0.6,0,0.9
		c-10.3,0.3-18.7,8.4-19.9,18.8c-2.2-1.8-5-2.8-8-2.8c-6.5,0-11.9,4.9-12.9,11.3h217C612.6,115.6,606,108.8,597.8,108.8L597.8,108.8
		z" />
                            <path class="st0" d="M669.9,323.8c2.3,0,4.5,0.4,6.6,1.2c0-0.4,0-0.8,0-1.2c0-17.1,15.4-31,34.3-31c12,0,22.6,5.6,28.7,14
		c5.2-3.9,11.8-6.2,19.1-6.2c0.2,0,0.4,0,0.6,0c5.1-19.3,24.3-33.6,47.2-33.6c26.8,0,48.6,19.7,48.6,43.9c0,0.3,0,0.6,0,0.9
		c11.8,0.3,21.4,8.4,22.9,18.8c2.5-1.8,5.7-2.8,9.2-2.8c7.4,0,13.6,4.9,14.8,11.3h-249C652.9,330.6,660.6,323.8,669.9,323.8
		L669.9,323.8z" />
                            <path class="st0" d="M272.8,193.8c-2,0-4,0.4-5.7,1.2c0-0.4,0-0.8,0-1.2c0-17.1-13.4-31-29.9-31c-10.5,0-19.7,5.6-25,14
		c-4.5-3.9-10.3-6.2-16.6-6.2c-0.2,0-0.3,0-0.5,0c-4.5-19.3-21.2-33.6-41.1-33.6c-23.4,0-42.3,19.7-42.3,43.9c0,0.3,0,0.6,0,0.9
		c-10.3,0.3-18.7,8.4-19.9,18.8c-2.2-1.8-5-2.8-8-2.8c-6.5,0-11.9,4.9-12.9,11.3h217C287.6,200.6,281,193.8,272.8,193.8L272.8,193.8
		z" />
                            <path class="st0"
                                d="M474.8,679.1c0-10,7.7-18,17.1-18c0.8,0,1.7,0.1,2.5,0.2c0-0.1,0-0.1,0-0.2c0-19.9,15.3-36,34.2-36
		c16.6,0,30.5,12.5,33.6,29c1-0.2,2.1-0.3,3.1-0.3c3.8,0,7.3,1.1,10.4,3c4.1-11.1,14.3-19,26.3-19c15.6,0,28.2,13.3,28.2,29.7
		c0,1.1-0.1,2.1-0.2,3.1c2.4-2,5.4-3.1,8.7-3.1c7.7,0,14,6.5,14.1,14.6H475C474.9,681.1,474.8,680.1,474.8,679.1L474.8,679.1z" />
                            <path class="st0" d="M318.8,634.1c0-10-9-18-20.1-18c-1,0-2,0.1-2.9,0.2c0-0.1,0-0.1,0-0.2c0-19.9-18-36-40.2-36
		c-19.5,0-35.8,12.5-39.4,29c-1.2-0.2-2.4-0.3-3.7-0.3c-4.5,0-8.6,1.1-12.2,3c-4.8-11.1-16.8-19-30.9-19
		c-18.3,0-33.1,13.3-33.1,29.7c0,1.1,0.1,2.1,0.2,3.1c-2.8-2-6.3-3.1-10.2-3.1c-9.1,0-16.4,6.5-16.5,14.6h208.7
		C318.7,636.1,318.8,635.1,318.8,634.1L318.8,634.1z" />
                            <path class="st0" d="M478.5,300.5c-2.3,0-4.4,0.8-6.2,2.1c-1.7-8.2-8.4-14.4-16.5-14.4c-1.5,0-3,0.2-4.4,0.7
		c-2.1-15.4-14.1-27.2-28.7-27.2c-5.3,0-10.3,1.6-14.6,4.3c-6.2-9.1-16-15-27.1-15c-18.7,0-33.8,16.6-33.8,37.2c-0.5,0-1,0-1.5,0
		c-5.4,0-10.1,2.8-13.2,7c-2.2-11.2-11.3-19.6-22.1-19.6c-12.5,0-22.6,11.1-22.6,24.9c0,4.2,0.9,8.1,2.6,11.5h199.4
		C489.4,305.6,484.5,300.5,478.5,300.5L478.5,300.5z" />
                            <path class="st0" d="M153.5,385.5c-2.3,0-4.4,0.8-6.2,2.1c-1.7-8.2-8.4-14.4-16.5-14.4c-1.5,0-3,0.2-4.4,0.7
		c-2.1-15.4-14.1-27.2-28.7-27.2c-5.3,0-10.3,1.6-14.6,4.3c-6.2-9.1-16-15-27.1-15c-18.7,0-33.8,16.6-33.8,37.2c-0.5,0-1,0-1.5,0
		c-5.4,0-10.1,2.8-13.2,7C5.3,369-3.8,360.6-14.6,360.6c-12.5,0-22.6,11.1-22.6,24.9c0,4.2,0.9,8.1,2.6,11.5h199.4
		C164.4,390.6,159.5,385.5,153.5,385.5L153.5,385.5z" />
                        </g>
                    </svg>
