<svg width="331" height="253" viewBox="0 0 331 253" fill="none" xmlns="http://www.w3.org/2000/svg">
<g filter="url(#filter0_d_607_2215)">
<rect x="152" width="175" height="87" rx="38" fill="white"/>
<path d="M217.5 107L256.847 87H230L217.5 107Z" fill="white"/>
<path d="M206.508 42.904C207.732 43.336 208.644 44.056 209.244 45.064C209.844 46.048 210.144 47.188 210.144 48.484C210.144 50.476 209.544 52.06 208.344 53.236C207.168 54.412 205.392 55 203.016 55L195.024 55L195.024 30.952L203.196 30.952C205.332 30.952 206.976 31.528 208.128 32.68C209.28 33.808 209.856 35.32 209.856 37.216C209.856 38.488 209.592 39.616 209.064 40.6C208.536 41.584 207.684 42.304 206.508 42.76L206.508 42.904ZM197.472 41.716L202.8 41.716C204.216 41.716 205.308 41.344 206.076 40.6C206.868 39.856 207.264 38.812 207.264 37.468C207.264 36.124 206.868 35.08 206.076 34.336C205.308 33.568 204.216 33.184 202.8 33.184L197.472 33.184L197.472 41.716ZM202.656 52.768C204.24 52.768 205.452 52.396 206.292 51.652C207.156 50.884 207.588 49.78 207.588 48.34C207.588 46.9 207.156 45.808 206.292 45.064C205.452 44.296 204.24 43.912 202.656 43.912L197.472 43.912L197.472 52.768L202.656 52.768ZM221.544 37.9C222.096 37.9 222.516 37.948 222.804 38.044L222.804 40.204C222.492 40.156 222.096 40.132 221.616 40.132C218.568 40.132 217.044 42.004 217.044 45.748L217.044 55L214.704 55L214.704 38.116L216.9 38.116L216.9 40.636L217.08 40.636C217.512 39.724 218.124 39.04 218.916 38.584C219.708 38.128 220.584 37.9 221.544 37.9ZM238.232 53.128C238.496 53.128 238.808 53.068 239.168 52.948L239.168 54.892C238.688 55.108 238.16 55.216 237.584 55.216C236.84 55.216 236.228 55 235.748 54.568C235.268 54.112 235.028 53.452 235.028 52.588L234.848 52.588C234.368 53.428 233.672 54.1 232.76 54.604C231.848 55.084 230.852 55.324 229.772 55.324C228.188 55.324 226.964 54.892 226.1 54.028C225.236 53.14 224.804 51.94 224.804 50.428C224.804 48.556 225.56 47.128 227.072 46.144C228.584 45.16 230.768 44.668 233.624 44.668L234.92 44.668L234.92 43.804C234.92 41.068 233.696 39.7 231.248 39.7C230.192 39.7 229.352 39.94 228.728 40.42C228.128 40.9 227.756 41.596 227.612 42.508L225.308 42.508C225.476 40.948 226.088 39.76 227.144 38.944C228.2 38.104 229.58 37.684 231.284 37.684C233.252 37.684 234.74 38.248 235.748 39.376C236.756 40.48 237.26 41.98 237.26 43.876L237.26 51.976C237.26 52.336 237.344 52.624 237.512 52.84C237.68 53.032 237.92 53.128 238.232 53.128ZM230.204 53.38C231.62 53.38 232.76 52.864 233.624 51.832C234.488 50.776 234.92 49.444 234.92 47.836L234.92 46.612L233.624 46.612C229.256 46.612 227.072 47.848 227.072 50.32C227.072 51.256 227.36 52 227.936 52.552C228.512 53.104 229.268 53.38 230.204 53.38ZM263.072 38.116L258.104 55L255.728 55L251.912 42.148L251.696 42.148L247.916 55L245.504 55L240.536 38.116L242.912 38.116L246.62 51.076L246.836 51.076L250.58 38.116L253.064 38.116L256.808 51.076L257.024 51.076L260.696 38.116L263.072 38.116ZM272.751 55.432C270.519 55.432 268.743 54.64 267.423 53.056C266.127 51.448 265.479 49.276 265.479 46.54C265.479 43.828 266.127 41.68 267.423 40.096C268.719 38.488 270.495 37.684 272.751 37.684C275.007 37.684 276.783 38.476 278.079 40.06C279.375 41.644 280.023 43.804 280.023 46.54C280.023 49.276 279.375 51.448 278.079 53.056C276.783 54.64 275.007 55.432 272.751 55.432ZM272.751 53.236C274.359 53.236 275.571 52.66 276.387 51.508C277.203 50.332 277.611 48.676 277.611 46.54C277.611 44.404 277.191 42.76 276.351 41.608C275.535 40.432 274.335 39.844 272.751 39.844C271.167 39.844 269.967 40.432 269.151 41.608C268.335 42.784 267.927 44.428 267.927 46.54C267.927 48.676 268.335 50.332 269.151 51.508C269.967 52.66 271.167 53.236 272.751 53.236ZM284.6 37.612L284.6 30.952L287.048 30.952L287.048 37.612L286.472 47.584L285.176 47.584L284.6 37.612ZM284.024 51.4L287.624 51.4L287.624 55L284.024 55L284.024 51.4Z" fill="#DE1274"/>
</g>
<g clip-path="url(#clip0_607_2215)">
<path d="M151.075 58.332L47.2016 79.3988C45.3789 79.7674 44.2562 81.8018 44.6892 83.9434L67.4386 195.934C67.8743 198.074 69.7038 199.509 71.5238 199.141L175.397 178.072C177.219 177.703 178.342 175.669 177.909 173.527L155.16 61.5373C154.724 59.3964 152.895 57.9615 151.074 58.3294L151.075 58.332ZM116.253 81.5899C116.703 83.8348 115.697 85.9452 114.021 86.2796L91.8478 90.7109C90.1715 91.0453 88.4321 89.4837 87.9823 87.2388C87.5324 84.9939 88.5381 82.8835 90.2144 82.5491L97.1445 81.1644C96.5699 78.2949 98.0889 75.5735 100.539 75.0852C102.989 74.5969 105.44 76.524 106.014 79.3935L112.389 78.1204C114.065 77.786 115.804 79.3477 116.254 81.5925L116.253 81.5899Z" fill="#FF0074"/>
<path d="M70.6868 152.549C70.5061 152.624 70.315 152.681 70.1156 152.719C69.5993 152.819 57.3378 155.136 46.5774 151.348C40.1901 149.099 35.5502 144.728 32.7842 141.456C30.5034 138.758 27.9514 134.858 27.8078 133.259C27.7031 132.084 28.2957 130.932 29.3208 130.349C30.3433 129.767 31.6325 129.841 32.5862 130.535C33.1762 130.965 33.5671 131.568 33.7343 132.224C34.4158 133.551 39.2955 142.402 48.5668 145.662C57.7606 148.898 68.8582 146.822 68.9685 146.8C70.5968 146.487 72.1764 147.556 72.4905 149.188C72.7672 150.62 71.9847 152.011 70.6887 152.545L70.6868 152.549Z" fill="#FF0074"/>
<path d="M145.568 84.3399C143.492 82.6941 141.786 83.0563 139.399 83.7035C137.416 84.2434 135.432 84.7781 133.449 85.318C129.058 86.5082 124.643 87.6337 120.278 88.913C116.297 90.0796 112.337 91.3055 108.297 92.2692C106.353 92.7333 104.424 93.0968 102.439 93.3252C100.511 93.5464 98.6837 93.7431 97.2414 95.1549C96.7563 95.6305 96.5776 96.6385 97.0195 97.2108C99.3729 100.257 103.894 99.5966 107.282 99.2135C111.072 98.7862 114.771 97.9151 118.47 97.0213C122.47 96.057 126.443 95.0122 130.417 93.9528C132.402 93.4234 134.388 92.8941 136.374 92.3647C137.509 92.0613 138.644 91.7578 139.777 91.4577C140.345 91.306 140.913 91.1543 141.48 91.0026C142.181 91.0188 142.452 90.931 142.301 90.7394C142.478 90.7677 142.664 90.7825 142.857 90.7839C143.914 90.777 144.996 90.3916 145.683 89.5571C146.854 88.1343 147.22 85.6529 145.566 84.3433L145.568 84.3399Z" fill="#FD8279"/>
<path d="M97.5046 149.592C98.4201 154.171 95.4609 158.625 90.889 159.538C86.3198 160.45 81.8716 157.48 80.9561 152.901C80.0405 148.322 82.9997 143.868 87.569 142.956C92.1382 142.044 96.5864 145.014 97.5027 149.596L97.5046 149.592Z" fill="#FD8FB3"/>
<path d="M89.7262 97.5839C89.3943 96.9788 88.7715 96.5949 88.1328 96.4026C87.8677 96.313 87.6014 96.2919 87.3358 96.3358C86.9355 96.3426 86.5644 96.4465 86.2214 96.6534C85.6567 96.9094 85.2792 97.4266 85.0578 97.9865C84.7873 98.6676 84.8001 99.3284 85.0937 100.001C85.2042 100.334 85.3953 100.62 85.6636 100.856C85.9959 101.171 86.3864 101.389 86.8292 101.507C87.5232 101.653 88.2318 101.582 88.849 101.206C89.4125 100.863 89.8635 100.252 90.0262 99.6113C90.2068 98.9121 90.0631 98.2075 89.7243 97.5873L89.7262 97.5839Z" fill="#FD8279"/>
<path d="M136.28 141.841C137.196 146.42 141.644 149.393 146.213 148.478C150.782 147.563 153.744 143.112 152.826 138.533C151.91 133.954 147.461 130.981 142.892 131.894C138.323 132.806 135.361 137.26 136.279 141.838L136.28 141.841Z" fill="#FD8FB3"/>
<path d="M143.491 128.569C143.15 126.864 137.834 126.488 131.618 127.731C125.402 128.973 120.64 131.363 120.981 133.069C121.323 134.775 126.639 135.15 132.855 133.907C139.07 132.665 143.833 130.275 143.491 128.569Z" fill="#FF0074"/>
<path d="M100.944 124.156C97.7129 120.58 92.2018 120.3 88.6357 123.534C85.0696 126.767 84.798 132.291 88.0319 135.867C91.2631 139.444 96.7742 139.723 100.34 136.487C103.906 133.254 104.178 127.732 100.944 124.156Z" fill="#170C35"/>
<path d="M120.302 120.287C121.908 115.743 126.889 113.367 131.424 114.982C135.962 116.597 138.336 121.59 136.732 126.132C135.126 130.677 130.145 133.052 125.609 131.434C121.071 129.82 118.695 124.827 120.304 120.284L120.302 120.287Z" fill="#170C35"/>
<path d="M188.729 94.4529C188.743 95.843 188.659 97.2312 188.476 98.6094L188.589 97.764C188.229 100.445 187.496 103.06 186.468 105.557L186.789 104.78C185.489 107.919 183.734 110.846 181.693 113.557L182.199 112.885C179.816 116.035 177.059 118.889 174.076 121.467C173.304 122.134 172.512 122.784 171.71 123.417L172.38 122.891C170.805 124.129 169.177 125.296 167.496 126.384C166.242 127.197 164.957 127.97 163.63 128.66C163.146 128.911 162.657 129.155 162.155 129.368L162.965 129.026C162.924 129.043 162.883 129.059 162.845 129.075C162.406 129.178 162.024 129.378 161.701 129.679C161.343 129.913 161.062 130.225 160.862 130.612C160.463 131.311 160.295 132.327 160.547 133.107C160.799 133.888 161.308 134.694 162.084 135.099C162.802 135.471 163.79 135.739 164.575 135.417C166.496 134.63 168.299 133.639 170.059 132.541C172.775 130.845 175.351 128.926 177.813 126.879C180.559 124.595 183.128 122.09 185.414 119.347C188.027 116.212 190.36 112.806 192.043 109.075C193.912 104.935 195.081 100.575 195.273 96.0177C195.294 95.5011 195.301 94.9854 195.296 94.47C195.289 93.6118 194.927 92.7171 194.312 92.1124C193.748 91.5592 192.826 91.1376 192.025 91.1711C191.165 91.2066 190.266 91.4939 189.673 92.155C189.08 92.8161 188.726 93.5767 188.736 94.4454L188.729 94.4529Z" fill="#FF0074"/>
<path d="M76.4213 231.74C76.0126 231.851 75.5723 231.877 75.129 231.799C73.492 231.518 72.3912 229.962 72.667 228.322C74.9412 214.915 82.3894 203.108 94.2122 194.177C103.066 187.489 111.203 184.765 111.546 184.652C113.119 184.135 114.822 184.992 115.343 186.573C115.863 188.151 115.007 189.852 113.433 190.374C113.358 190.4 105.758 192.967 97.6819 199.108C87.0485 207.196 80.6274 217.366 78.597 229.339C78.3951 230.532 77.5155 231.442 76.4239 231.739L76.4213 231.74Z" fill="#FF0074"/>
<path d="M180.988 210.388C179.804 210.71 178.492 210.281 177.741 209.217C177.631 209.065 172.962 202.579 164.785 196.67C153.945 188.835 142.354 185.644 130.332 187.186C128.684 187.397 127.177 186.232 126.965 184.58C126.754 182.929 127.912 181.422 129.562 181.211C143.024 179.484 156.482 183.185 168.474 191.91C177.456 198.445 182.444 205.45 182.652 205.745C183.612 207.105 183.288 208.984 181.932 209.943C181.637 210.151 181.318 210.301 180.989 210.391L180.988 210.388Z" fill="#FF0074"/>
<path d="M74.8776 218.155C77.26 217.824 84.5542 220.377 84.9092 221.785C85.2669 223.192 80.574 232.418 79.5306 233.048C78.4873 233.678 64.7941 229.26 64.9789 228.265C65.1638 227.269 71.3195 226.254 72.4123 224.807C73.5025 223.361 73.6109 218.33 74.8802 218.154L74.8776 218.155Z" fill="#C92E2E"/>
<path d="M180.995 199.62C178.604 199.868 172.135 204.087 172.125 205.538C172.115 206.988 178.888 214.826 180.051 215.188C181.215 215.55 193.452 207.994 193.033 207.069C192.614 206.147 186.394 206.631 184.986 205.487C183.579 204.343 182.267 199.486 180.994 199.617L180.995 199.62Z" fill="#C92E2E"/>
<path d="M28.4227 120.071C28.6658 123.189 28.9123 126.31 29.1555 129.429C29.2196 130.257 29.7745 131.151 30.4223 131.647C31.07 132.143 32.0177 132.43 32.8092 132.3C34.6266 131.995 35.8108 130.478 35.6681 128.643C35.4249 125.524 35.1785 122.404 34.9353 119.285C34.8712 118.457 34.3163 117.563 33.6685 117.067C33.0207 116.571 32.0731 116.284 31.2816 116.414C29.4641 116.719 28.28 118.236 28.4227 120.071Z" fill="#FF0074"/>
<path d="M15.3006 118.708C18.5012 122.713 21.5786 126.817 24.5247 131.011C25.3707 132.214 26.2048 133.426 27.0299 134.646C27.4749 135.303 28.4041 135.782 29.1696 135.889C29.9769 136.004 31.0009 135.771 31.6339 135.235C32.2669 134.699 32.7906 133.949 32.8717 133.093C32.9576 132.181 32.7304 131.388 32.2161 130.623C29.3431 126.375 26.3414 122.216 23.2105 118.155C22.3123 116.989 21.4031 115.834 20.4868 114.684C19.9662 114.031 19.1777 113.559 18.3471 113.442C17.5165 113.325 16.5157 113.56 15.8827 114.096C15.2497 114.632 14.7261 115.382 14.645 116.238C14.5639 117.095 14.7412 118.006 15.3006 118.708Z" fill="#FF0074"/>
<path d="M11.6811 127.954C13.8112 129.494 15.944 131.034 18.0734 132.572C20.0479 133.998 21.9946 135.489 24.0765 136.759C25.414 137.573 26.7836 138.338 28.2515 138.892C29.0563 139.195 29.9554 139.231 30.7606 138.902C31.5046 138.597 32.2574 137.898 32.5406 137.128C32.8238 136.358 32.9162 135.408 32.5471 134.614C32.1781 133.82 31.5959 133.139 30.7751 132.829C29.7584 132.444 28.7868 131.965 27.8463 131.423L28.5727 131.844C26.3887 130.574 24.3724 129.026 22.3279 127.55C20.1062 125.944 17.8818 124.338 15.6601 122.732C14.9792 122.239 14.115 121.977 13.2732 122.079C12.4313 122.18 11.5354 122.666 11.0606 123.345C10.5859 124.025 10.2715 124.889 10.4116 125.736C10.5518 126.584 10.9551 127.431 11.6784 127.955L11.6811 127.954Z" fill="#FF0074"/>
<path d="M14.0956 136.437C18.7588 137.898 23.5003 139.116 28.2985 140.043C29.5962 140.295 30.8986 140.522 32.2046 140.731C33.0369 140.865 34.0069 140.589 34.6689 140.077C35.2931 139.592 35.8303 138.736 35.9067 137.935C36.0789 136.134 34.9211 134.513 33.1114 134.222C28.6872 133.514 24.3055 132.567 19.9857 131.378L20.794 131.601C19.3948 131.216 18.0029 130.806 16.6192 130.373C15.7675 130.106 14.9632 130.012 14.1101 130.364C13.3661 130.669 12.6133 131.368 12.3301 132.137C12.0375 132.935 11.9545 133.858 12.3236 134.651C12.6718 135.4 13.2753 136.18 14.0956 136.437Z" fill="#FF0074"/>
<path d="M179.78 90.0563C181.115 92.8864 182.449 95.7165 183.783 98.5466C184.117 99.2506 185.03 99.8505 185.752 100.046C186.538 100.26 187.583 100.155 188.278 99.7014C188.973 99.2481 189.586 98.5673 189.772 97.7305L189.885 96.8852C189.882 96.2814 189.729 95.7211 189.425 95.1992C188.091 92.3691 186.757 89.539 185.423 86.7089C185.089 86.0048 184.175 85.405 183.454 85.2097C182.668 84.9952 181.623 85.1008 180.928 85.5541C180.233 86.0074 179.619 86.6882 179.434 87.525L179.321 88.3703C179.324 88.9741 179.477 89.5344 179.78 90.0563Z" fill="#FF0074"/>
<path d="M189.928 78.1047C189.089 83.4596 188.407 88.8399 187.903 94.2371C187.767 95.6934 187.645 97.1488 187.535 98.6065C187.474 99.4209 187.955 100.408 188.52 100.964C189.085 101.52 190.006 101.939 190.807 101.905C191.667 101.87 192.566 101.583 193.159 100.922C193.752 100.26 194.029 99.5207 194.096 98.6311C194.452 93.9497 194.94 89.2809 195.556 84.628L195.444 85.4733C195.694 83.5856 195.969 81.7026 196.263 79.8199C196.396 79.392 196.414 78.9672 196.317 78.5393C196.297 78.0906 196.164 77.6755 195.917 77.2886C195.514 76.6092 194.73 75.9655 193.948 75.7894C193.109 75.6005 192.165 75.6477 191.422 76.1338C190.751 76.5719 190.057 77.2776 189.928 78.1047Z" fill="#FF0074"/>
<path d="M198.203 82.741C197.173 85.0114 196.142 87.2791 195.112 89.5494C194.149 91.671 193.233 93.8281 192.15 95.8942C191.573 96.9995 190.932 98.0681 190.185 99.0692L190.69 98.3979C190.522 98.6225 190.347 98.8433 190.168 99.0595C189.614 99.7298 189.233 100.452 189.231 101.35C189.23 102.165 189.6 103.151 190.216 103.708C190.832 104.264 191.647 104.686 192.503 104.649C193.359 104.611 194.296 104.339 194.855 103.665C196.512 101.658 197.764 99.4437 198.859 97.0903C199.943 94.7657 200.985 92.424 202.045 90.0886C202.663 88.7281 203.28 87.365 203.901 86.0038C204.269 85.1911 204.459 84.4014 204.216 83.5081C204.004 82.7312 203.405 81.8951 202.679 81.5166C201.953 81.1381 201.021 80.9292 200.188 81.1986C199.404 81.449 198.558 81.9545 198.202 82.7357L198.203 82.741Z" fill="#FF0074"/>
<path d="M201.243 89.9091C198.1 93.294 194.768 96.5034 191.263 99.513C190.269 100.366 189.259 101.203 188.24 102.025C187.643 102.506 187.302 103.586 187.303 104.316C187.301 105.131 187.672 106.117 188.288 106.673C188.903 107.229 189.718 107.652 190.575 107.615L191.447 107.499C192.019 107.343 192.509 107.054 192.926 106.631C196.525 103.735 199.961 100.639 203.211 97.3553C204.132 96.4231 205.039 95.4779 205.93 94.5171C206.502 93.9016 206.866 93.0757 206.867 92.2267C206.868 91.3776 206.498 90.4252 205.882 89.8691C205.266 89.313 204.452 88.8904 203.595 88.9278C202.739 88.9652 201.853 89.2576 201.243 89.9117L201.243 89.9091Z" fill="#FF0074"/>
<path d="M123.441 143.66C122.925 139.488 119.721 139.756 115.424 140.285C111.127 140.813 107.364 141.409 107.882 145.577C108.397 149.746 112.999 155.913 117.296 155.385C121.593 154.856 123.958 147.828 123.441 143.66Z" fill="#170C35"/>
<path d="M53.0014 146.794L57.4819 147.314L58.8005 153.623L53.3918 153.137L53.0014 146.794Z" fill="#C92E2E"/>
<path d="M172.688 122.537L168.172 125.797L169.713 132.987L176.229 128.241L172.688 122.537Z" fill="#C92E2E"/>
<path d="M130.459 187.197L151.215 182.959C151.215 182.959 154.396 183.895 155.416 184.316C156.536 184.777 159.738 186.508 159.738 186.508L151.473 189.483C151.473 189.483 144.598 187.741 142.29 187.49C139.345 187.171 130.459 187.197 130.459 187.197Z" fill="#C92E2E"/>
<path d="M113.774 190.554L93.0192 194.809C93.0192 194.809 90.4614 196.919 89.6899 197.705C88.8405 198.57 86.6746 200.746 86.6746 200.746L95.3484 200.908C95.3484 200.908 100.985 196.605 103.01 195.469C105.591 194.017 113.773 190.551 113.773 190.551L113.774 190.554Z" fill="#C92E2E"/>
</g>
<defs>
<filter id="filter0_d_607_2215" x="148" y="0" width="183" height="115" filterUnits="userSpaceOnUse" color-interpolation-filters="sRGB">
<feFlood flood-opacity="0" result="BackgroundImageFix"/>
<feColorMatrix in="SourceAlpha" type="matrix" values="0 0 0 0 0 0 0 0 0 0 0 0 0 0 0 0 0 0 127 0" result="hardAlpha"/>
<feOffset dy="4"/>
<feGaussianBlur stdDeviation="2"/>
<feComposite in2="hardAlpha" operator="out"/>
<feColorMatrix type="matrix" values="0 0 0 0 0 0 0 0 0 0 0 0 0 0 0 0 0 0 0.25 0"/>
<feBlend mode="normal" in2="BackgroundImageFix" result="effect1_dropShadow_607_2215"/>
<feBlend mode="normal" in="SourceGraphic" in2="effect1_dropShadow_607_2215" result="shape"/>
</filter>
<clipPath id="clip0_607_2215">
<rect width="199" height="166" fill="white" transform="translate(0.688477 92.0586) rotate(-15.2326)"/>
</clipPath>
</defs>
</svg>
