<svg width="370" height="285" viewBox="0 0 370 285" fill="none" xmlns="http://www.w3.org/2000/svg">
<path d="M16.8914 187.478C16.6451 187.478 16.3987 187.443 16.1524 187.408C14.041 187.022 12.6686 184.987 13.0908 182.882C13.2316 182.216 16.3283 166.5 25.9705 155.485C31.7065 148.96 39.1316 145.487 44.3749 143.768C48.6682 142.33 54.5449 141.172 56.5156 141.733C57.9584 142.154 59.0493 143.417 59.2604 144.926C59.4715 146.434 58.7677 147.907 57.4657 148.714C56.6563 149.205 55.7766 149.381 54.8968 149.276C52.9966 149.451 40.1169 151.065 31.7769 160.536C23.5072 169.938 20.6919 184.18 20.6567 184.321C20.34 186.215 18.7213 187.478 16.8914 187.478Z" fill="#FF0074"/>
<path d="M59.753 147.486L59.4011 144.961L59.014 142.4L56.5507 141.663C54.5448 141.067 48.6329 142.259 44.3397 143.698C41.7708 144.54 38.6388 145.838 35.4717 147.697C36.9849 149.766 38.2518 152.117 39.2371 154.678C47.0141 150.047 55.0727 149.451 55.1783 149.451C54.1225 149.451 52.2223 148.679 51.624 146.609L55.4246 145.522L53.3132 142.154L57.5712 148.889L59.753 147.486Z" fill="#C92E2E"/>
<path d="M46.1696 250.797C44.8324 249.675 44.3046 247.78 45.0084 246.096C45.4658 245.009 56.4452 219.26 74.2162 204.807C75.9758 203.404 78.5446 203.65 79.9523 205.404C81.3599 207.158 81.1135 209.718 79.354 211.122C63.2017 224.277 52.6095 249.008 52.5039 249.254C51.6241 251.323 49.2312 252.306 47.155 251.429C46.8383 251.253 46.4864 251.043 46.1696 250.797Z" fill="#FF0074"/>
<path d="M79.9522 205.404C78.5446 203.65 75.9757 203.404 74.2162 204.807C70.838 207.543 67.706 210.701 64.8556 213.998L70.6972 219.716C73.3717 216.594 76.2573 213.612 79.354 211.086C81.1135 209.683 81.395 207.122 79.9522 205.404Z" fill="#C92E2E"/>
<path d="M132.104 278.37C133.864 278.264 135.377 277.001 135.799 275.212C136.081 274.055 142.239 246.762 136.257 224.697C135.658 222.522 133.442 221.259 131.26 221.821C129.078 222.417 127.811 224.627 128.374 226.802C133.829 246.868 127.917 273.108 127.846 273.388C127.354 275.563 128.726 277.773 130.908 278.264C131.33 278.37 131.717 278.405 132.104 278.37Z" fill="#FF0074"/>
<path d="M131.259 221.856C133.441 221.26 135.658 222.558 136.256 224.733C137.382 228.907 138.086 233.292 138.473 237.642L130.38 238.87C130.063 234.765 129.429 230.696 128.374 226.837C127.776 224.662 129.078 222.452 131.259 221.856Z" fill="#C92E2E"/>
<path d="M255.481 124.193C253.897 124.824 252.947 126.087 251.61 127.07C251.962 126.508 252.208 125.912 252.279 125.21C252.455 123.702 251.082 122.72 249.71 123.141C247.95 123.667 246.648 125.28 245.03 126.157C243.552 126.999 241.968 127.701 240.525 128.578C241.123 127.701 241.898 126.859 242.813 126.157C244.959 124.509 242.425 121.106 240.279 122.79C236.689 125.526 234.297 130.016 234.648 134.471C234.226 135.103 233.98 135.805 233.945 136.611C233.417 152.713 228.385 152.678 214.942 152.573C209.558 152.538 203.47 152.468 196.713 153.66C194.496 154.046 193.018 156.151 193.406 158.361C193.793 160.571 195.904 162.044 198.121 161.659C204.139 160.606 209.839 160.676 214.872 160.711C220.643 160.746 226.308 160.817 230.953 158.992C236.901 156.677 241.194 151.275 242.003 138.927C242.918 138.821 243.903 139.032 244.748 139.067C246.367 139.102 247.95 138.997 249.534 138.786C252.173 138.4 255.094 137.839 257.205 136.225C258.824 134.963 257.804 132.191 255.727 132.437C253.722 132.647 251.821 133.209 249.886 133.7C250.097 133.594 250.308 133.524 250.484 133.419C253.475 132.051 257.733 129.981 258.331 126.473C258.578 124.895 256.959 123.632 255.481 124.193Z" fill="#FF0074"/>
<path d="M221.311 152.573C219.411 152.643 217.3 152.643 214.907 152.608C209.523 152.573 203.435 152.503 196.678 153.696C194.461 154.082 192.983 156.186 193.37 158.397C193.758 160.607 195.869 162.08 198.086 161.694C204.103 160.642 209.804 160.712 214.836 160.747C217.089 160.782 219.306 160.782 221.452 160.677L221.311 152.573Z" fill="#C92E2E"/>
<path d="M216.279 88.3062L86.2513 46.9819C83.9639 46.2452 81.4302 47.8238 80.5856 50.4899L35.9996 189.933C35.1551 192.599 36.3163 195.335 38.5685 196.072L168.596 237.396C170.884 238.133 173.417 236.555 174.262 233.888L218.883 94.4452C219.728 91.7791 218.566 89.0078 216.279 88.3062ZM162.684 93.3226C161.769 96.129 159.341 97.848 157.23 97.1814L129.5 88.2711C127.389 87.6046 126.438 84.7631 127.318 81.9567C128.233 79.1503 130.661 77.4314 132.773 78.0979L141.43 80.8692C142.591 77.291 146.004 75.2213 149.066 76.2036C152.127 77.1858 153.676 80.8692 152.514 84.4474L160.467 87.0082C162.579 87.7098 163.564 90.5513 162.684 93.3226Z" fill="#FF0074"/>
<path d="M44.2693 240.799C47.366 240.519 56.5859 244.202 56.9729 246.026C57.36 247.85 50.7795 259.392 49.4071 260.128C48.0346 260.865 30.6859 254.445 30.9674 253.183C31.2489 251.92 39.2371 250.973 40.7151 249.183C42.1931 247.394 42.6505 240.94 44.2693 240.799Z" fill="#C92E2E"/>
<path d="M139.494 266.969C136.785 265.495 126.826 265.25 125.77 266.793C124.714 268.302 126.192 281.492 127.142 282.72C128.128 283.947 146.603 284.86 146.849 283.562C147.06 282.299 140.128 278.264 139.459 276.054C138.826 273.844 140.937 267.775 139.494 266.969Z" fill="#C92E2E"/>
<path d="M193.124 117.809C192.068 114.582 189.992 113.74 186.966 112.722C184.467 111.88 181.933 111.038 179.435 110.197C173.875 108.337 168.35 106.373 162.755 104.619C157.652 103.005 152.55 101.497 147.517 99.6374C145.089 98.7604 142.767 97.7431 140.479 96.5855C138.262 95.4629 136.151 94.3403 133.617 94.8315C132.773 95.0069 131.858 95.954 131.893 96.8661C132.245 101.777 137.559 104.303 141.465 106.303C145.828 108.548 150.403 110.267 155.013 111.951C159.975 113.775 164.972 115.494 170.004 117.213C172.502 118.054 175.001 118.931 177.535 119.773C178.977 120.264 180.385 120.756 181.828 121.247C182.532 121.492 183.271 121.738 183.974 121.983C184.713 122.51 185.065 122.615 185.03 122.299C185.206 122.439 185.382 122.615 185.593 122.755C186.719 123.492 188.162 123.878 189.499 123.457C191.787 122.79 193.933 120.405 193.124 117.809Z" fill="#FD8279"/>
<path d="M123.869 92.0952C123.94 91.2182 123.553 90.3763 123.025 89.7097C122.814 89.4291 122.532 89.2186 122.215 89.0783C121.793 88.7976 121.301 88.6573 120.808 88.6222C120.034 88.4819 119.259 88.7626 118.591 89.2186C117.817 89.7448 117.359 90.4815 117.183 91.3936C117.078 91.8145 117.078 92.2706 117.183 92.7266C117.324 93.2879 117.57 93.8141 117.957 94.2351C118.591 94.9016 119.4 95.3225 120.35 95.3576C121.195 95.3927 122.11 95.077 122.743 94.5157C123.412 93.8492 123.764 93.0073 123.869 92.0952Z" fill="#FD8279"/>
<path d="M116.585 128.858C115.529 124.298 110.603 121.562 105.606 122.719C100.609 123.877 97.4064 128.508 98.4621 133.033C99.5178 137.593 104.444 140.33 109.441 139.172C114.438 138.049 117.641 133.419 116.585 128.858Z" fill="#170C35"/>
<path d="M149.488 138.541C153.253 135.243 158.989 135.594 162.297 139.348C165.605 143.101 165.253 148.819 161.488 152.117C157.723 155.414 151.987 155.063 148.679 151.31C145.371 147.556 145.723 141.838 149.488 138.541Z" fill="#170C35"/>
<path d="M118.556 177.48C126.263 179.97 134.356 177.725 139.74 172.428C143.259 168.955 141.746 162.991 137.031 161.483L112.925 153.73C108.21 152.222 103.494 156.186 104.339 161.027C105.571 168.499 110.849 174.989 118.556 177.48Z" fill="#170C35"/>
<path d="M98.9549 157.66C97.125 163.342 91.0019 166.5 85.2659 164.64C79.5651 162.816 76.398 156.712 78.263 150.994C80.0929 145.311 86.216 142.154 91.952 144.013C97.6528 145.873 100.82 151.977 98.9549 157.66Z" fill="#FD8FB3"/>
<path d="M147.447 173.235C145.617 178.918 148.749 185.022 154.45 186.881C160.151 188.705 166.274 185.583 168.139 179.9C169.969 174.217 166.837 168.113 161.136 166.254C155.4 164.395 149.277 167.517 147.447 173.235Z" fill="#FD8FB3"/>
<path d="M15.6948 176.357C14.2872 177.093 12.8444 177.83 11.4368 178.567C10.3107 179.163 9.18465 179.724 8.12894 180.391C5.3841 182.11 2.8856 184.495 2.11141 187.758C1.86508 188.845 1.97065 190.038 2.5337 190.985C3.06155 191.862 4.04687 192.704 5.06739 192.914C6.15829 193.16 7.35476 193.09 8.30489 192.493C9.21984 191.897 9.99402 191.055 10.2404 189.968C10.3107 189.652 10.4163 189.336 10.5571 189.021C10.4163 189.371 10.2755 189.687 10.1348 190.038C10.3459 189.547 10.6274 189.091 10.9442 188.67C10.733 188.95 10.4867 189.231 10.2755 189.512C10.7682 188.88 11.3312 188.354 11.9647 187.863C11.6832 188.073 11.4016 188.319 11.1201 188.529C12.2814 187.652 13.5834 186.951 14.8855 186.284C16.5746 185.407 18.2989 184.53 19.988 183.653C20.903 183.197 21.6772 182.11 21.9235 181.128C22.205 180.11 22.0643 178.777 21.5012 177.9C20.164 175.865 17.8062 175.269 15.6948 176.357Z" fill="#FF0074"/>
<path d="M13.2315 192.915C13.1963 192.879 13.1611 192.844 13.1611 192.809C13.3723 193.09 13.6186 193.371 13.8298 193.651C13.7594 193.546 13.689 193.441 13.6538 193.335C13.7946 193.686 13.9353 194.002 14.0761 194.353C14.0057 194.142 13.9353 193.967 13.9353 193.756C13.9705 194.142 14.0409 194.493 14.0761 194.879C14.0761 194.669 14.0761 194.458 14.0761 194.248C14.0409 194.633 13.9705 194.984 13.9353 195.37C14.0057 194.914 14.1465 194.493 14.3224 194.072C14.1817 194.423 14.0409 194.739 13.9001 195.089C14.3928 193.967 15.0614 192.915 15.6948 191.897C16.3635 190.81 17.1024 189.792 17.8766 188.775C17.6655 189.056 17.4192 189.336 17.208 189.617C17.5951 189.126 18.0174 188.635 18.4045 188.144C19.1435 187.267 19.6361 186.355 19.6361 185.162C19.6361 184.145 19.1787 182.882 18.4045 182.18C17.5951 181.443 16.5394 180.882 15.4133 180.952C14.3576 180.987 13.126 181.338 12.4221 182.18C10.6626 184.25 9.07908 186.425 7.70666 188.74C7.00285 189.933 6.29905 191.161 5.91196 192.494C5.70081 193.265 5.56005 194.107 5.59524 194.914C5.63043 195.44 5.70081 196.107 5.91196 196.633C6.29905 197.615 6.61576 198.071 7.24918 198.913C7.88261 199.72 9.29022 200.141 10.2404 200.141C11.2609 200.141 12.5277 199.685 13.2315 198.913C13.9705 198.106 14.5336 197.054 14.4632 195.931C14.428 195.546 14.3576 195.195 14.3224 194.809C14.1465 194.037 13.7594 193.406 13.2315 192.915Z" fill="#FF0074"/>
<path d="M15.1318 183.338C14.8503 185.233 14.6743 187.127 14.8503 189.056C15.0262 190.951 15.3429 192.845 15.9412 194.669C16.2931 195.722 16.9265 196.634 17.8766 197.195C18.7916 197.721 20.1288 197.932 21.1141 197.616C22.1346 197.3 23.12 196.669 23.6478 195.687C24.1757 194.704 24.422 193.512 24.0701 192.459C23.683 191.266 23.4015 190.074 23.2255 188.846C23.2607 189.232 23.3311 189.583 23.3663 189.969C23.12 188.215 23.12 186.425 23.3663 184.671C23.3311 185.057 23.2607 185.408 23.2255 185.794C23.2255 185.724 23.2255 185.689 23.2607 185.619C23.4367 185.057 23.4719 184.496 23.3311 183.935C23.2959 183.373 23.1552 182.847 22.8385 182.356C22.3106 181.479 21.3253 180.637 20.3048 180.427C19.2139 180.181 18.0174 180.251 17.0673 180.848C16.2227 181.374 15.3077 182.286 15.1318 183.338Z" fill="#FF0074"/>
<g filter="url(#filter0_d_328_1881)">
<rect x="177" width="175.348" height="47.0732" rx="22.3598" fill="white"/>
<path d="M243 95.7646L258.797 77.6709L243 77.6709L243 95.7646Z" fill="white"/>
<rect x="213" y="29" width="151" height="49" rx="22.3598" fill="white"/>
</g>
<path d="M205.529 32.2571C203.735 32.2571 202.337 31.6075 201.335 30.3083C200.346 29.0091 199.852 27.2156 199.852 24.9278C199.852 22.6401 200.346 20.8466 201.335 19.5474C202.337 18.2481 203.735 17.5985 205.529 17.5985C207.322 17.5985 208.713 18.2481 209.702 19.5474C210.705 20.8466 211.206 22.6401 211.206 24.9278C211.206 27.2156 210.705 29.0091 209.702 30.3083C208.713 31.6075 207.322 32.2571 205.529 32.2571ZM205.529 30.8379C206.856 30.8379 207.88 30.3295 208.6 29.3127C209.321 28.2818 209.681 26.8202 209.681 24.9278C209.681 23.0355 209.321 21.5809 208.6 20.5641C207.88 19.5332 206.856 19.0178 205.529 19.0178C204.201 19.0178 203.178 19.5332 202.457 20.5641C201.737 21.5809 201.377 23.0355 201.377 24.9278C201.377 26.8202 201.737 28.2818 202.457 29.3127C203.178 30.3295 204.201 30.8379 205.529 30.8379ZM221.77 17.8527L221.77 32.0029L220.478 32.0029L220.478 30.3507L220.35 30.3507C220.054 30.9579 219.63 31.431 219.079 31.7699C218.543 32.0947 217.929 32.2571 217.237 32.2571C215.98 32.2571 214.998 31.7982 214.292 30.8802C213.6 29.9482 213.254 28.6631 213.254 27.0249C213.254 25.4009 213.6 24.1299 214.292 23.212C214.998 22.28 215.98 21.8139 217.237 21.8139C217.9 21.8139 218.493 21.9693 219.016 22.28C219.553 22.5765 219.976 23.0002 220.287 23.5509L220.393 23.5509L220.393 17.8527L221.77 17.8527ZM217.533 30.965C218.465 30.965 219.171 30.619 219.651 29.927C220.146 29.235 220.393 28.2677 220.393 27.0249C220.393 25.7822 220.146 24.8149 219.651 24.1229C219.171 23.4309 218.465 23.0849 217.533 23.0849C216.587 23.0849 215.874 23.4309 215.394 24.1229C214.913 24.8007 214.673 25.7681 214.673 27.0249C214.673 28.2818 214.913 29.2562 215.394 29.9482C215.874 30.626 216.587 30.965 217.533 30.965ZM237.137 22.0681L234.213 32.0029L232.815 32.0029L230.57 24.4406L230.443 24.4406L228.219 32.0029L226.799 32.0029L223.876 22.0681L225.274 22.0681L227.456 29.694L227.583 29.694L229.786 22.0681L231.248 22.0681L233.451 29.694L233.578 29.694L235.739 22.0681L237.137 22.0681ZM239.23 17.8527L240.607 17.8527L240.607 19.971L239.23 19.971L239.23 17.8527ZM239.23 22.0681L240.607 22.0681L240.607 32.0029L239.23 32.0029L239.23 22.0681ZM251.344 26.8343C251.344 27.0461 251.337 27.1944 251.323 27.2791L244.523 27.2791C244.551 28.5077 244.798 29.4398 245.264 30.0753C245.745 30.7108 246.415 31.0285 247.277 31.0285C248.477 31.0285 249.296 30.506 249.734 29.461L251.196 29.461C250.913 30.3365 250.433 31.0215 249.755 31.5157C249.077 32.01 248.251 32.2571 247.277 32.2571C246.006 32.2571 244.996 31.7911 244.248 30.8591C243.513 29.927 243.146 28.649 243.146 27.0249C243.146 25.4009 243.513 24.1299 244.248 23.212C244.982 22.28 245.999 21.8139 247.298 21.8139C248.541 21.8139 249.522 22.2658 250.242 23.1696C250.977 24.0593 251.344 25.2809 251.344 26.8343ZM247.298 23.0426C246.493 23.0426 245.857 23.3038 245.391 23.8263C244.94 24.3488 244.664 25.1185 244.565 26.1353L249.967 26.1353C249.896 25.1185 249.628 24.3488 249.162 23.8263C248.71 23.3038 248.089 23.0426 247.298 23.0426ZM261.736 17.8527L261.736 32.0029L260.444 32.0029L260.444 30.3507L260.317 30.3507C260.02 30.9579 259.596 31.431 259.046 31.7699C258.509 32.0947 257.895 32.2571 257.203 32.2571C255.946 32.2571 254.964 31.7982 254.258 30.8802C253.566 29.9482 253.22 28.6631 253.22 27.0249C253.22 25.4009 253.566 24.1299 254.258 23.212C254.964 22.28 255.946 21.8139 257.203 21.8139C257.867 21.8139 258.46 21.9693 258.982 22.28C259.519 22.5765 259.942 23.0002 260.253 23.5509L260.359 23.5509L260.359 17.8527L261.736 17.8527ZM257.499 30.965C258.431 30.965 259.137 30.619 259.618 29.927C260.112 29.235 260.359 28.2677 260.359 27.0249C260.359 25.7822 260.112 24.8149 259.618 24.1229C259.137 23.4309 258.431 23.0849 257.499 23.0849C256.553 23.0849 255.84 23.4309 255.36 24.1229C254.88 24.8007 254.64 25.7681 254.64 27.0249C254.64 28.2818 254.88 29.2562 255.36 29.9482C255.84 30.626 256.553 30.965 257.499 30.965ZM270.727 30.7955L270.727 32.0029L264.096 32.0029L264.096 30.4778L269.18 23.3815L269.18 23.2544L264.372 23.2544L264.372 22.0681L270.642 22.0681L270.642 23.5721L265.558 30.6684L265.558 30.7955L270.727 30.7955ZM280.36 30.9014C280.515 30.9014 280.698 30.8661 280.91 30.7955L280.91 31.9394C280.628 32.0665 280.317 32.13 279.978 32.13C279.54 32.13 279.18 32.0029 278.898 31.7487C278.615 31.4804 278.474 31.0921 278.474 30.5837L278.368 30.5837C278.086 31.0779 277.676 31.4734 277.14 31.7699C276.603 32.0524 276.017 32.1936 275.382 32.1936C274.449 32.1936 273.729 31.9394 273.221 31.431C272.712 30.9085 272.458 30.2024 272.458 29.3127C272.458 28.2112 272.903 27.3709 273.793 26.7919C274.682 26.2129 275.968 25.9234 277.648 25.9234L278.411 25.9234L278.411 25.415C278.411 23.8051 277.69 23.0002 276.25 23.0002C275.629 23.0002 275.134 23.1414 274.767 23.4238C274.414 23.7063 274.195 24.1158 274.111 24.6525L272.755 24.6525C272.854 23.7345 273.214 23.0355 273.835 22.5553C274.457 22.0611 275.269 21.8139 276.271 21.8139C277.429 21.8139 278.305 22.1458 278.898 22.8095C279.491 23.4591 279.788 24.3418 279.788 25.4574L279.788 30.2236C279.788 30.4354 279.837 30.6049 279.936 30.732C280.035 30.8449 280.176 30.9014 280.36 30.9014ZM275.636 31.0497C276.469 31.0497 277.14 30.7461 277.648 30.1388C278.156 29.5175 278.411 28.7337 278.411 27.7875L278.411 27.0673L277.648 27.0673C275.078 27.0673 273.793 27.7946 273.793 29.2491C273.793 29.7999 273.962 30.2377 274.301 30.5625C274.64 30.8873 275.085 31.0497 275.636 31.0497ZM282.961 17.8527L284.338 17.8527L284.338 19.971L282.961 19.971L282.961 17.8527ZM280.991 34.439C281.175 34.4813 281.365 34.5025 281.563 34.5025C282.001 34.5025 282.34 34.3684 282.58 34.1C282.834 33.8458 282.961 33.4646 282.961 32.9562L282.961 22.0681L284.338 22.0681L284.338 33.0197C284.338 33.8953 284.091 34.5731 283.597 35.0533C283.117 35.5334 282.502 35.7735 281.754 35.7735C281.5 35.7735 281.245 35.7382 280.991 35.6676L280.991 34.439ZM302.048 21.8139C303.135 21.8139 303.926 22.1317 304.42 22.7672C304.929 23.4027 305.183 24.2853 305.183 25.415L305.183 32.0029L303.806 32.0029L303.806 25.521C303.806 23.8969 303.107 23.0849 301.709 23.0849C300 23.0849 299.146 24.2217 299.146 26.4954L299.146 32.0029L297.769 32.0029L297.769 25.521C297.769 23.8969 297.07 23.0849 295.672 23.0849C294.853 23.0849 294.224 23.3885 293.787 23.9958C293.349 24.5889 293.13 25.4221 293.13 26.4954L293.13 32.0029L291.753 32.0029L291.753 22.0681L293.045 22.0681L293.045 23.4874L293.151 23.4874C293.405 22.9366 293.787 22.52 294.295 22.2376C294.803 21.9552 295.382 21.8139 296.032 21.8139C296.794 21.8139 297.409 21.9763 297.875 22.3011C298.355 22.6118 298.687 23.0567 298.87 23.6357L298.998 23.6357C299.252 23.0284 299.647 22.5765 300.184 22.28C300.735 21.9693 301.356 21.8139 302.048 21.8139ZM312.519 21.8139C313.592 21.8139 314.376 22.1317 314.87 22.7672C315.379 23.4027 315.633 24.2853 315.633 25.415L315.633 32.0029L314.256 32.0029L314.256 25.521C314.256 23.8969 313.557 23.0849 312.159 23.0849C311.34 23.0849 310.711 23.3885 310.274 23.9958C309.836 24.5889 309.617 25.4221 309.617 26.4954L309.617 32.0029L308.24 32.0029L308.24 22.0681L309.532 22.0681L309.532 23.4874L309.638 23.4874C309.892 22.9366 310.274 22.52 310.782 22.2376C311.29 21.9552 311.869 21.8139 312.519 21.8139ZM318.707 17.8527L320.084 17.8527L320.084 19.971L318.707 19.971L318.707 17.8527ZM318.707 22.0681L320.084 22.0681L320.084 32.0029L318.707 32.0029L318.707 22.0681ZM330.821 26.8343C330.821 27.0461 330.814 27.1944 330.8 27.2791L324 27.2791C324.029 28.5077 324.276 29.4398 324.742 30.0753C325.222 30.7108 325.893 31.0285 326.754 31.0285C327.954 31.0285 328.774 30.506 329.211 29.461L330.673 29.461C330.391 30.3365 329.91 31.0215 329.233 31.5157C328.555 32.01 327.729 32.2571 326.754 32.2571C325.483 32.2571 324.473 31.7911 323.725 30.8591C322.991 29.927 322.623 28.649 322.623 27.0249C322.623 25.4009 322.991 24.1299 323.725 23.212C324.459 22.28 325.476 21.8139 326.775 21.8139C328.018 21.8139 328.999 22.2658 329.72 23.1696C330.454 24.0593 330.821 25.2809 330.821 26.8343ZM326.775 23.0426C325.97 23.0426 325.335 23.3038 324.869 23.8263C324.417 24.3488 324.142 25.1185 324.043 26.1353L329.444 26.1353C329.374 25.1185 329.105 24.3488 328.639 23.8263C328.187 23.3038 327.566 23.0426 326.775 23.0426ZM242.36 57.0249C242.36 55.4009 242.734 54.1299 243.483 53.212C244.231 52.28 245.255 51.8139 246.554 51.8139C247.599 51.8139 248.461 52.1105 249.139 52.7036C249.831 53.2967 250.261 54.1017 250.431 55.1185L249.011 55.1185C248.884 54.4547 248.602 53.9534 248.164 53.6145C247.74 53.2614 247.204 53.0849 246.554 53.0849C245.665 53.0849 244.98 53.4309 244.499 54.1229C244.019 54.8007 243.779 55.7681 243.779 57.0249C243.779 58.2818 244.019 59.2562 244.499 59.9482C244.98 60.626 245.665 60.965 246.554 60.965C247.204 60.965 247.74 60.7955 248.164 60.4566C248.588 60.1035 248.87 59.6022 249.011 58.9526L250.431 58.9526C250.261 59.9694 249.831 60.7743 249.139 61.3674C248.461 61.9606 247.599 62.2571 246.554 62.2571C245.255 62.2571 244.231 61.7911 243.483 60.8591C242.734 59.927 242.36 58.649 242.36 57.0249ZM256.423 62.2571C255.11 62.2571 254.065 61.7911 253.288 60.8591C252.525 59.9129 252.144 58.6348 252.144 57.0249C252.144 55.4292 252.525 54.1652 253.288 53.2332C254.051 52.287 255.096 51.8139 256.423 51.8139C257.751 51.8139 258.796 52.28 259.558 53.212C260.321 54.1441 260.702 55.415 260.702 57.0249C260.702 58.6348 260.321 59.9129 259.558 60.8591C258.796 61.7911 257.751 62.2571 256.423 62.2571ZM256.423 60.965C257.369 60.965 258.082 60.626 258.563 59.9482C259.043 59.2562 259.283 58.2818 259.283 57.0249C259.283 55.7681 259.036 54.8007 258.541 54.1229C258.061 53.4309 257.355 53.0849 256.423 53.0849C255.491 53.0849 254.785 53.4309 254.305 54.1229C253.825 54.8149 253.585 55.7822 253.585 57.0249C253.585 58.2818 253.825 59.2562 254.305 59.9482C254.785 60.626 255.491 60.965 256.423 60.965ZM271.169 47.8527L271.169 62.0029L269.877 62.0029L269.877 60.3507L269.75 60.3507C269.453 60.9579 269.029 61.431 268.479 61.7699C267.942 62.0947 267.328 62.2571 266.636 62.2571C265.379 62.2571 264.397 61.7982 263.691 60.8802C262.999 59.9482 262.653 58.6631 262.653 57.0249C262.653 55.4009 262.999 54.1299 263.691 53.212C264.397 52.28 265.379 51.8139 266.636 51.8139C267.3 51.8139 267.893 51.9693 268.415 52.28C268.952 52.5765 269.375 53.0002 269.686 53.5509L269.792 53.5509L269.792 47.8527L271.169 47.8527ZM266.932 60.965C267.864 60.965 268.57 60.619 269.051 59.927C269.545 59.235 269.792 58.2677 269.792 57.0249C269.792 55.7822 269.545 54.8149 269.051 54.1229C268.57 53.4309 267.864 53.0849 266.932 53.0849C265.986 53.0849 265.273 53.4309 264.793 54.1229C264.313 54.8007 264.073 55.7681 264.073 57.0249C264.073 58.2818 264.313 59.2562 264.793 59.9482C265.273 60.626 265.986 60.965 266.932 60.965ZM280.16 60.7955L280.16 62.0029L273.53 62.0029L273.53 60.4778L278.613 53.3815L278.613 53.2544L273.805 53.2544L273.805 52.0681L280.075 52.0681L280.075 53.5721L274.991 60.6684L274.991 60.7955L280.16 60.7955ZM282.527 47.8527L283.904 47.8527L283.904 49.971L282.527 49.971L282.527 47.8527ZM282.527 52.0681L283.904 52.0681L283.904 62.0029L282.527 62.0029L282.527 52.0681ZM294.641 56.8343C294.641 57.0461 294.634 57.1944 294.619 57.2791L287.82 57.2791C287.848 58.5077 288.095 59.4398 288.561 60.0753C289.041 60.7108 289.712 61.0285 290.573 61.0285C291.774 61.0285 292.593 60.506 293.031 59.461L294.492 59.461C294.21 60.3365 293.73 61.0215 293.052 61.5157C292.374 62.01 291.548 62.2571 290.573 62.2571C289.303 62.2571 288.293 61.7911 287.544 60.8591C286.81 59.927 286.443 58.649 286.443 57.0249C286.443 55.4009 286.81 54.1299 287.544 53.212C288.279 52.28 289.295 51.8139 290.595 51.8139C291.837 51.8139 292.819 52.2658 293.539 53.1696C294.273 54.0593 294.641 55.2809 294.641 56.8343ZM290.595 53.0426C289.79 53.0426 289.154 53.3038 288.688 53.8263C288.236 54.3488 287.961 55.1185 287.862 56.1353L293.264 56.1353C293.193 55.1185 292.925 54.3488 292.459 53.8263C292.007 53.3038 291.386 53.0426 290.595 53.0426ZM301.41 51.8139C302.484 51.8139 303.267 52.1317 303.762 52.7672C304.27 53.4027 304.524 54.2853 304.524 55.415L304.524 62.0029L303.147 62.0029L303.147 55.521C303.147 53.8969 302.448 53.0849 301.05 53.0849C300.231 53.0849 299.603 53.3885 299.165 53.9958C298.727 54.5889 298.508 55.4221 298.508 56.4954L298.508 62.0029L297.131 62.0029L297.131 52.0681L298.424 52.0681L298.424 53.4874L298.53 53.4874C298.784 52.9366 299.165 52.52 299.673 52.2376C300.182 51.9552 300.761 51.8139 301.41 51.8139ZM311.878 51.8139C312.951 51.8139 313.735 52.1317 314.229 52.7672C314.737 53.4027 314.992 54.2853 314.992 55.415L314.992 62.0029L313.615 62.0029L313.615 55.521C313.615 53.8969 312.916 53.0849 311.518 53.0849C310.699 53.0849 310.07 53.3885 309.632 53.9958C309.195 54.5889 308.976 55.4221 308.976 56.4954L308.976 62.0029L307.599 62.0029L307.599 52.0681L308.891 52.0681L308.891 53.4874L308.997 53.4874C309.251 52.9366 309.632 52.52 310.141 52.2376C310.649 51.9552 311.228 51.8139 311.878 51.8139ZM318.066 47.8527L319.443 47.8527L319.443 49.971L318.066 49.971L318.066 47.8527ZM318.066 52.0681L319.443 52.0681L319.443 62.0029L318.066 62.0029L318.066 52.0681ZM330.18 56.8343C330.18 57.0461 330.173 57.1944 330.159 57.2791L323.359 57.2791C323.387 58.5077 323.634 59.4398 324.1 60.0753C324.581 60.7108 325.251 61.0285 326.113 61.0285C327.313 61.0285 328.132 60.506 328.57 59.461L330.032 59.461C329.749 60.3365 329.269 61.0215 328.591 61.5157C327.913 62.01 327.087 62.2571 326.113 62.2571C324.842 62.2571 323.832 61.7911 323.084 60.8591C322.349 59.927 321.982 58.649 321.982 57.0249C321.982 55.4009 322.349 54.1299 323.084 53.212C323.818 52.28 324.835 51.8139 326.134 51.8139C327.377 51.8139 328.358 52.2658 329.078 53.1696C329.813 54.0593 330.18 55.2809 330.18 56.8343ZM326.134 53.0426C325.329 53.0426 324.694 53.3038 324.228 53.8263C323.776 54.3488 323.5 55.1185 323.401 56.1353L328.803 56.1353C328.732 55.1185 328.464 54.3488 327.998 53.8263C327.546 53.3038 326.925 53.0426 326.134 53.0426ZM332.374 59.8846L334.471 59.8846L334.471 62.0029L332.374 62.0029L332.374 59.8846ZM337.049 59.8846L339.146 59.8846L339.146 62.0029L337.049 62.0029L337.049 59.8846ZM341.724 59.8846L343.822 59.8846L343.822 62.0029L341.724 62.0029L341.724 59.8846Z" fill="#DE1274"/>
<defs>
<filter id="filter0_d_328_1881" x="174.646" y="0" width="191.707" height="100.472" filterUnits="userSpaceOnUse" color-interpolation-filters="sRGB">
<feFlood flood-opacity="0" result="BackgroundImageFix"/>
<feColorMatrix in="SourceAlpha" type="matrix" values="0 0 0 0 0 0 0 0 0 0 0 0 0 0 0 0 0 0 127 0" result="hardAlpha"/>
<feOffset dy="2.35366"/>
<feGaussianBlur stdDeviation="1.17683"/>
<feComposite in2="hardAlpha" operator="out"/>
<feColorMatrix type="matrix" values="0 0 0 0 0 0 0 0 0 0 0 0 0 0 0 0 0 0 0.25 0"/>
<feBlend mode="normal" in2="BackgroundImageFix" result="effect1_dropShadow_328_1881"/>
<feBlend mode="normal" in="SourceGraphic" in2="effect1_dropShadow_328_1881" result="shape"/>
</filter>
</defs>
</svg>
