<svg width="274" height="304" viewBox="0 0 274 304" fill="none" xmlns="http://www.w3.org/2000/svg">
<g filter="url(#filter0_d_616_2312)">
<rect x="4" width="266" height="87" rx="38" fill="white"/>
<path d="M173 117.75L199.847 87H173L173 117.75Z" fill="white"/>
<path d="M44.508 42.904C45.732 43.336 46.644 44.056 47.244 45.064C47.844 46.048 48.144 47.188 48.144 48.484C48.144 50.476 47.544 52.06 46.344 53.236C45.168 54.412 43.392 55 41.016 55L33.024 55L33.024 30.952L41.196 30.952C43.332 30.952 44.976 31.528 46.128 32.68C47.28 33.808 47.856 35.32 47.856 37.216C47.856 38.488 47.592 39.616 47.064 40.6C46.536 41.584 45.684 42.304 44.508 42.76L44.508 42.904ZM35.472 41.716L40.8 41.716C42.216 41.716 43.308 41.344 44.076 40.6C44.868 39.856 45.264 38.812 45.264 37.468C45.264 36.124 44.868 35.08 44.076 34.336C43.308 33.568 42.216 33.184 40.8 33.184L35.472 33.184L35.472 41.716ZM40.656 52.768C42.24 52.768 43.452 52.396 44.292 51.652C45.156 50.884 45.588 49.78 45.588 48.34C45.588 46.9 45.156 45.808 44.292 45.064C43.452 44.296 42.24 43.912 40.656 43.912L35.472 43.912L35.472 52.768L40.656 52.768ZM65.0519 53.128C65.3159 53.128 65.6279 53.068 65.9879 52.948L65.9879 54.892C65.5079 55.108 64.9799 55.216 64.4039 55.216C63.6599 55.216 63.0479 55 62.5679 54.568C62.0879 54.112 61.8479 53.452 61.8479 52.588L61.6679 52.588C61.1879 53.428 60.4919 54.1 59.5799 54.604C58.6679 55.084 57.6719 55.324 56.5919 55.324C55.0079 55.324 53.7839 54.892 52.9199 54.028C52.0559 53.14 51.6239 51.94 51.6239 50.428C51.6239 48.556 52.3799 47.128 53.8919 46.144C55.4039 45.16 57.5879 44.668 60.4439 44.668L61.7399 44.668L61.7399 43.804C61.7399 41.068 60.5159 39.7 58.0679 39.7C57.0119 39.7 56.1719 39.94 55.5479 40.42C54.9479 40.9 54.5759 41.596 54.4319 42.508L52.1279 42.508C52.2959 40.948 52.9079 39.76 53.9639 38.944C55.0199 38.104 56.3999 37.684 58.1039 37.684C60.0719 37.684 61.5599 38.248 62.5679 39.376C63.5759 40.48 64.0799 41.98 64.0799 43.876L64.0799 51.976C64.0799 52.336 64.1639 52.624 64.3319 52.84C64.4999 53.032 64.7399 53.128 65.0519 53.128ZM57.0239 53.38C58.4399 53.38 59.5799 52.864 60.4439 51.832C61.3079 50.776 61.7399 49.444 61.7399 47.836L61.7399 46.612L60.4439 46.612C56.0759 46.612 53.8919 47.848 53.8919 50.32C53.8919 51.256 54.1799 52 54.7559 52.552C55.3319 53.104 56.0879 53.38 57.0239 53.38ZM76.3134 37.9C76.8654 37.9 77.2854 37.948 77.5734 38.044L77.5734 40.204C77.2614 40.156 76.8654 40.132 76.3854 40.132C73.3374 40.132 71.8134 42.004 71.8134 45.748L71.8134 55L69.4734 55L69.4734 38.116L71.6694 38.116L71.6694 40.636L71.8494 40.636C72.2814 39.724 72.8934 39.04 73.6854 38.584C74.4774 38.128 75.3534 37.9 76.3134 37.9ZM93.8702 30.952L93.8702 55L91.6742 55L91.6742 52.192L91.4582 52.192C90.9542 53.224 90.2342 54.028 89.2982 54.604C88.3862 55.156 87.3422 55.432 86.1662 55.432C84.0302 55.432 82.3622 54.652 81.1622 53.092C79.9862 51.508 79.3982 49.324 79.3982 46.54C79.3982 43.78 79.9862 41.62 81.1622 40.06C82.3622 38.476 84.0302 37.684 86.1662 37.684C87.2942 37.684 88.3022 37.948 89.1902 38.476C90.1022 38.98 90.8222 39.7 91.3502 40.636L91.5302 40.636L91.5302 30.952L93.8702 30.952ZM86.6702 53.236C88.2542 53.236 89.4542 52.648 90.2702 51.472C91.1102 50.296 91.5302 48.652 91.5302 46.54C91.5302 44.428 91.1102 42.784 90.2702 41.608C89.4542 40.432 88.2542 39.844 86.6702 39.844C85.0622 39.844 83.8502 40.432 83.0342 41.608C82.2182 42.76 81.8102 44.404 81.8102 46.54C81.8102 48.676 82.2182 50.332 83.0342 51.508C83.8502 52.66 85.0622 53.236 86.6702 53.236ZM109.15 52.948L109.15 55L97.8819 55L97.8819 52.408L106.522 40.348L106.522 40.132L98.3499 40.132L98.3499 38.116L109.006 38.116L109.006 40.672L100.366 52.732L100.366 52.948L109.15 52.948ZM119.189 55.432C116.957 55.432 115.181 54.64 113.861 53.056C112.565 51.448 111.917 49.276 111.917 46.54C111.917 43.828 112.565 41.68 113.861 40.096C115.157 38.488 116.933 37.684 119.189 37.684C121.445 37.684 123.221 38.476 124.517 40.06C125.813 41.644 126.461 43.804 126.461 46.54C126.461 49.276 125.813 51.448 124.517 53.056C123.221 54.64 121.445 55.432 119.189 55.432ZM119.189 53.236C120.797 53.236 122.009 52.66 122.825 51.508C123.641 50.332 124.049 48.676 124.049 46.54C124.049 44.404 123.629 42.76 122.789 41.608C121.973 40.432 120.773 39.844 119.189 39.844C117.605 39.844 116.405 40.432 115.589 41.608C114.773 42.784 114.365 44.428 114.365 46.54C114.365 48.676 114.773 50.332 115.589 51.508C116.405 52.66 117.605 53.236 119.189 53.236ZM151.491 30.952L151.491 55L149.295 55L149.295 52.192L149.079 52.192C148.575 53.224 147.855 54.028 146.919 54.604C146.007 55.156 144.963 55.432 143.787 55.432C141.651 55.432 139.983 54.652 138.783 53.092C137.607 51.508 137.019 49.324 137.019 46.54C137.019 43.78 137.607 41.62 138.783 40.06C139.983 38.476 141.651 37.684 143.787 37.684C144.915 37.684 145.923 37.948 146.811 38.476C147.723 38.98 148.443 39.7 148.971 40.636L149.151 40.636L149.151 30.952L151.491 30.952ZM144.291 53.236C145.875 53.236 147.075 52.648 147.891 51.472C148.731 50.296 149.151 48.652 149.151 46.54C149.151 44.428 148.731 42.784 147.891 41.608C147.075 40.432 145.875 39.844 144.291 39.844C142.683 39.844 141.471 40.432 140.655 41.608C139.839 42.76 139.431 44.404 139.431 46.54C139.431 48.676 139.839 50.332 140.655 51.508C141.471 52.66 142.683 53.236 144.291 53.236ZM163.099 55.432C160.867 55.432 159.091 54.64 157.771 53.056C156.475 51.448 155.827 49.276 155.827 46.54C155.827 43.828 156.475 41.68 157.771 40.096C159.067 38.488 160.843 37.684 163.099 37.684C165.355 37.684 167.131 38.476 168.427 40.06C169.723 41.644 170.371 43.804 170.371 46.54C170.371 49.276 169.723 51.448 168.427 53.056C167.131 54.64 165.355 55.432 163.099 55.432ZM163.099 53.236C164.707 53.236 165.919 52.66 166.735 51.508C167.551 50.332 167.959 48.676 167.959 46.54C167.959 44.404 167.539 42.76 166.699 41.608C165.883 40.432 164.683 39.844 163.099 39.844C161.515 39.844 160.315 40.432 159.499 41.608C158.683 42.784 158.275 44.428 158.275 46.54C158.275 48.676 158.683 50.332 159.499 51.508C160.315 52.66 161.515 53.236 163.099 53.236ZM182.471 37.684C184.583 37.684 186.227 38.476 187.403 40.06C188.603 41.62 189.203 43.78 189.203 46.54C189.203 49.324 188.603 51.508 187.403 53.092C186.227 54.652 184.583 55.432 182.471 55.432C181.295 55.432 180.239 55.156 179.303 54.604C178.367 54.028 177.647 53.224 177.143 52.192L176.927 52.192L176.927 55L174.731 55L174.731 30.952L177.071 30.952L177.071 40.636L177.287 40.636C177.815 39.7 178.523 38.98 179.411 38.476C180.323 37.948 181.343 37.684 182.471 37.684ZM181.931 53.236C183.563 53.236 184.775 52.66 185.567 51.508C186.383 50.356 186.791 48.7 186.791 46.54C186.791 44.404 186.383 42.76 185.567 41.608C184.775 40.432 183.563 39.844 181.931 39.844C180.347 39.844 179.135 40.432 178.295 41.608C177.479 42.784 177.071 44.428 177.071 46.54C177.071 48.676 177.479 50.332 178.295 51.508C179.135 52.66 180.347 53.236 181.931 53.236ZM200.415 37.9C200.967 37.9 201.387 37.948 201.675 38.044L201.675 40.204C201.363 40.156 200.967 40.132 200.487 40.132C197.439 40.132 195.915 42.004 195.915 45.748L195.915 55L193.575 55L193.575 38.116L195.771 38.116L195.771 40.636L195.951 40.636C196.383 39.724 196.995 39.04 197.787 38.584C198.579 38.128 199.455 37.9 200.415 37.9ZM214.97 52.948L214.97 55L203.702 55L203.702 52.408L212.342 40.348L212.342 40.132L204.17 40.132L204.17 38.116L214.826 38.116L214.826 40.672L206.186 52.732L206.186 52.948L214.97 52.948ZM231.705 46.216C231.705 46.576 231.693 46.828 231.669 46.972L220.113 46.972C220.161 49.06 220.581 50.644 221.373 51.724C222.189 52.804 223.329 53.344 224.793 53.344C226.833 53.344 228.225 52.456 228.969 50.68L231.453 50.68C230.973 52.168 230.157 53.332 229.005 54.172C227.853 55.012 226.449 55.432 224.793 55.432C222.633 55.432 220.917 54.64 219.645 53.056C218.397 51.472 217.773 49.3 217.773 46.54C217.773 43.78 218.397 41.62 219.645 40.06C220.893 38.476 222.621 37.684 224.829 37.684C226.941 37.684 228.609 38.452 229.833 39.988C231.081 41.5 231.705 43.576 231.705 46.216ZM224.829 39.772C223.461 39.772 222.381 40.216 221.589 41.104C220.821 41.992 220.353 43.3 220.185 45.028L229.365 45.028C229.245 43.3 228.789 41.992 227.997 41.104C227.229 40.216 226.173 39.772 224.829 39.772ZM236.154 37.612L236.154 30.952L238.602 30.952L238.602 37.612L238.026 47.584L236.73 47.584L236.154 37.612ZM235.578 51.4L239.178 51.4L239.178 55L235.578 55L235.578 51.4Z" fill="#DE1274"/>
</g>
<g clip-path="url(#clip0_616_2312)">
<path d="M115.566 298.513C114.182 298.325 113.025 297.254 112.792 295.81C112.643 294.877 109.182 272.774 115.125 255.5C115.71 253.804 117.564 252.898 119.267 253.482C120.969 254.065 121.878 255.913 121.293 257.609C115.884 273.327 119.196 294.571 119.23 294.784C119.514 296.556 118.304 298.221 116.526 298.505C116.2 298.558 115.876 298.558 115.566 298.516V298.513Z" fill="#FF0074"/>
<path d="M110.434 290.22C112.601 289.028 120.547 288.779 121.408 289.993C122.269 291.207 121.155 301.755 120.384 302.741C119.613 303.728 104.832 304.553 104.64 303.532C104.452 302.512 109.995 299.273 110.51 297.49C111.025 295.707 109.278 290.856 110.431 290.223L110.434 290.22Z" fill="#C92E2E"/>
<path d="M119.267 253.479C117.565 252.896 115.71 253.801 115.125 255.497C113.997 258.778 113.206 262.235 112.668 265.686L119.056 267.099C119.537 263.856 120.252 260.628 121.293 257.603C121.876 255.907 120.969 254.059 119.267 253.476V253.479Z" fill="#C92E2E"/>
<path d="M150.796 293.29C149.902 293.29 149.024 292.866 148.478 292.078C147.594 290.805 147.915 289.059 149.195 288.178C149.277 288.122 157.783 282.122 159.778 272.769C161.455 264.904 145.675 260.02 145.515 259.972C144.023 259.532 143.174 257.973 143.615 256.487C144.057 255.004 145.622 254.154 147.113 254.595C147.968 254.847 168.057 260.926 165.285 273.932C162.817 285.509 152.82 292.502 152.395 292.793C151.908 293.13 151.351 293.29 150.799 293.29H150.796Z" fill="#FF0074"/>
<path d="M142.293 255.209C142.917 253.591 144.744 252.784 146.367 253.409C149.508 254.615 152.566 256.179 155.465 257.926L152.547 263.516C149.837 261.857 146.992 260.379 144.099 259.269C142.476 258.646 141.665 256.827 142.29 255.209H142.293Z" fill="#C92E2E"/>
<path d="M161.81 288.798C161.104 286.322 155.448 280.28 153.914 280.535C152.381 280.793 145.363 289.367 145.194 290.66C145.028 291.952 155.279 303.462 156.177 302.85C157.074 302.239 155.406 295.774 156.351 294.08C157.296 292.39 162.184 290.113 161.807 288.795L161.81 288.798Z" fill="#C92E2E"/>
<path d="M74.7315 244.698C74.4726 244.614 68.3186 242.584 62.28 239.379C53.2417 234.582 49.1588 229.571 50.1436 224.488C52.2625 213.562 72.7927 212.914 75.1282 212.875L75.2211 218.483C69.2697 218.586 56.6606 220.451 55.6701 225.551C55.234 227.802 58.6951 231.122 64.9279 234.43C70.5444 237.411 76.4311 239.351 76.4901 239.371L74.7343 244.698H74.7315Z" fill="#FF0074"/>
<path d="M212.806 198.247C212.561 198.788 212.277 199.066 212.367 199.696C214.171 212.448 210.386 213.443 199.789 215.201C195.543 215.905 190.731 216.701 185.593 218.546C183.899 219.155 183.018 221.016 183.629 222.704C184.239 224.392 186.108 225.27 187.802 224.661C192.386 223.018 196.888 222.272 200.861 221.614C205.425 220.857 209.882 220.119 213.284 218.05C217.64 215.403 220.274 210.572 219.205 200.74C219.903 200.54 211.917 194.79 212.806 198.25V198.247Z" fill="#FF0074"/>
<path d="M197.654 215.619C196.196 216.003 194.536 216.357 192.662 216.755C188.452 217.646 183.683 218.658 178.629 220.728C176.963 221.412 176.17 223.31 176.853 224.967C177.537 226.627 179.445 227.417 181.111 226.736C185.616 224.891 190.081 223.944 194.021 223.108C195.774 222.735 197.51 222.368 199.173 221.928L197.656 215.619H197.654Z" fill="#C92E2E"/>
<path d="M65.0825 213.687C66.5767 213.614 68.251 213.455 70.1419 213.272C74.3853 212.866 79.1942 212.406 84.625 212.807C86.4175 212.939 87.8075 214.402 87.7316 216.073C87.6556 217.744 86.1417 218.992 84.3521 218.86C79.5065 218.501 75.0071 218.933 71.0367 219.314C69.2696 219.483 67.5194 219.651 65.8113 219.732L65.0825 213.69V213.687Z" fill="#C92E2E"/>
<path d="M190.284 136.343C190.278 134.108 188.719 132.3 186.806 132.303L77.6718 132.611C75.7583 132.617 74.2107 134.434 74.2163 136.668L74.5484 253.653C74.554 255.887 76.1129 257.696 78.0263 257.693L187.16 257.385C189.074 257.379 190.622 255.562 190.616 253.328L190.284 136.343ZM143.745 152.927H120.46C118.698 152.927 117.258 151.01 117.258 148.666C117.258 146.322 118.698 144.404 120.46 144.404H127.737C127.737 141.409 129.822 138.981 132.394 138.981C134.966 138.981 137.051 141.409 137.051 144.404H143.745C145.506 144.404 146.947 146.322 146.947 148.666C146.947 151.01 145.506 152.927 143.745 152.927Z" fill="#FF0074"/>
<path d="M219.174 196.913C218.862 195.805 218.628 194.678 218.471 193.537C218.522 193.91 218.572 194.283 218.623 194.656C218.333 192.455 218.336 190.231 218.631 188.03C218.581 188.403 218.53 188.776 218.479 189.149C218.699 187.587 219.062 186.051 219.571 184.556C219.912 183.561 219.667 182.204 219.146 181.315C218.626 180.426 217.63 179.61 216.625 179.383C215.544 179.139 214.332 179.19 213.372 179.807C212.415 180.421 211.802 181.242 211.433 182.319C210.516 184.999 210.049 187.873 209.97 190.702C209.894 193.528 210.268 196.425 211.037 199.144C211.326 200.168 212.055 201.121 212.975 201.657C213.881 202.184 215.212 202.408 216.228 202.08C217.244 201.752 218.235 201.121 218.749 200.148C219.278 199.15 219.49 198.017 219.174 196.907V196.913Z" fill="#FF0074"/>
<path d="M217.654 198.385C218.912 197.889 220.19 197.44 221.484 197.042C222.779 196.644 224.056 196.265 225.365 196.018L224.242 196.17C224.335 196.159 224.416 196.159 224.509 196.17L223.386 196.018L223.465 196.041L222.458 195.617L222.528 195.654L221.673 194.995L221.726 195.048C221.507 194.765 221.287 194.482 221.065 194.196L221.101 194.266C221.566 195.174 222.66 195.934 223.623 196.198C224.585 196.461 225.978 196.349 226.876 195.774C227.776 195.197 228.57 194.333 228.814 193.262C229.076 192.124 228.924 191.07 228.389 190.021C228.032 189.326 227.399 188.782 226.749 188.373C226.408 188.159 226.02 187.997 225.626 187.91C225.289 187.834 224.765 187.747 224.416 187.75C223.732 187.756 223.043 187.921 222.379 188.078C221.58 188.269 220.786 188.479 219.998 188.706C218.442 189.158 216.912 189.685 215.403 190.276C214.855 190.405 214.376 190.658 213.968 191.028C213.51 191.325 213.147 191.717 212.882 192.208C212.353 193.111 212.128 194.437 212.457 195.449C212.786 196.467 213.42 197.448 214.396 197.961C215.372 198.475 216.613 198.794 217.649 198.385H217.654Z" fill="#FF0074"/>
<path d="M218.901 205.602C220.083 204.926 221.304 204.323 222.562 203.793L221.555 204.217C223.049 203.594 224.583 203.078 226.15 202.675C227.169 202.411 228.145 201.64 228.671 200.743C229.2 199.84 229.425 198.514 229.096 197.502C228.767 196.484 228.134 195.503 227.157 194.99C226.144 194.457 225.033 194.275 223.905 194.566C220.68 195.399 217.531 196.691 214.641 198.34C213.727 198.864 212.981 199.843 212.702 200.852C212.424 201.862 212.55 203.199 213.127 204.093C213.707 204.991 214.574 205.781 215.649 206.025C216.763 206.278 217.894 206.177 218.901 205.602Z" fill="#FF0074"/>
<path d="M218.598 210.915C219.768 210.539 221.001 210.357 222.188 210.037C223.153 209.777 224.059 209.42 224.977 209.014C225.233 208.902 225.483 208.773 225.714 208.619C226.187 208.299 226.724 207.948 227.09 207.494C227.501 207.113 227.793 206.662 227.962 206.14C228.227 205.638 228.348 205.1 228.325 204.519C228.325 203.488 227.867 202.257 227.09 201.545C226.285 200.81 225.23 200.263 224.104 200.314C223.058 200.361 221.805 200.695 221.119 201.545C221.009 201.679 220.885 201.794 220.75 201.901L221.606 201.242C221.29 201.477 220.939 201.654 220.576 201.808C220.911 201.668 221.248 201.525 221.583 201.385C219.9 202.08 218.074 202.251 216.352 202.804C215.314 203.137 214.388 203.785 213.831 204.735C213.302 205.638 213.077 206.964 213.406 207.976C213.735 208.994 214.368 209.976 215.345 210.489C216.321 211.002 217.509 211.263 218.598 210.912V210.915Z" fill="#FF0074"/>
<path d="M74.9674 246.517C76.3603 243.153 75.5105 239.612 73.0681 238.608C70.6256 237.604 67.5162 239.516 66.1234 242.881C64.7305 246.245 65.8307 249.318 68.0227 250.79C73.3607 254.374 73.5746 249.882 74.9674 246.517Z" fill="#FF0074"/>
<path d="M176.138 159.866C174.546 157.663 172.756 157.539 170.21 157.506C168.094 157.478 165.977 157.45 163.861 157.422C159.176 157.36 154.488 157.225 149.806 157.256C145.532 157.284 141.266 157.377 136.994 157.192C134.937 157.102 132.925 156.92 130.894 156.586C128.924 156.264 127.059 155.941 125.229 156.925C124.616 157.256 124.155 158.201 124.43 158.885C125.899 162.544 130.565 163.166 134.026 163.741C137.898 164.383 141.809 164.568 145.723 164.728C149.955 164.902 154.184 164.992 158.419 165.065C160.535 165.101 162.651 165.137 164.768 165.174C165.977 165.194 167.185 165.216 168.395 165.238C169 165.25 169.605 165.258 170.21 165.269C170.899 165.482 171.192 165.471 171.096 165.241C171.265 165.32 171.442 165.387 171.633 165.44C172.683 165.732 173.862 165.653 174.779 165.025C176.341 163.954 177.405 161.616 176.138 159.861V159.866Z" fill="#FD8279"/>
<path d="M117.103 157.208C116.946 156.521 116.436 155.969 115.859 155.596C115.62 155.434 115.364 155.335 115.088 155.307C114.692 155.201 114.292 155.201 113.895 155.307C113.262 155.403 112.744 155.804 112.365 156.292C111.903 156.886 111.731 157.539 111.833 158.285C111.85 158.644 111.957 158.978 112.154 159.289C112.393 159.695 112.716 160.018 113.124 160.256C113.769 160.595 114.492 160.724 115.209 160.528C115.865 160.349 116.484 159.875 116.827 159.289C117.202 158.65 117.261 157.918 117.1 157.211L117.103 157.208Z" fill="#FD8279"/>
<path d="M133.224 225.915C139.699 225.915 145.315 222.253 148.101 216.892C149.919 213.399 147.305 209.229 143.354 209.229H123.091C119.14 209.229 116.529 213.399 118.344 216.892C121.13 222.25 126.746 225.915 133.221 225.915H133.224Z" fill="#170C35"/>
<path d="M109.77 213.166C109.77 217.946 105.881 221.824 101.08 221.824C96.2799 221.824 92.3911 217.949 92.3911 213.166C92.3911 208.383 96.2799 204.508 101.08 204.508C105.881 204.508 109.77 208.383 109.77 213.166Z" fill="#FD8FB3"/>
<path d="M154.986 213.166C154.986 217.946 158.875 221.824 163.676 221.824C168.476 221.824 172.365 217.949 172.365 213.166C172.365 208.383 168.476 204.508 163.676 204.508C158.875 204.508 154.986 208.383 154.986 213.166Z" fill="#FD8FB3"/>
<path d="M153.135 204.516C159.662 204.516 164.953 203.072 164.953 201.292C164.953 199.511 159.662 198.067 153.135 198.067C146.608 198.067 141.316 199.511 141.316 201.292C141.316 203.072 146.608 204.516 153.135 204.516Z" fill="#FF0074"/>
<path d="M122.885 188.325C120.345 184.086 114.838 182.701 110.583 185.233C106.329 187.764 104.938 193.251 107.479 197.491C110.02 201.73 115.527 203.115 119.782 200.583C124.036 198.052 125.426 192.565 122.885 188.325Z" fill="#170C35"/>
<path d="M143.213 188.325C145.754 184.086 151.261 182.701 155.516 185.233C159.77 187.764 161.16 193.251 158.619 197.491C156.078 201.73 150.572 203.115 146.317 200.583C142.062 198.052 140.672 192.565 143.213 188.325Z" fill="#170C35"/>
<path d="M174.322 142.675C176.334 141.264 179.069 141.474 180.839 143.182L197.745 159.475C200.055 161.701 203.831 161.286 205.599 158.608L237.263 110.597C238.572 108.611 241.082 107.787 243.319 108.606L246.482 109.764C249.667 110.93 250.857 114.805 248.873 117.55L206.977 175.442C205.126 178.002 201.412 178.294 199.18 176.056L173.636 150.455C171.396 148.209 171.722 144.494 174.322 142.672V142.675Z" fill="#4DA80E"/>
<path d="M173.462 138.383C175.474 136.972 178.209 137.182 179.979 138.89L196.885 155.183C199.195 157.409 202.971 156.994 204.738 154.316L236.403 106.305C237.711 104.319 240.221 103.495 242.458 104.314L245.621 105.472C248.807 106.638 249.997 110.513 248.013 113.258L206.117 171.15C204.265 173.71 200.551 174.002 198.32 171.764L172.775 146.163C170.535 143.917 170.862 140.202 173.462 138.38V138.383Z" fill="#7AC943"/>
</g>
<defs>
<filter id="filter0_d_616_2312" x="0" y="0" width="274" height="125.75" filterUnits="userSpaceOnUse" color-interpolation-filters="sRGB">
<feFlood flood-opacity="0" result="BackgroundImageFix"/>
<feColorMatrix in="SourceAlpha" type="matrix" values="0 0 0 0 0 0 0 0 0 0 0 0 0 0 0 0 0 0 127 0" result="hardAlpha"/>
<feOffset dy="4"/>
<feGaussianBlur stdDeviation="2"/>
<feComposite in2="hardAlpha" operator="out"/>
<feColorMatrix type="matrix" values="0 0 0 0 0 0 0 0 0 0 0 0 0 0 0 0 0 0 0.25 0"/>
<feBlend mode="normal" in2="BackgroundImageFix" result="effect1_dropShadow_616_2312"/>
<feBlend mode="normal" in="SourceGraphic" in2="effect1_dropShadow_616_2312" result="shape"/>
</filter>
<clipPath id="clip0_616_2312">
<rect width="203" height="200" fill="white" transform="translate(50 104)"/>
</clipPath>
</defs>
</svg>
