<svg width="329" height="278" viewBox="0 0 329 278" fill="none" xmlns="http://www.w3.org/2000/svg">
<g clip-path="url(#clip0_217_3483)">
<path d="M111.784 262.552C109.979 261.937 108.709 260.201 108.77 258.195C108.813 256.9 109.941 226.282 122.405 204.602C123.629 202.472 126.355 201.737 128.482 202.961C130.612 204.186 131.347 206.907 130.123 209.038C118.777 228.77 117.677 258.191 117.666 258.487C117.586 260.941 115.528 262.867 113.074 262.787C112.623 262.772 112.192 262.691 111.784 262.552Z" fill="#FF0074"/>
<path d="M105.946 253.07C108.978 251.577 119.828 251.746 120.923 253.464C122.019 255.178 119.819 269.54 118.708 270.842C117.593 272.14 97.3904 272.318 97.1959 270.914C97.0051 269.505 104.767 265.432 105.587 263.023C106.404 260.614 104.336 253.868 105.951 253.074L105.946 253.07Z" fill="#C92E2E"/>
<path d="M128.481 202.962C126.355 201.737 123.633 202.472 122.405 204.602C120.037 208.721 118.079 213.164 116.459 217.665L124.649 221.226C126.137 216.989 127.941 212.835 130.122 209.038C131.346 206.908 130.612 204.186 128.481 202.962Z" fill="#C92E2E"/>
<path d="M210.158 257.282C211.888 256.478 212.965 254.617 212.689 252.628C212.509 251.345 208.116 221.023 193.407 200.799C191.962 198.811 189.178 198.372 187.19 199.817C185.202 201.261 184.763 204.046 186.208 206.034C199.596 224.441 203.833 253.575 203.876 253.869C204.218 256.301 206.47 257.995 208.901 257.653C209.348 257.591 209.768 257.465 210.158 257.282Z" fill="#FF0074"/>
<path d="M214.949 247.231C211.776 246.071 201.006 247.398 200.104 249.223C199.198 251.044 202.919 265.089 204.163 266.264C205.41 267.436 225.516 265.455 225.56 264.038C225.599 262.617 217.447 259.396 216.373 257.088C215.304 254.781 216.64 247.852 214.949 247.235L214.949 247.231Z" fill="#C92E2E"/>
<path d="M187.186 199.818C189.17 198.373 191.958 198.812 193.403 200.8C196.197 204.642 198.618 208.85 200.71 213.153L192.948 217.568C191.016 213.514 188.778 209.577 186.204 206.035C184.759 204.047 185.198 201.262 187.186 199.818Z" fill="#C92E2E"/>
<path d="M289.92 147.574C288.06 147.674 286.657 148.684 284.905 149.216C285.465 148.763 285.928 148.211 286.244 147.521C286.933 146.011 285.877 144.541 284.282 144.492C282.272 144.431 280.383 145.651 278.393 146.034C276.566 146.386 274.708 146.589 272.887 146.991C273.826 146.279 274.879 145.692 276.072 145.274C278.877 144.297 277.426 139.906 274.606 140.888C269.951 142.51 265.911 146.345 264.735 151.092C264.088 151.588 263.567 152.259 263.261 153.079C257.144 169.623 251.953 167.848 238.078 163.107C232.52 161.209 226.22 159.055 218.851 157.95C216.42 157.588 214.156 159.262 213.79 161.689C213.424 164.12 215.103 166.384 217.53 166.75C224.105 167.736 230.001 169.751 235.199 171.526C241.173 173.567 247.006 175.562 252.443 175.271C259.399 174.898 265.697 170.777 270.801 158.232C271.77 158.445 272.738 159.005 273.597 159.309C275.248 159.901 276.944 160.348 278.668 160.656C281.514 161.161 284.745 161.6 287.512 160.625C289.637 159.876 289.541 156.651 287.273 156.173C285.122 155.719 282.961 155.638 280.794 155.478C281.039 155.453 281.28 155.428 281.525 155.4C285.077 155.021 290.224 154.33 292.058 150.879C292.872 149.347 291.618 147.468 289.911 147.559L289.92 147.574Z" fill="#FF0074"/>
<path d="M244.731 165.274C242.755 164.703 240.561 163.955 238.086 163.111C232.527 161.213 226.228 159.058 218.858 157.953C216.428 157.591 214.164 159.266 213.798 161.693C213.432 164.124 215.11 166.388 217.537 166.754C224.112 167.74 230.008 169.754 235.206 171.529C237.521 172.321 239.817 173.101 242.074 173.75L244.731 165.27L244.731 165.274Z" fill="#C92E2E"/>
<path d="M38.1155 118.499C39.4901 119.752 39.9412 121.424 40.961 122.946C40.8157 122.242 40.8039 121.52 40.9953 120.787C41.4169 119.18 43.1645 118.709 44.4279 119.68C46.0241 120.906 46.7156 123.045 48.014 124.599C49.2057 126.027 50.5155 127.36 51.6705 128.821C51.3937 127.675 50.949 126.553 50.2876 125.477C48.733 122.945 52.6341 120.463 54.1971 123.006C56.7755 127.206 57.4792 132.733 55.3894 137.152C55.578 137.946 55.5544 138.797 55.2718 139.623C49.5393 156.305 54.6832 158.214 68.4281 163.323C73.9332 165.37 80.1718 167.685 86.5827 171.495C88.6959 172.751 89.3883 175.483 88.1363 177.596C86.8804 179.709 84.1489 180.405 82.0357 179.149C76.3199 175.752 70.4815 173.585 65.3295 171.668C59.4087 169.471 53.6329 167.323 49.6064 163.658C44.4559 158.969 42.1832 151.792 46.1698 138.846C45.2844 138.397 44.1788 138.218 43.3201 137.91C41.6698 137.325 40.0696 136.6 38.5393 135.743C36.014 134.333 33.2346 132.628 31.7082 130.122C30.5362 128.2 32.6514 125.76 34.7082 126.827C36.6621 127.837 38.3856 129.141 40.1637 130.388C39.9928 130.212 39.8182 130.041 39.6473 129.865C37.1347 127.327 33.5858 123.533 34.3496 119.701C34.6893 118.002 36.8495 117.336 38.1112 118.492L38.1155 118.499Z" fill="#FF0074"/>
<path d="M61.9127 160.795C63.8058 161.605 65.9756 162.412 68.428 163.323C73.933 165.37 80.1716 167.685 86.5825 171.495C88.6957 172.751 89.3881 175.483 88.1361 177.596C86.8802 179.709 84.1487 180.405 82.0355 179.149C76.3197 175.752 70.4813 173.584 65.3293 171.668C63.0339 170.814 60.7659 169.971 58.6089 169.044L61.9167 160.799L61.9127 160.795Z" fill="#C92E2E"/>
<path d="M226.736 35.3938C226.565 32.338 224.308 29.9784 221.701 30.122L73.0011 38.5104C70.3939 38.6577 68.418 41.2556 68.5894 44.3113L77.6124 204.283C77.7838 207.339 80.0406 209.698 82.648 209.555L231.348 201.166C233.955 201.019 235.931 198.421 235.759 195.365L226.736 35.3938ZM164.955 62.2192L133.223 63.919C130.823 64.0476 128.719 61.5299 128.547 58.3241C128.376 55.1184 130.198 52.3903 132.599 52.2617L142.515 51.7306C142.296 47.6352 144.959 44.1622 148.464 43.9744C151.969 43.7867 154.988 46.9553 155.208 51.0507L164.33 50.562C166.731 50.4334 168.835 52.9511 169.006 56.1569C169.178 59.3626 167.355 62.0907 164.955 62.2192Z" fill="#FF0074"/>
<path d="M209.612 69.349C207.28 66.4513 204.832 66.4132 201.359 66.5531C198.473 66.6692 195.588 66.7853 192.702 66.9015C186.313 67.1591 179.915 67.3172 173.536 67.7012C167.713 68.0516 161.907 68.4895 156.072 68.5483C153.263 68.5757 150.507 68.4733 147.714 68.1653C145.007 67.8681 142.441 67.5633 140.02 69.0428C139.208 69.5401 138.649 70.866 139.071 71.7817C141.341 76.6787 147.744 77.1894 152.503 77.7229C157.826 78.3184 163.17 78.2859 168.516 78.2188C174.296 78.1476 180.066 77.9616 185.842 77.7521C188.728 77.6475 191.615 77.5429 194.501 77.4383C196.151 77.3768 197.798 77.3193 199.449 77.2617C200.274 77.2329 201.099 77.2002 201.924 77.1714C202.879 77.4125 203.277 77.3758 203.13 77.0683C203.366 77.1634 203.612 77.2425 203.877 77.3013C205.329 77.6235 206.93 77.4301 208.134 76.5042C210.183 74.9253 211.462 71.6496 209.607 69.3416L209.612 69.349Z" fill="#FD8279"/>
<path d="M128.963 70.0236C128.698 69.0956 127.964 68.3773 127.15 67.9094C126.812 67.7045 126.456 67.589 126.078 67.5707C125.53 67.454 124.985 67.4832 124.453 67.6578C123.597 67.8344 122.921 68.4206 122.439 69.1155C121.853 69.9622 121.667 70.8682 121.86 71.8808C121.909 72.3704 122.079 72.8189 122.371 73.2302C122.726 73.7687 123.191 74.1861 123.764 74.4822C124.667 74.8992 125.662 75.0228 126.626 74.702C127.506 74.4087 128.315 73.7155 128.74 72.889C129.203 71.9874 129.23 70.9822 128.96 70.0276L128.963 70.0236Z" fill="#FD8279"/>
<path d="M141.541 114.24C137.768 108.627 130.162 107.135 124.55 110.908C118.937 114.681 117.445 122.287 121.218 127.9C124.991 133.512 132.597 135.004 138.21 131.231C143.822 127.458 145.314 119.852 141.541 114.24Z" fill="#170C35"/>
<path d="M169.244 112.756C172.396 106.772 179.799 104.476 185.782 107.628C191.766 110.78 194.062 118.183 190.91 124.167C187.758 130.15 180.355 132.446 174.372 129.294C168.388 126.142 166.092 118.739 169.244 112.756Z" fill="#170C35"/>
<path d="M157.969 164.311C166.793 163.838 174.178 158.42 177.582 150.885C179.803 145.974 175.935 140.463 170.552 140.752L142.938 142.231C137.555 142.519 134.302 148.412 137.031 153.057C141.22 160.182 149.142 164.784 157.965 164.311L157.969 164.311Z" fill="#170C35"/>
<path d="M129.21 146.761C129.56 153.299 124.544 158.886 118.003 159.237C111.461 159.587 105.877 154.572 105.527 148.03C105.176 141.488 110.192 135.905 116.734 135.554C123.276 135.204 128.859 140.219 129.21 146.761Z" fill="#FD8FB3"/>
<path d="M184.693 143.79C185.043 150.328 190.627 155.347 197.169 154.997C203.71 154.646 208.726 149.063 208.376 142.521C208.025 135.979 202.442 130.964 195.9 131.314C189.358 131.664 184.342 137.248 184.693 143.79Z" fill="#FD8FB3"/>
<path d="M312.62 98.4034C314.704 97.9572 316.198 96.1389 316.265 94.0087C316.298 92.9801 316.285 91.9387 316.229 90.888C316.184 90.0482 316.112 89.2137 316.01 88.3923C315.761 86.3175 314.086 84.7036 312.011 84.4456L309.208 84.0997C307.602 83.9011 306.22 82.8715 305.567 81.3912C305.418 81.0493 305.262 80.7115 305.098 80.3781C304.39 78.9278 304.49 77.2149 305.367 75.8566L306.898 73.4903C308.038 71.7294 307.863 69.4045 306.432 67.8737C305.134 66.4857 303.731 65.2034 302.238 64.0335C300.588 62.7413 298.255 62.7701 296.602 64.0585L294.376 65.793C293.098 66.7882 291.396 67.0332 289.889 66.4525C289.543 66.321 289.198 66.1934 288.845 66.0738C287.318 65.5519 286.176 64.2671 285.837 62.6854L285.247 59.9251C284.801 57.8416 282.983 56.3469 280.852 56.2803C279.824 56.2469 278.782 56.2604 277.732 56.3167C276.892 56.3617 276.061 56.4331 275.236 56.535C273.161 56.7846 271.547 58.4593 271.289 60.5343L270.943 63.3371C270.745 64.9437 269.715 66.3256 268.235 66.9779C267.893 67.1269 267.555 67.2835 267.222 67.4475C265.772 68.1558 264.059 68.0553 262.7 67.1782L260.334 65.6475C258.573 64.5074 256.248 64.6819 254.717 66.1137C253.329 67.411 252.047 68.8141 250.877 70.3074C249.585 71.9571 249.614 74.2899 250.902 75.9437L252.637 78.1697C253.632 79.447 253.877 81.149 253.296 82.6568C253.165 83.0023 253.037 83.3476 252.918 83.7001C252.396 85.2278 251.111 86.3696 249.529 86.7081L246.769 87.2982C244.685 87.7444 243.191 89.5627 243.124 91.6929C243.091 92.7215 243.104 93.7629 243.16 94.8136C243.205 95.6534 243.277 96.484 243.379 97.3092C243.628 99.3841 245.303 100.998 247.378 101.256L250.181 101.602C251.787 101.8 253.169 102.83 253.822 104.31C253.971 104.652 254.127 104.99 254.291 105.324C255 106.774 254.899 108.487 254.022 109.845L252.491 112.211C251.351 113.972 251.526 116.297 252.958 117.828C254.255 119.216 255.658 120.498 257.151 121.668C258.801 122.96 261.134 122.931 262.787 121.643L265.013 119.909C266.291 118.913 267.993 118.668 269.501 119.249C269.846 119.381 270.191 119.508 270.544 119.628C272.072 120.15 273.213 121.435 273.552 123.016L274.142 125.776C274.588 127.86 276.406 129.355 278.537 129.421C279.565 129.455 280.607 129.441 281.657 129.385C282.497 129.34 283.332 129.268 284.153 129.167C286.228 128.917 287.842 127.242 288.1 125.167L288.446 122.364C288.644 120.758 289.674 119.376 291.154 118.724C291.496 118.575 291.834 118.418 292.167 118.254C293.618 117.546 295.33 117.646 296.689 118.523L299.055 120.054C300.816 121.194 303.141 121.02 304.672 119.588C306.06 118.291 307.342 116.887 308.512 115.394C309.804 113.744 309.775 111.412 308.487 109.758L306.752 107.532C305.757 106.255 305.512 104.553 306.093 103.045C306.224 102.699 306.352 102.354 306.472 102.005C306.994 100.478 308.278 99.3359 309.86 98.9973L312.62 98.4072L312.62 98.4034ZM280.352 105.097C273.588 105.459 267.807 100.269 267.445 93.5012C267.082 86.7331 272.272 80.9559 279.04 80.5933C285.808 80.2308 291.585 85.4205 291.948 92.1887C292.31 98.9568 287.121 104.734 280.352 105.097Z" fill="#FEDA56"/>
<path d="M261.309 32.7378C262.643 32.451 263.604 31.2881 263.646 29.9207C263.668 29.2619 263.66 28.5932 263.624 27.9222C263.595 27.3815 263.547 26.8495 263.484 26.3222C263.324 24.9924 262.25 23.9578 260.922 23.7944L259.126 23.5714C258.096 23.442 257.211 22.7857 256.791 21.8352C256.694 21.6173 256.594 21.3996 256.491 21.186C256.037 20.2566 256.101 19.1571 256.662 18.2887L257.642 16.771C258.374 15.6435 258.26 14.1537 257.342 13.1722C256.51 12.2823 255.612 11.4613 254.656 10.7088C253.597 9.88103 252.106 9.89937 251.046 10.7252L249.618 11.8363C248.798 12.4724 247.71 12.6306 246.741 12.2596C246.521 12.1752 246.297 12.0949 246.074 12.0146C245.094 11.6786 244.362 10.8564 244.146 9.84503L243.767 8.07713C243.48 6.74268 242.317 5.78204 240.95 5.73992C240.291 5.71752 239.622 5.72642 238.951 5.76237C238.411 5.79133 237.879 5.83906 237.351 5.90192C236.022 6.06159 234.987 7.13611 234.824 8.46391L234.601 10.2602C234.471 11.2901 233.815 12.1751 232.864 12.5952C232.646 12.6915 232.429 12.7916 232.215 12.8954C231.286 13.3489 230.186 13.2848 229.318 12.7237L227.8 11.7436C226.673 11.0118 225.183 11.1262 224.201 12.044C223.311 12.8762 222.49 13.7739 221.738 14.7295C220.91 15.7853 220.929 17.2802 221.754 18.3397L222.865 19.7684C223.502 20.5881 223.66 21.6756 223.289 22.6453C223.204 22.8652 223.124 23.0887 223.044 23.3122C222.708 24.2916 221.886 25.024 220.874 25.2397L219.106 25.619C217.772 25.9058 216.811 27.0687 216.769 28.4361C216.747 29.0949 216.756 29.7636 216.792 30.4347C216.821 30.9753 216.868 31.5073 216.931 32.0347C217.091 33.3644 218.165 34.399 219.493 34.5624L221.289 34.7854C222.319 34.9148 223.204 35.5712 223.624 36.5216C223.721 36.7395 223.821 36.9572 223.925 37.1708C224.378 38.1003 224.314 39.1997 223.753 40.0681L222.769 41.586C222.037 42.7135 222.152 44.2033 223.069 45.1848C223.902 46.0747 224.799 46.8957 225.755 47.6444C226.81 48.4724 228.305 48.4538 229.365 47.628L230.794 46.5169C231.613 45.8808 232.701 45.7226 233.67 46.0936C233.89 46.178 234.114 46.2583 234.337 46.3386C235.317 46.6746 236.049 47.4968 236.265 48.5082L236.644 50.2761C236.931 51.6105 238.094 52.5712 239.461 52.6133C240.12 52.6318 240.789 52.6268 241.46 52.5908C242 52.5619 242.532 52.5141 243.06 52.4513C244.39 52.2916 245.424 51.2171 245.588 49.8893L245.811 48.093C245.94 47.0631 246.596 46.1781 247.547 45.758C247.765 45.6617 247.982 45.5616 248.196 45.4578C249.125 45.0043 250.225 45.0684 251.093 45.6295L252.611 46.6096C253.738 47.3414 255.228 47.227 256.21 46.3092C257.1 45.477 257.921 44.5793 258.669 43.6201C259.497 42.5643 259.479 41.0694 258.653 40.0099L257.542 38.5812C256.906 37.7615 256.747 36.674 257.118 35.7042C257.203 35.4844 257.283 35.2609 257.363 35.0374C257.699 34.0579 258.521 33.3255 259.533 33.1098L261.301 32.7306L261.309 32.7378ZM240.63 37.0259C236.293 37.2582 232.592 33.93 232.36 29.5969C232.128 25.2637 235.456 21.559 239.789 21.3269C244.122 21.0948 247.827 24.4228 248.059 28.7559C248.291 33.089 244.963 36.7938 240.63 37.0259Z" fill="#FEDA56"/>
<path d="M60.2866 78.5589C61.9367 78.2051 63.1211 76.7688 63.173 75.0816C63.1985 74.265 63.1891 73.4425 63.1445 72.6104C63.1087 71.9432 63.0506 71.2887 62.9733 70.6352C62.7738 68.9923 61.4516 67.7133 59.8103 67.5128L57.5921 67.2394C56.3222 67.0805 55.2288 66.2661 54.7124 65.0978C54.5941 64.8273 54.4683 64.561 54.3386 64.2949C53.7773 63.1482 53.8584 61.7902 54.5509 60.7186L55.7658 58.8461C56.6679 57.4518 56.5309 55.6132 55.3969 54.4011C54.3728 53.3022 53.261 52.2889 52.0768 51.3601C50.7722 50.3378 48.9274 50.3597 47.6169 51.3798L45.8521 52.7511C44.8405 53.536 43.4936 53.735 42.2998 53.2721C42.0288 53.1674 41.7542 53.0668 41.476 52.9701C40.2656 52.5581 39.3649 51.5373 39.0981 50.2902L38.6311 48.104C38.2773 46.4539 36.841 45.2695 35.1538 45.2176C34.3372 45.1921 33.5147 45.2016 32.6826 45.2461C32.0154 45.2819 31.3571 45.3402 30.7074 45.4173C29.0645 45.6168 27.7855 46.939 27.585 48.5803L27.3116 50.7985C27.1527 52.0684 26.3383 53.1619 25.17 53.6782C24.8995 53.7966 24.6331 53.9223 24.3671 54.052C23.2204 54.6133 21.8624 54.5322 20.7908 53.8397L18.9185 52.6287C17.5242 51.7266 15.6856 51.8635 14.4734 52.9975C13.3748 54.0255 12.3612 55.1335 11.4325 56.3177C10.4102 57.6223 10.4321 59.467 11.4522 60.7776L12.8235 62.5423C13.6084 63.554 13.8074 64.9008 13.3445 66.0947C13.2398 66.3657 13.1391 66.6402 13.0425 66.9185C12.6305 68.1288 11.6097 69.0295 10.3626 69.2963L8.17638 69.7634C6.52632 70.1171 5.3419 71.5535 5.28998 73.2406C5.26451 74.0573 5.27395 74.8797 5.31853 75.7118C5.35427 76.3791 5.41261 77.0374 5.48971 77.687C5.68924 79.3299 7.01143 80.6089 8.65271 80.8094L10.8709 81.0829C12.1408 81.2417 13.2341 82.0523 13.7506 83.2245C13.869 83.495 13.9947 83.7613 14.1244 84.0274C14.6857 85.1741 14.6046 86.5321 13.9121 87.6037L12.7011 89.476C11.799 90.8703 11.9359 92.7088 13.0699 93.921C14.0979 95.0196 15.2059 96.0332 16.3901 96.9619C17.6947 97.9842 19.5394 97.9623 20.85 96.9422L22.6147 95.571C23.6264 94.7861 24.9732 94.587 26.1671 95.0499C26.4381 95.1546 26.7126 95.2553 26.9909 95.3519C28.2012 95.7639 29.1019 96.7848 29.3687 98.0319L29.8358 100.218C30.1895 101.868 31.6259 103.053 33.313 103.104C34.1297 103.13 34.9521 103.12 35.7842 103.076C36.4476 103.04 37.1098 102.982 37.7594 102.905C39.4023 102.705 40.6813 101.383 40.8818 99.7417L41.1553 97.5235C41.3141 96.2537 42.1247 95.1604 43.2969 94.6438C43.5674 94.5255 43.8337 94.3997 44.0998 94.2701C45.2465 93.7087 46.6045 93.7898 47.6761 94.4823L49.5484 95.6934C50.9427 96.5955 52.7812 96.4585 53.9934 95.3245C55.092 94.2966 56.1056 93.1886 57.0343 92.0044C58.0566 90.6998 58.0347 88.855 57.0146 87.5445L55.6434 85.7797C54.8585 84.7681 54.6594 83.4212 55.1223 82.2274C55.227 81.9564 55.3277 81.6818 55.4243 81.4036C55.8402 80.193 56.8572 79.2925 58.1042 79.0257L60.2905 78.5587L60.2866 78.5589ZM34.7471 83.8572C29.3939 84.1439 24.8206 80.0357 24.5338 74.6825C24.2471 69.3294 28.3552 64.7522 33.7083 64.4655C39.0614 64.1787 43.6348 68.287 43.9217 73.644C44.2087 79.001 40.1002 83.5704 34.7471 83.8572Z" fill="#F7AC32"/>
<path d="M132.068 134.74C140.963 134.264 148.068 131.903 147.937 129.468C147.807 127.032 140.49 125.444 131.596 125.92C122.701 126.397 115.596 128.758 115.726 131.193C115.857 133.628 123.173 135.217 132.068 134.74Z" fill="#FF0074"/>
<path d="M181.535 132.091C190.43 131.614 197.535 129.254 197.404 126.818C197.274 124.383 189.957 122.795 181.062 123.271C172.168 123.748 165.063 126.108 165.193 128.544C165.324 130.979 172.64 132.567 181.535 132.091Z" fill="#FF0074"/>
<path d="M36.2912 105.645C53.6572 104.715 66.981 89.8826 66.0507 72.5166C65.1205 55.1506 50.2885 41.8268 32.9224 42.757C15.5564 43.6873 2.23263 58.5193 3.16288 75.8853C4.09312 93.2513 18.9252 106.575 36.2912 105.645Z" fill="#F7AC32"/>
<path d="M241.398 54.2788C255.269 53.5357 265.912 41.6882 265.169 27.8166C264.426 13.9449 252.578 3.30213 238.707 4.04519C224.835 4.78825 214.192 16.6358 214.935 30.5074C215.678 44.3791 227.526 55.0219 241.398 54.2788Z" fill="#FE8C16"/>
<path d="M281.874 130.838C303.552 129.677 320.184 111.162 319.023 89.4846C317.862 67.8067 299.347 51.1747 277.669 52.3359C255.991 53.4971 239.359 72.0119 240.521 93.6897C241.682 115.368 260.197 132 281.874 130.838Z" fill="#7800FF"/>
<path d="M44.1533 87.1958L36.4231 84.3873C35.9642 84.2196 35.4564 84.2891 35.0601 84.5718L28.3669 89.349C27.3667 90.0601 25.9849 89.3189 26.0269 88.0937L26.3059 79.8761C26.3222 79.3906 26.0973 78.9258 25.7087 78.6351L19.0976 73.7438C18.1125 73.0159 18.3912 71.4705 19.569 71.1305L27.4731 68.8573C27.9428 68.7245 28.3121 68.3663 28.468 67.9042L31.0767 60.1039C31.4644 58.941 33.0181 58.727 33.7071 59.7438L38.31 66.5578C38.5816 66.9625 39.0367 67.2034 39.5216 67.2082L47.7435 67.2793C48.9708 67.2904 49.6503 68.7038 48.8984 69.6709L43.8388 76.1565C43.5403 76.5416 43.811 75.9234 43.9551 76.3887L46.0659 85.3551C46.4362 86.5236 45.3023 87.6111 44.1492 87.1922L44.1533 87.1958Z" fill="#FFDC78"/>
<path d="M289.547 113.788L279.193 105.859C278.58 105.388 277.772 105.239 277.03 105.46L264.521 109.148C262.655 109.698 260.922 107.93 261.588 106.156L266.054 94.2606C266.32 93.5541 266.205 92.7681 265.757 92.1499L258.126 81.7217C256.989 80.1674 258.167 78.043 260.126 78.1304L273.239 78.7047C274.014 78.7401 274.753 78.4005 275.217 77.7988L283.008 67.6675C284.169 66.1555 286.632 66.6119 287.176 68.4402L290.813 80.6937C291.028 81.4205 291.598 82.0015 292.334 82.2466L304.779 86.4139C306.635 87.0336 306.975 89.442 305.354 90.4825L294.492 97.4789C293.849 97.8941 294.562 97.1252 294.556 97.8755L293.357 112.049C293.344 113.946 291.091 114.974 289.547 113.792L289.547 113.788Z" fill="#4400AF"/>
<path d="M245.168 39.6209L239.418 35.9372C239.075 35.7209 238.65 35.6745 238.273 35.8216L231.907 38.2969C230.957 38.667 229.974 37.8198 230.245 36.8631L232.052 30.4556C232.159 30.0769 232.068 29.6703 231.801 29.3653L227.359 24.2579C226.695 23.4974 227.221 22.3347 228.246 22.2952L235.115 22.0196C235.522 22.0017 235.891 21.7934 236.108 21.4588L239.728 15.8233C240.268 14.9829 241.575 15.1129 241.936 16.0434L244.374 22.2812C244.517 22.6504 244.839 22.9293 245.237 23.0233L251.915 24.6499C252.913 24.8926 253.194 26.135 252.397 26.7508L247.034 30.8837C246.717 31.1276 247.055 30.6941 247.084 31.0887L247.079 38.5417C247.155 39.5337 246.024 40.1673 245.168 39.6209Z" fill="#D03A00"/>
</g>
<defs>
<clipPath id="clip0_217_3483">
<rect width="314.675" height="260.575" fill="white" transform="translate(0 16.832) rotate(-3.06624)"/>
</clipPath>
</defs>
</svg>
