<?xml version="1.0" encoding="utf-8"?>
<!-- Generator: Adobe Illustrator 27.2.0, SVG Export Plug-In . SVG Version: 6.00 Build 0)  -->
<svg version="1.1" id="Warstwa_1" xmlns="http://www.w3.org/2000/svg"
                            xmlns:xlink="http://www.w3.org/1999/xlink" x="0px" y="0px" viewBox="0 0 321 254"
                            style="enable-background:new 0 0 321 254;" xml:space="preserve">
                            <style type="text/css">
                                .st0 {
                                    fill: #F7AC32;
                                }

                                .st1 {
                                    fill: #CC4A00;
                                }

                                .st2 {
                                    clip-path: url(#SVGID_00000116202734486745841830000005521881460969472690_);
                                }

                                .st3 {
                                    fill: #7800FF;
                                }

                                .st4 {
                                    fill: #FF0074;
                                }

                                .st5 {
                                    fill: #C92E2E;
                                }

                                .st6 {
                                    fill: #FD8279;
                                }

                                .st7 {
                                    fill: #170C35;
                                }

                                .st8 {
                                    fill: #FD8FB3;
                                }

                                .st9 {
                                    fill: #4400AF;
                                }

                                .st10 {
                                    fill: #FFDC78;
                                }

                                #reka-p {
                                    animation: ruch-reka-p 1s ease-in-out infinite alternate;
                                    transform: rotate(0deg);
                                    transform-origin: 67% 50%;
                                }

                                #moneta-1 {
                                    transform-origin: 50% 50%;
                                    transform: scale(0);
                                    animation: .3s show 1s both;
                                }

                                #moneta-2 {
                                    transform-origin: 50% 50%;
                                    transform: scale(0);
                                    animation: .3s show 1.5s both;
                                }

                                #moneta-5 {
                                    transform-origin: 50% 50%;
                                    transform: scale(0);
                                    animation: .3s show 2s both;
                                }

                                @keyframes ruch-reka-p {
                                    to {
                                        transform: rotate(10deg);
                                    }
                                }

                                @keyframes show {
                                    to {
                                        transform: scale(100%);
                                    }
                                }
                            </style>
                            <g id="moneta-5">
                                <path class="st0" d="M267.6,80.1c16.9,6,35.5-2.8,41.5-19.7c6-16.9-2.8-35.5-19.7-41.5c-16.9-6-35.5,2.8-41.5,19.7
		C241.9,55.5,250.7,74.1,267.6,80.1z" />
                                <path class="st1" d="M271.9,65.6c-3.1-1.1-5.2-2.9-6.5-5.4c-1.3-2.5-1.5-5.3-0.7-8.4l6.4,2.3c-0.6,2.7,0.4,4.6,2.9,5.5
		c1.3,0.5,2.5,0.4,3.6-0.2c1.2-0.6,2-1.6,2.5-3.1c0.5-1.5,0.5-2.8-0.1-4c-0.6-1.2-1.6-2.1-3.2-2.6l-9-3.2l8-16.5l18.2,6.5l-2.1,5.8
		l-12.7-4.5l-2.5,5.3l2.6,0.9c3.4,1.2,5.7,3.1,7,5.8c1.3,2.7,1.3,5.6,0.2,8.9c-0.7,2-1.8,3.7-3.3,5c-1.5,1.3-3.2,2.2-5.2,2.5
		C276.1,66.6,274,66.4,271.9,65.6z" />
                            </g>
                            <g id="moneta-2">
                                <path class="st0" d="M42.3,102.5c14.3-4.3,22.4-19.3,18.1-33.6c-4.3-14.3-19.3-22.4-33.6-18.1C12.6,55,4.5,70.1,8.7,84.3
		C13,98.6,28.1,106.7,42.3,102.5z" />
                                <path class="st1" d="M34.4,74.9c0.6-1,0.9-1.9,1.1-2.7c0.2-0.8,0.2-1.7-0.1-2.7c-0.3-0.9-0.8-1.6-1.7-2.1c-0.8-0.5-1.7-0.7-2.6-0.4
		c-2.1,0.6-3,2-2.6,4.2l-5.5,1.6c-0.6-2.5-0.3-4.7,0.8-6.7c1.1-2,3-3.4,5.7-4.2c1.7-0.5,3.4-0.6,4.9-0.3c1.6,0.3,2.9,1.1,4,2.1
		c1.1,1.1,1.9,2.4,2.4,4.1c0.5,1.8,0.6,3.4,0.3,4.9c-0.3,1.5-1,3.1-2,4.6l-4.8,7.8l0.1,0.2l10.6-3.2l1.5,4.9l-16.9,5.1l-1.8-6.1
		L34.4,74.9z" />
                            </g>
                            <g id="tadek">
                                <defs>

                                    <rect id="SVGID_1_" x="53" y="-5.1"
                                        transform="matrix(0.2361 -0.9717 0.9717 0.2361 -7.5443 244.1642)" width="197"
                                        height="264" />
                                </defs>
                                <clipPath id="SVGID_00000071541072365439675320000016780853555745746309_">
                                    <use xlink:href="#SVGID_1_" style="overflow:visible;" />
                                </clipPath>
                                <g style="clip-path:url(#SVGID_00000071541072365439675320000016780853555745746309_);">
                                    <path class="st3" d="M22,100.7c0,0,2,1.2,0.8,3.8c-2.4,5.4-1.4,21.8,9.5,33.4C46,152.4,72,152.5,86.3,170.5
			c14.4,18,46.5,47,90.8,33.6c44.4-13.3,42.2-23.4,57.6-23.3c15.4,0.1,24,1.5,33.8-7.7c9.8-9.2,12.3-19.5,12.3-19.5
			s-20.9,6.5-30.7-7.8c-18.4-27-15.2-22.5-53.4-7.7C158.7,153,87.4,129.1,79.6,121C62.5,103,23.9,100.7,22,100.7z" />
                                    <g id="reka-p">
                                        <path class="st4" d="M252.6,108.2c-0.3,0.6-0.6,0.9-0.5,1.7c1.7,14.6-2.6,15.7-14.7,17.5c-4.8,0.7-10.3,1.5-16.2,3.5
				c-1.9,0.7-3,2.8-2.3,4.7c0.7,1.9,2.8,3,4.7,2.3c5.2-1.8,10.4-2.5,14.9-3.2c5.2-0.8,10.3-1.5,14.2-3.8c5-2.9,8.1-8.4,7.1-19.7
				C260.6,110.9,251.7,104.2,252.6,108.2L252.6,108.2z" />
                                        <path class="st4" d="M251.5,112.7c3.3-1,6.6-1.8,10-2.3l-1.2,0.2c1-0.2,2-0.3,3-0.4c0.6,0,1.2-0.1,1.8-0.5c0.6-0.2,1.1-0.5,1.5-1
				c0.8-0.9,1.4-2.3,1.3-3.5c-0.1-1.2-0.5-2.5-1.5-3.3c-0.9-0.8-2.2-1.5-3.5-1.3c-4.8,0.6-9.6,1.5-14.2,2.9
				c-1.2,0.4-2.2,1.2-2.8,2.3c-0.6,1.1-0.8,2.6-0.4,3.7c0.4,1.1,1.1,2.3,2.3,2.8C248.9,112.9,250.2,113.1,251.5,112.7z" />
                                        <path class="st4" d="M255.7,119.3c1.3-0.4,2.7-0.6,4.1-0.9c0.7-0.2,1.4-0.4,2.1-0.7c1.3-0.5,2.6-1.1,3.5-2.2c0.5-0.5,0.8-1,1-1.6
				c0.3-0.6,0.4-1.2,0.4-1.9c0-1.2-0.6-2.5-1.5-3.3c-0.9-0.8-2.2-1.4-3.5-1.3c-1.2,0.1-2.5,0.5-3.3,1.5c-0.1,0.1-0.2,0.2-0.3,0.3
				l1-0.8c-0.3,0.2-0.6,0.4-1,0.6l1.1-0.5c-2,0.9-4.2,1-6.3,1.6c-1.2,0.3-2.2,1.2-2.8,2.3c-0.3,0.6-0.5,1.2-0.5,1.8
				c-0.1,0.6-0.1,1.3,0.1,1.9c0.4,1.2,1.1,2.3,2.3,2.8C253.1,119.4,254.4,119.6,255.7,119.3L255.7,119.3z" />
                                        <path class="st4" d="M253.1,105.7c0.9-0.5,1.8-1,2.8-1.4l-1.1,0.5c2.2-1,4.4-1.7,6.7-2.3c1.1-0.3,2.3-1.3,2.8-2.3
				c0.6-1,0.8-2.6,0.4-3.7c-0.4-1.2-1.1-2.3-2.3-2.8c-1.2-0.6-2.4-0.7-3.7-0.4c-3.7,0.9-7.3,2.3-10.6,4.2c-1,0.6-1.9,1.8-2.2,3
				c-0.3,1.1-0.1,2.6,0.6,3.6c0.7,1,1.7,1.9,3,2.2C250.7,106.5,251.9,106.3,253.1,105.7L253.1,105.7z" />
                                        <path class="st5" d="M238.7,127.1c-1.7,0.4-9.5,1.5-11.3,1.9c-4.7,1.3-4.9,0.9-10.7,3.1c-1.9,0.7-2.9,2.9-2.2,4.8
				c0.7,1.9,2.8,2.7,4.8,2.2c5.2-1.4,10.3-2.9,14.8-3.7c2-0.4,4.2-0.7,6.1-1.1L238.7,127.1L238.7,127.1z" />
                                    </g>
                                    <path class="st4" d="M152.7,205.3c-1.2-0.3-2.1-1.2-2.4-2.5c-0.3-1.7,0.8-3.4,2.6-3.8c0.1,0,8.9-1.8,13.8-8.5
			c3.2-4.5-4-12.3-6.8-14.7c-1.3-1.2-1.5-3.2-0.3-4.5c1.1-1.3,3.2-1.5,4.5-0.4c0.1,0.1,3.6,3.1,6.4,7.2c5.2,7.8,3.7,13.1,1.5,16.2
			c-6.4,8.8-17.3,11-17.8,11.1C153.6,205.4,153.2,205.4,152.7,205.3L152.7,205.3z" />
                                    <path class="st5" d="M159.4,170.1c1.1-1.1,2.9-1.1,4,0c2.1,2.1,4,4.5,5.8,7l-4.4,3.5c-1.6-2.3-3.4-4.6-5.3-6.5
			C158.3,173,158.3,171.2,159.4,170.1z" />
                                    <path class="st5" d="M163.1,204.7c0.3-2.3-2.1-9.3-3.4-9.6c-1.3-0.3-10.2,4.1-10.8,5.1c-0.6,1,3.5,14.2,4.5,14
			c1-0.2,2-6.1,3.3-7.1C158.1,206.1,162.9,206,163.1,204.7z" />
                                    <path class="st4" d="M124.1,210.7c-1.6,0.1-3.1-0.8-3.7-2.4c-0.4-1-9.2-25-6.4-45.8c0.3-2,2.1-3.5,4.2-3.2c2,0.3,3.5,2.1,3.2,4.2
			c-2.5,18.9,5.9,41.9,6,42.2c0.7,1.9-0.3,4.1-2.2,4.8C124.8,210.6,124.5,210.7,124.1,210.7L124.1,210.7z" />
                                    <path class="st5" d="M116.5,202.6c2.1-1.8,10.9-3.9,12.2-2.7c1.2,1.2,2.4,13.3,1.7,14.5c-0.6,1.3-16.9,5.6-17.4,4.5
			c-0.4-1.1,5-6,5.2-8.1C118.4,208.6,115.4,203.5,116.5,202.6L116.5,202.6z" />
                                    <path class="st5" d="M118.1,159.3c-2-0.3-3.9,1.2-4.2,3.2c-0.5,3.9-0.6,8-0.5,12l7.4,0.1c-0.2-3.7-0.1-7.5,0.4-11.2
			C121.6,161.5,120.2,159.6,118.1,159.3L118.1,159.3z" />
                                    <path class="st4" d="M57.1,171.9c1-1.2,1.3-2.6,2-3.9c-0.1,0.6,0,1.2,0.2,1.8c0.5,1.3,2,1.5,2.9,0.6c1.2-1.2,1.6-3,2.6-4.4
			c0.9-1.3,1.8-2.5,2.7-3.8c-0.1,1-0.4,1.9-0.9,2.9c-1.1,2.2,2.4,4,3.4,1.7c1.8-3.7,1.9-8.4-0.2-11.9c0.1-0.7,0-1.4-0.3-2
			c-6.2-13.4-2.1-15.4,8.9-20.8c4.4-2.2,9.4-4.6,14.3-8.4c1.6-1.2,2-3.6,0.8-5.2c-1.2-1.6-3.5-2-5.2-0.8c-4.4,3.3-9.1,5.6-13.2,7.7
			c-4.7,2.3-9.3,4.6-12.3,8c-3.9,4.3-5.1,10.5-0.7,20.9c-0.7,0.4-1.6,0.7-2.3,1c-1.3,0.6-2.6,1.4-3.8,2.2c-2,1.4-4.1,3-5.2,5.3
			c-0.8,1.7,1.1,3.5,2.8,2.5c1.5-1,2.9-2.2,4.2-3.4c-0.1,0.2-0.3,0.3-0.4,0.5c-1.9,2.3-4.5,5.8-3.5,8.9
			C54.3,172.6,56.2,173,57.1,171.9L57.1,171.9z" />
                                    <path class="st5" d="M73.3,134.7c1.5-0.8,3.2-1.7,5.2-2.7c4.4-2.2,9.4-4.6,14.3-8.4c1.6-1.2,2-3.6,0.8-5.2c-1.2-1.6-3.5-2-5.2-0.8
			c-4.4,3.3-9.1,5.6-13.2,7.7c-1.8,0.9-3.6,1.8-5.3,2.8L73.3,134.7z" />
                                    <path class="st4" d="M235.3,50.6c0.6-2.5-0.6-4.9-2.7-5.4L112,16.3c-2.1-0.5-4.3,1.1-4.9,3.6L75.8,150.1c-0.6,2.5,0.6,4.9,2.7,5.4
			l120.5,28.9c2.1,0.5,4.3-1.1,4.9-3.6L235.3,50.6z M179.6,57.4l-25.7-6.2c-1.9-0.5-3-3-2.4-5.6c0.6-2.6,2.7-4.4,4.7-3.9l8,2
			c0.8-3.3,3.8-5.5,6.6-4.8c2.8,0.7,4.5,4,3.7,7.3l7.4,1.8c1.9,0.5,3,3,2.4,5.6C183.7,56.1,181.6,57.8,179.6,57.4z" />
                                    <path class="st6"
                                        d="M212.8,76.5c-1.2-2.9-3.1-3.5-5.9-4.2c-2.3-0.6-4.7-1.2-7-1.8c-5.2-1.3-10.3-2.7-15.5-4
			c-4.7-1.1-9.5-2.2-14.1-3.5c-2.2-0.7-4.4-1.4-6.6-2.3c-2.1-0.9-4.1-1.7-6.3-1.1c-0.8,0.2-1.5,1.1-1.4,2c0.6,4.5,5.6,6.4,9.3,8
			c4.1,1.8,8.4,3,12.6,4.2c4.6,1.3,9.3,2.6,13.9,3.8c2.3,0.6,4.7,1.2,7,1.8c1.3,0.3,2.7,0.7,4,1c0.7,0.2,1.3,0.3,2,0.5
			c0.7,0.4,1,0.5,1,0.2c0.2,0.1,0.3,0.3,0.5,0.4c1.1,0.6,2.4,0.8,3.6,0.4C211.9,81.1,213.7,78.8,212.8,76.5L212.8,76.5z" />
                                    <path class="st6" d="M148.4,57.7c0-0.8-0.4-1.6-0.9-2.1c-0.2-0.2-0.5-0.4-0.8-0.5c-0.4-0.2-0.9-0.3-1.3-0.3
			c-0.7-0.1-1.4,0.2-2,0.7c-0.7,0.5-1,1.2-1.1,2.1c-0.1,0.4-0.1,0.8,0.1,1.2c0.2,0.5,0.4,1,0.8,1.3c0.6,0.6,1.4,0.9,2.2,0.9
			c0.8,0,1.6-0.4,2.1-0.9C148.1,59.4,148.3,58.6,148.4,57.7L148.4,57.7z" />
                                    <path class="st7" d="M149.2,96.1c0.1-5.7-4.3-10.3-9.9-10.5c-5.6-0.1-10.3,4.4-10.4,10c-0.1,5.7,4.3,10.3,9.9,10.5
			C144.4,106.2,149.1,101.7,149.2,96.1L149.2,96.1z" />
                                    <path class="st7" d="M169.3,100.4c2.8-4.9,9-6.6,13.9-3.8c4.9,2.8,6.6,9.1,3.8,14c-2.8,4.9-9,6.6-13.9,3.8
			C168.2,111.5,166.5,105.3,169.3,100.4L169.3,100.4z" />
                                    <path class="st8" d="M130.9,115.8c-1.3,5.3-6.6,8.6-11.9,7.3c-5.3-1.3-8.5-6.6-7.2-12c1.3-5.3,6.6-8.6,11.9-7.3
			C129,105.1,132.2,110.5,130.9,115.8z" />
                                    <path class="st8" d="M175.9,126.7c-1.3,5.3,2,10.7,7.2,12c5.3,1.3,10.6-2,11.9-7.3c1.3-5.3-2-10.7-7.2-12
			C182.5,118.1,177.2,121.4,175.9,126.7z" />
                                    <path class="st4" d="M146.2,109.5c1.1-1.7-3.1-6.3-9.4-10.3c-6.3-4-12.2-5.8-13.3-4c-1.1,1.7,3.1,6.3,9.4,10.3
			C139.2,109.5,145.1,111.3,146.2,109.5z" />
                                    <path class="st4" d="M178.9,116.9c7.4-0.1,13.4-1.9,13.4-3.9c0-2-6.1-3.6-13.5-3.4c-7.4,0.1-13.4,1.9-13.4,3.9
			C165.4,115.5,171.5,117,178.9,116.9z" />
                                    <path class="st7" d="M161.3,125.7c-0.8-4.2-3-0.9-7.7-3.2c-4.7-2.3-8.7-6.2-9.3-5c-0.6,1.3,7.1,9.4,11.8,11.7
			C160.8,131.5,161.5,127.1,161.3,125.7L161.3,125.7z" />
                                    <path class="st9" d="M146.7,146.8c0,0-30.5-3.1-56.1-26.5C65.1,96.9,22,100.7,22,100.7s14.9,3.6,13.7,13.9l-1.2,10.3
			c0,0,26.7-13.2,50.1,2.3C121,151.2,146.7,146.8,146.7,146.8z" />
                                    <path class="st9" d="M147.7,149.4c0,0,22.5,6.1,43.1-0.1c11.6-3.5,21.5-19.1,22.8-20.9l16-2.1
			C229.6,126.3,205.3,172.3,147.7,149.4z" />
                                    <path class="st0" d="M152.6,154.9c0.5,0,1-0.3,1.1-0.8c0.1-0.2,0.1-0.5,0.2-0.7c0-0.2,0.1-0.4,0.1-0.6c0.1-0.5-0.2-1-0.6-1.2
			l-0.6-0.3c-0.4-0.2-0.6-0.5-0.6-0.9c0-0.1,0-0.2,0-0.3c-0.1-0.4,0.1-0.8,0.4-1l0.5-0.4c0.4-0.3,0.5-0.9,0.3-1.3
			c-0.2-0.4-0.4-0.8-0.7-1.2c-0.3-0.4-0.8-0.6-1.3-0.4l-0.6,0.2c-0.4,0.1-0.8,0.1-1.1-0.2c-0.1-0.1-0.1-0.1-0.2-0.2
			c-0.3-0.2-0.5-0.6-0.5-1l0.1-0.7c0-0.5-0.3-1-0.8-1.1c-0.2-0.1-0.5-0.1-0.7-0.2c-0.2,0-0.4-0.1-0.6-0.1c-0.5-0.1-1,0.2-1.2,0.6
			l-0.3,0.6c-0.2,0.4-0.5,0.6-0.9,0.6c-0.1,0-0.2,0-0.3,0c-0.4,0.1-0.8-0.1-1-0.4l-0.4-0.5c-0.3-0.4-0.9-0.5-1.3-0.3
			c-0.4,0.2-0.8,0.4-1.2,0.7c-0.4,0.3-0.6,0.8-0.4,1.3l0.2,0.6c0.1,0.4,0.1,0.8-0.2,1.1c-0.1,0.1-0.1,0.1-0.2,0.2
			c-0.2,0.3-0.6,0.5-1,0.5l-0.7-0.1c-0.5,0-1,0.3-1.1,0.8c-0.1,0.2-0.1,0.5-0.2,0.7c0,0.2-0.1,0.4-0.1,0.6c-0.1,0.5,0.2,1,0.6,1.2
			l0.6,0.3c0.4,0.2,0.6,0.5,0.6,0.9c0,0.1,0,0.2,0,0.3c0.1,0.4-0.1,0.8-0.4,1l-0.5,0.4c-0.4,0.3-0.5,0.9-0.3,1.3
			c0.2,0.4,0.4,0.8,0.7,1.2c0.3,0.4,0.8,0.6,1.3,0.4l0.6-0.2c0.4-0.1,0.8-0.1,1.1,0.2c0.1,0.1,0.1,0.1,0.2,0.2
			c0.3,0.2,0.5,0.6,0.5,1l-0.1,0.7c0,0.5,0.3,1,0.8,1.1c0.2,0.1,0.5,0.1,0.7,0.2c0.2,0,0.4,0.1,0.6,0.1c0.5,0.1,1-0.2,1.2-0.6
			l0.3-0.6c0.2-0.4,0.5-0.6,0.9-0.6c0.1,0,0.2,0,0.3,0c0.4-0.1,0.8,0.1,1,0.4l0.4,0.5c0.3,0.4,0.9,0.5,1.3,0.3
			c0.4-0.2,0.8-0.4,1.2-0.7c0.4-0.3,0.6-0.8,0.4-1.3l-0.2-0.6c-0.1-0.4-0.1-0.8,0.2-1.1c0.1-0.1,0.1-0.1,0.2-0.2
			c0.2-0.3,0.6-0.5,1-0.5L152.6,154.9L152.6,154.9z M144.8,154.2c-1.6-0.4-2.5-2-2.2-3.6c0.4-1.6,2-2.6,3.5-2.2
			c1.6,0.4,2.5,2,2.2,3.6C147.9,153.7,146.3,154.6,144.8,154.2z" />
                                    <path class="st0" d="M143.3,160.7c5.1,1.2,10.2-1.9,11.5-7c1.2-5.1-1.9-10.3-7-11.5c-5.1-1.2-10.2,1.9-11.5,7
			C135.1,154.3,138.2,159.5,143.3,160.7z" />
                                    <path class="st10" d="M147.2,156l-2-1.5c-0.1-0.1-0.3-0.1-0.4-0.1l-2.4,0.8c-0.4,0.1-0.7-0.2-0.6-0.6l0.8-2.4c0-0.1,0-0.3-0.1-0.4
			l-1.5-2c-0.2-0.3,0-0.7,0.4-0.7l2.5,0c0.1,0,0.3-0.1,0.4-0.2l1.4-2c0.2-0.3,0.7-0.2,0.8,0.1l0.7,2.4c0,0.1,0.2,0.3,0.3,0.3
			l2.4,0.7c0.4,0.1,0.4,0.6,0.1,0.8l-2,1.4c-0.1,0.1,0-0.1,0,0.1l-0.2,2.8C147.9,156,147.5,156.3,147.2,156z" />
                                </g>
                            </g>
                            <g id="moneta-1">
                                <path class="st0" d="M245.4,217.8c11.3,2.8,22.6-4.1,25.4-15.4c2.8-11.3-4.1-22.6-15.4-25.4c-11.3-2.8-22.6,4.1-25.4,15.4
		C227.2,203.7,234.1,215,245.4,217.8z" />
                                <path class="st1" d="M255.9,204l-0.8,3.4l-12.3-3l0.8-3.4l4.6,1.1l2.6-10.5l-0.2,0l-5.4,2.7l1.1-4.4l6.1-3.1l3.3,0.8l-3.8,15.5
		L255.9,204z" />
                            </g>
                        </svg>
