<svg width="200" height="148" viewBox="0 0 200 148" fill="none" xmlns="http://www.w3.org/2000/svg">
<g clip-path="url(#clip0_141_2935)">
<path d="M199.995 66.2557C200.067 66.8604 199.425 67.2914 198.895 66.9948L183.434 60.0462C183.434 60.0462 197.05 41.7307 199.998 66.258L199.995 66.2557Z" fill="#CACACA"/>
<path d="M136.699 65.014C138.855 65.014 140.603 62.6302 140.603 59.6896C140.603 56.749 138.855 54.3652 136.699 54.3652C134.543 54.3652 132.795 56.749 132.795 59.6896C132.795 62.6302 134.543 65.014 136.699 65.014Z" fill="#FF0074"/>
<path d="M132.822 49.6847C135.227 67.3353 147.806 113.51 143.021 120.66C138.237 127.81 127.551 128.57 127.551 128.57L186.728 141.11C186.728 141.11 195.014 141.202 197.326 124.717C199.641 108.232 185.737 65.2847 187.402 58.7254C189.068 52.1661 195.176 53.8251 195.176 53.8251C195.176 53.8251 164.462 35.9358 153.153 32.7338C146.786 30.9312 130.241 30.7435 132.822 49.6847Z" fill="#E9E9E9"/>
<path d="M190.842 138.906C190.842 138.906 187.163 142.076 180.429 138.728C173.694 135.382 166.817 117.82 159.032 117.037C151.25 116.254 107.234 115.447 107.234 115.447C107.234 115.447 115.738 116.022 118.641 120.401C121.544 124.78 123.713 129.838 129.556 131.729C135.402 133.619 181.706 142.331 181.706 142.331C181.706 142.331 188.771 143.323 190.842 138.906Z" fill="#CACACA"/>
<path d="M159.032 117.036C153.951 116.631 150.492 117.407 148.46 120.878C146.254 124.643 142.901 135.577 129.539 138.123C116.177 140.669 87.2339 130.044 87.2339 130.044L84.6621 129.23C84.6621 129.23 91.708 130.695 95.6793 126.116C99.6505 121.538 102.732 115.505 107.234 115.447C111.736 115.389 159.032 117.036 159.032 117.036Z" fill="white"/>
<path d="M8.04822 110.934C6.86426 110.934 5.80541 110.107 5.55517 108.902C5.46481 108.464 3.37955 98.0936 6.47732 88.9369C8.31467 83.5014 11.9662 79.5301 14.7072 77.1552C16.9662 75.1974 20.2401 72.9986 21.5909 72.8619C22.5871 72.7599 23.5649 73.2534 24.0677 74.1177C24.5705 74.9819 24.5195 76.0709 23.9426 76.8864C23.5858 77.3915 23.0807 77.7252 22.5269 77.8758C21.4101 78.4666 13.9727 82.6835 11.3059 90.5704C8.6599 98.3948 10.5297 107.781 10.5482 107.876C10.8286 109.254 9.94118 110.601 8.56491 110.883C8.39113 110.918 8.21968 110.936 8.04822 110.936V110.934Z" fill="#FF0074"/>
<path d="M24.989 75.5376L24.1364 74.0756L23.2652 72.6113L21.5831 72.7828C20.2184 72.9218 16.9237 75.1275 14.6554 77.0946C13.3023 78.267 11.7291 79.831 10.2578 81.7656C11.6897 82.6414 13.059 83.7582 14.3171 85.0835C17.8852 80.3036 22.6373 77.9009 22.6999 77.8755H22.6929C22.0488 78.1442 20.7073 78.1535 19.8176 77.0437L21.8635 75.4148L19.7203 73.8972L24.009 76.9325L24.989 75.5376Z" fill="#C92E2E"/>
<path d="M42.8239 142.006C41.7257 141.666 40.9286 140.639 40.9356 139.428C40.9402 138.647 41.114 120.162 48.2757 106.879C48.9801 105.575 50.6089 105.086 51.9134 105.79C53.2178 106.494 53.7067 108.123 53.0023 109.428C46.487 121.515 46.3063 139.279 46.3063 139.455C46.297 140.938 45.0899 142.134 43.6071 142.125C43.336 142.125 43.0718 142.081 42.8262 142.004L42.8239 142.006Z" fill="#FF0074"/>
<path d="M51.9111 105.792C50.6067 105.088 48.9779 105.577 48.2735 106.881C46.9135 109.404 45.806 112.115 44.9023 114.858L49.9 116.869C50.7272 114.291 51.7466 111.754 53.0001 109.43C53.7045 108.125 53.2156 106.496 51.9111 105.792Z" fill="#C92E2E"/>
<path d="M102.069 137.206C103.1 136.694 103.719 135.551 103.517 134.358C103.387 133.589 100.239 115.373 91.031 103.417C90.1274 102.243 88.4384 102.023 87.266 102.928C86.0913 103.832 85.8712 105.519 86.7771 106.694C95.1552 117.574 98.1928 135.076 98.2229 135.252C98.4708 136.714 99.8563 137.699 101.318 137.451C101.587 137.407 101.84 137.321 102.071 137.208L102.069 137.206Z" fill="#FF0074"/>
<path d="M87.2654 102.927C88.4377 102.021 90.1268 102.241 91.0304 103.415C92.7797 105.686 94.3089 108.184 95.6412 110.744L91.0327 113.536C89.8001 111.124 88.3868 108.784 86.7742 106.692C85.8705 105.517 86.0883 103.83 87.263 102.927H87.2654Z" fill="#C92E2E"/>
<path d="M105.283 0.00968566L15.7368 7.52359C14.1659 7.65565 13.019 9.25436 13.1719 11.0963L21.2558 107.433C21.411 109.275 22.8081 110.661 24.379 110.529L113.925 103.015C115.496 102.883 116.643 101.284 116.49 99.442L108.406 3.10514C108.251 1.26316 106.854 -0.122381 105.283 0.00968566ZM73.9295 16.5806C74.0871 18.5106 73.0305 20.1858 71.5871 20.3039L52.4791 21.854C51.0333 21.9722 49.7242 20.487 49.5667 18.557C49.4091 16.6269 50.4657 14.9518 51.9091 14.8336L57.8799 14.3494C57.6807 11.8818 59.2284 9.74324 61.3392 9.57178C63.4499 9.40033 65.322 11.2608 65.5236 13.7284L71.0171 13.2836C72.4629 13.1654 73.772 14.6506 73.9295 16.5806Z" fill="#FF0074"/>
<path d="M39.147 136.383C40.9496 135.433 47.4973 135.357 48.1855 136.374C48.8736 137.391 47.7846 146.089 47.1359 146.891C46.4848 147.692 34.3023 148.135 34.1632 147.287C34.0242 146.441 38.6396 143.855 39.0937 142.389C39.5478 140.925 38.1878 136.888 39.147 136.383Z" fill="#C92E2E"/>
<path d="M98.6355 23.8644C97.1805 22.1545 95.7046 22.173 93.6123 22.3144C91.8746 22.4325 90.1346 22.5484 88.3969 22.6665C84.5484 22.926 80.6906 23.1299 76.8491 23.4659C73.3436 23.774 69.8473 24.1332 66.3301 24.2652C64.6364 24.3278 62.9729 24.3116 61.2838 24.1702C59.6457 24.0335 58.091 23.8945 56.6591 24.8283C56.1772 25.141 55.8621 25.9497 56.1332 26.4965C57.5813 29.4135 61.4529 29.6151 64.3329 29.8584C67.5535 30.1318 70.7741 30.0206 73.9993 29.8931C77.484 29.7541 80.9617 29.5479 84.4418 29.3278C86.1818 29.2166 87.9196 29.1077 89.6596 28.9965C90.6536 28.9339 91.6476 28.869 92.6415 28.8065C93.1374 28.774 93.6355 28.7439 94.1313 28.7115C94.7129 28.8412 94.9492 28.8134 94.8565 28.6281C95.0002 28.6814 95.1508 28.7254 95.3107 28.7555C96.1911 28.9246 97.1527 28.7833 97.864 28.2041C99.0734 27.217 99.7917 25.2198 98.6355 23.8598V23.8644Z" fill="#FD8279"/>
<path d="M50.0072 25.6022C49.8311 25.0461 49.377 24.6244 48.8789 24.358C48.6727 24.2398 48.4549 24.1773 48.2278 24.1703C47.8942 24.1101 47.5675 24.1356 47.25 24.2491C46.738 24.3696 46.3395 24.7357 46.0614 25.162C45.7232 25.681 45.6259 26.2324 45.7579 26.8395C45.795 27.1337 45.9062 27.4025 46.0893 27.6434C46.314 27.9609 46.6013 28.2065 46.9512 28.3756C47.5026 28.6119 48.105 28.6699 48.6819 28.4613C49.2079 28.269 49.6829 27.8381 49.9261 27.333C50.1926 26.7815 50.1903 26.1745 50.0119 25.6022H50.0072Z" fill="#FD8279"/>
<path d="M5.72655 103.969C4.41284 105.528 3.04351 107.058 1.83174 108.7C1.22007 109.528 0.76826 110.401 0.399863 111.363C0.177435 111.946 0.0940242 112.549 0.0245154 113.17C-0.0449934 113.791 0.045368 114.393 0.144997 115.016C0.244627 115.64 0.884108 116.363 1.42164 116.678C2.0171 117.028 2.89523 117.174 3.56483 116.958C4.23443 116.743 4.88781 116.323 5.22609 115.681L5.50644 115.016C5.63851 114.523 5.63851 114.032 5.50644 113.538L5.49254 113.446L5.59217 114.185C5.54583 113.846 5.54583 113.51 5.58522 113.17L5.48559 113.909C5.54583 113.478 5.66631 113.068 5.83313 112.667L5.55278 113.332C5.88642 112.558 6.35677 111.858 6.87113 111.193L6.43554 111.756C7.46427 110.438 8.58105 109.18 9.65844 107.901C10.1427 107.324 10.4717 106.712 10.4717 105.934C10.4717 105.253 10.1682 104.437 9.65844 103.967C9.1487 103.497 8.43276 103.119 7.69134 103.154C6.99161 103.186 6.19458 103.411 5.72424 103.967L5.72655 103.969Z" fill="#FF0074"/>
<path d="M8.50761 115.128C8.44042 115.091 8.38249 115.051 8.31994 115.007L8.88296 115.443C8.80882 115.38 8.74394 115.316 8.68138 115.239L9.11697 115.802C9.04515 115.705 8.9849 115.603 8.93393 115.494L9.21428 116.159C9.13551 115.969 9.08685 115.777 9.05441 115.575L9.15404 116.314C9.06831 115.656 9.16563 114.993 9.25367 114.342L9.15404 115.082C9.37184 113.494 9.72633 111.93 10.2152 110.404C10.4307 109.734 10.2847 108.858 9.93486 108.26C9.585 107.663 8.93625 107.134 8.2736 106.984C6.75367 106.639 5.32874 107.443 4.85377 108.925C4.28148 110.714 3.9293 112.535 3.68602 114.396C3.63968 114.755 3.5887 115.116 3.56785 115.48C3.53773 116.008 3.60492 116.532 3.69297 117.053C3.89223 118.235 4.65451 119.345 5.70177 119.931C6.33894 120.288 7.13597 120.406 7.84496 120.211C8.48908 120.033 9.1888 119.535 9.50622 118.935C9.84681 118.291 10.0183 117.507 9.78657 116.791C9.55488 116.076 9.14941 115.489 8.50993 115.13L8.50761 115.128Z" fill="#FF0074"/>
<path d="M6.99031 109.052C7.62515 111.496 8.85546 113.702 10.4935 115.609C10.9361 116.126 11.8003 116.422 12.4606 116.422C13.121 116.422 13.9574 116.119 14.4277 115.609C14.8981 115.099 15.2758 114.383 15.241 113.642L15.1414 112.903C15.0093 112.432 14.7707 112.022 14.4254 111.675C14.2679 111.492 14.115 111.304 13.9667 111.114L14.4023 111.677C13.7025 110.764 13.1256 109.768 12.6784 108.709L12.9588 109.374C12.7155 108.788 12.5139 108.188 12.3541 107.571C12.1803 106.902 11.6706 106.258 11.0774 105.91C10.4843 105.563 9.60384 105.414 8.93424 105.63C8.26463 105.845 7.61125 106.265 7.27297 106.906C6.9347 107.548 6.80031 108.306 6.99262 109.05L6.99031 109.052Z" fill="#FF0074"/>
<path d="M125.85 78.028C120.465 78.028 114.928 76.0887 113.994 75.7481C112.801 75.3126 112.189 73.9919 112.625 72.7987C113.06 71.6077 114.379 70.9938 115.572 71.4293C120.134 73.0929 128.366 74.7125 131.031 71.9831C132.919 70.0461 131.784 65.7412 130.5 62.472C130.037 61.2903 130.618 59.9558 131.8 59.4924C132.984 59.029 134.316 59.6105 134.78 60.7922C137.37 67.3862 137.215 72.2333 134.318 75.199C132.229 77.3376 129.066 78.0304 125.85 78.0304V78.028Z" fill="#FF0074"/>
<path d="M63.9198 75.5236C59.4248 74.5875 56.5657 71.9647 56.3711 71.7794L60.8683 66.9925L60.8451 66.9717C60.8567 66.9833 62.1241 68.1163 64.1468 68.7789C66.6908 69.6153 69.2997 69.3558 71.904 68.0074C73.5143 67.1756 75.4976 67.8058 76.3294 69.4161C77.1635 71.0264 76.531 73.0074 74.9207 73.8415C70.72 76.0125 66.948 76.1492 63.9174 75.5189L63.9198 75.5236Z" fill="#170C35"/>
<path d="M56.928 49.7241C54.4095 47.2241 49.8011 47.6944 46.6361 50.776C43.4711 53.8552 42.9475 58.3803 45.4684 60.878C47.9869 63.378 52.5953 62.9053 55.7603 59.826C58.9253 56.7468 59.4489 52.2218 56.928 49.7241Z" fill="#170C35"/>
<path d="M61.3577 63.7514C61.6137 61.4829 57.6682 59.1752 52.5452 58.5969C47.4221 58.0187 43.0615 59.3888 42.8054 61.6573C42.5494 63.9257 46.4949 66.2334 51.6179 66.8117C56.741 67.39 61.1016 66.0198 61.3577 63.7514Z" fill="#FF0074"/>
<path d="M51.6519 70.0274C51.9717 73.9662 49.0384 77.4162 45.0996 77.7359C41.1607 78.0557 37.7108 75.1224 37.391 71.1835C37.0713 67.2447 40.0046 63.7948 43.9434 63.475C47.8822 63.1553 51.3322 66.0885 51.6519 70.0274Z" fill="#FD8FB3"/>
<path d="M87.9945 47.5024C85.4759 45.0024 80.8675 45.4728 77.7025 48.5543C74.5375 51.6336 74.0139 56.1586 76.5348 58.6563C79.0533 61.1563 83.6617 60.6836 86.8267 57.6044C89.9917 54.5251 90.5153 50.0001 87.9945 47.5024Z" fill="#170C35"/>
<path d="M92.4241 61.5297C92.6801 59.2612 88.7346 56.9535 83.6116 56.3753C78.4885 55.797 74.1279 57.1672 73.8718 59.4356C73.6158 61.704 77.5613 64.0117 82.6843 64.59C87.8074 65.1683 92.168 63.7981 92.4241 61.5297Z" fill="#FF0074"/>
<path d="M85.0668 67.3193C85.3866 71.2581 88.8365 74.1914 92.7753 73.8716C96.7142 73.5519 99.6474 70.102 99.3277 66.1631C99.008 62.2243 95.558 59.291 91.6192 59.6108C87.6803 59.9305 84.7471 63.3805 85.0668 67.3193Z" fill="#FD8FB3"/>
<path d="M131.708 64.0333C130.786 64.0333 129.913 63.4773 129.554 62.569C129.361 62.0871 127.744 57.7382 129.711 53.9268C130.499 52.3999 132.193 50.3957 135.791 49.513C137.033 49.2071 138.289 49.9671 138.594 51.2113C138.9 52.4555 138.14 53.709 136.896 54.0148C135.344 54.3971 134.34 55.0621 133.828 56.0537C132.816 58.0162 133.852 60.8359 133.863 60.8638C134.334 62.0547 133.752 63.4008 132.561 63.8712C132.281 63.9824 131.993 64.0333 131.708 64.0333Z" fill="#FF0074"/>
<path d="M103.688 128.385C101.661 128.169 95.5533 130.523 95.2892 131.724C95.025 132.924 99.2605 140.598 100.159 141.103C101.061 141.608 112.541 137.504 112.356 136.666C112.173 135.827 106.927 135.137 105.961 133.943C104.997 132.75 104.766 128.498 103.686 128.385H103.688Z" fill="#C92E2E"/>
<path d="M152.677 111.814C153.882 111.138 155.316 110.92 156.674 111.161C158.032 111.402 159.285 112.092 160.235 113.144C160.708 113.668 161.167 114.24 161.785 114.604C162.404 114.967 163.129 115.03 163.817 114.824C165.062 114.448 166.118 113.362 167.494 113.519C168.484 113.633 169.334 114.312 170.062 114.94C170.905 115.665 171.697 116.469 172.645 117.062C173.648 117.69 174.737 117.912 175.891 117.604C176.616 117.41 177.304 117.074 178.048 116.939C178.792 116.805 179.362 117.081 179.832 117.667C180.263 118.209 180.645 118.726 181.222 119.129C181.748 119.495 182.362 119.747 182.986 119.879C184.237 120.144 185.601 119.972 186.704 119.303C186.975 119.138 187.228 118.941 187.46 118.723C187.786 118.417 187.295 117.926 186.968 118.232C186.053 119.092 184.756 119.428 183.525 119.272C182.902 119.194 182.293 118.985 181.76 118.654C181.176 118.29 180.796 117.78 180.379 117.247C179.925 116.666 179.357 116.258 178.6 116.212C177.884 116.168 177.184 116.443 176.521 116.675C175.859 116.907 175.224 117.125 174.536 117.053C174.054 117.004 173.597 116.816 173.183 116.575C172.24 116.033 171.468 115.246 170.652 114.534C169.837 113.823 168.996 113.144 167.958 112.901C167.423 112.776 166.867 112.783 166.338 112.929C165.643 113.119 165.029 113.51 164.392 113.834C163.755 114.159 163.099 114.4 162.423 114.145C161.746 113.89 161.297 113.29 160.845 112.785C159.906 111.731 158.762 110.964 157.386 110.607C156.009 110.25 154.575 110.296 153.271 110.781C152.946 110.901 152.631 111.047 152.33 111.216C151.941 111.436 152.291 112.037 152.68 111.816L152.677 111.814Z" fill="#B3B3B3"/>
<path d="M108.57 122.055C110.866 120.491 113.632 119.685 116.41 119.801C117.02 119.826 117.768 119.833 118.218 120.313C118.63 120.751 118.753 121.4 118.977 121.939C119.432 123.031 120.252 123.948 121.262 124.56C122.272 125.172 123.449 125.459 124.622 125.35C125.794 125.241 126.955 124.778 128.03 124.242C129.105 123.707 130.219 123.042 131.385 122.604C131.952 122.391 132.559 122.204 133.167 122.157C133.491 122.134 133.822 122.15 134.119 122.294C134.392 122.426 134.61 122.635 134.819 122.848C135.303 123.339 135.755 123.816 136.401 124.092C137.008 124.351 137.678 124.43 138.333 124.377C139.754 124.263 141.093 123.675 142.346 123.031C142.745 122.827 142.393 122.227 141.996 122.431C140.884 123.001 139.68 123.554 138.421 123.675C137.844 123.73 137.247 123.696 136.707 123.471C136.167 123.246 135.759 122.813 135.344 122.387C134.93 121.96 134.432 121.576 133.801 121.483C133.171 121.39 132.488 121.532 131.869 121.71C130.673 122.055 129.571 122.66 128.472 123.235C127.374 123.809 126.318 124.351 125.124 124.581C123.931 124.81 122.784 124.622 121.758 124.043C120.731 123.464 119.934 122.544 119.522 121.432C119.318 120.878 119.14 120.299 118.736 119.852C118.301 119.368 117.666 119.212 117.043 119.147C113.971 118.832 110.759 119.724 108.218 121.455C107.849 121.705 108.197 122.308 108.567 122.055H108.57Z" fill="#B3B3B3"/>
<path d="M152.364 96.8068C151.933 96.1603 152.234 95.3054 152.806 94.8466C153.55 94.2535 154.614 94.4898 155.355 94.9602C156.238 95.5232 156.768 96.4778 157.174 97.4138C157.542 98.2641 157.769 99.3184 158.49 99.9555C159.211 100.593 160.251 100.535 161.073 100.039C161.896 99.5431 162.461 98.709 163.112 97.9768C163.641 97.386 164.336 96.7535 165.193 96.8902C165.714 96.9736 166.12 97.335 166.433 97.7382C167.19 98.7183 167.577 99.9347 168.344 100.912C168.699 101.364 169.141 101.749 169.695 101.927C170.401 102.157 171.173 101.992 171.773 101.568C172.473 101.075 172.971 100.359 173.476 99.6821C173.981 99.0056 174.549 98.3661 175.344 97.9629C176.064 97.5968 176.935 97.4161 177.721 97.6617C178.458 97.8911 178.919 98.5051 179.22 99.184C179.778 100.451 179.869 102.129 181.025 103.049C181.729 103.609 182.665 103.702 183.495 103.38C184.449 103.009 185.123 102.249 185.61 101.371C185.858 100.922 186.059 100.447 186.261 99.974C186.335 99.8003 186.312 99.6033 186.136 99.4991C185.99 99.4133 185.733 99.4504 185.661 99.6242C185.26 100.57 184.841 101.608 184.03 102.279C183.344 102.847 182.325 103.118 181.546 102.576C180.99 102.189 180.728 101.499 180.524 100.882C180.286 100.164 180.103 99.4296 179.781 98.7414C179.458 98.0533 178.928 97.4115 178.191 97.0964C177.406 96.7604 176.507 96.7998 175.705 97.0663C174.903 97.3327 174.111 97.8309 173.539 98.4866C172.966 99.1423 172.517 99.9022 171.912 100.532C171.409 101.056 170.756 101.48 170.003 101.29C169.491 101.163 169.097 100.776 168.796 100.359C168.054 99.3323 167.654 98.0904 166.826 97.1219C166.463 96.6956 165.985 96.3411 165.429 96.2275C164.565 96.0491 163.775 96.4036 163.133 96.969C162.415 97.6015 161.935 98.4518 161.212 99.0797C160.49 99.7076 159.44 100.108 158.756 99.2257C158.469 98.8526 158.307 98.3939 158.14 97.9606C157.948 97.4625 157.749 96.9643 157.508 96.4893C157.044 95.5718 156.395 94.7169 155.473 94.2234C154.639 93.7762 153.583 93.6209 152.718 94.0797C152 94.4597 151.504 95.2544 151.465 96.063C151.446 96.45 151.553 96.8369 151.768 97.1589C152.016 97.5297 152.619 97.1821 152.369 96.8091L152.364 96.8068Z" fill="#B3B3B3"/>
<path d="M142.762 54.1084C143.153 53.3206 143.587 52.5351 144.138 51.8447C144.634 51.2237 145.248 50.619 146.012 50.3502C146.728 50.0977 147.518 50.1626 148.176 50.5449C148.834 50.9272 149.289 51.5412 149.652 52.1853C150.058 52.9012 150.35 53.6705 150.612 54.449C150.873 55.2274 151.056 56.2863 151.897 56.6848C152.739 57.0833 153.626 56.5921 154.219 56.0059C154.849 55.3804 155.144 54.53 155.674 53.8303C156.154 53.1978 156.895 52.7946 157.65 53.2349C158.406 53.6751 158.797 54.4999 159.052 55.2692C159.326 56.094 159.553 56.9744 160.058 57.695C160.563 58.4156 161.355 58.8998 162.264 58.9114C164.265 58.9392 165.653 57.2363 167.294 56.3743C168.014 55.9967 168.918 55.663 169.738 55.8947C170.646 56.1542 170.961 57.0486 171.124 57.8873C171.297 58.7863 171.411 59.6598 171.851 60.48C172.291 61.3002 172.898 61.9374 173.637 62.4309C175.215 63.4828 177.277 63.5407 178.957 62.6927C179.367 62.4865 179.745 62.2177 180.088 61.9142C180.431 61.6107 179.93 61.1264 179.597 61.423C178.193 62.6695 176.049 62.9684 174.386 62.0717C173.605 61.6501 172.952 61.0129 172.511 60.2414C172.043 59.4235 171.958 58.5245 171.777 57.6186C171.603 56.759 171.249 55.9086 170.456 55.4499C169.664 54.9911 168.788 55.0745 167.984 55.3317C167.106 55.6144 166.33 56.1033 165.6 56.657C164.81 57.2548 163.953 57.8688 162.982 58.1236C162.108 58.353 161.23 58.1213 160.683 57.3776C160.174 56.6848 159.972 55.8113 159.701 55.0097C159.203 53.5361 157.771 51.6292 156.008 52.607C155.255 53.024 154.821 53.8396 154.414 54.5625C154.038 55.2275 153.39 56.1751 152.511 56.1403C152.046 56.1218 151.789 55.7256 151.636 55.3294C151.483 54.9332 151.374 54.5231 151.237 54.1223C150.968 53.3414 150.665 52.5606 150.257 51.8401C149.488 50.4777 148.207 49.3377 146.541 49.53C144.875 49.7224 143.624 51.2168 142.794 52.607C142.569 52.9846 142.363 53.3739 142.166 53.7678C141.969 54.1616 142.567 54.5185 142.766 54.1176L142.762 54.1084Z" fill="#B3B3B3"/>
<path d="M150.72 83.8234C150.903 82.6696 152.12 81.9212 153.248 82.0579C154.615 82.2224 154.991 83.8443 156.158 84.3633C156.703 84.6066 157.335 84.5602 157.829 84.2196C158.322 83.879 158.637 83.3763 158.95 82.8897C159.263 82.4031 159.56 81.8911 160.025 81.5551C160.644 81.1079 161.45 81.2076 162.104 81.525C163.654 82.2757 164.3 84.0181 165.544 85.1186C166.629 86.0801 168.466 86.613 169.608 85.443C170.12 84.917 170.361 84.1849 170.917 83.7006C171.365 83.3091 171.972 83.0635 172.565 83.0357C173.093 83.0102 173.651 83.1538 173.985 83.5917C174.233 83.9184 174.305 84.3447 174.397 84.734C174.49 85.1232 174.601 85.4963 174.819 85.823C175.57 86.9536 177.039 87.2386 178.304 87.0556C179.935 86.8193 181.226 85.6816 182.569 84.822C182.938 84.5857 183.318 84.3679 183.714 84.1802C184.11 83.9926 183.765 83.3902 183.364 83.5801C181.814 84.3123 180.561 85.6492 178.925 86.1983C177.81 86.5737 176.154 86.5667 175.424 85.4731C174.974 84.7989 175.062 83.9115 174.59 83.2419C174.228 82.7321 173.675 82.4425 173.063 82.3637C171.738 82.1923 170.479 82.9082 169.782 84.0065C169.37 84.6529 168.983 85.348 168.135 85.4175C167.377 85.4777 166.599 85.1232 166.04 84.6297C164.777 83.5106 164.117 81.803 162.576 80.9875C161.907 80.633 161.11 80.4384 160.361 80.6399C159.713 80.816 159.24 81.2794 158.851 81.8054C158.332 82.5051 157.671 84.1826 156.529 83.7655C155.924 83.5454 155.535 82.8851 155.132 82.4217C154.706 81.9328 154.205 81.5343 153.554 81.4068C152.354 81.1705 151.003 81.7289 150.368 82.7877C150.213 83.0472 150.106 83.3392 150.058 83.6381C149.988 84.076 150.658 84.2636 150.727 83.8234H150.72Z" fill="#B3B3B3"/>
<path d="M147.304 69.9255C147.948 68.8806 148.979 67.3606 150.42 67.8194C151.498 68.1623 152.089 69.4644 152.684 70.3217C153.039 70.8315 153.423 71.3296 153.919 71.7096C154.415 72.0896 155.057 72.3213 155.703 72.3815C156.987 72.4997 158.342 71.9297 159.065 70.8477C159.503 70.1943 159.667 69.3694 160.251 68.8134C160.708 68.3778 161.336 68.1646 161.956 68.1229C163.472 68.021 164.783 68.7508 165.9 69.7077C167.153 70.7805 168.242 72.0919 169.707 72.8935C171.037 73.6211 172.716 73.9964 174.123 73.2504C174.832 72.875 175.332 72.2378 175.909 71.7003C176.384 71.2578 176.926 70.9496 177.575 70.8616C178.734 70.7063 180.02 71.2068 180.722 72.1498C180.9 72.3884 181.034 72.6526 181.127 72.9329C181.266 73.3569 181.938 73.1739 181.797 72.7476C181.389 71.5034 180.305 70.6067 179.053 70.28C177.7 69.9255 176.391 70.2846 175.383 71.2392C174.795 71.7953 174.276 72.4788 173.497 72.7754C172.719 73.072 171.943 72.9978 171.194 72.7754C169.535 72.2796 168.342 71.0168 167.114 69.8676C165.953 68.7809 164.677 67.7383 163.059 67.4881C161.695 67.2772 160.219 67.5877 159.38 68.7717C158.914 69.4297 158.752 70.2684 158.173 70.85C157.716 71.3064 157.098 71.5868 156.463 71.6748C155.828 71.7629 155.184 71.6656 154.635 71.3574C154.086 71.0492 153.68 70.5395 153.326 70.0344C152.647 69.0682 152.045 67.8009 150.916 67.2772C150.328 67.0038 149.644 66.9714 149.037 67.21C148.333 67.4881 147.795 68.0349 147.343 68.628C147.112 68.9315 146.901 69.2513 146.702 69.578C146.468 69.9603 147.068 70.3101 147.302 69.9278L147.304 69.9255Z" fill="#B3B3B3"/>
</g>
<defs>
<clipPath id="clip0_141_2935">
<rect width="200" height="147.746" fill="white"/>
</clipPath>
</defs>
</svg>
