<?xml version="1.0" encoding="utf-8"?>
<!-- Generator: Adobe Illustrator 27.2.0, SVG Export Plug-In . SVG Version: 6.00 Build 0)  -->
<svg version="1.1" id="Warstwa_1" xmlns="http://www.w3.org/2000/svg" xmlns:xlink="http://www.w3.org/1999/xlink" x="0px" y="0px"
	 viewBox="0 0 267 249" style="enable-background:new 0 0 267 249;" xml:space="preserve">
                    <style type="text/css">
                        .st0 {
                            fill: #FF0074;
                        }

                        .st1 {
                            fill: #C92E2E;
                        }

                        .st2 {
                            fill: #FD8279;
                        }

                        .st3 {
                            fill: #170C35;
                        }

                        .st4 {
                            fill: #FD8FB3;
                        }

                        #reka-p {
                            animation: ruch-reka-p 1s ease-in-out infinite alternate;
                            transform: rotate(0deg);
                            transform-origin: 77% 42%;
                        }

                        #reka-l {
                            animation: ruch-reka-l 1s ease-in-out infinite alternate;
                            transform: rotate(0deg);
                            transform-origin: 25% 43%;
                        }

                        @keyframes ruch-reka-p {
                            to {
                                transform: rotate(20deg);
                            }
                        }

                        @keyframes ruch-reka-l {
                            to {
                                transform: rotate(5deg);
                            }
                        }
                    </style>
                    <g id="reka-p">
                        <path class="st0" d="M263.4,82.9c-1.6,0.7-2.6,2-4,3c0.4-0.6,0.6-1.2,0.7-1.9c0.2-1.6-1.2-2.6-2.6-2.1c-1.8,0.5-3.2,2.2-4.8,3.1
		c-1.5,0.9-3.2,1.6-4.6,2.5c0.6-0.9,1.4-1.8,2.4-2.5c2.2-1.7-0.4-5.2-2.6-3.5c-3.7,2.8-6.2,7.5-5.8,12.1c-0.4,0.7-0.7,1.4-0.7,2.2
		c-0.5,16.6-5.7,16.6-19.6,16.5c-5.6,0-11.8-0.1-18.8,1.1c-2.3,0.4-3.8,2.6-3.4,4.9c0.4,2.3,2.6,3.8,4.9,3.4c6.2-1.1,12.1-1,17.3-1
		c5.9,0,11.8,0.1,16.6-1.8c6.1-2.4,10.6-8,11.4-20.7c0.9-0.1,2,0.1,2.8,0.1c1.7,0,3.3-0.1,4.9-0.3c2.7-0.4,5.7-1,7.9-2.6
		c1.7-1.3,0.6-4.2-1.5-3.9c-2.1,0.2-4,0.8-6,1.3c0.2-0.1,0.4-0.2,0.6-0.3c3.1-1.4,7.5-3.6,8.1-7.2C266.6,83.6,264.9,82.3,263.4,82.9
		z" />
                        <path class="st1" d="M228.1,112.2c-2,0.1-4.1,0.1-6.6,0c-5.6,0-11.8-0.1-18.8,1.1c-2.3,0.4-3.8,2.6-3.4,4.9
		c0.4,2.3,2.6,3.8,4.9,3.4c6.2-1.1,12.1-1,17.3-1c2.3,0,4.6,0,6.8-0.1L228.1,112.2z" />
                    </g>
                    <g id="reka-l">
                        <path class="st0" d="M17.4,148.2c-0.3,0-0.5,0-0.8-0.1c-2.2-0.4-3.6-2.5-3.2-4.7c0.1-0.7,3.3-16.9,13.3-28.3
		c5.9-6.7,13.6-10.3,19-12.1c4.4-1.5,10.5-2.7,12.5-2.1c1.5,0.4,2.6,1.7,2.8,3.3c0.2,1.6-0.5,3.1-1.9,3.9c-0.8,0.5-1.7,0.7-2.6,0.6
		c-2,0.2-15.2,1.8-23.8,11.6c-8.5,9.7-11.4,24.4-11.5,24.6C21,146.9,19.3,148.2,17.4,148.2z" />
                        <path class="st1" d="M61.6,106.9l-0.4-2.6l-0.4-2.6l-2.5-0.8c-2.1-0.6-8.2,0.6-12.6,2.1c-2.6,0.9-5.9,2.2-9.1,4.1
		c1.6,2.1,2.9,4.6,3.9,7.2c8-4.8,16.3-5.4,16.4-5.4c-1.1,0-3-0.8-3.7-2.9l3.9-1.1l-2.2-3.5l4.4,7L61.6,106.9z" />
                        <path class="st0" d="M16.2,136.8c-1.5,0.8-2.9,1.5-4.4,2.3c-1.2,0.6-2.3,1.2-3.4,1.9c-2.8,1.8-5.4,4.2-6.2,7.6
		c-0.3,1.1-0.1,2.4,0.4,3.3c0.5,0.9,1.6,1.8,2.6,2c1.1,0.3,2.4,0.2,3.3-0.4c0.9-0.6,1.7-1.5,2-2.6c0.1-0.3,0.2-0.7,0.3-1
		c-0.1,0.4-0.3,0.7-0.4,1.1c0.2-0.5,0.5-1,0.8-1.4c-0.2,0.3-0.5,0.6-0.7,0.9c0.5-0.7,1.1-1.2,1.7-1.7c-0.3,0.2-0.6,0.5-0.9,0.7
		c1.2-0.9,2.5-1.6,3.9-2.3c1.7-0.9,3.5-1.8,5.3-2.7c0.9-0.5,1.7-1.6,2-2.6c0.3-1.1,0.1-2.4-0.4-3.3
		C20.8,136.2,18.4,135.6,16.2,136.8z" />
                        <path class="st0" d="M13.6,153.9c0,0-0.1-0.1-0.1-0.1c0.2,0.3,0.5,0.6,0.7,0.9c-0.1-0.1-0.1-0.2-0.2-0.3c0.1,0.4,0.3,0.7,0.4,1.1
		c-0.1-0.2-0.1-0.4-0.1-0.6c0,0.4,0.1,0.8,0.1,1.2c0-0.2,0-0.4,0-0.7c0,0.4-0.1,0.8-0.1,1.2c0.1-0.5,0.2-0.9,0.4-1.3
		c-0.1,0.4-0.3,0.7-0.4,1.1c0.5-1.2,1.2-2.2,1.9-3.3c0.7-1.1,1.5-2.2,2.2-3.2c-0.2,0.3-0.5,0.6-0.7,0.9c0.4-0.5,0.8-1,1.2-1.5
		c0.8-0.9,1.3-1.8,1.3-3.1c0-1.1-0.5-2.4-1.3-3.1c-0.8-0.8-1.9-1.3-3.1-1.3c-1.1,0-2.4,0.4-3.1,1.3c-1.8,2.1-3.4,4.4-4.9,6.8
		c-0.7,1.2-1.5,2.5-1.9,3.9c-0.2,0.8-0.4,1.7-0.3,2.5c0,0.5,0.1,1.2,0.3,1.8c0.4,1,0.7,1.5,1.4,2.4c0.7,0.8,2.1,1.3,3.1,1.3
		c1.1,0,2.4-0.5,3.1-1.3c0.8-0.8,1.3-1.9,1.3-3.1c0-0.4-0.1-0.8-0.1-1.2C14.6,155,14.2,154.4,13.6,153.9z" />
                        <path class="st0" d="M15.6,144c-0.3,2-0.5,3.9-0.3,5.9c0.2,2,0.5,3.9,1.1,5.8c0.4,1.1,1,2,2,2.6c0.9,0.5,2.3,0.8,3.3,0.4
		c1.1-0.3,2.1-1,2.6-2c0.5-1,0.8-2.2,0.4-3.3c-0.4-1.2-0.7-2.5-0.9-3.7c0,0.4,0.1,0.8,0.1,1.2c-0.3-1.8-0.3-3.7,0-5.5
		c0,0.4-0.1,0.8-0.1,1.2c0-0.1,0-0.1,0-0.2c0.2-0.6,0.2-1.2,0.1-1.7c0-0.6-0.2-1.1-0.5-1.6c-0.5-0.9-1.6-1.8-2.6-2
		c-1.1-0.3-2.4-0.2-3.3,0.4C16.7,141.9,15.8,142.9,15.6,144z" />
                    </g>
                    <path class="st0"
                        d="M223,45.8L88.9,3.1c-2.4-0.8-5,0.9-5.8,3.6l-46,144.1c-0.9,2.8,0.3,5.6,2.6,6.3l134,42.7c2.4,0.8,5-0.9,5.8-3.6
	l46-144.1C226.5,49.4,225.3,46.5,223,45.8z M167.7,51c-0.9,2.9-3.4,4.7-5.6,4l-28.6-9.2c-2.2-0.7-3.2-3.6-2.2-6.5
	c0.9-2.9,3.4-4.7,5.6-4l8.9,2.9c1.2-3.7,4.7-5.8,7.9-4.8c3.2,1,4.8,4.8,3.6,8.5l8.2,2.6C167.6,45.2,168.6,48.1,167.7,51z" />
                    <g id="noga-l">
                        <path class="st0"
                            d="M47.6,213.7c-1.4-1.2-1.9-3.1-1.2-4.9c0.5-1.1,11.8-27.7,30.1-42.7c1.8-1.4,4.5-1.2,5.9,0.6
		c1.5,1.8,1.2,4.5-0.6,5.9c-16.7,13.6-27.6,39.1-27.7,39.4c-0.9,2.1-3.4,3.2-5.5,2.2C48.3,214.1,47.9,213.9,47.6,213.7z" />
                        <path class="st1" d="M82.4,166.8c-1.5-1.8-4.1-2.1-5.9-0.6c-3.5,2.8-6.7,6.1-9.6,9.5l6,5.9c2.8-3.2,5.7-6.3,8.9-8.9
		C83.6,171.2,83.9,168.5,82.4,166.8z" />
                        <path class="st1" d="M45.6,203.3c3.2-0.3,12.7,3.5,13.1,5.4c0.4,1.9-6.4,13.8-7.8,14.6c-1.4,0.8-19.3-5.9-19-7.2
		c0.3-1.3,8.5-2.3,10-4.1C43.5,210.1,44,203.5,45.6,203.3z" />
                    </g>
                    <g id="noga-r">
                        <path class="st0" d="M136.2,242.1c1.8-0.1,3.4-1.4,3.8-3.3c0.3-1.2,6.6-29.4,0.5-52.2c-0.6-2.2-2.9-3.6-5.2-3
		c-2.2,0.6-3.6,2.9-3,5.1c5.6,20.7-0.5,47.8-0.5,48.1c-0.5,2.2,0.9,4.5,3.2,5C135.4,242.1,135.8,242.2,136.2,242.1z" />
                        <path class="st1" d="M135.3,183.8c2.2-0.6,4.5,0.7,5.2,3c1.2,4.3,1.9,8.8,2.3,13.3l-8.3,1.3c-0.3-4.2-1-8.4-2.1-12.4
		C131.7,186.7,133.1,184.4,135.3,183.8z" />
                        <path class="st1" d="M143.8,230.4c-2.8-1.5-13.1-1.8-14.1-0.2c-1.1,1.6,0.4,15.2,1.4,16.5c1,1.3,20.1,2.2,20.3,0.9
		c0.2-1.3-6.9-5.5-7.6-7.8C143.1,237.5,145.3,231.2,143.8,230.4z" />
                    </g>
                    <path class="st2" d="M199.1,76.3c-1.1-3.3-3.2-4.2-6.3-5.3c-2.6-0.9-5.2-1.7-7.8-2.6c-5.7-1.9-11.4-4-17.2-5.8
	c-5.3-1.7-10.5-3.2-15.7-5.1c-2.5-0.9-4.9-2-7.3-3.2c-2.3-1.2-4.5-2.3-7.1-1.8c-0.9,0.2-1.8,1.2-1.8,2.1c0.4,5.1,5.8,7.7,9.9,9.7
	c4.5,2.3,9.2,4.1,14,5.8c5.1,1.9,10.3,3.7,15.5,5.4c2.6,0.9,5.2,1.8,7.8,2.6c1.5,0.5,2.9,1,4.4,1.5c0.7,0.3,1.5,0.5,2.2,0.8
	c0.8,0.5,1.1,0.7,1.1,0.3c0.2,0.1,0.4,0.3,0.6,0.5c1.2,0.8,2.6,1.2,4,0.7C197.7,81.4,199.9,78.9,199.1,76.3z" />
                    <path class="st2" d="M127.7,49.7c0.1-0.9-0.3-1.8-0.9-2.5c-0.2-0.3-0.5-0.5-0.8-0.7c-0.4-0.3-0.9-0.4-1.5-0.5
	c-0.8-0.1-1.6,0.1-2.3,0.6c-0.8,0.5-1.3,1.3-1.5,2.2c-0.1,0.4-0.1,0.9,0,1.4c0.1,0.6,0.4,1.1,0.8,1.6c0.7,0.7,1.5,1.1,2.5,1.2
	c0.9,0,1.8-0.3,2.5-0.9C127.2,51.5,127.6,50.6,127.7,49.7z" />
                    <g id="oko-l">
                        <path class="st3" d="M120.2,87.7c-1.1-4.7-6.2-7.5-11.3-6.3c-5.2,1.2-8.5,6-7.4,10.7c1.1,4.7,6.2,7.5,11.3,6.3
		C118,97.2,121.3,92.4,120.2,87.7z" />
                    </g>
                    <g id="oko-p">
                        <path class="st3"
                            d="M154.1,97.7c3.9-3.4,9.8-3,13.2,0.8c3.4,3.9,3,9.8-0.8,13.2s-9.8,3-13.2-0.8S150.2,101.1,154.1,97.7z" />
                    </g>
                    <g id="usta">
                        <path class="st3" d="M122.2,137.9c7.9,2.6,16.3,0.3,21.8-5.2c3.6-3.6,2.1-9.7-2.8-11.3l-24.8-8c-4.9-1.6-9.7,2.5-8.9,7.5
		C108.8,128.6,114.3,135.3,122.2,137.9z" />
                    </g>
                    <g id="policzek-l">
                        <path class="st4" d="M102,117.4c-1.9,5.9-8.2,9.1-14.1,7.2c-5.9-1.9-9.1-8.2-7.2-14.1c1.9-5.9,8.2-9.1,14.1-7.2
		C100.7,105.3,103.9,111.6,102,117.4z" />
                    </g>
                    <g id="policzek-p_00000168823826641177189180000016615233837309647281_">
                        <path class="st4" d="M152,133.5c-1.9,5.9,1.3,12.2,7.2,14.1c5.9,1.9,12.2-1.3,14.1-7.2c1.9-5.9-1.3-12.2-7.2-14.1
		C160.2,124.4,153.9,127.6,152,133.5z" />
                    </g>
                </svg>