<svg width="256" height="319" viewBox="0 0 256 319" fill="none" xmlns="http://www.w3.org/2000/svg">
<g clip-path="url(#clip0_617_2313)">
<path d="M134.103 312.515C135.575 312.315 136.805 311.173 137.054 309.634C137.212 308.639 140.894 285.082 134.573 266.67C133.95 264.862 131.978 263.897 130.167 264.519C128.357 265.14 127.39 267.11 128.013 268.918C133.765 285.671 130.242 308.314 130.206 308.541C129.904 310.429 131.191 312.204 133.082 312.506C133.43 312.563 133.774 312.563 134.103 312.518V312.515Z" fill="#FF0074"/>
<path d="M139.562 303.676C137.258 302.406 128.806 302.14 127.89 303.434C126.974 304.728 128.16 315.97 128.98 317.022C129.8 318.074 145.521 318.953 145.724 317.865C145.925 316.777 140.029 313.325 139.481 311.425C138.934 309.524 140.792 304.354 139.565 303.679L139.562 303.676Z" fill="#C92E2E"/>
<path d="M130.168 264.516C131.978 263.894 133.951 264.859 134.573 266.667C135.773 270.164 136.614 273.849 137.186 277.527L130.392 279.033C129.88 275.576 129.12 272.136 128.013 268.912C127.393 267.104 128.357 265.134 130.168 264.513V264.516Z" fill="#C92E2E"/>
<path d="M98.1329 313.152C96.6605 312.952 95.4305 311.81 95.1821 310.271C95.0234 309.276 91.3423 285.719 97.6631 267.307C98.2856 265.499 100.258 264.534 102.068 265.155C103.879 265.777 104.846 267.746 104.223 269.554C98.4711 286.307 101.994 308.95 102.03 309.177C102.332 311.066 101.045 312.841 99.1535 313.143C98.8063 313.2 98.4621 313.2 98.1329 313.155V313.152Z" fill="#FF0074"/>
<path d="M92.6739 304.315C94.9784 303.045 103.43 302.779 104.346 304.073C105.262 305.366 104.076 316.609 103.256 317.661C102.436 318.713 86.7153 319.591 86.5118 318.503C86.3113 317.416 92.2071 313.964 92.7547 312.063C93.3024 310.163 91.4439 304.993 92.671 304.318L92.6739 304.315Z" fill="#C92E2E"/>
<path d="M102.068 265.155C100.258 264.534 98.2855 265.499 97.663 267.307C96.4629 270.803 95.6219 274.488 95.0503 278.167L101.844 279.673C102.356 276.215 103.116 272.776 104.223 269.551C104.843 267.743 103.879 265.774 102.068 265.152V265.155Z" fill="#C92E2E"/>
<path d="M177.6 140.306C177.594 137.925 175.936 135.997 173.901 136L57.8324 136.329C55.7973 136.335 54.1513 138.271 54.1572 140.653L54.5104 265.34C54.5164 267.722 56.1744 269.65 58.2095 269.647L174.281 269.318C176.316 269.312 177.962 267.376 177.956 264.994L177.603 140.306H177.6ZM128.103 157.983H103.337C101.464 157.983 99.9317 155.939 99.9317 153.44C99.9317 150.942 101.464 148.898 103.337 148.898H111.077C111.077 145.706 113.294 143.118 116.03 143.118C118.765 143.118 120.983 145.706 120.983 148.898H128.103C129.976 148.898 131.508 150.942 131.508 153.44C131.508 155.939 129.976 157.983 128.103 157.983Z" fill="#FF0074"/>
<path d="M208.518 207.258C207.926 206.472 207.387 205.647 206.908 204.786C207.064 205.067 207.219 205.348 207.375 205.632C206.459 203.967 205.771 202.192 205.322 200.349C205.397 200.662 205.475 200.973 205.55 201.287C205.238 199.972 205.05 198.636 204.99 197.288C204.951 196.389 204.334 195.382 203.643 194.835C202.952 194.288 201.907 193.944 201.036 194.076C200.1 194.213 199.151 194.632 198.579 195.421C198.011 196.207 197.777 197.049 197.819 198.024C197.924 200.444 198.445 202.88 199.262 205.16C200.079 207.437 201.279 209.63 202.736 211.561C203.284 212.287 204.161 212.822 205.062 212.966C205.963 213.109 207.076 212.873 207.782 212.296C208.488 211.719 209.081 210.91 209.189 209.974C209.299 209.015 209.114 208.047 208.518 207.258Z" fill="#FF0074"/>
<path d="M162.558 165.379C160.864 163.03 158.961 162.899 156.252 162.863C154.002 162.833 151.751 162.803 149.501 162.773C144.518 162.707 139.532 162.564 134.552 162.597C130.006 162.627 125.469 162.725 120.926 162.528C118.738 162.432 116.598 162.238 114.437 161.882C112.342 161.539 110.358 161.195 108.413 162.244C107.76 162.597 107.27 163.604 107.563 164.333C109.125 168.233 114.087 168.896 117.768 169.509C121.886 170.193 126.046 170.39 130.209 170.561C134.71 170.746 139.209 170.842 143.713 170.919C145.963 170.958 148.214 170.997 150.464 171.036C151.751 171.057 153.035 171.081 154.322 171.105C154.965 171.117 155.609 171.126 156.252 171.138C156.986 171.365 157.297 171.353 157.195 171.108C157.375 171.191 157.563 171.263 157.767 171.32C158.883 171.631 160.137 171.547 161.113 170.878C162.774 169.736 163.905 167.244 162.558 165.373V165.379Z" fill="#FD8279"/>
<path d="M99.7672 162.546C99.5996 161.814 99.0579 161.225 98.4444 160.828C98.19 160.654 97.9176 160.55 97.6244 160.52C97.2024 160.406 96.7774 160.406 96.3554 160.52C95.682 160.621 95.1314 161.049 94.7273 161.569C94.2365 162.202 94.054 162.898 94.1617 163.693C94.1797 164.076 94.2934 164.432 94.5029 164.763C94.7573 165.197 95.1014 165.54 95.5354 165.794C96.2207 166.156 96.9899 166.293 97.753 166.084C98.4504 165.893 99.1088 165.388 99.4739 164.763C99.8719 164.082 99.9348 163.302 99.7642 162.549L99.7672 162.546Z" fill="#FD8279"/>
<path d="M116.868 225.308C112.816 225.308 109.299 226.802 107.557 228.986C106.42 230.412 108.057 232.109 110.529 232.109H123.213C125.685 232.109 127.319 230.409 126.184 228.986C124.44 226.802 120.926 225.308 116.874 225.308H116.868Z" fill="#170C35"/>
<path d="M91.9707 222.188C91.9707 227.283 87.8346 231.416 82.729 231.416C77.6233 231.416 73.4873 227.286 73.4873 222.188C73.4873 217.09 77.6233 212.96 82.729 212.96C87.8346 212.96 91.9707 217.09 91.9707 222.188Z" fill="#FD8FB3"/>
<path d="M140.062 222.188C140.062 227.283 144.198 231.416 149.303 231.416C154.409 231.416 158.545 227.286 158.545 222.188C158.545 217.09 154.409 212.96 149.303 212.96C144.198 212.96 140.062 217.09 140.062 222.188Z" fill="#FD8FB3"/>
<path d="M138.093 212.966C145.035 212.966 150.662 211.427 150.662 209.529C150.662 207.631 145.035 206.093 138.093 206.093C131.151 206.093 125.523 207.631 125.523 209.529C125.523 211.427 131.151 212.966 138.093 212.966Z" fill="#FF0074"/>
<path d="M105.917 195.711C103.215 191.192 97.3579 189.716 92.8329 192.415C88.3078 195.113 86.8294 200.961 89.5318 205.48C92.2343 209.998 98.0912 211.475 102.616 208.776C107.141 206.078 108.62 200.229 105.917 195.711Z" fill="#170C35"/>
<path d="M127.54 195.711C130.243 191.192 136.099 189.716 140.625 192.415C145.15 195.113 146.628 200.961 143.926 205.48C141.223 209.998 135.366 211.475 130.841 208.776C126.316 206.078 124.838 200.229 127.54 195.711Z" fill="#170C35"/>
<path d="M212.544 192.433C212.077 193.568 211.535 194.668 210.916 195.726C211.119 195.379 211.32 195.033 211.523 194.689C210.323 196.727 208.857 198.595 207.166 200.247C207.453 199.966 207.74 199.685 208.028 199.408C206.819 200.579 205.505 201.631 204.095 202.551C203.155 203.164 202.47 204.467 202.323 205.552C202.18 206.619 202.476 207.975 203.167 208.824C203.913 209.735 204.963 210.485 206.172 210.593C207.378 210.701 208.432 210.414 209.449 209.75C211.981 208.098 214.259 205.991 216.183 203.663C218.104 201.338 219.694 198.66 220.837 195.875C221.268 194.829 221.283 193.55 220.861 192.495C220.448 191.461 219.478 190.401 218.413 190.012C217.347 189.624 216.099 189.507 215.028 189.988C213.929 190.481 213.008 191.294 212.541 192.433H212.544Z" fill="#FF0074"/>
<path d="M224.359 203.194C223.284 203.788 222.174 204.308 221.028 204.751C221.402 204.607 221.776 204.464 222.153 204.32C219.942 205.163 217.628 205.707 215.273 205.943C215.671 205.904 216.072 205.862 216.47 205.823C214.794 205.982 213.109 205.985 211.433 205.823C210.314 205.716 208.967 206.305 208.171 207.061C207.39 207.805 206.773 209.048 206.782 210.142C206.794 211.319 207.147 212.559 208.021 213.399C208.895 214.236 209.898 214.669 211.107 214.786C214.118 215.072 217.215 214.848 220.172 214.233C223.126 213.617 226.041 212.517 228.68 211.053C229.671 210.503 230.482 209.514 230.814 208.429C231.14 207.365 231.045 205.931 230.455 204.966C229.866 204 228.965 203.128 227.827 202.835C226.66 202.533 225.433 202.596 224.359 203.194Z" fill="#FF0074"/>
<path d="M220.681 194.229C219.84 195.126 218.942 195.956 217.985 196.73C218.299 196.479 218.61 196.228 218.924 195.977C217.075 197.453 215.04 198.679 212.867 199.62C213.235 199.462 213.603 199.3 213.971 199.142C212.424 199.805 210.82 200.319 209.174 200.681C208.076 200.92 206.971 201.891 206.447 202.854C205.933 203.801 205.723 205.172 206.07 206.212C206.441 207.33 207.157 208.403 208.246 208.935C209.335 209.467 210.422 209.571 211.61 209.311C214.564 208.666 217.446 207.509 220.074 206.021C222.698 204.533 225.137 202.597 227.202 200.4C227.977 199.575 228.447 198.386 228.432 197.25C228.417 196.139 227.888 194.803 227.032 194.062C226.176 193.321 225.051 192.768 223.877 192.833C222.674 192.902 221.525 193.335 220.684 194.232L220.681 194.229Z" fill="#FF0074"/>
<path d="M191.074 239.598C186.393 239.598 181.56 235.887 176.322 228.275C172.683 222.986 170.163 217.69 170.058 217.469C169.247 215.754 169.981 213.704 171.698 212.894C173.416 212.084 175.469 212.816 176.28 214.532C176.304 214.579 178.699 219.609 182.038 224.444C186.384 230.741 189.64 232.841 191.229 232.716C191.555 232.689 194.524 232.172 198.58 222.289C200.953 216.507 202.356 210.68 202.371 210.623C202.811 208.776 204.667 207.637 206.516 208.077C208.366 208.516 209.506 210.369 209.066 212.216C209.006 212.473 207.543 218.554 204.978 224.824C201.084 234.342 196.769 239.165 191.783 239.568C191.547 239.586 191.307 239.598 191.068 239.598H191.074Z" fill="#FF0074"/>
<path d="M22.4785 212.024C23.0711 211.238 23.6098 210.414 24.0887 209.553C23.933 209.834 23.7774 210.115 23.6218 210.399C24.5376 208.734 25.2259 206.959 25.6748 205.115C25.6 205.429 25.5222 205.74 25.4474 206.053C25.7586 204.739 25.9472 203.403 26.007 202.055C26.0459 201.156 26.6624 200.148 27.3538 199.602C28.0451 199.055 29.0896 198.711 29.9605 198.843C30.8972 198.98 31.8459 199.398 32.4175 200.187C32.9862 200.973 33.2196 201.816 33.1777 202.79C33.073 205.211 32.5522 207.646 31.7352 209.926C30.9182 212.204 29.7181 214.397 28.2606 216.328C27.7129 217.054 26.836 217.589 25.9352 217.732C25.0523 217.873 23.9211 217.639 23.2148 217.063C22.5085 216.486 21.9159 215.676 21.8082 214.741C21.6974 213.781 21.883 212.813 22.4785 212.024Z" fill="#FF0074"/>
<path d="M18.4565 197.199C18.9234 198.335 19.4651 199.435 20.0846 200.492C19.8811 200.146 19.6805 199.799 19.477 199.455C20.6771 201.494 22.1436 203.361 23.8345 205.014C23.5472 204.733 23.2599 204.452 22.9726 204.174C24.1817 205.346 25.4955 206.398 26.9051 207.318C27.8448 207.931 28.5302 209.233 28.6768 210.318C28.8205 211.385 28.5242 212.742 27.8329 213.591C27.0877 214.502 26.0372 215.252 24.8281 215.36C23.619 215.467 22.5686 215.18 21.551 214.517C19.0191 212.864 16.7416 210.758 14.8173 208.43C12.8959 206.105 11.3068 203.427 10.1635 200.642C9.73257 199.596 9.71761 198.317 10.1396 197.262C10.5526 196.228 11.5223 195.167 12.5877 194.779C13.6531 194.39 14.9011 194.274 15.9725 194.755C17.0708 195.248 17.9926 196.061 18.4595 197.199H18.4565Z" fill="#FF0074"/>
<path d="M6.64107 207.96C7.71548 208.555 8.8258 209.075 9.97203 209.517C9.59793 209.374 9.22383 209.23 8.84674 209.087C11.0584 209.93 13.3718 210.473 15.7271 210.71C15.3291 210.671 14.9281 210.629 14.53 210.59C16.206 210.748 17.8909 210.751 19.5668 210.59C20.6861 210.482 22.0329 211.071 22.829 211.827C23.6101 212.571 24.2266 213.814 24.2176 214.908C24.2056 216.086 23.8525 217.326 22.9786 218.166C22.1047 219.002 21.1021 219.436 19.8931 219.552C16.8823 219.839 13.7848 219.615 10.828 218.999C7.87409 218.384 4.95914 217.284 2.31951 215.82C1.3289 215.27 0.517864 214.281 0.185666 213.196C-0.140546 212.132 -0.0447771 210.698 0.544799 209.732C1.13437 208.767 2.0352 207.894 3.17245 207.602C4.33963 207.3 5.56667 207.363 6.64107 207.96Z" fill="#FF0074"/>
<path d="M10.3161 198.996C11.157 199.892 12.0549 200.723 13.0126 201.497C12.6983 201.246 12.3871 200.995 12.0728 200.744C13.9224 202.22 15.9575 203.445 18.1302 204.387C17.7621 204.228 17.394 204.067 17.0259 203.909C18.5731 204.572 20.1773 205.086 21.8233 205.448C22.9216 205.687 24.026 206.658 24.5497 207.62C25.0645 208.567 25.2739 209.939 24.9268 210.979C24.5557 212.097 23.8404 213.17 22.751 213.701C21.6617 214.233 20.5753 214.338 19.3872 214.078C16.4333 213.433 13.5513 212.276 10.9236 210.788C8.29895 209.3 5.85984 207.363 3.79483 205.167C3.0197 204.342 2.54984 203.152 2.5648 202.017C2.57976 200.905 3.10948 199.569 3.96542 198.828C4.82135 198.087 5.94663 197.534 7.1198 197.6C8.32289 197.669 9.47212 198.102 10.3131 198.999L10.3161 198.996Z" fill="#FF0074"/>
<path d="M39.9267 244.365C39.6873 244.365 39.4509 244.356 39.2114 244.335C34.2255 243.931 29.9099 239.108 26.0163 229.59C23.4515 223.323 21.991 217.239 21.9282 216.985C21.4882 215.138 22.6315 213.285 24.478 212.846C26.3276 212.407 28.1831 213.545 28.623 215.392C28.638 215.449 30.0416 221.276 32.4149 227.059C36.4701 236.942 39.4419 237.459 39.7651 237.485C39.819 237.488 39.8728 237.491 39.9267 237.491C43.5749 237.491 50.5929 228.003 54.714 219.298C55.525 217.583 57.5781 216.848 59.2959 217.66C61.0138 218.47 61.75 220.52 60.936 222.236C60.8312 222.46 58.3113 227.755 54.6721 233.042C49.4347 240.65 44.6014 244.365 39.9207 244.365H39.9267Z" fill="#FF0074"/>
</g>
<g filter="url(#filter0_d_617_2313)">
<rect x="4" width="248" height="87" rx="38" fill="white"/>
<path d="M162 117.75L188.847 87H162L162 117.75Z" fill="white"/>
<path d="M53.836 30.952L53.836 55L51.316 55L39.688 35.704L39.472 35.704L39.472 55L37.024 55L37.024 30.952L39.544 30.952L51.172 50.284L51.388 50.284L51.388 30.952L53.836 30.952ZM59.3758 30.952L61.7158 30.952L61.7158 34.552L59.3758 34.552L59.3758 30.952ZM59.3758 38.116L61.7158 38.116L61.7158 55L59.3758 55L59.3758 38.116ZM79.963 46.216C79.963 46.576 79.951 46.828 79.927 46.972L68.371 46.972C68.419 49.06 68.839 50.644 69.631 51.724C70.447 52.804 71.587 53.344 73.051 53.344C75.091 53.344 76.483 52.456 77.227 50.68L79.711 50.68C79.231 52.168 78.415 53.332 77.263 54.172C76.111 55.012 74.707 55.432 73.051 55.432C70.891 55.432 69.175 54.64 67.903 53.056C66.655 51.472 66.031 49.3 66.031 46.54C66.031 43.78 66.655 41.62 67.903 40.06C69.151 38.476 70.879 37.684 73.087 37.684C75.199 37.684 76.867 38.452 78.091 39.988C79.339 41.5 79.963 43.576 79.963 46.216ZM73.087 39.772C71.719 39.772 70.639 40.216 69.847 41.104C69.079 41.992 68.611 43.3 68.443 45.028L77.623 45.028C77.503 43.3 77.047 41.992 76.255 41.104C75.487 40.216 74.431 39.772 73.087 39.772ZM96.5503 55.432C94.7023 55.432 93.3463 54.892 92.4823 53.812C91.6423 52.708 91.2223 51.196 91.2223 49.276L91.2223 38.116L93.5623 38.116L93.5623 49.096C93.5623 51.856 94.7503 53.236 97.1263 53.236C98.5423 53.236 99.6223 52.732 100.366 51.724C101.11 50.692 101.482 49.264 101.482 47.44L101.482 38.116L103.822 38.116L103.822 55L101.59 55L101.59 52.588L101.41 52.588C100.978 53.524 100.33 54.232 99.4663 54.712C98.6023 55.192 97.6303 55.432 96.5503 55.432ZM122.655 30.952L122.655 55L120.459 55L120.459 52.192L120.243 52.192C119.739 53.224 119.019 54.028 118.083 54.604C117.171 55.156 116.127 55.432 114.951 55.432C112.815 55.432 111.147 54.652 109.947 53.092C108.771 51.508 108.183 49.324 108.183 46.54C108.183 43.78 108.771 41.62 109.947 40.06C111.147 38.476 112.815 37.684 114.951 37.684C116.079 37.684 117.087 37.948 117.975 38.476C118.887 38.98 119.607 39.7 120.135 40.636L120.315 40.636L120.315 30.952L122.655 30.952ZM115.455 53.236C117.039 53.236 118.239 52.648 119.055 51.472C119.895 50.296 120.315 48.652 120.315 46.54C120.315 44.428 119.895 42.784 119.055 41.608C118.239 40.432 117.039 39.844 115.455 39.844C113.847 39.844 112.635 40.432 111.819 41.608C111.003 42.76 110.595 44.404 110.595 46.54C110.595 48.676 111.003 50.332 111.819 51.508C112.635 52.66 113.847 53.236 115.455 53.236ZM140.419 53.128C140.683 53.128 140.995 53.068 141.355 52.948L141.355 54.892C140.875 55.108 140.347 55.216 139.771 55.216C139.027 55.216 138.415 55 137.935 54.568C137.455 54.112 137.215 53.452 137.215 52.588L137.035 52.588C136.555 53.428 135.859 54.1 134.947 54.604C134.035 55.084 133.039 55.324 131.959 55.324C130.375 55.324 129.151 54.892 128.287 54.028C127.423 53.14 126.991 51.94 126.991 50.428C126.991 48.556 127.747 47.128 129.259 46.144C130.771 45.16 132.955 44.668 135.811 44.668L137.107 44.668L137.107 43.804C137.107 41.068 135.883 39.7 133.435 39.7C132.379 39.7 131.539 39.94 130.915 40.42C130.315 40.9 129.943 41.596 129.799 42.508L127.495 42.508C127.663 40.948 128.275 39.76 129.331 38.944C130.387 38.104 131.767 37.684 133.471 37.684C135.439 37.684 136.927 38.248 137.935 39.376C138.943 40.48 139.447 41.98 139.447 43.876L139.447 51.976C139.447 52.336 139.531 52.624 139.699 52.84C139.867 53.032 140.107 53.128 140.419 53.128ZM132.391 53.38C133.807 53.38 134.947 52.864 135.811 51.832C136.675 50.776 137.107 49.444 137.107 47.836L137.107 46.612L135.811 46.612C131.443 46.612 129.259 47.848 129.259 50.32C129.259 51.256 129.547 52 130.123 52.552C130.699 53.104 131.455 53.38 132.391 53.38ZM148.121 44.092L148.121 51.688C148.121 52.144 148.229 52.504 148.445 52.768C148.661 53.008 148.961 53.128 149.345 53.128C149.801 53.128 150.245 53.068 150.677 52.948L150.677 54.892C150.125 55.108 149.537 55.216 148.913 55.216C147.929 55.216 147.161 54.952 146.609 54.424C146.057 53.872 145.781 53.056 145.781 51.976L145.781 45.712L143.333 47.548L143.333 44.884L145.781 43.048L145.781 30.952L148.121 30.952L148.121 41.428L151.145 39.124L151.145 41.788L148.121 44.092ZM161.439 55.432C159.207 55.432 157.431 54.64 156.111 53.056C154.815 51.448 154.167 49.276 154.167 46.54C154.167 43.828 154.815 41.68 156.111 40.096C157.407 38.488 159.183 37.684 161.439 37.684C163.695 37.684 165.471 38.476 166.767 40.06C168.063 41.644 168.711 43.804 168.711 46.54C168.711 49.276 168.063 51.448 166.767 53.056C165.471 54.64 163.695 55.432 161.439 55.432ZM161.439 53.236C163.047 53.236 164.259 52.66 165.075 51.508C165.891 50.332 166.299 48.676 166.299 46.54C166.299 44.404 165.879 42.76 165.039 41.608C164.223 40.432 163.023 39.844 161.439 39.844C159.855 39.844 158.655 40.432 157.839 41.608C157.023 42.784 156.615 44.428 156.615 46.54C156.615 48.676 157.023 50.332 157.839 51.508C158.655 52.66 159.855 53.236 161.439 53.236ZM184.993 55.432C183.313 55.432 181.957 55.012 180.925 54.172C179.917 53.308 179.317 52.144 179.125 50.68L181.357 50.68C181.765 52.504 182.977 53.416 184.993 53.416C186.001 53.416 186.817 53.164 187.441 52.66C188.089 52.132 188.413 51.46 188.413 50.644C188.413 49.756 188.149 49.12 187.621 48.736C187.117 48.328 186.409 47.992 185.497 47.728L183.481 47.188C182.209 46.852 181.225 46.324 180.529 45.604C179.833 44.86 179.485 43.84 179.485 42.544C179.485 41.152 180.001 40 181.033 39.088C182.065 38.152 183.421 37.684 185.101 37.684C186.637 37.684 187.897 38.116 188.881 38.98C189.889 39.844 190.489 41.02 190.681 42.508L188.377 42.508C188.233 41.62 187.873 40.936 187.297 40.456C186.721 39.952 185.989 39.7 185.101 39.7C184.117 39.7 183.313 39.964 182.689 40.492C182.089 41.02 181.789 41.692 181.789 42.508C181.789 43.228 181.993 43.804 182.401 44.236C182.833 44.644 183.493 44.968 184.381 45.208L186.397 45.712C189.301 46.48 190.753 48.088 190.753 50.536C190.753 51.976 190.213 53.152 189.133 54.064C188.053 54.976 186.673 55.432 184.993 55.432ZM195.009 30.952L197.349 30.952L197.349 34.552L195.009 34.552L195.009 30.952ZM195.009 38.116L197.349 38.116L197.349 55L195.009 55L195.009 38.116ZM215.596 46.216C215.596 46.576 215.584 46.828 215.56 46.972L204.004 46.972C204.052 49.06 204.472 50.644 205.264 51.724C206.08 52.804 207.22 53.344 208.684 53.344C210.724 53.344 212.116 52.456 212.86 50.68L215.308 50.68C215.02 51.64 214.504 52.576 213.76 53.488C212.152 55.408 211.348 57.016 211.348 58.312C211.348 58.84 211.504 59.236 211.816 59.5C212.128 59.764 212.56 59.896 213.112 59.896C213.688 59.896 214.264 59.788 214.84 59.572L214.84 61.336C214.168 61.576 213.436 61.696 212.644 61.696C211.612 61.696 210.796 61.42 210.196 60.868C209.596 60.316 209.296 59.56 209.296 58.6C209.296 57.472 209.692 56.356 210.484 55.252C209.836 55.372 209.236 55.432 208.684 55.432C206.524 55.432 204.808 54.64 203.536 53.056C202.288 51.472 201.664 49.3 201.664 46.54C201.664 43.78 202.288 41.62 203.536 40.06C204.784 38.476 206.512 37.684 208.72 37.684C210.832 37.684 212.5 38.452 213.724 39.988C214.972 41.5 215.596 43.576 215.596 46.216ZM208.72 39.772C207.352 39.772 206.272 40.216 205.48 41.104C204.712 41.992 204.244 43.3 204.076 45.028L213.256 45.028C213.136 43.3 212.68 41.992 211.888 41.104C211.12 40.216 210.064 39.772 208.72 39.772ZM219.325 51.4L222.889 51.4L222.889 55L219.325 55L219.325 51.4Z" fill="#DE1274"/>
</g>
<defs>
<filter id="filter0_d_617_2313" x="0" y="0" width="256" height="125.75" filterUnits="userSpaceOnUse" color-interpolation-filters="sRGB">
<feFlood flood-opacity="0" result="BackgroundImageFix"/>
<feColorMatrix in="SourceAlpha" type="matrix" values="0 0 0 0 0 0 0 0 0 0 0 0 0 0 0 0 0 0 127 0" result="hardAlpha"/>
<feOffset dy="4"/>
<feGaussianBlur stdDeviation="2"/>
<feComposite in2="hardAlpha" operator="out"/>
<feColorMatrix type="matrix" values="0 0 0 0 0 0 0 0 0 0 0 0 0 0 0 0 0 0 0.25 0"/>
<feBlend mode="normal" in2="BackgroundImageFix" result="effect1_dropShadow_617_2313"/>
<feBlend mode="normal" in="SourceGraphic" in2="effect1_dropShadow_617_2313" result="shape"/>
</filter>
<clipPath id="clip0_617_2313">
<rect width="231" height="183" fill="white" transform="translate(0 136)"/>
</clipPath>
</defs>
</svg>
