<svg width="228" height="362" viewBox="0 0 228 362" fill="none" xmlns="http://www.w3.org/2000/svg">
<path d="M82.6409 352.411C80.8173 351.858 79.486 350.161 79.4814 348.149C79.4814 346.85 79.5498 316.129 91.2577 293.968C92.4066 291.791 95.1011 290.959 97.2712 292.116C99.4414 293.268 100.271 295.971 99.1177 298.147C88.463 318.314 88.3763 347.838 88.3763 348.131C88.3763 350.596 86.3931 352.594 83.9357 352.599C83.4844 352.599 83.0513 352.535 82.6409 352.406V352.411Z" fill="#FF0074"/>
<path d="M97.271 292.116C95.1008 290.959 92.4064 291.791 91.2574 293.968C89.0326 298.179 87.2317 302.698 85.7637 307.266L94.0659 310.549C95.4063 306.251 97.0658 302.025 99.1129 298.147C100.262 295.971 99.4366 293.268 97.2664 292.116H97.271Z" fill="#C92E2E"/>
<path d="M180.744 343.727C182.445 342.863 183.457 340.956 183.111 338.976C182.887 337.7 177.453 307.463 162.061 287.703C160.547 285.759 157.748 285.416 155.815 286.935C153.877 288.453 153.535 291.256 155.049 293.2C169.059 311.181 174.298 340.233 174.348 340.526C174.776 342.954 177.083 344.573 179.5 344.148C179.942 344.07 180.361 343.928 180.744 343.732V343.727Z" fill="#FF0074"/>
<path d="M155.815 286.935C157.748 285.416 160.547 285.759 162.061 287.703C164.988 291.457 167.55 295.591 169.789 299.831L162.184 304.523C160.114 300.526 157.743 296.657 155.049 293.2C153.535 291.256 153.877 288.453 155.815 286.935Z" fill="#C92E2E"/>
<path d="M184.455 115.683L36.1783 129.228C33.5796 129.466 31.6967 132.137 31.9703 135.196L46.4957 295.202C46.7738 298.262 49.1081 300.548 51.7068 300.31L199.984 286.765C202.583 286.527 204.466 283.857 204.192 280.797L189.667 120.791C189.388 117.732 187.054 115.445 184.455 115.683ZM132.705 143.592C132.987 146.798 131.259 149.597 128.866 149.807L97.2208 152.606C94.8272 152.816 92.6388 150.37 92.3562 147.164C92.0735 143.958 93.8014 141.159 96.195 140.949L106.084 140.076C105.724 135.978 108.263 132.407 111.76 132.096C115.257 131.785 118.38 134.858 118.74 138.955L127.835 138.15C130.229 137.94 132.417 140.387 132.7 143.592H132.705Z" fill="#FF0074"/>
<path d="M76.4811 343.105C79.4582 341.504 90.3044 341.298 91.4579 342.981C92.6114 344.664 90.9108 359.129 89.844 360.473C88.7771 361.813 68.5938 362.691 68.3567 361.287C68.1151 359.883 75.7334 355.53 76.4674 353.092C77.2014 350.65 74.9036 343.96 76.4857 343.109L76.4811 343.105Z" fill="#C92E2E"/>
<path d="M173.723 155.409C171.293 152.583 168.845 152.633 165.38 152.894C162.499 153.109 159.622 153.324 156.74 153.543C150.367 154.023 143.979 154.403 137.619 155.007C131.816 155.56 126.03 156.2 120.199 156.461C117.395 156.584 114.637 156.575 111.837 156.365C109.12 156.159 106.544 155.944 104.183 157.513C103.389 158.038 102.874 159.388 103.33 160.293C105.765 165.122 112.179 165.41 116.953 165.781C122.292 166.197 127.63 165.977 132.969 165.726C138.741 165.456 144.499 165.072 150.266 164.66C153.148 164.454 156.025 164.253 158.906 164.047C160.552 163.929 162.198 163.814 163.844 163.7C164.669 163.64 165.489 163.581 166.31 163.526C167.272 163.736 167.669 163.686 167.514 163.38C167.751 163.467 168.002 163.535 168.271 163.586C169.729 163.86 171.325 163.613 172.497 162.639C174.489 160.988 175.656 157.659 173.723 155.409Z" fill="#FD8279"/>
<path d="M93.1723 158.871C92.876 157.947 92.1192 157.252 91.2894 156.818C90.9475 156.621 90.5873 156.521 90.2089 156.512C89.6572 156.415 89.1147 156.461 88.5904 156.653C87.7424 156.859 87.0859 157.472 86.63 158.185C86.0738 159.054 85.9187 159.969 86.1467 160.975C86.2105 161.464 86.3975 161.908 86.7029 162.31C87.0768 162.836 87.5555 163.238 88.1391 163.517C89.0554 163.906 90.0539 163.993 91.0068 163.641C91.8775 163.316 92.6572 162.594 93.0584 161.752C93.4915 160.833 93.4824 159.827 93.1815 158.876L93.1723 158.871Z" fill="#FD8279"/>
<path d="M123.5 233.997C119.611 234.34 116.429 236.855 115.043 240.244C114.135 242.453 115.927 244.835 118.302 244.625L130.475 243.546C132.846 243.335 134.196 240.674 132.919 238.657C130.959 235.566 127.389 233.65 123.5 233.993V233.997Z" fill="#170C35"/>
<path d="M96.0582 235.766C96.6326 242.306 91.8136 248.077 85.294 248.653C78.7745 249.229 73.0208 244.396 72.4464 237.856C71.8719 231.317 76.6909 225.546 83.2105 224.969C89.7301 224.393 95.4837 229.227 96.0582 235.766Z" fill="#FD8FB3"/>
<path d="M151.393 230.869C151.967 237.408 157.721 242.246 164.24 241.666C170.76 241.085 175.583 235.318 175.004 228.779C174.43 222.239 168.676 217.401 162.157 217.982C155.637 218.563 150.818 224.329 151.393 230.869Z" fill="#FD8FB3"/>
<path d="M114.477 212.833C116.055 224.028 107.128 234.55 94.5312 236.338C81.9343 238.127 72.009 230.165 68.8678 219.308C65.3208 207.048 65.3299 199.365 86.3384 196.539C107.347 193.713 112.895 201.638 114.477 212.833Z" fill="#170C35"/>
<path d="M131.875 204.862L126.058 205.69C125.898 204.57 122.862 202.896 118.38 203.532C113.898 204.167 111.441 206.618 111.601 207.743L105.783 208.571C105.409 205.914 106.654 203.202 109.202 201.131C111.363 199.375 114.331 198.154 117.559 197.696C120.787 197.239 123.974 197.582 126.536 198.67C129.559 199.951 131.506 202.21 131.88 204.867L131.875 204.862Z" fill="#170C35"/>
<path d="M124.695 211.379C126.272 222.574 137.766 230.197 150.358 228.409C162.955 226.621 170.286 216.208 170.304 204.904C170.323 192.14 168.184 184.759 147.217 187.897C126.582 190.983 123.113 200.189 124.695 211.384V211.379Z" fill="#170C35"/>
<path d="M185.08 331.324C181.93 330.103 171.143 331.238 170.204 333.048C169.265 334.859 172.73 349.008 173.956 350.207C175.182 351.405 195.316 349.786 195.384 348.359C195.452 346.937 187.355 343.557 186.33 341.225C185.299 338.893 186.763 331.969 185.085 331.32L185.08 331.324Z" fill="#C92E2E"/>
<path d="M201.297 249.454L199.327 241.465L200.312 245.461L199.318 241.469C199.492 241.423 216.762 236.892 217.924 222.807L226.103 223.488C224.448 243.495 202.241 249.221 201.297 249.454Z" fill="#FF0074"/>
<path d="M43.5915 269.392C42.6477 269.159 20.4401 263.429 18.7852 243.427L26.9643 242.745C28.1314 256.826 45.3969 261.362 45.5701 261.408L43.5915 269.397V269.392Z" fill="#FF0074"/>
<path d="M208.332 202.013C209.814 202.799 211.227 203.696 212.558 204.72L211.774 204.112C213.438 205.406 214.938 206.892 216.233 208.557L215.626 207.77C216.885 209.412 217.929 211.205 218.736 213.107L218.344 212.179C219.237 214.314 219.83 216.56 220.14 218.855L220.003 217.822C220.295 220.058 220.345 222.34 220.049 224.576L220.186 223.543C220.104 224.151 220.021 224.8 219.794 225.372C219.442 226.245 219.73 227.594 220.186 228.367C220.642 229.14 221.576 229.945 222.502 230.155C223.496 230.384 224.608 230.334 225.488 229.762C226.368 229.19 226.869 228.431 227.271 227.439C227.722 226.318 227.781 224.942 227.891 223.771C228.055 222.038 228.027 220.287 227.845 218.558C227.576 215.997 227.102 213.473 226.199 211.054C225.037 207.944 223.464 205.196 221.376 202.616C218.914 199.575 215.686 197.115 212.248 195.286C210.456 194.335 207.949 194.774 206.941 196.681C205.993 198.478 206.417 200.984 208.332 202.004V202.013Z" fill="#FF0074"/>
<path d="M223.354 220.488C222.128 215.81 221.284 210.181 216.876 207.368C214.528 205.868 211.473 205.576 208.915 206.655C206.969 207.478 205.305 209.051 205.273 211.324C205.25 213.236 206.577 214.699 207.757 216.043C209.504 218.028 211.614 219.734 213.867 221.11C215.435 222.066 217.509 221.577 218.599 220.164C219.078 219.542 219.424 218.741 219.388 217.932C219.342 216.894 218.95 216.139 218.312 215.33C216.671 213.254 214.386 211.822 211.929 210.908C210.096 210.226 208.108 210.162 206.335 211.05C204.411 212.015 203.185 214.146 203.472 216.29C203.704 218.014 204.762 219.318 205.879 220.584C206.558 221.357 207.306 222.066 208.108 222.711C210.128 224.334 212.23 225.555 214.633 226.511C217.035 227.467 219.716 227.947 222.328 228.043C224.248 228.116 226.085 226.301 225.999 224.362C225.907 222.304 224.389 220.758 222.328 220.68C221.672 220.658 221.02 220.603 220.363 220.52L221.339 220.653C219.593 220.415 217.892 219.958 216.26 219.281L217.136 219.652C215.595 218.998 214.149 218.161 212.818 217.141L213.561 217.717C212.344 216.766 211.25 215.678 210.301 214.452L210.876 215.197C210.693 214.96 210.525 214.722 210.388 214.457L210.757 215.335C210.684 215.156 210.639 215.01 210.611 214.822L210.744 215.801C210.735 215.691 210.739 215.577 210.757 215.467L210.625 216.446C210.643 216.345 210.675 216.249 210.716 216.158L210.347 217.036C210.42 216.889 210.493 216.775 210.593 216.647L210.019 217.392C210.128 217.269 210.238 217.168 210.365 217.068L209.622 217.644C209.759 217.553 209.887 217.475 210.037 217.402L209.162 217.772C209.335 217.703 209.485 217.662 209.668 217.626L208.692 217.758C208.975 217.722 209.239 217.722 209.526 217.749L208.551 217.617C209.194 217.713 209.8 217.923 210.402 218.17L209.526 217.799C210.406 218.179 211.227 218.655 211.988 219.235L211.245 218.659C211.947 219.213 212.572 219.834 213.123 220.534C214.605 218.609 216.087 216.684 217.569 214.754C216.798 214.283 216.06 213.775 215.344 213.222L216.087 213.798C214.569 212.609 213.21 211.246 212.025 209.723L212.599 210.469C212.44 210.263 212.298 210.062 212.184 209.829L212.554 210.707L212.499 210.528L212.631 211.507L212.613 211.319L212.481 212.298C212.481 212.179 212.508 212.069 212.563 211.964L212.193 212.842L212.275 212.71L211.701 213.455C211.806 213.327 211.911 213.226 212.043 213.117L211.3 213.693C211.578 213.492 211.87 213.332 212.184 213.19L211.309 213.56C211.674 213.414 212.038 213.318 212.421 213.254L211.446 213.386C211.883 213.332 212.312 213.336 212.75 213.386L211.774 213.254C212.262 213.322 212.731 213.45 213.187 213.638L212.312 213.268C212.759 213.464 213.178 213.702 213.57 213.995L212.827 213.418C213.228 213.739 213.575 214.1 213.894 214.502L213.32 213.757C213.798 214.397 214.177 215.088 214.496 215.819L214.127 214.941C215.12 217.328 215.626 219.94 216.278 222.432C216.766 224.293 218.923 225.61 220.792 225.002C222.661 224.394 223.879 222.473 223.354 220.475V220.488Z" fill="#FF0074"/>
<path d="M20.1716 212.046C17.6322 215.014 15.6399 218.224 14.2584 221.887C13.1961 224.713 12.6627 227.777 12.5898 230.791C12.4758 235.583 13.6247 240.339 15.6626 244.656C16.2553 245.914 16.9666 247.208 17.924 248.232C19.3191 249.719 22.0181 249.746 23.4086 248.232C24.863 246.641 24.8949 244.318 23.4086 242.731C23.3494 242.667 23.2947 242.598 23.2399 242.53L23.8463 243.316C23.0302 242.251 22.4467 240.984 21.9269 239.759L22.319 240.687C21.3889 238.464 20.7552 236.128 20.427 233.736L20.5637 234.769C20.2765 232.588 20.2628 230.384 20.5455 228.202L20.4087 229.236C20.6914 227.132 21.2522 225.088 22.0637 223.131L21.6716 224.059C22.5743 221.919 23.7688 219.925 25.1776 218.082L24.5712 218.869C24.9223 218.416 25.2824 217.973 25.6563 217.543C26.3356 216.747 26.7915 215.869 26.7915 214.794C26.7915 213.839 26.3675 212.7 25.6563 212.046C24.2065 210.711 21.585 210.4 20.1716 212.046Z" fill="#FF0074"/>
<path d="M25.9982 239.521C25.8203 237.98 25.6334 236.443 25.4602 234.902C25.3006 233.484 25.1912 232.057 25.369 230.635L25.2368 231.614C25.3325 230.955 25.4875 230.32 25.7337 229.698L25.3644 230.576C25.5559 230.132 25.7976 229.721 26.0848 229.332L25.5103 230.077C25.8158 229.693 26.1577 229.35 26.5453 229.044L25.8021 229.62C26.1532 229.359 26.5225 229.14 26.9237 228.957L26.0483 229.327C26.4586 229.158 26.869 229.044 27.3066 228.98L26.331 229.112C26.7276 229.071 27.106 229.071 27.5027 229.122L26.527 228.989C26.8051 229.035 27.065 229.094 27.3249 229.204L26.4495 228.834C26.5453 228.879 26.6319 228.934 26.7094 229.003L25.9662 228.426L26.0711 228.541L25.4966 227.795L25.5787 227.937L25.2094 227.059L25.2596 227.21L25.1274 226.231C25.1502 226.405 25.1456 226.542 25.1274 226.716L25.2596 225.738C25.0499 226.734 24.6623 227.713 24.2748 228.655L24.6441 227.777C23.869 229.597 22.8797 231.303 21.6852 232.881L28.3917 235.716C28.4966 235.364 28.6197 235.021 28.7564 234.682L28.3871 235.56C28.7701 234.655 29.2625 233.818 29.8598 233.041L29.2853 233.786C29.8278 233.105 30.4296 232.497 31.109 231.948L30.3658 232.524C30.6667 232.291 30.9767 232.09 31.3232 231.929L30.4479 232.3C30.6895 232.204 30.9266 232.135 31.1865 232.094L30.2108 232.227C30.3749 232.213 30.5208 232.213 30.6804 232.227L29.7047 232.094C29.919 232.126 30.1151 232.181 30.3202 232.259L29.4449 231.888C29.5908 231.961 29.7139 232.035 29.8461 232.131L29.1029 231.554C29.1804 231.618 29.2534 231.692 29.3172 231.769L28.7428 231.024C28.8066 231.102 28.8567 231.189 28.9023 231.28L28.533 230.402C28.5832 230.512 28.6197 230.631 28.6333 230.75L28.5011 229.771C28.5194 229.958 28.5148 230.119 28.492 230.306L28.6242 229.327C28.4647 230.21 28.1364 231.07 27.799 231.897L28.1683 231.019C27.5391 232.51 26.7276 233.9 25.7474 235.185L26.3219 234.44C25.2824 235.78 24.0879 236.974 22.7475 238.012L23.4906 237.435C22.1594 238.451 20.7232 239.297 19.1913 239.969C18.4072 240.312 17.7233 241.377 17.5045 242.168C17.2628 243.051 17.3722 244.222 17.8738 245.004C18.3753 245.786 19.1321 246.481 20.0667 246.696C21.0925 246.929 21.9405 246.742 22.8934 246.325C27.0923 244.492 30.7032 241.281 33.1287 237.394C33.6575 236.548 34.1134 235.656 34.501 234.737C35.0435 233.461 35.5769 232.186 35.7638 230.8C36.1149 228.184 34.6469 226.007 32.1986 225.138C30.4707 224.526 28.3644 224.951 26.8917 226.003C24.2201 227.914 22.2824 230.608 21.3205 233.763C20.7825 235.519 21.8174 237.417 23.445 238.103C24.1745 238.409 25.059 238.537 25.834 238.291C26.8051 237.975 27.416 237.408 28.027 236.599C29.4859 234.678 30.5619 232.579 31.4691 230.343C31.9478 229.158 32.3946 227.923 32.4858 226.638C32.6499 224.329 30.8536 222.349 28.6607 221.924C25.8021 221.37 22.9663 222.235 20.8737 224.27C18.854 226.231 18.0379 228.98 17.9513 231.737C17.8692 234.326 18.3707 236.96 18.667 239.525C18.7856 240.531 18.9999 241.382 19.743 242.127C20.3813 242.768 21.4253 243.248 22.3372 243.207C23.249 243.165 24.2702 242.85 24.9313 242.127C25.5468 241.455 26.1167 240.472 26.0073 239.525L25.9982 239.521Z" fill="#FF0074"/>
<path d="M201.247 249.811L202.063 240.587L207.065 238.364L208.446 246.673L201.247 249.811Z" fill="#C92E2E"/>
<path d="M57.7066 269.104C55.4134 269.104 53.2204 268.299 51.4515 266.794L42.9304 259.546C40.9563 257.868 39.7527 255.517 39.543 252.929C39.3333 250.341 40.1357 247.825 41.8135 245.845L42.1919 245.397C43.8651 243.417 46.2085 242.21 48.7889 241.995C51.3649 241.784 53.877 242.589 55.8511 244.272L64.3721 251.52C68.448 254.987 68.9495 261.133 65.4937 265.221L65.1153 265.669C63.442 267.649 61.0986 268.857 58.5182 269.067C58.2492 269.09 57.9802 269.099 57.7112 269.099L57.7066 269.104ZM49.5822 250.194C49.1628 250.194 48.7434 250.373 48.447 250.72L48.0686 251.168C47.7221 251.58 47.7039 252.023 47.7221 252.252C47.7403 252.481 47.8315 252.92 48.2419 253.267L56.7629 260.516C57.1732 260.863 57.62 260.881 57.8434 260.863C58.0714 260.845 58.5091 260.753 58.8555 260.342L59.2385 259.889C59.7674 259.263 59.6899 258.325 59.0653 257.795L50.5442 250.546C50.2661 250.309 49.9242 250.194 49.5868 250.194H49.5822Z" fill="#FF931E"/>
<path d="M79.0389 280.852C77.3977 280.852 75.7792 280.431 74.3066 279.603L64.5637 274.116C62.3069 272.844 60.6793 270.768 59.9772 268.267C59.2751 265.765 59.5896 263.145 60.8571 260.881L61.1443 260.369C63.7613 255.695 69.679 254.026 74.3385 256.651L84.0814 262.139C86.3381 263.41 87.9658 265.486 88.6679 267.988C89.37 270.489 89.0554 273.11 87.788 275.373L87.5007 275.885C86.2333 278.149 84.1634 279.782 81.6696 280.486C80.7988 280.733 79.9143 280.852 79.0344 280.852H79.0389ZM69.6015 263.639C69.0818 263.639 68.5757 263.913 68.3067 264.398L68.0195 264.91C67.7551 265.381 67.8234 265.82 67.8827 266.044C67.9465 266.264 68.1198 266.675 68.5848 266.941L78.3277 272.428C78.7928 272.689 79.235 272.625 79.4538 272.565C79.6727 272.501 80.083 272.328 80.3474 271.861L80.6347 271.349C80.8945 270.883 80.8307 270.439 80.7669 270.219C80.703 270 80.5298 269.588 80.0648 269.323L70.3219 263.836C70.0939 263.707 69.8432 263.643 69.597 263.643L69.6015 263.639Z" fill="#FF931E"/>
<path d="M102.022 283.139C101.315 283.139 100.604 283.061 99.9017 282.905L88.9962 280.472C83.7805 279.311 80.4797 274.107 81.6377 268.875L81.7654 268.299C82.9234 263.067 88.1072 259.752 93.3274 260.918L104.233 263.351C109.449 264.513 112.749 269.717 111.591 274.948L111.464 275.524C110.903 278.058 109.389 280.221 107.205 281.616C105.633 282.622 103.845 283.139 102.022 283.139ZM91.221 268.921C90.5417 268.921 89.9263 269.392 89.7712 270.087L89.6436 270.663C89.4658 271.464 89.9718 272.259 90.7697 272.438L101.675 274.87C102.199 274.985 102.601 274.797 102.792 274.674C102.984 274.55 103.33 274.267 103.444 273.741L103.572 273.165C103.75 272.364 103.244 271.569 102.446 271.39L91.5402 268.958C91.4308 268.935 91.3259 268.921 91.2165 268.921H91.221Z" fill="#FF931E"/>
<path d="M153.084 283.281C149.373 283.281 145.821 281.131 144.217 277.514L143.975 276.975C142.922 274.606 142.853 271.962 143.783 269.539C144.714 267.115 146.524 265.199 148.89 264.143L159.098 259.583C163.976 257.402 169.716 259.611 171.891 264.508L172.128 265.048C174.302 269.941 172.096 275.699 167.217 277.88L157.01 282.439C155.733 283.011 154.397 283.281 153.084 283.281ZM163.037 266.978C162.836 266.978 162.631 267.019 162.435 267.106L152.227 271.665C151.739 271.885 151.525 272.278 151.447 272.493C151.365 272.708 151.26 273.142 151.475 273.632L151.716 274.171C152.049 274.921 152.929 275.26 153.677 274.926L163.885 270.366C164.632 270.033 164.97 269.15 164.637 268.4L164.4 267.86C164.154 267.307 163.611 266.978 163.041 266.978H163.037Z" fill="#FF931E"/>
<path d="M173.609 272.786C173.368 272.786 173.126 272.777 172.88 272.758C170.299 272.566 167.947 271.382 166.255 269.416L165.872 268.972C164.181 267.006 163.356 264.495 163.543 261.907C163.734 259.318 164.915 256.959 166.875 255.262L175.337 247.941C177.298 246.244 179.796 245.416 182.381 245.608C184.961 245.8 187.314 246.985 189.005 248.951L189.388 249.399C192.881 253.456 192.425 259.606 188.381 263.109L179.919 270.431C178.146 271.967 175.925 272.79 173.605 272.79L173.609 272.786ZM181.67 253.808C181.424 253.808 181.045 253.867 180.699 254.169L172.237 261.49C171.831 261.843 171.745 262.277 171.726 262.51C171.708 262.743 171.735 263.187 172.082 263.594L172.465 264.038C172.816 264.445 173.254 264.536 173.482 264.55C173.714 264.568 174.156 264.541 174.558 264.193L183.019 256.872C183.639 256.337 183.708 255.395 183.174 254.773L182.791 254.325C182.44 253.918 182.007 253.831 181.775 253.812C181.743 253.812 181.706 253.812 181.665 253.812L181.67 253.808Z" fill="#FF931E"/>
<path d="M189.99 254.955C187.824 254.955 185.741 254.233 184.013 252.87L183.553 252.504C179.354 249.189 178.629 243.066 181.934 238.854L188.846 230.051C192.151 225.839 198.256 225.112 202.455 228.427L202.915 228.793C204.949 230.398 206.239 232.703 206.544 235.282C206.85 237.861 206.134 240.404 204.534 242.444L197.622 251.247C196.022 253.286 193.724 254.58 191.153 254.887C190.765 254.933 190.373 254.955 189.99 254.955ZM196.464 234.578C196.026 234.578 195.589 234.775 195.297 235.145L188.385 243.948C187.879 244.593 187.989 245.53 188.631 246.038L189.092 246.404C189.511 246.733 189.958 246.738 190.186 246.71C190.414 246.683 190.847 246.573 191.175 246.152L198.087 237.349C198.42 236.928 198.425 236.48 198.397 236.252C198.37 236.023 198.26 235.589 197.841 235.259L197.38 234.893C197.111 234.679 196.788 234.573 196.464 234.573V234.578Z" fill="#FF931E"/>
<path d="M126.96 293.245C137.435 293.245 145.926 284.728 145.926 274.221C145.926 263.715 137.435 255.197 126.96 255.197C116.486 255.197 107.994 263.715 107.994 274.221C107.994 284.728 116.486 293.245 126.96 293.245Z" fill="#FF931E"/>
<path d="M113.975 275.457C112.982 275.457 112.106 274.734 111.951 273.714C111.919 273.504 111.208 268.551 114.349 264.321C116.547 261.362 119.998 259.538 124.607 258.898C125.729 258.737 126.764 259.529 126.923 260.654C127.083 261.779 126.294 262.817 125.173 262.977C121.712 263.457 119.187 264.728 117.668 266.749C115.544 269.576 116.004 273.074 116.009 273.111C116.168 274.231 115.393 275.274 114.276 275.438C114.176 275.452 114.071 275.461 113.975 275.461V275.457Z" fill="#FFDC78"/>
<path d="M129.076 289.349C128.068 289.349 127.188 288.604 127.047 287.575C126.892 286.45 127.676 285.412 128.798 285.252C132.281 284.767 134.816 283.487 136.329 281.442C138.427 278.621 137.971 275.164 137.961 275.127C137.788 274.002 138.559 272.955 139.68 272.781C140.797 272.612 141.846 273.38 142.019 274.505C142.051 274.716 142.762 279.668 139.621 283.898C137.423 286.857 133.972 288.682 129.363 289.322C129.267 289.336 129.171 289.34 129.08 289.34L129.076 289.349Z" fill="#FFDC78"/>
<path d="M131.373 263.977L117.536 269.529C116.246 270.046 115.617 271.518 116.132 272.812L116.848 274.61C117.363 275.904 118.831 276.535 120.121 276.018L121.945 275.286C123.235 274.77 123.709 275.794 124.229 277.093L126.568 282.96C127.083 284.254 128.551 284.885 129.841 284.368L131.674 283.632C132.964 283.115 133.594 281.643 133.078 280.349L130.74 274.482C130.224 273.187 130.849 271.715 132.144 271.198L133.967 270.466C135.258 269.95 135.887 268.477 135.372 267.183L134.656 265.386C134.141 264.092 132.673 263.461 131.382 263.977H131.373Z" fill="#C92E2E"/>
<path d="M13.8933 163.581L4 174.09C4 174.09 9.35244 185.651 21.9266 178.645C34.5007 171.639 30.6573 164.285 30.6573 164.285L13.8933 163.586V163.581Z" fill="#4400AF"/>
<path d="M87.578 121.55L21.9263 168.488C21.9263 168.488 11.0984 150.973 9.3522 135.21C7.60604 119.447 34.1494 103.336 44.9728 100.533C55.7962 97.7295 72.5602 95.978 87.578 121.55Z" fill="#4400AF"/>
<path d="M87.5783 121.55C87.5783 121.55 55.2175 146.071 36.1283 154.01C17.0392 161.949 16.5741 159.145 16.5741 159.145L4 174.09C4 174.09 9.11992 168.484 18.4343 170.354C27.7486 172.224 46.3727 174.557 61.737 157.275C77.1014 139.994 87.5783 121.546 87.5783 121.546V121.55Z" fill="#7800FF"/>
<path d="M55.2172 249.947C54.8342 249.947 54.4467 249.81 54.1412 249.527C50.0106 245.731 47.0608 248.53 46.5092 249.129C45.9165 249.778 44.9089 249.824 44.2615 249.234C43.6141 248.644 43.5549 247.643 44.1384 246.989C44.2251 246.888 46.3314 244.56 49.6276 244.396C51.9255 244.277 54.1731 245.21 56.3022 247.167C56.9496 247.766 56.9952 248.777 56.398 249.426C56.0834 249.769 55.6548 249.947 55.2217 249.947H55.2172Z" fill="#FFDC78"/>
<path d="M74.9354 263.826C74.5525 263.826 74.1649 263.689 73.8595 263.406C69.7289 259.61 66.7791 262.409 66.2275 263.008C65.6348 263.657 64.6272 263.703 63.9798 263.113C63.3324 262.523 63.2731 261.522 63.8567 260.868C63.9433 260.767 66.0496 258.439 69.3459 258.275C71.6483 258.156 73.8914 259.089 76.0205 261.046C76.6679 261.645 76.7135 262.656 76.1162 263.305C75.8017 263.648 75.3731 263.826 74.94 263.826H74.9354Z" fill="#FFDC78"/>
<path d="M86.566 269.365C86.338 269.365 86.1055 269.314 85.8821 269.209C85.0888 268.83 84.7515 267.888 85.1207 267.092C85.1755 266.973 86.5295 264.133 89.6389 263.026C91.809 262.254 94.2254 262.501 96.8241 263.763C97.6174 264.147 97.9502 265.107 97.5627 265.903C97.1797 266.699 96.2268 267.032 95.429 266.644C90.3911 264.193 88.3577 267.723 88.0021 268.455C87.724 269.026 87.1541 269.36 86.5614 269.36L86.566 269.365Z" fill="#FFDC78"/>
<path d="M148.347 274.825C147.558 274.825 146.875 274.24 146.77 273.435C146.751 273.302 146.364 270.183 148.388 267.568C149.802 265.743 151.972 264.646 154.835 264.303C155.71 264.197 156.504 264.824 156.608 265.702C156.713 266.58 156.089 267.376 155.213 267.481C153.225 267.719 151.78 268.409 150.909 269.53C149.715 271.075 149.929 272.991 149.934 273.01C150.048 273.888 149.437 274.692 148.561 274.807C148.489 274.816 148.42 274.821 148.347 274.821V274.825Z" fill="#FFDC78"/>
<path d="M168.781 267.256C168.271 267.256 167.769 267.009 167.459 266.547C167.386 266.438 165.663 263.808 166.328 260.566C166.793 258.302 168.252 256.354 170.673 254.781C171.412 254.301 172.401 254.511 172.88 255.252C173.359 255.993 173.149 256.985 172.41 257.465C167.714 260.525 169.675 264.092 170.117 264.778C170.591 265.514 170.391 266.506 169.657 266.991C169.383 267.169 169.078 267.256 168.777 267.256H168.781Z" fill="#FFDC78"/>
<path d="M185.244 249.344C184.779 249.344 184.319 249.143 184.009 248.75C183.927 248.645 181.98 246.18 182.363 242.892C182.627 240.596 183.913 238.529 186.188 236.746C186.881 236.202 187.884 236.325 188.426 237.02C188.969 237.715 188.846 238.721 188.153 239.265C183.74 242.727 186.006 246.107 186.503 246.752C187.041 247.447 186.927 248.448 186.238 248.997C185.942 249.23 185.595 249.344 185.244 249.344Z" fill="#FFDC78"/>
<path d="M74.9997 216.765C73.787 216.765 72.7247 215.887 72.5286 214.648C71.9177 210.752 72.9526 202.95 81.264 201.281C89.9309 199.539 95.7438 201.267 95.99 201.341C97.3167 201.743 98.0599 203.151 97.6586 204.478C97.2574 205.808 95.8578 206.554 94.5311 206.151C94.4946 206.142 89.5935 204.738 82.2487 206.211C76.6911 207.327 77.3887 213.208 77.4844 213.875C77.685 215.243 76.7458 216.528 75.3827 216.733C75.255 216.752 75.1273 216.761 74.9997 216.761V216.765Z" fill="#4400AF"/>
<path d="M141.226 198.922C140.236 198.922 139.302 198.332 138.905 197.362C138.381 196.077 138.992 194.609 140.273 194.079C148.452 190.713 154.488 191.298 154.739 191.321C156.116 191.463 157.119 192.702 156.973 194.083C156.832 195.464 155.596 196.466 154.219 196.324C154.183 196.324 149.104 195.881 142.174 198.73C141.864 198.858 141.54 198.917 141.226 198.917V198.922Z" fill="#4400AF"/>
<path d="M160.702 216.971C160.215 216.971 159.718 216.83 159.285 216.528C158.145 215.741 157.853 214.177 158.637 213.029C158.66 212.997 161.468 208.735 162.284 201.268C162.435 199.887 163.675 198.89 165.052 199.04C166.429 199.191 167.423 200.435 167.272 201.816C166.31 210.629 162.918 215.668 162.777 215.878C162.289 216.587 161.505 216.971 160.707 216.971H160.702Z" fill="#4400AF"/>
<path d="M44.2753 269.831L43.4592 260.608L38.4533 258.39L36.8257 266.914L44.2753 269.831Z" fill="#C92E2E"/>
<g filter="url(#filter0_d_614_2309)">
<rect width="179" height="88.9886" rx="38" transform="matrix(-1 0 0 1 183 0)" fill="white"/>
<path d="M116.003 109.445L75.7568 88.9882H103.217L116.003 109.445Z" fill="white"/>
</g>
<path d="M35.756 31.952L52.316 31.952L52.316 34.256L45.26 34.256L45.26 56L42.812 56L42.812 34.256L35.756 34.256L35.756 31.952ZM64.673 54.128C64.937 54.128 65.249 54.068 65.609 53.948L65.609 55.892C65.129 56.108 64.601 56.216 64.025 56.216C63.281 56.216 62.669 56 62.189 55.568C61.709 55.112 61.469 54.452 61.469 53.588L61.289 53.588C60.809 54.428 60.113 55.1 59.201 55.604C58.289 56.084 57.293 56.324 56.213 56.324C54.629 56.324 53.405 55.892 52.541 55.028C51.677 54.14 51.245 52.94 51.245 51.428C51.245 49.556 52.001 48.128 53.513 47.144C55.025 46.16 57.209 45.668 60.065 45.668L61.361 45.668L61.361 44.804C61.361 42.068 60.137 40.7 57.689 40.7C56.633 40.7 55.793 40.94 55.169 41.42C54.569 41.9 54.197 42.596 54.053 43.508L51.749 43.508C51.917 41.948 52.529 40.76 53.585 39.944C54.641 39.104 56.021 38.684 57.725 38.684C59.693 38.684 61.181 39.248 62.189 40.376C63.197 41.48 63.701 42.98 63.701 44.876L63.701 52.976C63.701 53.336 63.785 53.624 63.953 53.84C64.121 54.032 64.361 54.128 64.673 54.128ZM56.645 54.38C58.061 54.38 59.201 53.864 60.065 52.832C60.929 51.776 61.361 50.444 61.361 48.836L61.361 47.612L60.065 47.612C55.697 47.612 53.513 48.848 53.513 51.32C53.513 52.256 53.801 53 54.377 53.552C54.953 54.104 55.709 54.38 56.645 54.38ZM74.4945 46.388L81.5145 56L78.6345 56L72.9825 48.188L72.8025 48.188L71.4345 49.556L71.4345 56L69.0945 56L69.0945 31.952L71.4345 31.952L71.4345 46.244L71.6145 46.244L78.5625 39.116L81.6585 39.116L74.4945 46.388ZM91.9461 31.952L94.2861 31.952L94.2861 35.552L91.9461 35.552L91.9461 31.952ZM88.5981 60.14C88.9101 60.212 89.2341 60.248 89.5701 60.248C90.3141 60.248 90.8901 60.02 91.2981 59.564C91.7301 59.132 91.9461 58.484 91.9461 57.62L91.9461 39.116L94.2861 39.116L94.2861 57.728C94.2861 59.216 93.8661 60.368 93.0261 61.184C92.2101 62 91.1661 62.408 89.8941 62.408C89.4621 62.408 89.0301 62.348 88.5981 62.228L88.5981 60.14ZM112.533 47.216C112.533 47.576 112.521 47.828 112.497 47.972L100.941 47.972C100.989 50.06 101.409 51.644 102.201 52.724C103.017 53.804 104.157 54.344 105.621 54.344C107.661 54.344 109.053 53.456 109.797 51.68L112.281 51.68C111.801 53.168 110.985 54.332 109.833 55.172C108.681 56.012 107.277 56.432 105.621 56.432C103.461 56.432 101.745 55.64 100.473 54.056C99.2253 52.472 98.6013 50.3 98.6013 47.54C98.6013 44.78 99.2253 42.62 100.473 41.06C101.721 39.476 103.449 38.684 105.657 38.684C107.769 38.684 109.437 39.452 110.661 40.988C111.909 42.5 112.533 44.576 112.533 47.216ZM105.657 40.772C104.289 40.772 103.209 41.216 102.417 42.104C101.649 42.992 101.181 44.3 101.013 46.028L110.193 46.028C110.073 44.3 109.617 42.992 108.825 42.104C108.057 41.216 107.001 40.772 105.657 40.772ZM121.446 56.432C119.766 56.432 118.41 56.012 117.378 55.172C116.37 54.308 115.77 53.144 115.578 51.68L117.81 51.68C118.218 53.504 119.43 54.416 121.446 54.416C122.454 54.416 123.27 54.164 123.894 53.66C124.542 53.132 124.866 52.46 124.866 51.644C124.866 50.756 124.602 50.12 124.074 49.736C123.57 49.328 122.862 48.992 121.95 48.728L119.934 48.188C118.662 47.852 117.678 47.324 116.982 46.604C116.286 45.86 115.938 44.84 115.938 43.544C115.938 42.152 116.454 41 117.486 40.088C118.518 39.152 119.874 38.684 121.554 38.684C123.09 38.684 124.35 39.116 125.334 39.98C126.342 40.844 126.942 42.02 127.134 43.508L124.83 43.508C124.686 42.62 124.326 41.936 123.75 41.456C123.174 40.952 122.442 40.7 121.554 40.7C120.57 40.7 119.766 40.964 119.142 41.492C118.542 42.02 118.242 42.692 118.242 43.508C118.242 44.228 118.446 44.804 118.854 45.236C119.286 45.644 119.946 45.968 120.834 46.208L122.85 46.712C125.754 47.48 127.206 49.088 127.206 51.536C127.206 52.976 126.666 54.152 125.586 55.064C124.506 55.976 123.126 56.432 121.446 56.432ZM136.507 56.18C135.259 56.18 134.275 55.796 133.555 55.028C132.835 54.236 132.475 53.12 132.475 51.68L132.475 41.132L129.199 41.132L129.199 39.116L132.475 39.116L132.475 35.588L134.311 33.536L134.851 33.536L134.851 39.116L139.711 39.116L139.711 41.132L134.851 41.132L134.851 51.464C134.851 53.216 135.595 54.092 137.083 54.092C137.731 54.092 138.475 53.96 139.315 53.696L139.315 55.64C138.523 56 137.587 56.18 136.507 56.18ZM143.385 38.612L143.385 31.952L145.833 31.952L145.833 38.612L145.257 48.584L143.961 48.584L143.385 38.612ZM142.809 52.4L146.409 52.4L146.409 56L142.809 56L142.809 52.4Z" fill="#DE1274"/>
<defs>
<filter id="filter0_d_614_2309" x="0" y="0" width="187" height="117.445" filterUnits="userSpaceOnUse" color-interpolation-filters="sRGB">
<feFlood flood-opacity="0" result="BackgroundImageFix"/>
<feColorMatrix in="SourceAlpha" type="matrix" values="0 0 0 0 0 0 0 0 0 0 0 0 0 0 0 0 0 0 127 0" result="hardAlpha"/>
<feOffset dy="4"/>
<feGaussianBlur stdDeviation="2"/>
<feComposite in2="hardAlpha" operator="out"/>
<feColorMatrix type="matrix" values="0 0 0 0 0 0 0 0 0 0 0 0 0 0 0 0 0 0 0.25 0"/>
<feBlend mode="normal" in2="BackgroundImageFix" result="effect1_dropShadow_614_2309"/>
<feBlend mode="normal" in="SourceGraphic" in2="effect1_dropShadow_614_2309" result="shape"/>
</filter>
</defs>
</svg>
