<?xml version="1.0" encoding="utf-8"?>
<!-- Generator: Adobe Illustrator 27.2.0, SVG Export Plug-In . SVG Version: 6.00 Build 0)  -->
<svg version="1.1" id="Warstwa_1" xmlns="http://www.w3.org/2000/svg"
                            xmlns:xlink="http://www.w3.org/1999/xlink" x="0px" y="0px" viewBox="0 0 331.1 263"
                            style="enable-background:new 0 0 331.1 263;" xml:space="preserve">
                            <style type="text/css">
                                .st0 {
                                    clip-path: url(#SVGID_00000129898535379397636020000011037128073637736363_);
                                }

                                .st1 {
                                    fill: #7800FF;
                                }

                                .st2 {
                                    fill: #4400AF;
                                }

                                .st3 {
                                    clip-path: url(#SVGID_00000170970788420257180100000010037412771451398534_);
                                }

                                .st4 {
                                    fill: #FF0074;
                                }

                                .st5 {
                                    fill: #C92E2E;
                                }

                                .st6 {
                                    fill: #FD8279;
                                }

                                .st7 {
                                    fill: #170C35;
                                }

                                .st8 {
                                    fill: #FD8FB3;
                                }

                                .st9 {
                                    fill: #FF931E;
                                }

                                .st10 {
                                    fill: #FFDC78;
                                }

                                #reka-p {
                                    animation: ruch-reka-p 1s ease-in-out infinite alternate;
                                    transform: rotate(0deg);
                                    transform-origin: 86% 55%;
                                }

                                #reka-l {
                                    animation: ruch-reka-l 1s ease-in-out infinite alternate;
                                    transform: rotate(0deg);
                                    transform-origin: 37% 63%;
                                }

                                #cialo {
                                    animation: ruch-cialo .6s ease-in-out .2s infinite alternate;
                                    transform: rotate(0deg);
                                    transform-origin: 67% 69%;
                                }

                                @keyframes ruch-reka-p {
                                    to {
                                        transform: rotate(20deg);
                                    }
                                }

                                @keyframes ruch-reka-l {
                                    to {
                                        transform: rotate(-7deg);
                                    }
                                }

                                @keyframes ruch-cialo {
                                    to {
                                        transform: rotate(-3deg);
                                    }
                                }
                            </style>
                            <g id="car">
                                <defs>
                                    <rect id="SVGID_1_" y="184" width="151" height="63" />
                                </defs>
                                <clipPath id="SVGID_00000145770706115624652160000017086217108203339928_">
                                    <use xlink:href="#SVGID_1_" style="overflow:visible;" />
                                </clipPath>
                                <g style="clip-path:url(#SVGID_00000145770706115624652160000017086217108203339928_);">
                                    <path class="st1" d="M121.7,223.5c5.3,0,9.7,4.3,9.7,9.6c0,5.3-4.3,9.6-9.7,9.6s-9.7-4.3-9.7-9.6
                                        C112,227.8,116.3,223.5,121.7,223.5z M121.7,219.3c-7.7,0-13.9,6.2-13.9,13.9S114,247,121.7,247s13.9-6.2,13.9-13.9
                                        S129.3,219.3,121.7,219.3z" />
                                    <path class="st1"
                                        d="M33.2,223.6c5.3,0,9.6,4.3,9.6,9.6c0,5.3-4.3,9.6-9.6,9.6s-9.6-4.3-9.6-9.6C23.6,227.9,27.9,223.6,33.2,223.6
                                        z M33.2,219.3c-7.6,0-13.8,6.2-13.8,13.8c0,7.6,6.2,13.8,13.8,13.8S47,240.8,47,233.1C47,225.5,40.8,219.3,33.2,219.3z" />
                                    <path class="st1" d="M80.1,188.2c1,0,1.5,0,1.7,0l0.9,0.1l21.2,19.1l31.4,4c0.7,0.1,1.4,0.4,2,0.9l8.4,8.5
                                        c0.7,0.7,1.1,1.6,1.1,2.5c0,0.9-0.4,1.8-1,2.4l-7.3,7.4h-2.8c0-7.7-6.2-13.9-13.9-13.9c-7.7,0-13.9,6.2-13.9,13.9H47.3
                                        c0-7.7-6.2-13.9-13.9-13.9s-13.8,6.1-13.9,13.7L7.9,222c-1.6-1.6-1.4-4.2,0.6-5.4l15-9.3l0,0c1.3-0.8,2.6-1.6,3.9-2.3l0.3-0.2h0
                                        C54.2,189.5,74.3,188.2,80.1,188.2z M80.1,184c-5.8,0-26.5,1.2-53.5,16.5h-0.1l-1.1,0.7l-0.3,0.2c-1.5,0.9-2.7,1.6-3.9,2.4
                                        l-3.6,2.2l0,0l-11.4,7c-2,1.3-3.4,3.3-3.6,5.7c-0.2,2.4,0.6,4.7,2.4,6.3l11.5,10.9l7,6.6l0.2-9.6c0.1-5.2,4.4-9.5,9.7-9.5
                                        c5.3,0,9.7,4.3,9.7,9.7v4.2H112v-4.2c0-5.3,4.4-9.7,9.7-9.7c5.4,0,9.7,4.3,9.7,9.7v4.2h8.8l1.2-1.2l7.3-7.4
                                        c1.4-1.4,2.2-3.4,2.2-5.4c0-2-0.9-4.1-2.4-5.6l-8.3-8.4l-0.1-0.1l-0.1-0.1c-1.2-1.1-2.7-1.8-4.3-1.9l-30-3.8l-20.2-18.2l-1.1-1
                                        l-1.5-0.1l-0.9-0.1C81.9,184,81.2,184,80.1,184z" />
                                    <path class="st1"
                                        d="M4.2,198.6l14,1.9l1.7,4.1l-9.3,6l1.5-6l-7.8-2.7V198.6z M0,193.7v11.1l2.9,1l4.2,1.4l-0.6,2.2l-2.6,10.3
                                        l9-5.8l9.3-6l3-1.9l-1.3-3.2l-1.7-4.1l-0.9-2.3l-2.4-0.3l-14-1.9L0,193.7L0,193.7z" />
                                    <path class="st1" d="M24.3,202.4l-0.1,4.2l80.6,1l0.1-4.2L24.3,202.4z" />
                                    <path class="st1" d="M56.9,189.1l-3.6,2.2l8.9,14.3l3.6-2.2L56.9,189.1z" />
                                    <path class="st1" d="M26.2,204.4c0,0,39.2,0.3,55.1,1.3c15.9,1,56.7,4.2,56.7,4.2l13,13.5l-12.6,14l-4.3-2.3c0,0,1-13.6-13.6-12.9
                                        c-14.6,0.6-10.1,14.6-10.1,14.6L46,233.5c0,0-3.6-11.1-12.3-11.3c-12.3-0.3-12.3,12.6-12.3,12.6l-14.9-11c0,0-4.9-4.9,2.3-9.7
                                        C15.8,209.2,26.2,204.4,26.2,204.4z" />
                                    <ellipse class="st2" cx="121.4" cy="233.4" rx="13.6" ry="13.6" />
                                    <ellipse class="st2" cx="121.4" cy="233.4" rx="13.6" ry="13.6" />
                                    <ellipse class="st2" cx="121.4" cy="233.4" rx="13.6" ry="13.6" />
                                    <ellipse class="st2" cx="121.4" cy="233.4" rx="13.6" ry="13.6" />
                                    <ellipse class="st2" cx="121.4" cy="233.4" rx="13.6" ry="13.6" />
                                    <ellipse class="st2" cx="121.4" cy="233.4" rx="13.6" ry="13.6" />
                                    <ellipse class="st2" cx="31.6" cy="232.2" rx="14.8" ry="14.8" />
                                    <path class="st1" d="M18.5,197.5H3l-2,5l6,3.5l3.5,6.5L22,206L18.5,197.5z" />
                                </g>
                            </g>
                            <g>
                                <defs>
                                    <rect id="SVGID_00000116237285783992857390000007104543309642140800_" x="89" y="0"
                                        width="283" height="263" />
                                </defs>
                                <clipPath id="SVGID_00000169526936475672339250000011399051499718518415_">
                                    <use xlink:href="#SVGID_00000116237285783992857390000007104543309642140800_"
                                        style="overflow:visible;" />
                                </clipPath>
                                <g style="clip-path:url(#SVGID_00000169526936475672339250000011399051499718518415_);">
                                    <g id="nogi">
                                        <path class="st4"
                                            d="M167.6,252.4c-1.8-0.6-3.2-2.2-3.2-4.3c0-1.3,0.1-32,11.8-54.2c1.1-2.2,3.8-3,6-1.9c2.2,1.2,3,3.9,1.8,6
                                            c-10.7,20.2-10.7,49.7-10.7,50c0,2.5-2,4.5-4.4,4.5C168.5,252.6,168.1,252.5,167.6,252.4L167.6,252.4z" />
                                        <path class="st5" d="M182.3,192.1c-2.2-1.2-4.9-0.3-6,1.9c-2.2,4.2-4,8.7-5.5,13.3l8.3,3.3c1.3-4.3,3-8.5,5-12.4
                                            C185.3,196,184.4,193.3,182.3,192.1L182.3,192.1z" />
                                        <path class="st4"
                                            d="M265.7,243.7c1.7-0.9,2.7-2.8,2.4-4.8c-0.2-1.3-5.7-31.5-21-51.3c-1.5-1.9-4.3-2.3-6.2-0.8
                                            c-1.9,1.5-2.3,4.3-0.8,6.3c14,18,19.2,47,19.3,47.3c0.4,2.4,2.7,4,5.2,3.6C264.9,244.1,265.4,243.9,265.7,243.7L265.7,243.7z" />
                                        <path class="st5" d="M240.8,186.9c1.9-1.5,4.7-1.2,6.2,0.8c2.9,3.8,5.5,7.9,7.7,12.1l-7.6,4.7c-2.1-4-4.4-7.9-7.1-11.3
                                            C238.5,191.3,238.9,188.5,240.8,186.9z" />
                                        <path class="st5"
                                            d="M161.5,243.1c3-1.6,13.8-1.8,15-0.1c1.2,1.7-0.5,16.1-1.6,17.5c-1.1,1.3-21.2,2.2-21.5,0.8
                                            c-0.2-1.4,7.4-5.8,8.1-8.2C162.2,250.6,159.9,244,161.5,243.1L161.5,243.1z" />
                                        <path class="st5" d="M270.1,231.3c-3.1-1.2-13.9-0.1-14.9,1.7c-0.9,1.8,2.5,16,3.8,17.2c1.2,1.2,21.4-0.4,21.4-1.8
                                            c0.1-1.4-8-4.8-9.1-7.1C270.3,238.9,271.8,232,270.1,231.3L270.1,231.3z" />
                                    </g>
                                    <g id="cialo">
                                        <g id="reka-l">
                                            <path class="st4"
                                                d="M128.6,169.4c-0.9-0.2-23.2-6-24.8-26l8.2-0.7c1.2,14.1,18.4,18.6,18.6,18.7L128.6,169.4L128.6,169.4z" />
                                            <path class="st4" d="M105.2,112c-2.5,3-4.5,6.2-5.9,9.8c-1.1,2.8-1.6,5.9-1.7,8.9c-0.1,4.8,1,9.5,3.1,13.9
                                                c0.6,1.3,1.3,2.6,2.3,3.6c1.4,1.5,4.1,1.5,5.5,0c1.5-1.6,1.5-3.9,0-5.5c-0.1-0.1-0.1-0.1-0.2-0.2l0.6,0.8
                                                c-0.8-1.1-1.4-2.3-1.9-3.6l0.4,0.9c-0.9-2.2-1.6-4.6-1.9-7l0.1,1c-0.3-2.2-0.3-4.4,0-6.6l-0.1,1c0.3-2.1,0.8-4.1,1.7-6.1
                                                l-0.4,0.9c0.9-2.1,2.1-4.1,3.5-6l-0.6,0.8c0.4-0.5,0.7-0.9,1.1-1.3c0.7-0.8,1.1-1.7,1.1-2.7c0-1-0.4-2.1-1.1-2.7
                                                C109.2,110.7,106.6,110.4,105.2,112z" />
                                            <path class="st4"
                                                d="M111,139.5c-0.2-1.5-0.4-3.1-0.5-4.6c-0.2-1.4-0.3-2.8-0.1-4.3l-0.1,1c0.1-0.7,0.3-1.3,0.5-1.9l-0.4,0.9
                                                c0.2-0.4,0.4-0.9,0.7-1.2l-0.6,0.7c0.3-0.4,0.6-0.7,1-1l-0.7,0.6c0.4-0.3,0.7-0.5,1.1-0.7l-0.9,0.4c0.4-0.2,0.8-0.3,1.3-0.3
                                                l-1,0.1c0.4,0,0.8,0,1.2,0l-1-0.1c0.3,0,0.5,0.1,0.8,0.2l-0.9-0.4c0.1,0,0.2,0.1,0.3,0.2l-0.7-0.6l0.1,0.1l-0.6-0.7l0.1,0.1
                                                l-0.4-0.9l0.1,0.2l-0.1-1c0,0.2,0,0.3,0,0.5l0.1-1c-0.2,1-0.6,2-1,2.9l0.4-0.9c-0.8,1.8-1.8,3.5-3,5.1l6.7,2.8
                                                c0.1-0.4,0.2-0.7,0.4-1l-0.4,0.9c0.4-0.9,0.9-1.7,1.5-2.5l-0.6,0.7c0.5-0.7,1.1-1.3,1.8-1.8l-0.7,0.6c0.3-0.2,0.6-0.4,1-0.6
                                                l-0.9,0.4c0.2-0.1,0.5-0.2,0.7-0.2l-1,0.1c0.2,0,0.3,0,0.5,0l-1-0.1c0.2,0,0.4,0.1,0.6,0.2l-0.9-0.4c0.1,0.1,0.3,0.1,0.4,0.2
                                                l-0.7-0.6c0.1,0.1,0.2,0.1,0.2,0.2l-0.6-0.7c0.1,0.1,0.1,0.2,0.2,0.3l-0.4-0.9c0.1,0.1,0.1,0.2,0.1,0.3l-0.1-1
                                                c0,0.2,0,0.3,0,0.5l0.1-1c-0.2,0.9-0.5,1.7-0.8,2.6l0.4-0.9c-0.6,1.5-1.4,2.9-2.4,4.2l0.6-0.7c-1,1.3-2.2,2.5-3.6,3.6l0.7-0.6
                                                c-1.3,1-2.8,1.9-4.3,2.5c-0.8,0.3-1.5,1.4-1.7,2.2c-0.2,0.9-0.1,2.1,0.4,2.8c0.5,0.8,1.3,1.5,2.2,1.7c1,0.2,1.9,0,2.8-0.4
                                                c4.2-1.8,7.8-5,10.2-8.9c0.5-0.8,1-1.7,1.4-2.7c0.5-1.3,1.1-2.6,1.3-3.9c0.4-2.6-1.1-4.8-3.6-5.7c-1.7-0.6-3.8-0.2-5.3,0.9
                                                c-2.7,1.9-4.6,4.6-5.6,7.8c-0.5,1.8,0.5,3.7,2.1,4.3c0.7,0.3,1.6,0.4,2.4,0.2c1-0.3,1.6-0.9,2.2-1.7c1.5-1.9,2.5-4,3.4-6.3
                                                c0.5-1.2,0.9-2.4,1-3.7c0.2-2.3-1.6-4.3-3.8-4.7c-2.9-0.6-5.7,0.3-7.8,2.3c-2,2-2.8,4.7-2.9,7.5c-0.1,2.6,0.4,5.2,0.7,7.8
                                                c0.1,1,0.3,1.9,1.1,2.6c0.6,0.6,1.7,1.1,2.6,1.1c0.9,0,1.9-0.4,2.6-1.1C110.5,141.5,111.1,140.5,111,139.5L111,139.5z" />
                                            <path class="st5" d="M129.3,169.8l-0.8-9.2l-5-2.2l-1.6,8.5L129.3,169.8z" />
                                        </g>
                                        <g id="reka-p">
                                            <path class="st5" d="M286.2,149.8l0.8-9.2l5-2.2l1.4,8.3L286.2,149.8z" />
                                            <path class="st4"
                                                d="M286.3,149.5l-2-8l1,4l-1-4c0.2,0,17.4-4.6,18.6-18.7l8.2,0.7C309.4,143.5,287.2,149.2,286.3,149.5z" />
                                            <path class="st4" d="M293.3,102c1.5,0.8,2.9,1.7,4.2,2.7l-0.8-0.6c1.7,1.3,3.2,2.8,4.5,4.4l-0.6-0.8c1.3,1.6,2.3,3.4,3.1,5.3
                                                l-0.4-0.9c0.9,2.1,1.5,4.4,1.8,6.7l-0.1-1c0.3,2.2,0.3,4.5,0,6.8l0.1-1c-0.1,0.6-0.2,1.3-0.4,1.8c-0.4,0.9-0.1,2.2,0.4,3
                                                c0.5,0.8,1.4,1.6,2.3,1.8c1,0.2,2.1,0.2,3-0.4c0.9-0.6,1.4-1.3,1.8-2.3c0.5-1.1,0.5-2.5,0.6-3.7c0.2-1.7,0.1-3.5,0-5.2
                                                c-0.3-2.6-0.7-5.1-1.6-7.5c-1.2-3.1-2.7-5.9-4.8-8.4c-2.5-3-5.7-5.5-9.1-7.3c-1.8-1-4.3-0.5-5.3,1.4
                                                C291,98.5,291.4,101,293.3,102L293.3,102z" />
                                            <path class="st4"
                                                d="M308.4,120.5c-1.2-4.7-2.1-10.3-6.5-13.1c-2.3-1.5-5.4-1.8-8-0.7c-1.9,0.8-3.6,2.4-3.6,4.7
                                                c0,1.9,1.3,3.4,2.5,4.7c1.7,2,3.9,3.7,6.1,5.1c1.6,1,3.6,0.5,4.7-0.9c0.5-0.6,0.8-1.4,0.8-2.2c0-1-0.4-1.8-1.1-2.6
                                                c-1.6-2.1-3.9-3.5-6.4-4.4c-1.8-0.7-3.8-0.7-5.6,0.1c-1.9,1-3.1,3.1-2.9,5.2c0.2,1.7,1.3,3,2.4,4.3c0.7,0.8,1.4,1.5,2.2,2.1
                                                c2,1.6,4.1,2.8,6.5,3.8c2.4,1,5.1,1.4,7.7,1.5c1.9,0.1,3.8-1.7,3.7-3.7c-0.1-2.1-1.6-3.6-3.7-3.7c-0.7,0-1.3-0.1-2-0.2l1,0.1
                                                c-1.7-0.2-3.4-0.7-5.1-1.4l0.9,0.4c-1.5-0.7-3-1.5-4.3-2.5l0.7,0.6c-1.2-1-2.3-2-3.3-3.3l0.6,0.7c-0.2-0.2-0.4-0.5-0.5-0.7
                                                l0.4,0.9c-0.1-0.2-0.1-0.3-0.1-0.5l0.1,1c0-0.1,0-0.2,0-0.3l-0.1,1c0-0.1,0-0.2,0.1-0.3l-0.4,0.9c0.1-0.1,0.1-0.3,0.2-0.4
                                                l-0.6,0.7c0.1-0.1,0.2-0.2,0.3-0.3l-0.7,0.6c0.1-0.1,0.3-0.2,0.4-0.2l-0.9,0.4c0.2-0.1,0.3-0.1,0.5-0.1l-1,0.1
                                                c0.3,0,0.5,0,0.8,0l-1-0.1c0.6,0.1,1.2,0.3,1.9,0.6l-0.9-0.4c0.9,0.4,1.7,0.9,2.5,1.4l-0.7-0.6c0.7,0.6,1.3,1.2,1.9,1.9
                                                c1.5-1.9,3-3.8,4.4-5.8c-0.8-0.5-1.5-1-2.2-1.5l0.7,0.6c-1.5-1.2-2.9-2.6-4.1-4.1l0.6,0.7c-0.2-0.2-0.3-0.4-0.4-0.6l0.4,0.9
                                                l-0.1-0.2l0.1,1l0-0.2l-0.1,1c0-0.1,0-0.2,0.1-0.3l-0.4,0.9l0.1-0.1l-0.6,0.7c0.1-0.1,0.2-0.2,0.3-0.3l-0.7,0.6
                                                c0.3-0.2,0.6-0.4,0.9-0.5l-0.9,0.4c0.4-0.1,0.7-0.2,1.1-0.3l-1,0.1c0.4-0.1,0.9-0.1,1.3,0l-1-0.1c0.5,0.1,1,0.2,1.4,0.4
                                                l-0.9-0.4c0.4,0.2,0.9,0.4,1.3,0.7l-0.7-0.6c0.4,0.3,0.7,0.7,1.1,1.1l-0.6-0.7c0.5,0.6,0.9,1.3,1.2,2.1l-0.4-0.9
                                                c1,2.4,1.5,5,2.2,7.5c0.5,1.9,2.6,3.2,4.5,2.6C307.7,124.4,308.9,122.5,308.4,120.5L308.4,120.5z" />
                                        </g>
                                        <path class="st4" d="M269.5,15.7L121.2,29.2c-2.6,0.2-4.5,2.9-4.2,6l14.5,160c0.3,3.1,2.6,5.3,5.2,5.1L285,186.8
                                            c2.6-0.2,4.5-2.9,4.2-6l-14.5-160C274.4,17.7,272.1,15.4,269.5,15.7z M217.7,43.6c0.3,3.2-1.4,6-3.8,6.2l-31.6,2.8
                                            c-2.4,0.2-4.6-2.2-4.9-5.4s1.4-6,3.8-6.2l9.9-0.9c-0.4-4.1,2.2-7.7,5.7-8c3.5-0.3,6.6,2.8,7,6.9l9.1-0.8
                                            C215.2,37.9,217.4,40.4,217.7,43.6L217.7,43.6z" />
                                        <path class="st6" d="M258.7,55.4c-2.4-2.8-4.9-2.8-8.3-2.5c-2.9,0.2-5.8,0.4-8.6,0.6c-6.4,0.5-12.8,0.9-19.1,1.5
                                            c-5.8,0.6-11.6,1.2-17.4,1.5c-2.8,0.1-5.6,0.1-8.4-0.1c-2.7-0.2-5.3-0.4-7.7,1.1c-0.8,0.5-1.3,1.9-0.9,2.8
                                            c2.4,4.8,8.8,5.1,13.6,5.5c5.3,0.4,10.7,0.2,16-0.1c5.8-0.3,11.5-0.7,17.3-1.1c2.9-0.2,5.8-0.4,8.6-0.6c1.6-0.1,3.3-0.2,4.9-0.3
                                            c0.8-0.1,1.6-0.1,2.5-0.2c1,0.2,1.4,0.2,1.2-0.1c0.2,0.1,0.5,0.2,0.8,0.2c1.5,0.3,3.1,0,4.2-0.9C259.5,61,260.7,57.7,258.7,55.4z
                                            " />
                                        <path class="st6" d="M178.2,58.9c-0.3-0.9-1.1-1.6-1.9-2.1c-0.3-0.2-0.7-0.3-1.1-0.3c-0.6-0.1-1.1-0.1-1.6,0.1
                                            c-0.8,0.2-1.5,0.8-2,1.5c-0.6,0.9-0.7,1.8-0.5,2.8c0.1,0.5,0.2,0.9,0.6,1.3c0.4,0.5,0.9,0.9,1.4,1.2c0.9,0.4,1.9,0.5,2.9,0.1
                                            c0.9-0.3,1.6-1,2.1-1.9C178.5,60.8,178.5,59.8,178.2,58.9L178.2,58.9z" />
                                        <path class="st7" d="M208.5,134c-3.9,0.3-7.1,2.9-8.5,6.2c-0.9,2.2,0.9,4.6,3.3,4.4l12.2-1.1c2.4-0.2,3.7-2.9,2.4-4.9
                                            C216,135.6,212.4,133.6,208.5,134L208.5,134z" />
                                        <path class="st8" d="M181.1,135.8c0.6,6.5-4.2,12.3-10.8,12.9c-6.5,0.6-12.3-4.3-12.8-10.8c-0.6-6.5,4.2-12.3,10.8-12.9
                                            C174.7,124.4,180.5,129.2,181.1,135.8z" />
                                        <path class="st8" d="M236.4,130.9c0.6,6.5,6.3,11.4,12.8,10.8c6.5-0.6,11.3-6.3,10.8-12.9c-0.6-6.5-6.3-11.4-12.8-10.8
                                            C240.6,118.6,235.8,124.3,236.4,130.9z" />
                                        <path class="st7" d="M199.5,112.8c1.6,11.2-7.3,21.7-19.9,23.5c-12.6,1.8-22.5-6.2-25.7-17c-3.5-12.3-3.5-19.9,17.5-22.8
                                            C192.3,93.7,197.9,101.6,199.5,112.8z" />
                                        <path class="st7"
                                            d="M216.9,104.9l-5.8,0.8c-0.2-1.1-3.2-2.8-7.7-2.2c-4.5,0.6-6.9,3.1-6.8,4.2l-5.8,0.8
                                            c-0.4-2.7,0.9-5.4,3.4-7.4c2.2-1.8,5.1-3,8.4-3.4c3.2-0.5,6.4-0.1,9,1C214.6,100,216.5,102.2,216.9,104.9L216.9,104.9z" />
                                        <path class="st7" d="M209.7,111.4c1.6,11.2,13.1,18.8,25.7,17c12.6-1.8,19.9-12.2,19.9-23.5c0-12.8-2.1-20.1-23.1-17
                                            C211.6,91,208.1,100.2,209.7,111.4L209.7,111.4z" />
                                        <path class="st9" d="M142.7,169.1c-2.3,0-4.5-0.8-6.3-2.3l-8.5-7.2c-2-1.7-3.2-4-3.4-6.6s0.6-5.1,2.3-7.1l0.4-0.4
                                            c1.7-2,4-3.2,6.6-3.4c2.6-0.2,5.1,0.6,7.1,2.3l8.5,7.2c4.1,3.5,4.6,9.6,1.1,13.7l-0.4,0.4c-1.7,2-4,3.2-6.6,3.4
                                            C143.2,169.1,143,169.1,142.7,169.1L142.7,169.1z M134.6,150.2c-0.4,0-0.8,0.2-1.1,0.5l-0.4,0.4c-0.3,0.4-0.4,0.9-0.3,1.1
                                            s0.1,0.7,0.5,1l8.5,7.2c0.4,0.3,0.9,0.4,1.1,0.3c0.2,0,0.7-0.1,1-0.5l0.4-0.5c0.5-0.6,0.5-1.6-0.2-2.1l-8.5-7.2
                                            C135.3,150.3,134.9,150.2,134.6,150.2L134.6,150.2z" />
                                        <path class="st9"
                                            d="M164,180.9c-1.6,0-3.3-0.4-4.7-1.2l-9.7-5.5c-2.3-1.3-3.9-3.3-4.6-5.8c-0.7-2.5-0.4-5.1,0.9-7.4l0.3-0.5
                                            c2.6-4.7,8.5-6.3,13.2-3.7l9.7,5.5c2.3,1.3,3.9,3.3,4.6,5.8c0.7,2.5,0.4,5.1-0.9,7.4l-0.3,0.5c-1.3,2.3-3.3,3.9-5.8,4.6
                                            C165.8,180.7,164.9,180.9,164,180.9L164,180.9z M154.6,163.6c-0.5,0-1,0.3-1.3,0.8l-0.3,0.5c-0.3,0.5-0.2,0.9-0.1,1.1
                                            c0.1,0.2,0.2,0.6,0.7,0.9l9.7,5.5c0.5,0.3,0.9,0.2,1.1,0.1c0.2-0.1,0.6-0.2,0.9-0.7l0.3-0.5c0.3-0.5,0.2-0.9,0.1-1.1
                                            c-0.1-0.2-0.2-0.6-0.7-0.9l-9.7-5.5C155.1,163.7,154.8,163.6,154.6,163.6L154.6,163.6z" />
                                        <path class="st9"
                                            d="M187,183.1c-0.7,0-1.4-0.1-2.1-0.2l-10.9-2.4c-5.2-1.2-8.5-6.4-7.4-11.6l0.1-0.6c1.2-5.2,6.3-8.5,11.6-7.4
                                            l10.9,2.4c5.2,1.2,8.5,6.4,7.4,11.6l-0.1,0.6c-0.6,2.5-2.1,4.7-4.3,6.1C190.6,182.6,188.8,183.1,187,183.1z M176.2,168.9
                                            c-0.7,0-1.3,0.5-1.4,1.2l-0.1,0.6c-0.2,0.8,0.3,1.6,1.1,1.8l10.9,2.4c0.5,0.1,0.9-0.1,1.1-0.2c0.2-0.1,0.5-0.4,0.7-0.9l0.1-0.6
                                            c0.2-0.8-0.3-1.6-1.1-1.8l-10.9-2.4C176.4,168.9,176.3,168.9,176.2,168.9L176.2,168.9z" />
                                        <path class="st9" d="M238.1,183.3c-3.7,0-7.3-2.2-8.9-5.8L229,177c-1.1-2.4-1.1-5-0.2-7.4c0.9-2.4,2.7-4.3,5.1-5.4l10.2-4.6
                                            c4.9-2.2,10.6,0,12.8,4.9l0.2,0.5c2.2,4.9,0,10.7-4.9,12.8l-10.2,4.6C240.7,183,239.4,183.3,238.1,183.3z M248,167
                                            c-0.2,0-0.4,0-0.6,0.1l-10.2,4.6c-0.5,0.2-0.7,0.6-0.8,0.8c-0.1,0.2-0.2,0.6,0,1.1l0.2,0.5c0.3,0.8,1.2,1.1,2,0.8l10.2-4.6
                                            c0.7-0.3,1.1-1.2,0.8-2l-0.2-0.5C249.2,167.3,248.6,167,248,167L248,167z" />
                                        <path class="st9"
                                            d="M258.6,172.8c-0.2,0-0.5,0-0.7,0c-2.6-0.2-4.9-1.4-6.6-3.3l-0.4-0.4c-1.7-2-2.5-4.5-2.3-7.1
                                            c0.2-2.6,1.4-4.9,3.3-6.6l8.5-7.3c2-1.7,4.5-2.5,7-2.3c2.6,0.2,4.9,1.4,6.6,3.3l0.4,0.4c3.5,4.1,3,10.2-1,13.7l-8.5,7.3
                                            C263.1,172,260.9,172.8,258.6,172.8L258.6,172.8z M266.7,153.8c-0.2,0-0.6,0.1-1,0.4l-8.5,7.3c-0.4,0.4-0.5,0.8-0.5,1
                                            c0,0.2,0,0.7,0.4,1.1l0.4,0.4c0.4,0.4,0.8,0.5,1,0.5c0.2,0,0.7,0,1.1-0.4l8.5-7.3c0.6-0.5,0.7-1.5,0.2-2.1l-0.4-0.4
                                            c-0.4-0.4-0.8-0.5-1-0.5C266.7,153.8,266.7,153.8,266.7,153.8L266.7,153.8z" />
                                        <path class="st9"
                                            d="M275,155c-2.2,0-4.2-0.7-6-2.1l-0.5-0.4c-4.2-3.3-4.9-9.4-1.6-13.6l6.9-8.8c3.3-4.2,9.4-4.9,13.6-1.6
                                            l0.5,0.4c2,1.6,3.3,3.9,3.6,6.5c0.3,2.6-0.4,5.1-2,7.2l-6.9,8.8c-1.6,2-3.9,3.3-6.5,3.6C275.8,154.9,275.4,155,275,155z
                                             M281.5,134.6c-0.4,0-0.9,0.2-1.2,0.6l-6.9,8.8c-0.5,0.6-0.4,1.6,0.2,2.1l0.5,0.4c0.4,0.3,0.9,0.3,1.1,0.3c0.2,0,0.7-0.1,1-0.6
                                            l6.9-8.8c0.3-0.4,0.3-0.9,0.3-1.1c0-0.2-0.1-0.7-0.6-1l-0.5-0.4C282.1,134.7,281.8,134.6,281.5,134.6L281.5,134.6z" />
                                        <path class="st9" d="M212,193.2c10.5,0,19-8.5,19-19c0-10.5-8.5-19-19-19c-10.5,0-19,8.5-19,19C193,184.7,201.5,193.2,212,193.2z
                                            " />
                                        <path class="st10" d="M199,175.5c-1,0-1.9-0.7-2-1.7c0-0.2-0.7-5.2,2.4-9.4c2.2-3,5.6-4.8,10.3-5.4c1.1-0.2,2.2,0.6,2.3,1.8
                                            c0.2,1.1-0.6,2.2-1.8,2.3c-3.5,0.5-6,1.8-7.5,3.8c-2.1,2.8-1.7,6.3-1.7,6.4c0.2,1.1-0.6,2.2-1.7,2.3
                                            C199.2,175.5,199.1,175.5,199,175.5L199,175.5z" />
                                        <path class="st10" d="M214.1,189.3c-1,0-1.9-0.7-2-1.8c-0.2-1.1,0.6-2.2,1.8-2.3c3.5-0.5,6-1.8,7.5-3.8c2.1-2.8,1.6-6.3,1.6-6.3
                                            c-0.2-1.1,0.6-2.2,1.7-2.3c1.1-0.2,2.2,0.6,2.3,1.7c0,0.2,0.7,5.2-2.4,9.4c-2.2,3-5.6,4.8-10.3,5.4
                                            C214.3,189.3,214.2,189.3,214.1,189.3L214.1,189.3z" />
                                        <path class="st5"
                                            d="M216.4,164l-13.8,5.6c-1.3,0.5-1.9,2-1.4,3.3l0.7,1.8c0.5,1.3,2,1.9,3.3,1.4l1.8-0.7
                                            c1.3-0.5,1.8,0.5,2.3,1.8l2.3,5.9c0.5,1.3,2,1.9,3.3,1.4l1.8-0.7c1.3-0.5,1.9-2,1.4-3.3l-2.3-5.9c-0.5-1.3,0.1-2.8,1.4-3.3
                                            l1.8-0.7c1.3-0.5,1.9-2,1.4-3.3l-0.7-1.8C219.1,164.1,217.7,163.5,216.4,164L216.4,164z" />
                                        <path class="st2"
                                            d="M98.9,63.6L89,74.1c0,0,5.4,11.6,17.9,4.6c12.6-7,8.7-14.4,8.7-14.4L98.9,63.6L98.9,63.6z" />
                                        <path class="st2" d="M172.6,21.6l-65.7,46.9c0,0-10.8-17.5-12.6-33.3C92.6,19.4,119.1,3.3,130,0.5C140.8-2.3,157.6-4,172.6,21.6z
                                            " />
                                        <path class="st1" d="M172.6,21.6c0,0-32.4,24.5-51.5,32.5s-19.6,5.1-19.6,5.1L89,74.1c0,0,5.1-5.6,14.4-3.7
                                            c9.3,1.9,27.9,4.2,43.3-13.1C162.1,40,172.6,21.5,172.6,21.6L172.6,21.6z" />
                                        <path class="st10" d="M140.2,149.9c-0.4,0-0.8-0.1-1.1-0.4c-4.1-3.8-7.1-1-7.6-0.4c-0.6,0.6-1.6,0.7-2.2,0.1
                                            c-0.6-0.6-0.7-1.6-0.1-2.2c0.1-0.1,2.2-2.4,5.5-2.6c2.3-0.1,4.5,0.8,6.7,2.8c0.6,0.6,0.7,1.6,0.1,2.3
                                            C141.1,149.8,140.7,149.9,140.2,149.9L140.2,149.9z" />
                                        <path class="st10" d="M159.9,163.8c-0.4,0-0.8-0.1-1.1-0.4c-4.1-3.8-7.1-1-7.6-0.4c-0.6,0.6-1.6,0.7-2.2,0.1
                                            c-0.6-0.6-0.7-1.6-0.1-2.2c0.1-0.1,2.2-2.4,5.5-2.6c2.3-0.1,4.5,0.8,6.7,2.8c0.6,0.6,0.7,1.6,0.1,2.3
                                            C160.8,163.6,160.4,163.8,159.9,163.8L159.9,163.8z" />
                                        <path class="st10" d="M171.6,169.4c-0.2,0-0.5-0.1-0.7-0.2c-0.8-0.4-1.1-1.3-0.8-2.1c0.1-0.1,1.4-3,4.5-4.1
                                            c2.2-0.8,4.6-0.5,7.2,0.7c0.8,0.4,1.1,1.3,0.7,2.1c-0.4,0.8-1.3,1.1-2.1,0.7c-5-2.5-7.1,1.1-7.4,1.8
                                            C172.7,169,172.2,169.4,171.6,169.4L171.6,169.4z" />
                                        <path class="st10" d="M233.3,174.8c-0.8,0-1.5-0.6-1.6-1.4c0-0.1-0.4-3.3,1.6-5.9c1.4-1.8,3.6-2.9,6.4-3.3
                                            c0.9-0.1,1.7,0.5,1.8,1.4c0.1,0.9-0.5,1.7-1.4,1.8c-2,0.2-3.4,0.9-4.3,2c-1.2,1.5-1,3.5-1,3.5c0.1,0.9-0.5,1.7-1.4,1.8
                                            C233.5,174.8,233.4,174.8,233.3,174.8L233.3,174.8z" />
                                        <path class="st10" d="M253.8,167.3c-0.5,0-1-0.2-1.3-0.7c-0.1-0.1-1.8-2.7-1.1-6c0.5-2.3,1.9-4.2,4.3-5.8
                                            c0.7-0.5,1.7-0.3,2.2,0.5s0.3,1.7-0.5,2.2c-4.7,3.1-2.7,6.6-2.3,7.3c0.5,0.7,0.3,1.7-0.5,2.2
                                            C254.4,167.2,254.1,167.3,253.8,167.3L253.8,167.3z" />
                                        <path class="st10" d="M270.2,149.3c-0.5,0-0.9-0.2-1.2-0.6c-0.1-0.1-2-2.6-1.6-5.9c0.3-2.3,1.5-4.4,3.8-6.1
                                            c0.7-0.5,1.7-0.4,2.2,0.3c0.5,0.7,0.4,1.7-0.3,2.2c-4.4,3.5-2.1,6.8-1.7,7.5c0.5,0.7,0.4,1.7-0.3,2.2
                                            C270.9,149.2,270.6,149.3,270.2,149.3z" />
                                        <path class="st2" d="M160,116.8c-1.2,0-2.3-0.9-2.5-2.1c-0.6-3.9,0.4-11.7,8.7-13.4c8.7-1.7,14.5,0,14.7,0.1
                                            c1.3,0.4,2.1,1.8,1.7,3.1c-0.4,1.3-1.8,2.1-3.1,1.7c0,0-4.9-1.4-12.3,0.1c-5.6,1.1-4.9,7-4.8,7.7c0.2,1.4-0.7,2.7-2.1,2.9
                                            C160.3,116.8,160.1,116.8,160,116.8L160,116.8z" />
                                        <path class="st2"
                                            d="M226.2,98.9c-1,0-1.9-0.6-2.3-1.6c-0.5-1.3,0.1-2.8,1.4-3.3c8.2-3.4,14.2-2.8,14.5-2.8
                                            c1.4,0.1,2.4,1.4,2.2,2.8c-0.1,1.4-1.4,2.4-2.8,2.2c0,0-5.1-0.4-12,2.4C226.9,98.9,226.5,98.9,226.2,98.9L226.2,98.9z" />
                                        <path class="st2"
                                            d="M245.7,117c-0.5,0-1-0.1-1.4-0.4c-1.1-0.8-1.4-2.4-0.6-3.5c0,0,2.8-4.3,3.6-11.8c0.2-1.4,1.4-2.4,2.8-2.2
                                            c1.4,0.2,2.4,1.4,2.2,2.8c-1,8.8-4.4,13.9-4.5,14.1C247.3,116.6,246.5,117,245.7,117L245.7,117z" />
                                    </g>
                                </g>
                            </g>
                        </svg>