<svg width="290" height="148" viewBox="0 0 290 148" fill="none" xmlns="http://www.w3.org/2000/svg">
<rect x="31" y="11" width="259" height="33" fill="#FF0074"/>
<circle cx="49" cy="119" r="21" fill="#FFDC78"/>
<path d="M42.6702 114.318V124.5H40.5175V116.362H40.4579L38.1262 117.823V115.914L40.6468 114.318H42.6702ZM48.0025 124.5V123.237L51.7411 118.609V118.554H48.1318V116.864H54.2916V118.241L50.7816 122.755V122.81H54.4208V124.5H48.0025ZM58.9538 117.873V119.046L54.9368 120.334V119.161L58.9538 117.873ZM58.0042 114.318V124.5H55.8863V114.318H58.0042Z" fill="black" fill-opacity="0.8"/>
<circle cx="93" cy="119" r="21" fill="#F7AC32"/>
<path d="M86.6702 114.318V124.5H84.5175V116.362H84.4579L82.1262 117.823V115.914L84.6468 114.318H86.6702ZM92.0025 124.5V123.237L95.7411 118.609V118.554H92.1318V116.864H98.2916V118.241L94.7816 122.755V122.81H98.4208V124.5H92.0025ZM102.954 117.873V119.046L98.9368 120.334V119.161L102.954 117.873ZM102.004 114.318V124.5H99.8863V114.318H102.004Z" fill="black" fill-opacity="0.8"/>
<circle cx="137" cy="119" r="21" fill="#DA8700"/>
<path d="M130.67 114.318V124.5H128.518V116.362H128.458L126.126 117.823V115.914L128.647 114.318H130.67ZM136.003 124.5V123.237L139.741 118.609V118.554H136.132V116.864H142.292V118.241L138.782 122.755V122.81H142.421V124.5H136.003ZM146.954 117.873V119.046L142.937 120.334V119.161L146.954 117.873ZM146.004 114.318V124.5H143.886V114.318H146.004Z" fill="black" fill-opacity="0.8"/>
<path d="M13.8685 17.3099C12.7461 16.0147 13.6661 14 15.3799 14H34C35.1046 14 36 14.8954 36 16V29V43C36 44.1046 35.1046 45 34 45H15.2019C13.5179 45 12.5878 43.0458 13.6497 41.7388L24 29L13.8685 17.3099Z" fill="url(#paint0_linear_512_2733)"/>
<path d="M36 14H16.0864C14.3401 14 13.4325 16.0812 14.6208 17.3609L23.2791 26.6852C23.9737 27.4333 23.9935 28.5845 23.3249 29.3559L14.3685 39.6901C13.2461 40.9853 14.1661 43 15.8799 43H36" stroke="#108B4A" stroke-width="4"/>
<path d="M27.5205 56C42.7196 56 55.0409 43.6878 55.0409 28.5C55.0409 13.3122 42.7196 1 27.5205 1C12.3213 1 0 13.3122 0 28.5C0 43.6878 12.3213 56 27.5205 56Z" fill="black"/>
<path d="M127.797 20.3672C128.533 20.3672 129.203 20.4909 129.809 20.7383C131.046 21.2526 131.99 22.1608 132.641 23.4629C133.181 24.5501 133.451 25.8424 133.451 27.3398C133.451 28.1927 133.357 29 133.168 29.7617C132.803 31.2461 132.097 32.4017 131.049 33.2285C130.131 33.9577 129.047 34.3223 127.797 34.3223C126.911 34.3223 126.107 34.1432 125.385 33.7852C124.174 33.1862 123.279 32.1901 122.699 30.7969C122.289 29.8138 122.084 28.6289 122.084 27.2422C122.084 25.1198 122.641 23.4271 123.754 22.1641C124.809 20.9661 126.156 20.3672 127.797 20.3672ZM127.777 22.8086C127.361 22.8086 126.993 22.903 126.674 23.0918C126.088 23.4368 125.642 24.0391 125.336 24.8984C125.076 25.6341 124.945 26.4219 124.945 27.2617C124.945 27.8737 125.01 28.4824 125.141 29.0879C125.362 30.11 125.74 30.8457 126.273 31.2949C126.749 31.6855 127.26 31.8809 127.807 31.8809C128.197 31.8809 128.565 31.7799 128.91 31.5781C129.262 31.3698 129.545 31.0866 129.76 30.7285C130.313 29.8105 130.59 28.668 130.59 27.3008C130.59 26.0117 130.336 24.9277 129.828 24.0488C129.346 23.222 128.663 22.8086 127.777 22.8086ZM135.717 34V20.6699H139.828C141.638 20.6699 143.061 21.1517 144.096 22.1152C145.365 23.2871 146 25.0124 146 27.291C146 28.2546 145.876 29.166 145.629 30.0254C145.362 30.9564 144.887 31.7702 144.203 32.4668C143.552 33.1374 142.8 33.5736 141.947 33.7754C141.342 33.9251 140.632 34 139.818 34H135.717ZM138.578 31.5586H139.857C140.873 31.5586 141.612 31.3177 142.074 30.8359C142.784 30.0872 143.139 28.9023 143.139 27.2812C143.139 26.6888 143.074 26.1191 142.943 25.5723C142.546 23.9316 141.492 23.1113 139.779 23.1113H138.578V31.5586ZM147.025 34V31.6758L153.012 23.1113H147.455V20.6699H156.479V22.8379L150.424 31.5195H156.654V34H147.025ZM158.666 34V20.6699L161.557 20.6602L165.736 29.2441V20.6699H168.48V34H165.619L161.41 25.4355V34H158.666ZM174.291 20.6699H177.221L181.439 34H178.461L177.631 31.0215H173.832L172.992 34H170.062L174.291 20.6699ZM174.447 28.8633H177.035L175.746 24.2637L174.447 28.8633ZM182.963 34V20.6699H185.824V25.709L189.789 20.6699H192.982L188.441 26.168L193.354 34H190.15L186.635 28.375L185.824 29.3516V34H182.963ZM198.51 20.6699H201.439L205.658 34H202.68L201.85 31.0215H198.051L197.211 34H194.281L198.51 20.6699ZM198.666 28.8633H201.254L199.965 24.2637L198.666 28.8633Z" fill="white"/>
<rect x="28" y="63" width="133" height="29" fill="#8FD0FF"/>
<circle cx="234.5" cy="102.5" r="45.5" fill="#F7AC32"/>
<path d="M202.3 108V97.8182H206.376C207.126 97.8182 207.75 97.9292 208.251 98.1513C208.751 98.3733 209.127 98.6816 209.379 99.076C209.631 99.4671 209.757 99.9179 209.757 100.428C209.757 100.826 209.678 101.176 209.519 101.477C209.359 101.776 209.141 102.021 208.862 102.213C208.587 102.402 208.272 102.536 207.918 102.616V102.715C208.305 102.732 208.668 102.841 209.006 103.043C209.348 103.246 209.625 103.529 209.837 103.893C210.049 104.255 210.155 104.686 210.155 105.186C210.155 105.726 210.021 106.209 209.752 106.633C209.487 107.054 209.094 107.387 208.574 107.632C208.054 107.877 207.412 108 206.65 108H202.3ZM204.452 106.24H206.207C206.807 106.24 207.245 106.126 207.52 105.897C207.795 105.665 207.933 105.357 207.933 104.972C207.933 104.691 207.865 104.442 207.729 104.227C207.593 104.011 207.399 103.842 207.147 103.719C206.898 103.597 206.602 103.536 206.257 103.536H204.452V106.24ZM204.452 102.079H206.048C206.343 102.079 206.605 102.027 206.834 101.925C207.066 101.819 207.248 101.67 207.381 101.477C207.517 101.285 207.585 101.055 207.585 100.786C207.585 100.418 207.454 100.122 207.192 99.8963C206.933 99.6709 206.565 99.5582 206.088 99.5582H204.452V102.079ZM214.812 108.149C214.04 108.149 213.372 107.985 212.809 107.657C212.248 107.326 211.816 106.865 211.511 106.275C211.206 105.682 211.054 104.994 211.054 104.212C211.054 103.423 211.206 102.733 211.511 102.143C211.816 101.55 212.248 101.089 212.809 100.761C213.372 100.43 214.04 100.264 214.812 100.264C215.584 100.264 216.251 100.43 216.811 100.761C217.374 101.089 217.808 101.55 218.113 102.143C218.418 102.733 218.571 103.423 218.571 104.212C218.571 104.994 218.418 105.682 218.113 106.275C217.808 106.865 217.374 107.326 216.811 107.657C216.251 107.985 215.584 108.149 214.812 108.149ZM214.822 106.509C215.173 106.509 215.467 106.409 215.702 106.21C215.937 106.008 216.115 105.733 216.234 105.385C216.357 105.037 216.418 104.641 216.418 104.197C216.418 103.753 216.357 103.357 216.234 103.009C216.115 102.661 215.937 102.385 215.702 102.183C215.467 101.981 215.173 101.88 214.822 101.88C214.467 101.88 214.169 101.981 213.927 102.183C213.689 102.385 213.508 102.661 213.385 103.009C213.266 103.357 213.206 103.753 213.206 104.197C213.206 104.641 213.266 105.037 213.385 105.385C213.508 105.733 213.689 106.008 213.927 106.21C214.169 106.409 214.467 106.509 214.822 106.509ZM221.912 103.585V108H219.794V100.364H221.812V101.711H221.902C222.071 101.267 222.354 100.915 222.752 100.657C223.15 100.395 223.632 100.264 224.199 100.264C224.729 100.264 225.191 100.38 225.586 100.612C225.98 100.844 226.287 101.176 226.505 101.607C226.724 102.034 226.834 102.545 226.834 103.138V108H224.716V103.516C224.719 103.048 224.6 102.684 224.358 102.422C224.116 102.157 223.783 102.024 223.358 102.024C223.073 102.024 222.821 102.085 222.603 102.208C222.387 102.331 222.218 102.51 222.096 102.745C221.976 102.977 221.915 103.257 221.912 103.585ZM233.246 104.749V100.364H235.364V108H233.33V106.613H233.251C233.078 107.06 232.792 107.42 232.391 107.692C231.993 107.964 231.507 108.099 230.934 108.099C230.424 108.099 229.974 107.983 229.587 107.751C229.199 107.519 228.896 107.19 228.677 106.762C228.461 106.335 228.352 105.822 228.349 105.226V100.364H230.467V104.848C230.47 105.299 230.591 105.655 230.83 105.917C231.068 106.179 231.388 106.31 231.789 106.31C232.044 106.31 232.283 106.252 232.505 106.136C232.727 106.016 232.906 105.841 233.042 105.609C233.181 105.377 233.249 105.09 233.246 104.749ZM243.257 102.541L241.319 102.661C241.285 102.495 241.214 102.346 241.105 102.213C240.995 102.077 240.851 101.969 240.672 101.89C240.497 101.807 240.286 101.766 240.041 101.766C239.713 101.766 239.436 101.835 239.211 101.974C238.985 102.11 238.873 102.293 238.873 102.521C238.873 102.704 238.945 102.858 239.091 102.984C239.237 103.11 239.487 103.211 239.842 103.287L241.224 103.565C241.967 103.718 242.52 103.963 242.885 104.301C243.249 104.639 243.431 105.083 243.431 105.634C243.431 106.134 243.284 106.573 242.989 106.951C242.697 107.329 242.296 107.624 241.786 107.836C241.279 108.045 240.694 108.149 240.031 108.149C239.02 108.149 238.215 107.939 237.615 107.518C237.018 107.094 236.668 106.517 236.566 105.788L238.649 105.678C238.712 105.987 238.864 106.222 239.106 106.384C239.348 106.543 239.658 106.623 240.036 106.623C240.407 106.623 240.705 106.552 240.931 106.409C241.159 106.263 241.275 106.076 241.279 105.847C241.275 105.655 241.194 105.498 241.035 105.375C240.876 105.249 240.631 105.153 240.299 105.087L238.977 104.823C238.231 104.674 237.676 104.415 237.311 104.048C236.95 103.68 236.77 103.211 236.77 102.641C236.77 102.15 236.902 101.728 237.167 101.373C237.436 101.018 237.812 100.745 238.296 100.553C238.783 100.36 239.353 100.264 240.006 100.264C240.971 100.264 241.73 100.468 242.283 100.876C242.84 101.283 243.165 101.839 243.257 102.541ZM251.441 108.139C250.699 108.139 250.037 108.012 249.457 107.756C248.881 107.498 248.425 107.143 248.09 106.692C247.759 106.238 247.588 105.715 247.578 105.121H249.746C249.759 105.37 249.84 105.589 249.989 105.778C250.142 105.963 250.344 106.107 250.596 106.21C250.848 106.313 251.131 106.364 251.446 106.364C251.774 106.364 252.064 106.306 252.316 106.19C252.568 106.074 252.765 105.914 252.908 105.708C253.05 105.503 253.121 105.266 253.121 104.997C253.121 104.725 253.045 104.485 252.893 104.276C252.743 104.064 252.528 103.898 252.246 103.779C251.968 103.66 251.636 103.6 251.252 103.6H250.302V102.019H251.252C251.577 102.019 251.864 101.963 252.112 101.85C252.364 101.737 252.56 101.582 252.699 101.383C252.838 101.181 252.908 100.945 252.908 100.677C252.908 100.422 252.846 100.198 252.724 100.006C252.604 99.8101 252.435 99.6577 252.217 99.5483C252.001 99.4389 251.749 99.3842 251.461 99.3842C251.169 99.3842 250.902 99.4373 250.66 99.5433C250.418 99.6461 250.225 99.7936 250.079 99.9858C249.933 100.178 249.855 100.403 249.845 100.662H247.782C247.792 100.075 247.959 99.5582 248.284 99.1108C248.609 98.6634 249.046 98.3137 249.596 98.0618C250.15 97.8066 250.775 97.679 251.471 97.679C252.173 97.679 252.788 97.8066 253.315 98.0618C253.842 98.317 254.252 98.6617 254.543 99.0959C254.838 99.5268 254.984 100.011 254.981 100.548C254.984 101.118 254.807 101.593 254.449 101.974C254.094 102.356 253.632 102.598 253.062 102.7V102.78C253.811 102.876 254.381 103.136 254.772 103.56C255.166 103.981 255.362 104.508 255.359 105.141C255.362 105.721 255.194 106.237 254.856 106.688C254.522 107.138 254.059 107.493 253.469 107.751C252.879 108.01 252.203 108.139 251.441 108.139ZM256.732 108V106.737L260.471 102.109V102.054H256.861V100.364H263.021V101.741L259.511 106.255V106.31H263.15V108H256.732ZM267.683 101.373V102.546L263.666 103.834V102.661L267.683 101.373ZM266.734 97.8182V108H264.616V97.8182H266.734Z" fill="black" fill-opacity="0.8"/>
<path d="M52.5842 83.1392C51.8418 83.1392 51.1806 83.0116 50.6006 82.7564C50.0238 82.4979 49.5681 82.1432 49.2334 81.6925C48.9019 81.2384 48.7312 80.7147 48.7213 80.1214H50.8889C50.9022 80.37 50.9834 80.5888 51.1325 80.7777C51.285 80.9633 51.4872 81.1075 51.739 81.2102C51.9909 81.313 52.2743 81.3643 52.5892 81.3643C52.9173 81.3643 53.2073 81.3063 53.4592 81.1903C53.7111 81.0743 53.9083 80.9136 54.0508 80.7081C54.1934 80.5026 54.2646 80.2656 54.2646 79.9972C54.2646 79.7254 54.1884 79.4851 54.0359 79.2763C53.8868 79.0642 53.6713 78.8984 53.3896 78.7791C53.1112 78.6598 52.7798 78.6001 52.3953 78.6001H51.4457V77.0192H52.3953C52.7201 77.0192 53.0068 76.9628 53.2554 76.8501C53.5073 76.7375 53.7028 76.5817 53.842 76.3828C53.9812 76.1806 54.0508 75.9453 54.0508 75.6768C54.0508 75.4216 53.9895 75.1979 53.8669 75.0057C53.7476 74.8101 53.5785 74.6577 53.3598 74.5483C53.1443 74.4389 52.8925 74.3842 52.6041 74.3842C52.3124 74.3842 52.0456 74.4373 51.8037 74.5433C51.5617 74.6461 51.3678 74.7936 51.222 74.9858C51.0762 75.178 50.9983 75.4034 50.9883 75.6619H48.9251C48.9351 75.0753 49.1024 74.5582 49.4273 74.1108C49.7521 73.6634 50.1896 73.3137 50.7398 73.0618C51.2933 72.8066 51.918 72.679 52.614 72.679C53.3167 72.679 53.9315 72.8066 54.4585 73.0618C54.9855 73.317 55.3948 73.6617 55.6865 74.0959C55.9815 74.5268 56.1273 75.0107 56.124 75.5476C56.1273 76.1177 55.95 76.5933 55.592 76.9744C55.2374 77.3556 54.775 77.5975 54.205 77.7003V77.7798C54.954 77.8759 55.5241 78.1361 55.9152 78.5604C56.3096 78.9813 56.5051 79.5083 56.5018 80.1413C56.5051 80.7214 56.3378 81.2367 55.9997 81.6875C55.6649 82.1383 55.2026 82.4929 54.6126 82.7514C54.0227 83.0099 53.3465 83.1392 52.5842 83.1392ZM59.685 75.3636L61.087 78.0334L62.5238 75.3636H64.6964L62.484 79.1818L64.756 83H62.5934L61.087 80.3601L59.6055 83H57.418L59.685 79.1818L57.4975 75.3636H59.685ZM71.064 83.1442C70.5768 83.1442 70.1426 83.0597 69.7614 82.8906C69.3803 82.7183 69.0787 82.4647 68.8566 82.13C68.6378 81.7919 68.5285 81.371 68.5285 80.8672C68.5285 80.4429 68.6064 80.0866 68.7621 79.7983C68.9179 79.5099 69.13 79.2779 69.3985 79.1023C69.667 78.9266 69.9719 78.794 70.3133 78.7045C70.658 78.6151 71.0192 78.5521 71.3971 78.5156C71.8412 78.4692 72.1992 78.4261 72.4709 78.3864C72.7427 78.3433 72.9399 78.2803 73.0626 78.1974C73.1852 78.1146 73.2465 77.992 73.2465 77.8295V77.7997C73.2465 77.4848 73.1471 77.2412 72.9482 77.0689C72.7527 76.8965 72.4743 76.8104 72.113 76.8104C71.7318 76.8104 71.4286 76.8949 71.2032 77.0639C70.9778 77.2296 70.8287 77.4384 70.7557 77.6903L68.7969 77.5312C68.8964 77.0672 69.0919 76.6662 69.3836 76.3281C69.6752 75.9867 70.0514 75.7249 70.5121 75.5426C70.9761 75.357 71.5131 75.2642 72.1229 75.2642C72.5472 75.2642 72.9532 75.3139 73.341 75.4134C73.7321 75.5128 74.0784 75.6669 74.38 75.8757C74.685 76.0845 74.9252 76.353 75.1009 76.6811C75.2766 77.0059 75.3644 77.3954 75.3644 77.8494V83H73.3559V81.9411H73.2962C73.1736 82.1797 73.0095 82.3902 72.804 82.5724C72.5985 82.7514 72.3516 82.8923 72.0633 82.995C71.7749 83.0945 71.4418 83.1442 71.064 83.1442ZM71.6705 81.6825C71.9821 81.6825 72.2572 81.6212 72.4958 81.4986C72.7344 81.3726 72.9217 81.2036 73.0576 80.9915C73.1935 80.7794 73.2614 80.5391 73.2614 80.2706V79.4602C73.1951 79.5033 73.104 79.5431 72.988 79.5795C72.8753 79.6127 72.7477 79.6442 72.6052 79.674C72.4627 79.7005 72.3201 79.7254 72.1776 79.7486C72.0351 79.7685 71.9058 79.7867 71.7898 79.8033C71.5413 79.8397 71.3242 79.8977 71.1386 79.9773C70.9529 80.0568 70.8088 80.1645 70.706 80.3004C70.6033 80.433 70.5519 80.5987 70.5519 80.7976C70.5519 81.0859 70.6563 81.3063 70.8651 81.4588C71.0772 81.608 71.3457 81.6825 71.6705 81.6825ZM78.7725 80.8026L78.7775 78.2621H79.0858L81.5318 75.3636H83.9629L80.6767 79.2017H80.1745L78.7725 80.8026ZM76.8535 83V72.8182H78.9714V83H76.8535ZM81.6262 83L79.3791 79.674L80.791 78.1776L84.1071 83H81.6262ZM88.9097 75.3636V76.9545H84.311V75.3636H88.9097ZM85.3551 73.5341H87.473V80.6534C87.473 80.849 87.5028 81.0014 87.5624 81.1108C87.6221 81.2169 87.705 81.2914 87.811 81.3345C87.9204 81.3776 88.0463 81.3991 88.1889 81.3991C88.2883 81.3991 88.3877 81.3909 88.4872 81.3743C88.5866 81.3544 88.6628 81.3395 88.7158 81.3295L89.0489 82.9055C88.9429 82.9387 88.7937 82.9768 88.6015 83.0199C88.4093 83.0663 88.1756 83.0945 87.9005 83.1044C87.3901 83.1243 86.9426 83.0563 86.5582 82.9006C86.177 82.7448 85.8804 82.5028 85.6683 82.1747C85.4561 81.8466 85.3517 81.4323 85.3551 80.9318V73.5341ZM91.4429 85.8636C91.1744 85.8636 90.9225 85.8421 90.6872 85.799C90.4552 85.7592 90.263 85.7079 90.1105 85.6449L90.5878 84.0639C90.8364 84.1402 91.0601 84.1816 91.2589 84.1882C91.4611 84.1948 91.6351 84.1484 91.781 84.049C91.9301 83.9496 92.0511 83.7805 92.1439 83.5419L92.2682 83.2188L89.5288 75.3636H91.7561L93.3371 80.9716H93.4166L95.0125 75.3636H97.2547L94.2866 83.8253C94.1441 84.2363 93.9502 84.5942 93.705 84.8991C93.463 85.2074 93.1564 85.4444 92.7852 85.6101C92.414 85.7791 91.9666 85.8636 91.4429 85.8636ZM99.6909 83L97.6128 75.3636H99.7555L100.939 80.4943H101.008L102.241 75.3636H104.344L105.597 80.4645H105.662L106.825 75.3636H108.963L106.89 83H104.648L103.335 78.1974H103.241L101.928 83H99.6909ZM112.057 78.5852V83H109.939V75.3636H111.957V76.7109H112.047C112.216 76.2668 112.499 75.9155 112.897 75.657C113.295 75.3951 113.777 75.2642 114.344 75.2642C114.874 75.2642 115.336 75.3802 115.731 75.6122C116.125 75.8442 116.432 76.1757 116.65 76.6065C116.869 77.0341 116.978 77.5445 116.978 78.1378V83H114.861V78.5156C114.864 78.0483 114.745 77.6837 114.503 77.4219C114.261 77.1567 113.928 77.0241 113.503 77.0241C113.218 77.0241 112.966 77.0855 112.748 77.2081C112.532 77.3307 112.363 77.5097 112.241 77.745C112.121 77.977 112.06 78.2571 112.057 78.5852ZM121.944 83.1491C121.172 83.1491 120.504 82.9851 119.94 82.657C119.38 82.3255 118.948 81.8648 118.643 81.2749C118.338 80.6816 118.185 79.9938 118.185 79.2116C118.185 78.4228 118.338 77.7334 118.643 77.1435C118.948 76.5502 119.38 76.0895 119.94 75.7614C120.504 75.4299 121.172 75.2642 121.944 75.2642C122.716 75.2642 123.382 75.4299 123.943 75.7614C124.506 76.0895 124.94 76.5502 125.245 77.1435C125.55 77.7334 125.702 78.4228 125.702 79.2116C125.702 79.9938 125.55 80.6816 125.245 81.2749C124.94 81.8648 124.506 82.3255 123.943 82.657C123.382 82.9851 122.716 83.1491 121.944 83.1491ZM121.954 81.5085C122.305 81.5085 122.599 81.4091 122.834 81.2102C123.069 81.008 123.247 80.733 123.366 80.3849C123.488 80.0369 123.55 79.6409 123.55 79.1967C123.55 78.7526 123.488 78.3565 123.366 78.0085C123.247 77.6605 123.069 77.3854 122.834 77.1832C122.599 76.9811 122.305 76.88 121.954 76.88C121.599 76.88 121.301 76.9811 121.059 77.1832C120.82 77.3854 120.64 77.6605 120.517 78.0085C120.398 78.3565 120.338 78.7526 120.338 79.1967C120.338 79.6409 120.398 80.0369 120.517 80.3849C120.64 80.733 120.82 81.008 121.059 81.2102C121.301 81.4091 121.599 81.5085 121.954 81.5085ZM133.279 77.5412L131.34 77.6605C131.307 77.4948 131.236 77.3456 131.127 77.2131C131.017 77.0772 130.873 76.9695 130.694 76.8899C130.518 76.8071 130.308 76.7656 130.063 76.7656C129.735 76.7656 129.458 76.8352 129.232 76.9744C129.007 77.1103 128.894 77.2926 128.894 77.5213C128.894 77.7036 128.967 77.8577 129.113 77.9837C129.259 78.1096 129.509 78.2107 129.864 78.2869L131.246 78.5653C131.988 78.7178 132.542 78.9631 132.906 79.3011C133.271 79.6392 133.453 80.0833 133.453 80.6335C133.453 81.134 133.306 81.5732 133.011 81.951C132.719 82.3288 132.318 82.6238 131.808 82.8359C131.301 83.0447 130.716 83.1491 130.053 83.1491C129.042 83.1491 128.236 82.9387 127.637 82.5178C127.04 82.0935 126.69 81.5168 126.588 80.7876L128.671 80.6783C128.734 80.9865 128.886 81.2218 129.128 81.3842C129.37 81.5433 129.68 81.6229 130.058 81.6229C130.429 81.6229 130.727 81.5516 130.953 81.4091C131.181 81.2633 131.297 81.076 131.301 80.8473C131.297 80.6551 131.216 80.4976 131.057 80.375C130.898 80.2491 130.653 80.1529 130.321 80.0866L128.999 79.8232C128.253 79.674 127.698 79.4155 127.333 79.0476C126.972 78.6797 126.791 78.2107 126.791 77.6406C126.791 77.1501 126.924 76.7275 127.189 76.3729C127.458 76.0182 127.834 75.7448 128.318 75.5526C128.805 75.3603 129.375 75.2642 130.028 75.2642C130.992 75.2642 131.751 75.468 132.305 75.8757C132.862 76.2834 133.186 76.8385 133.279 77.5412ZM129.312 74.3793L130.366 72.1172H132.325L130.808 74.3793H129.312ZM138.083 83.1491C137.301 83.1491 136.628 82.9834 136.065 82.652C135.505 82.3172 135.074 81.8532 134.772 81.2599C134.474 80.6667 134.325 79.9839 134.325 79.2116C134.325 78.4295 134.476 77.7434 134.777 77.1534C135.082 76.5601 135.515 76.0978 136.075 75.7663C136.635 75.4316 137.301 75.2642 138.073 75.2642C138.739 75.2642 139.323 75.3852 139.823 75.6271C140.324 75.8691 140.72 76.2088 141.011 76.6463C141.303 77.0838 141.464 77.5975 141.494 78.1875H139.495C139.439 77.8063 139.29 77.4998 139.048 77.2678C138.809 77.0324 138.496 76.9148 138.108 76.9148C137.78 76.9148 137.493 77.0043 137.248 77.1832C137.006 77.3589 136.817 77.6158 136.681 77.9538C136.545 78.2919 136.477 78.7012 136.477 79.1818C136.477 79.669 136.544 80.0833 136.676 80.4247C136.812 80.7661 137.003 81.0263 137.248 81.2053C137.493 81.3842 137.78 81.4737 138.108 81.4737C138.35 81.4737 138.567 81.424 138.759 81.3246C138.955 81.2251 139.116 81.081 139.242 80.892C139.371 80.6998 139.455 80.4695 139.495 80.201H141.494C141.461 80.7843 141.301 81.2981 141.016 81.7422C140.735 82.183 140.345 82.5277 139.848 82.7763C139.351 83.0249 138.763 83.1491 138.083 83.1491ZM137.318 74.3793L138.372 72.1172H140.33L138.814 74.3793H137.318Z" fill="black" fill-opacity="0.8"/>
<path d="M27.5 13.5136L31.6063 22.9832L31.8412 23.5248L32.4289 23.5808L42.704 24.5599L34.9668 31.3916L34.5242 31.7823L34.6526 32.3586L36.8966 42.4333L28.0084 37.1859L27.5 36.8857L26.9916 37.1859L18.1034 42.4333L20.3474 32.3586L20.4758 31.7823L20.0332 31.3916L12.296 24.5599L22.5711 23.5808L23.1588 23.5248L23.3937 22.9832L27.5 13.5136Z" stroke="white" stroke-width="2"/>
<defs>
<linearGradient id="paint0_linear_512_2733" x1="23.5" y1="14" x2="23.5" y2="45" gradientUnits="userSpaceOnUse">
<stop offset="0.0520833" stop-color="#14AE5C"/>
<stop offset="0.9375" stop-color="#14AE5C"/>
</linearGradient>
</defs>
</svg>
