<svg width="302" height="112" viewBox="0 0 302 112" fill="none" xmlns="http://www.w3.org/2000/svg">
<rect x="121" width="181" height="30" fill="#8FD0FF"/>
<path d="M156.923 19.696C158.645 19.696 159.933 18.66 159.933 16.896C159.933 15.524 159.079 14.586 157.763 14.222L156.657 13.9C155.957 13.676 155.495 13.326 155.495 12.626C155.495 11.814 156.153 11.352 156.909 11.352C157.777 11.352 158.295 11.814 158.435 12.668L159.891 12.654C159.709 11.016 158.701 9.952 156.909 9.952C155.271 9.952 153.969 11.016 153.969 12.724C153.969 13.872 154.613 14.866 156.027 15.286L157.133 15.608C157.959 15.86 158.421 16.224 158.421 16.98C158.421 17.75 157.875 18.282 156.923 18.282C156.069 18.282 155.439 17.89 155.271 16.91L153.773 16.896C153.941 18.702 155.075 19.696 156.923 19.696ZM163.219 19.696C164.045 19.696 164.717 19.318 165.067 18.618H165.137V19.5H166.481V12.822H165.067V16.644C165.067 17.708 164.549 18.38 163.681 18.38C162.869 18.38 162.575 17.862 162.575 17.078V12.822H161.161V17.232C161.161 18.786 161.791 19.696 163.219 19.696ZM175.272 12.626C174.404 12.626 173.662 13.004 173.298 13.76H173.214C172.934 13.046 172.332 12.626 171.38 12.626C170.554 12.626 169.882 13.004 169.532 13.704H169.448V12.822H168.118V19.5H169.532V15.678C169.532 14.614 170.05 13.928 170.918 13.928C171.73 13.928 172.01 14.46 172.01 15.23V19.5H173.438V15.678C173.438 14.544 173.942 13.928 174.824 13.928C175.622 13.928 175.916 14.46 175.916 15.23V19.5H177.344V15.076C177.344 13.522 176.7 12.626 175.272 12.626ZM184.123 18.408C183.899 18.408 183.759 18.268 183.759 17.988V15.174C183.759 13.648 182.905 12.626 181.211 12.626C179.825 12.626 178.859 13.368 178.719 14.684H180.091C180.189 14.138 180.553 13.802 181.197 13.802C182.051 13.802 182.373 14.32 182.373 15.09V15.37H181.953C179.881 15.37 178.523 16.126 178.523 17.68C178.523 18.884 179.251 19.626 180.525 19.626C181.323 19.626 182.037 19.29 182.429 18.66H182.485C182.583 19.332 183.143 19.584 183.689 19.584C183.941 19.584 184.249 19.528 184.445 19.43V18.352C184.333 18.394 184.249 18.408 184.123 18.408ZM180.861 18.534C180.301 18.534 179.895 18.17 179.895 17.582C179.895 16.77 180.609 16.406 181.953 16.406H182.373V16.77C182.373 17.75 181.785 18.534 180.861 18.534ZM193.221 18.408C192.997 18.408 192.857 18.268 192.857 17.988V15.174C192.857 13.648 192.003 12.626 190.309 12.626C188.923 12.626 187.957 13.368 187.817 14.684H189.189C189.287 14.138 189.651 13.802 190.295 13.802C191.149 13.802 191.471 14.32 191.471 15.09V15.37H191.051C188.979 15.37 187.621 16.126 187.621 17.68C187.621 18.884 188.349 19.626 189.623 19.626C190.421 19.626 191.135 19.29 191.527 18.66H191.583C191.681 19.332 192.241 19.584 192.787 19.584C193.039 19.584 193.347 19.528 193.543 19.43V18.352C193.431 18.394 193.347 18.408 193.221 18.408ZM189.959 18.534C189.399 18.534 188.993 18.17 188.993 17.582C188.993 16.77 189.707 16.406 191.051 16.406H191.471V16.77C191.471 17.75 190.883 18.534 189.959 18.534ZM200.088 12.822H198.254L196.07 15.216H195.986V10.148H194.572V19.5H195.986V17.218L196.42 16.77H196.504L198.324 19.5H200.032L197.414 15.678L200.088 12.822ZM203.251 19.598C203.713 19.598 204.105 19.528 204.455 19.36V18.24C204.217 18.296 203.909 18.352 203.643 18.352C203.125 18.352 202.817 18.072 202.817 17.484V14.04H204.609V12.822H202.817V10.498H202.537L201.389 11.618V12.822H200.185V14.04H201.389V17.638C201.389 18.912 202.131 19.598 203.251 19.598ZM209.685 12.822L208.131 17.414H208.047L206.451 12.822H204.925L207.389 19.304L207.151 19.976C206.913 20.578 206.633 20.746 206.171 20.746C205.905 20.746 205.681 20.718 205.471 20.662V21.81C205.765 21.95 206.101 21.992 206.437 21.992C207.417 21.992 208.089 21.404 208.439 20.438L211.211 12.822H209.685ZM219.199 12.822L218.065 17.274H217.981L216.819 12.822H215.279L214.117 17.274H214.033L212.885 12.822H211.471L213.333 19.5H214.803L216.007 15.09H216.091L217.295 19.5H218.751L220.613 12.822H219.199ZM224.835 12.626C224.009 12.626 223.337 13.004 222.987 13.704H222.903V12.822H221.573V19.5H222.987V15.678C222.987 14.614 223.505 13.928 224.373 13.928C225.185 13.928 225.465 14.46 225.465 15.23V19.5H226.893V15.076C226.893 13.522 226.249 12.626 224.835 12.626ZM231.078 19.696C232.94 19.696 234.074 18.31 234.074 16.154C234.074 13.998 232.94 12.626 231.078 12.626C229.216 12.626 228.082 13.998 228.082 16.154C228.082 18.31 229.216 19.696 231.078 19.696ZM231.078 18.38C230.042 18.38 229.538 17.582 229.538 16.154C229.538 14.74 230.042 13.928 231.078 13.928C232.114 13.928 232.618 14.74 232.618 16.154C232.618 17.582 232.114 18.38 231.078 18.38ZM236.551 11.8H237.979L239.379 9.812H237.853L236.551 11.8ZM237.377 19.696C238.819 19.696 239.785 18.87 239.785 17.624C239.785 16.56 239.141 15.93 238.063 15.65L237.195 15.44C236.691 15.3 236.425 15.062 236.425 14.628C236.425 14.152 236.803 13.788 237.391 13.788C237.937 13.788 238.301 14.096 238.385 14.684H239.757C239.617 13.424 238.721 12.64 237.391 12.64C235.949 12.64 235.039 13.536 235.039 14.642C235.039 15.776 235.655 16.336 236.607 16.588L237.475 16.826C237.965 16.966 238.385 17.148 238.385 17.708C238.385 18.212 237.979 18.534 237.377 18.534C236.747 18.534 236.369 18.24 236.257 17.694L234.913 17.68C235.053 18.94 235.921 19.696 237.377 19.696ZM240.653 16.154C240.653 18.324 241.745 19.696 243.579 19.696C245.133 19.696 246.113 18.73 246.309 17.302L244.853 17.316C244.713 18.002 244.279 18.38 243.579 18.38C242.599 18.38 242.095 17.582 242.095 16.154C242.095 14.726 242.599 13.928 243.579 13.928C244.279 13.928 244.713 14.32 244.853 15.02H246.309C246.113 13.606 245.133 12.626 243.579 12.626C241.745 12.626 240.653 13.998 240.653 16.154ZM247.453 11.66H248.867V10.148H247.453V11.66ZM247.453 19.5H248.867V12.822H247.453V19.5ZM250.373 14.656H252.207V12.822H250.373V14.656ZM250.373 19.5H252.207V17.666H250.373V19.5ZM256.037 19.5H261.721V18.156H257.745V18.072L260.279 15.748C261.105 14.992 261.735 14.138 261.735 12.836C261.735 11.142 260.545 9.952 258.823 9.952C256.975 9.952 255.967 11.142 255.841 12.654H257.325C257.437 11.8 257.955 11.324 258.823 11.324C259.677 11.324 260.251 11.996 260.251 12.836C260.251 13.718 259.775 14.264 259.271 14.754L256.037 17.82V19.5ZM262.854 16.994C262.854 18.562 264.044 19.696 265.976 19.696C267.894 19.696 269.084 18.562 269.084 16.994C269.084 15.944 268.58 15.09 267.628 14.726V14.67C268.496 14.306 268.944 13.452 268.944 12.514C268.944 11.072 267.768 9.952 265.976 9.952C264.17 9.952 262.994 11.072 262.994 12.514C262.994 13.452 263.442 14.306 264.31 14.67V14.726C263.358 15.09 262.854 15.944 262.854 16.994ZM264.464 12.682C264.464 11.842 265.108 11.324 265.976 11.324C266.83 11.324 267.488 11.842 267.488 12.682C267.488 13.536 266.83 14.04 265.976 14.04C265.108 14.04 264.464 13.536 264.464 12.682ZM264.338 16.854C264.338 15.93 265.052 15.398 265.976 15.398C266.886 15.398 267.6 15.93 267.6 16.854C267.6 17.778 266.886 18.31 265.976 18.31C265.052 18.31 264.338 17.778 264.338 16.854Z" fill="black" fill-opacity="0.8"/>
<rect x="121" y="41" width="181" height="30" fill="#8FD0FF"/>
<path d="M164.571 60.696C166.293 60.696 167.581 59.66 167.581 57.896C167.581 56.524 166.727 55.586 165.411 55.222L164.305 54.9C163.605 54.676 163.143 54.326 163.143 53.626C163.143 52.814 163.801 52.352 164.557 52.352C165.425 52.352 165.943 52.814 166.083 53.668L167.539 53.654C167.357 52.016 166.349 50.952 164.557 50.952C162.919 50.952 161.617 52.016 161.617 53.724C161.617 54.872 162.261 55.866 163.675 56.286L164.781 56.608C165.607 56.86 166.069 57.224 166.069 57.98C166.069 58.75 165.523 59.282 164.571 59.282C163.717 59.282 163.087 58.89 162.919 57.91L161.421 57.896C161.589 59.702 162.723 60.696 164.571 60.696ZM170.866 60.696C171.692 60.696 172.364 60.318 172.714 59.618H172.784V60.5H174.128V53.822H172.714V57.644C172.714 58.708 172.196 59.38 171.328 59.38C170.516 59.38 170.222 58.862 170.222 58.078V53.822H168.808V58.232C168.808 59.786 169.438 60.696 170.866 60.696ZM182.919 53.626C182.051 53.626 181.309 54.004 180.945 54.76H180.861C180.581 54.046 179.979 53.626 179.027 53.626C178.201 53.626 177.529 54.004 177.179 54.704H177.095V53.822H175.765V60.5H177.179V56.678C177.179 55.614 177.697 54.928 178.565 54.928C179.377 54.928 179.657 55.46 179.657 56.23V60.5H181.085V56.678C181.085 55.544 181.589 54.928 182.471 54.928C183.269 54.928 183.563 55.46 183.563 56.23V60.5H184.991V56.076C184.991 54.522 184.347 53.626 182.919 53.626ZM191.771 59.408C191.547 59.408 191.407 59.268 191.407 58.988V56.174C191.407 54.648 190.553 53.626 188.859 53.626C187.473 53.626 186.507 54.368 186.367 55.684H187.739C187.837 55.138 188.201 54.802 188.845 54.802C189.699 54.802 190.021 55.32 190.021 56.09V56.37H189.601C187.529 56.37 186.171 57.126 186.171 58.68C186.171 59.884 186.899 60.626 188.173 60.626C188.971 60.626 189.685 60.29 190.077 59.66H190.133C190.231 60.332 190.791 60.584 191.337 60.584C191.589 60.584 191.897 60.528 192.093 60.43V59.352C191.981 59.394 191.897 59.408 191.771 59.408ZM188.509 59.534C187.949 59.534 187.543 59.17 187.543 58.582C187.543 57.77 188.257 57.406 189.601 57.406H190.021V57.77C190.021 58.75 189.433 59.534 188.509 59.534ZM198.993 53.626C198.083 53.626 197.425 54.088 197.075 54.774H196.977V53.822H195.647V62.852H197.061V59.688H197.145C197.523 60.29 198.139 60.696 198.993 60.696C200.659 60.696 201.597 59.338 201.597 57.154C201.597 54.984 200.659 53.626 198.993 53.626ZM198.601 59.38C197.565 59.38 197.061 58.568 197.061 57.154C197.061 55.754 197.565 54.928 198.601 54.928C199.651 54.928 200.155 55.74 200.155 57.154C200.155 58.568 199.651 59.38 198.601 59.38ZM205.928 53.724C205.214 53.724 204.612 54.06 204.29 54.718H204.206V53.822H202.876V60.5H204.29V56.762C204.29 55.628 204.794 55.068 205.942 55.068C206.068 55.068 206.236 55.068 206.418 55.096V53.794C206.278 53.738 206.11 53.724 205.928 53.724ZM212.554 57C212.554 54.928 211.448 53.626 209.74 53.626C207.934 53.626 206.828 54.942 206.828 57.154C206.828 59.408 207.976 60.696 209.726 60.696C211.126 60.696 212.162 59.94 212.484 58.68H211.014C210.804 59.198 210.37 59.478 209.726 59.478C208.858 59.478 208.27 58.932 208.2 57.49H212.54C212.554 57.364 212.554 57.182 212.554 57ZM209.74 54.858C210.524 54.858 211.084 55.306 211.196 56.398H208.228C208.396 55.306 208.928 54.858 209.74 54.858ZM220.974 53.626C220.106 53.626 219.364 54.004 219 54.76H218.916C218.636 54.046 218.034 53.626 217.082 53.626C216.256 53.626 215.584 54.004 215.234 54.704H215.15V53.822H213.82V60.5H215.234V56.678C215.234 55.614 215.752 54.928 216.62 54.928C217.432 54.928 217.712 55.46 217.712 56.23V60.5H219.14V56.678C219.14 55.544 219.644 54.928 220.526 54.928C221.324 54.928 221.618 55.46 221.618 56.23V60.5H223.046V56.076C223.046 54.522 222.402 53.626 220.974 53.626ZM224.603 52.66H226.017V51.148H224.603V52.66ZM224.603 60.5H226.017V53.822H224.603V60.5ZM227.635 52.66H229.049V51.148H227.635V52.66ZM227.635 60.5H229.049V53.822H227.635V60.5ZM230.554 55.656H232.388V53.822H230.554V55.656ZM230.554 60.5H232.388V58.666H230.554V60.5ZM239.733 54.914V54.858L241.973 52.828V51.148H236.205V52.492H240.349V52.576L237.927 54.83V56.132H238.907C240.041 56.132 240.699 56.776 240.699 57.728C240.699 58.68 239.999 59.324 239.033 59.324C238.207 59.324 237.591 58.848 237.479 58.092H235.981C236.093 59.506 237.101 60.696 239.033 60.696C240.909 60.696 242.183 59.506 242.183 57.714C242.183 56.174 241.245 55.152 239.733 54.914ZM246.224 50.952C244.25 50.952 242.976 52.464 242.976 54.116C242.976 55.768 244.194 57.28 246.084 57.28C246.21 57.28 246.336 57.266 246.462 57.252V57.266L246.504 57.252L243.984 60.5H245.734L248.226 57.266C248.94 56.342 249.472 55.32 249.472 54.116C249.472 52.464 248.184 50.952 246.224 50.952ZM244.446 54.116C244.446 53.164 245.132 52.324 246.224 52.324C247.33 52.324 248.016 53.164 248.016 54.116C248.016 55.082 247.33 55.908 246.224 55.908C245.132 55.908 244.446 55.082 244.446 54.116ZM254.299 59.268V59.184L257.337 55.306V53.822H252.913V55.04H255.811V55.124L252.773 59.016V60.5H257.393V59.268H254.299ZM261.532 55.474V53.92L260.426 54.746V51.148H259.012V55.712L258.102 56.412V57.966L259.012 57.266V59.044C259.012 60.052 259.572 60.598 260.566 60.598C260.888 60.598 261.182 60.528 261.392 60.444V59.296C261.238 59.338 261.056 59.366 260.888 59.366C260.608 59.366 260.426 59.184 260.426 58.848V56.3L261.532 55.474Z" fill="black" fill-opacity="0.8"/>
<rect x="121" y="82" width="181" height="30" fill="#8FD0FF"/>
<path d="M157.366 101.182C158.965 101.182 160.161 100.22 160.161 98.582C160.161 97.308 159.368 96.437 158.146 96.099L157.119 95.8C156.469 95.592 156.04 95.267 156.04 94.617C156.04 93.863 156.651 93.434 157.353 93.434C158.159 93.434 158.64 93.863 158.77 94.656L160.122 94.643C159.953 93.122 159.017 92.134 157.353 92.134C155.832 92.134 154.623 93.122 154.623 94.708C154.623 95.774 155.221 96.697 156.534 97.087L157.561 97.386C158.328 97.62 158.757 97.958 158.757 98.66C158.757 99.375 158.25 99.869 157.366 99.869C156.573 99.869 155.988 99.505 155.832 98.595L154.441 98.582C154.597 100.259 155.65 101.182 157.366 101.182ZM163.211 101.182C163.978 101.182 164.602 100.831 164.927 100.181H164.992V101H166.24V94.799H164.927V98.348C164.927 99.336 164.446 99.96 163.64 99.96C162.886 99.96 162.613 99.479 162.613 98.751V94.799H161.3V98.894C161.3 100.337 161.885 101.182 163.211 101.182ZM174.403 94.617C173.597 94.617 172.908 94.968 172.57 95.67H172.492C172.232 95.007 171.673 94.617 170.789 94.617C170.022 94.617 169.398 94.968 169.073 95.618H168.995V94.799H167.76V101H169.073V97.451C169.073 96.463 169.554 95.826 170.36 95.826C171.114 95.826 171.374 96.32 171.374 97.035V101H172.7V97.451C172.7 96.398 173.168 95.826 173.987 95.826C174.728 95.826 175.001 96.32 175.001 97.035V101H176.327V96.892C176.327 95.449 175.729 94.617 174.403 94.617ZM182.622 99.986C182.414 99.986 182.284 99.856 182.284 99.596V96.983C182.284 95.566 181.491 94.617 179.918 94.617C178.631 94.617 177.734 95.306 177.604 96.528H178.878C178.969 96.021 179.307 95.709 179.905 95.709C180.698 95.709 180.997 96.19 180.997 96.905V97.165H180.607C178.683 97.165 177.422 97.867 177.422 99.31C177.422 100.428 178.098 101.117 179.281 101.117C180.022 101.117 180.685 100.805 181.049 100.22H181.101C181.192 100.844 181.712 101.078 182.219 101.078C182.453 101.078 182.739 101.026 182.921 100.935V99.934C182.817 99.973 182.739 99.986 182.622 99.986ZM179.593 100.103C179.073 100.103 178.696 99.765 178.696 99.219C178.696 98.465 179.359 98.127 180.607 98.127H180.997V98.465C180.997 99.375 180.451 100.103 179.593 100.103ZM187.262 99.856V99.778L190.083 96.177V94.799H185.975V95.93H188.666V96.008L185.845 99.622V101H190.135V99.856H187.262ZM196.749 94.617C195.969 94.617 195.384 94.994 195.046 95.553H194.955V92.316H193.629V101H194.877V100.103H194.955C195.293 100.753 195.904 101.182 196.749 101.182C198.283 101.182 199.167 99.921 199.167 97.893C199.167 95.878 198.283 94.617 196.749 94.617ZM196.385 99.96C195.423 99.96 194.942 99.206 194.942 97.893C194.942 96.593 195.423 95.826 196.385 95.826C197.36 95.826 197.815 96.58 197.815 97.893C197.815 99.219 197.36 99.96 196.385 99.96ZM202.785 101.182C204.514 101.182 205.567 99.895 205.567 97.893C205.567 95.891 204.514 94.617 202.785 94.617C201.056 94.617 200.003 95.891 200.003 97.893C200.003 99.895 201.056 101.182 202.785 101.182ZM202.785 99.96C201.823 99.96 201.355 99.219 201.355 97.893C201.355 96.58 201.823 95.826 202.785 95.826C203.747 95.826 204.215 96.58 204.215 97.893C204.215 99.219 203.747 99.96 202.785 99.96ZM209.766 94.617C208.999 94.617 208.375 94.968 208.05 95.618H207.972V94.799H206.737V101H208.05V97.451C208.05 96.463 208.531 95.826 209.337 95.826C210.091 95.826 210.351 96.32 210.351 97.035V101H211.677V96.892C211.677 95.449 211.079 94.617 209.766 94.617ZM214.978 101.182C215.745 101.182 216.369 100.831 216.694 100.181H216.759V101H218.007V94.799H216.694V98.348C216.694 99.336 216.213 99.96 215.407 99.96C214.653 99.96 214.38 99.479 214.38 98.751V94.799H213.067V98.894C213.067 100.337 213.652 101.182 214.978 101.182ZM221.425 101.182C222.764 101.182 223.661 100.415 223.661 99.258C223.661 98.27 223.063 97.685 222.062 97.425L221.256 97.23C220.788 97.1 220.541 96.879 220.541 96.476C220.541 96.034 220.892 95.696 221.438 95.696C221.945 95.696 222.283 95.982 222.361 96.528H223.635C223.505 95.358 222.673 94.63 221.438 94.63C220.099 94.63 219.254 95.462 219.254 96.489C219.254 97.542 219.826 98.062 220.71 98.296L221.516 98.517C221.971 98.647 222.361 98.816 222.361 99.336C222.361 99.804 221.984 100.103 221.425 100.103C220.84 100.103 220.489 99.83 220.385 99.323L219.137 99.31C219.267 100.48 220.073 101.182 221.425 101.182ZM226.443 93.85H227.769L229.069 92.004H227.652L226.443 93.85ZM227.236 101.182C228.965 101.182 230.018 99.895 230.018 97.893C230.018 95.891 228.965 94.617 227.236 94.617C225.507 94.617 224.454 95.891 224.454 97.893C224.454 99.895 225.507 101.182 227.236 101.182ZM227.236 99.96C226.274 99.96 225.806 99.219 225.806 97.893C225.806 96.58 226.274 95.826 227.236 95.826C228.198 95.826 228.666 96.58 228.666 97.893C228.666 99.219 228.198 99.96 227.236 99.96ZM237.676 94.799L236.623 98.933H236.545L235.466 94.799H234.036L232.957 98.933H232.879L231.813 94.799H230.5L232.229 101H233.594L234.712 96.905H234.79L235.908 101H237.26L238.989 94.799H237.676ZM239.776 96.502H241.479V94.799H239.776V96.502ZM239.776 101H241.479V99.297H239.776V101ZM250.002 97.88V92.316H248.741L244.711 97.516V99.128H248.663V101H250.002V99.128H250.964V97.88H250.002ZM245.998 97.88V97.815L248.585 94.539H248.663V97.88H245.998ZM251.837 101H257.115V99.752H253.423V99.674L255.776 97.516C256.543 96.814 257.128 96.021 257.128 94.812C257.128 93.239 256.023 92.134 254.424 92.134C252.708 92.134 251.772 93.239 251.655 94.643H253.033C253.137 93.85 253.618 93.408 254.424 93.408C255.217 93.408 255.75 94.032 255.75 94.812C255.75 95.631 255.308 96.138 254.84 96.593L251.837 99.44V101ZM261.8 99.856V99.778L264.621 96.177V94.799H260.513V95.93H263.204V96.008L260.383 99.622V101H264.673V99.856H261.8ZM268.515 96.333V94.89L267.488 95.657V92.316H266.175V96.554L265.33 97.204V98.647L266.175 97.997V99.648C266.175 100.584 266.695 101.091 267.618 101.091C267.917 101.091 268.19 101.026 268.385 100.948V99.882C268.242 99.921 268.073 99.947 267.917 99.947C267.657 99.947 267.488 99.778 267.488 99.466V97.1L268.515 96.333Z" fill="black" fill-opacity="0.8"/>
<rect width="110" height="112" fill="#FF0074"/>
<path d="M30.2891 44V33.3359H32.5781V37.3672L35.75 33.3359H38.3047L34.6719 37.7344L38.6016 44H36.0391L33.2266 39.5L32.5781 40.2812V44H30.2891ZM43.4062 33.0938C43.9948 33.0938 44.5312 33.1927 45.0156 33.3906C46.0052 33.8021 46.7604 34.5286 47.2812 35.5703C47.7135 36.4401 47.9297 37.474 47.9297 38.6719C47.9297 39.3542 47.8542 40 47.7031 40.6094C47.4115 41.7969 46.8464 42.7214 46.0078 43.3828C45.2734 43.9661 44.4062 44.2578 43.4062 44.2578C42.6979 44.2578 42.0547 44.1146 41.4766 43.8281C40.5078 43.349 39.7917 42.5521 39.3281 41.4375C39 40.651 38.8359 39.7031 38.8359 38.5938C38.8359 36.8958 39.2812 35.5417 40.1719 34.5312C41.0156 33.5729 42.0938 33.0938 43.4062 33.0938ZM43.3906 35.0469C43.0573 35.0469 42.763 35.1224 42.5078 35.2734C42.0391 35.5495 41.6823 36.0312 41.4375 36.7188C41.2292 37.3073 41.125 37.9375 41.125 38.6094C41.125 39.099 41.1771 39.5859 41.2812 40.0703C41.4583 40.888 41.7604 41.4766 42.1875 41.8359C42.5677 42.1484 42.9766 42.3047 43.4141 42.3047C43.7266 42.3047 44.0208 42.224 44.2969 42.0625C44.5781 41.8958 44.8047 41.6693 44.9766 41.3828C45.4193 40.6484 45.6406 39.7344 45.6406 38.6406C45.6406 37.6094 45.4375 36.7422 45.0312 36.0391C44.6458 35.3776 44.099 35.0469 43.3906 35.0469ZM49.7422 44V33.3359L52.0547 33.3281L55.3984 40.1953V33.3359H57.5938V44H55.3047L51.9375 37.1484V44H49.7422ZM59.9141 44V33.3359H62.2031V44H59.9141ZM64.5234 44V33.3359H71.3281V35.2891H66.8125V37.5703H70.9375V39.4297H66.8125V42.0469H71.4219V44H64.5234ZM79.0781 39.8672H81.3672C81.2839 40.9974 80.9661 41.9427 80.4141 42.7031C79.6589 43.7396 78.5964 44.2578 77.2266 44.2578C75.9297 44.2578 74.901 43.8125 74.1406 42.9219C73.2188 41.8333 72.7578 40.4245 72.7578 38.6953C72.7578 37.7943 72.8958 36.9531 73.1719 36.1719C73.5469 35.1302 74.1432 34.3281 74.9609 33.7656C75.6224 33.3177 76.3958 33.0938 77.2812 33.0938C78.6823 33.0938 79.7734 33.6562 80.5547 34.7812C80.9974 35.4219 81.2474 36.1354 81.3047 36.9219L79.0391 36.9297C78.9714 36.513 78.8594 36.1745 78.7031 35.9141C78.3698 35.3359 77.8854 35.0469 77.25 35.0469C76.5417 35.0469 76 35.3828 75.625 36.0547C75.2396 36.7526 75.0469 37.625 75.0469 38.6719C75.0469 39.7344 75.2474 40.6198 75.6484 41.3281C76.013 41.9792 76.5391 42.3047 77.2266 42.3047C77.763 42.3047 78.1823 42.1068 78.4844 41.7109C78.7865 41.3099 78.9844 40.6953 79.0781 39.8672ZM27.8594 57.8828H30.1641C30.2266 58.2995 30.3229 58.6094 30.4531 58.8125C30.724 59.2292 31.1146 59.4375 31.625 59.4375C32.0365 59.4375 32.3698 59.3151 32.625 59.0703C32.8802 58.8255 33.0078 58.5052 33.0078 58.1094C33.0078 57.6979 32.8333 57.349 32.4844 57.0625C32.3385 56.9427 32.1875 56.849 32.0312 56.7812C31.8802 56.7083 31.5573 56.5833 31.0625 56.4062C30.1875 56.099 29.5547 55.7917 29.1641 55.4844C28.388 54.8698 28 54.0651 28 53.0703C28 52.2161 28.2708 51.5208 28.8125 50.9844C29.4167 50.3906 30.2526 50.0938 31.3203 50.0938C31.8307 50.0938 32.3099 50.1667 32.7578 50.3125C33.3776 50.5208 33.8698 50.862 34.2344 51.3359C34.599 51.8099 34.8333 52.4141 34.9375 53.1484H32.7031C32.651 52.737 32.5208 52.4375 32.3125 52.25C32.0625 52.0312 31.7266 51.9219 31.3047 51.9219C30.9297 51.9219 30.6354 52.0182 30.4219 52.2109C30.2135 52.3984 30.1094 52.6615 30.1094 53C30.1094 53.375 30.2474 53.6719 30.5234 53.8906C30.8047 54.1094 31.3594 54.3542 32.1875 54.625C33.0885 54.9167 33.7865 55.2578 34.2812 55.6484C35 56.2214 35.3594 56.9922 35.3594 57.9609C35.3594 58.9297 35.026 59.7161 34.3594 60.3203C33.6667 60.9453 32.7422 61.2578 31.5859 61.2578C30.2057 61.2578 29.1771 60.7396 28.5 59.7031C28.1562 59.1719 27.9427 58.5651 27.8594 57.8828ZM37.0078 61V50.3359H43.8125V52.2891H39.2969V54.5703H43.4219V56.4297H39.2969V59.0469H43.9062V61H37.0078ZM45.1953 61V59.1406L49.9844 52.2891H45.5391V50.3359H52.7578V52.0703L47.9141 59.0156H52.8984V61H45.1953ZM58.3594 50.0938C58.9479 50.0938 59.4844 50.1927 59.9688 50.3906C60.9583 50.8021 61.7135 51.5286 62.2344 52.5703C62.6667 53.4401 62.8828 54.474 62.8828 55.6719C62.8828 56.3542 62.8073 57 62.6562 57.6094C62.3646 58.7969 61.7995 59.7214 60.9609 60.3828C60.2266 60.9661 59.3594 61.2578 58.3594 61.2578C57.651 61.2578 57.0078 61.1146 56.4297 60.8281C55.4609 60.349 54.7448 59.5521 54.2812 58.4375C53.9531 57.651 53.7891 56.7031 53.7891 55.5938C53.7891 53.8958 54.2344 52.5417 55.125 51.5312C55.9688 50.5729 57.0469 50.0938 58.3594 50.0938ZM58.3438 52.0469C58.0104 52.0469 57.7161 52.1224 57.4609 52.2734C56.9922 52.5495 56.6354 53.0312 56.3906 53.7188C56.1823 54.3073 56.0781 54.9375 56.0781 55.6094C56.0781 56.099 56.1302 56.5859 56.2344 57.0703C56.4115 57.888 56.7135 58.4766 57.1406 58.8359C57.5208 59.1484 57.9297 59.3047 58.3672 59.3047C58.6797 59.3047 58.974 59.224 59.25 59.0625C59.5312 58.8958 59.7578 58.6693 59.9297 58.3828C60.3724 57.6484 60.5938 56.7344 60.5938 55.6406C60.5938 54.6094 60.3906 53.7422 59.9844 53.0391C59.599 52.3776 59.0521 52.0469 58.3438 52.0469ZM64.6953 61V50.3359L67.0078 50.3281L70.3516 57.1953V50.3359H72.5469V61H70.2578L66.8906 54.1484V61H64.6953ZM74.7031 50.3359H76.8984V56.5469C76.8984 57.5625 77.0391 58.2708 77.3203 58.6719C77.6224 59.0938 78.0859 59.3047 78.7109 59.3047C79.388 59.3047 79.849 59.0156 80.0938 58.4375C80.2656 58.0417 80.3516 57.4089 80.3516 56.5391V50.3359H82.6406V56.4219C82.6406 57.3802 82.5729 58.1068 82.4375 58.6016C82.2031 59.4505 81.7812 60.1068 81.1719 60.5703C80.5677 61.0286 79.7318 61.2578 78.6641 61.2578C77.1328 61.2578 76.0365 60.7422 75.375 59.7109C75.1302 59.3255 74.9557 58.8828 74.8516 58.3828C74.7526 57.8828 74.7031 57.2188 74.7031 56.3906V50.3359ZM20.6172 78V67.3359H22.3672V71.8672L26.0625 67.3359H28.1094L24.3828 71.7422L28.3359 78H26.3203L23.25 73.0859L22.3672 74.1328V78H20.6172ZM31.5078 78L29.1484 67.3359H30.9297L32.4609 75.5781L34.1641 67.3359H35.9297L37.6094 75.5938L39.1719 67.3359H40.9219L38.5156 78H36.7266L35.0234 69.7578L33.3125 78H31.5078ZM44.4062 67.3359H46.2422L49.6641 78H47.8203L46.9844 75.1406H43.6172L42.7734 78H40.9688L44.4062 67.3359ZM44.0312 73.7344H46.5703L45.3125 69.4219L44.0312 73.7344ZM51.3672 78V67.3359H55.3125C55.8698 67.3359 56.3255 67.388 56.6797 67.4922C57.0391 67.5964 57.3594 67.7708 57.6406 68.0156C58.2812 68.5677 58.6016 69.3229 58.6016 70.2812C58.6016 71.5833 58.026 72.4609 56.875 72.9141C57.3177 73.0391 57.6458 73.2474 57.8594 73.5391C58.026 73.7682 58.1458 74.0156 58.2188 74.2812C58.2969 74.5469 58.3568 74.9349 58.3984 75.4453C58.4766 76.4193 58.5417 77.0339 58.5938 77.2891C58.651 77.5391 58.7656 77.776 58.9375 78H57.0859C56.9922 77.8125 56.9271 77.6276 56.8906 77.4453C56.8594 77.2578 56.8307 76.9141 56.8047 76.4141C56.763 75.7266 56.7057 75.2214 56.6328 74.8984C56.5599 74.5703 56.4401 74.3021 56.2734 74.0938C56.0078 73.7604 55.4766 73.5938 54.6797 73.5938H53.125V78H51.3672ZM53.125 72.2266H54.6719C55.4219 72.2266 55.9349 72.1276 56.2109 71.9297C56.6328 71.6328 56.8438 71.151 56.8438 70.4844C56.8438 69.8958 56.6875 69.4688 56.375 69.2031C56.0625 68.9375 55.5625 68.8047 54.875 68.8047H53.125V72.2266ZM62.9297 78V68.8438H60.1484V67.3359H67.4609V68.8438H64.6875V78H62.9297ZM70.6406 67.3359H72.4766L75.8984 78H74.0547L73.2188 75.1406H69.8516L69.0078 78H67.2031L70.6406 67.3359ZM70.2656 73.7344H72.8047L71.5469 69.4219L70.2656 73.7344ZM76.125 74.8281V73.3203L77.1016 72.5938V67.3359H78.8594V71.4375L80.7656 70.0469V71.5547L78.8594 72.9453V76.4922H83.2734V78H77.1016V74.1094L76.125 74.8281ZM87.3438 78V70.1641C87.1042 70.3516 86.8672 70.4766 86.6328 70.5391C86.3984 70.6016 86.0417 70.6354 85.5625 70.6406V69.3203C86.25 69.2995 86.7474 69.1484 87.0547 68.8672C87.362 68.5859 87.5911 68.0755 87.7422 67.3359H88.9766V78H87.3438Z" fill="white"/>
</svg>
